<svg width="563" height="328" viewBox="0 0 563 328" fill="none" xmlns="http://www.w3.org/2000/svg">
<g clip-path="url(#clip0)">
<path d="M246.704 318.584L10.3243 181.824C-3.14457 173.977 -3.14457 154.696 10.3243 146.849L248.05 9.41627C267.805 -2.01777 291.824 -2.01777 311.579 9.41627L552.448 148.643C565.467 156.041 565.467 174.874 552.448 182.272L316.742 318.584C294.967 331.139 268.478 331.139 246.704 318.584Z" fill="black"/>
<path d="M10.1012 165.456L248.276 28.2477C268.031 16.8137 292.275 16.8137 312.029 28.2477L553.347 167.25C556.49 169.043 558.734 171.51 560.306 174.2C565.469 165.456 563.224 153.35 553.347 147.52L312.029 8.5184C292.275 -2.91564 268.031 -2.91564 248.276 8.5184L10.1012 145.727C-0.000439305 151.556 -2.46974 163.887 2.46886 172.855C4.26471 169.94 6.73401 167.25 10.1012 165.456Z" fill="url(#paint0_linear)"/>
<path d="M170.605 95.5079V149.315C170.605 152.005 171.952 154.472 174.422 156.041L266.235 209.176C274.54 214.108 284.867 214.108 293.397 209.176L384.761 156.265C387.455 154.696 389.251 152.005 389.026 149.315V95.5079H170.605Z" fill="url(#paint1_linear)"/>
<path d="M266.459 154.696L174.646 101.785C169.483 98.8708 169.483 91.2481 174.646 88.3336L266.908 34.9747C274.54 30.4908 283.968 30.4908 291.601 34.9747L384.985 89.0062C389.924 91.9207 389.924 99.095 384.985 102.01L293.397 154.696C285.091 159.628 274.765 159.628 266.459 154.696Z" fill="url(#paint2_linear)"/>
<path opacity="0.43" d="M323.028 67.0349L311.804 60.5331C310.682 59.8606 309.335 59.8606 308.213 60.5331L293.846 68.8284L306.417 76.2269H311.804L323.028 69.2768C323.926 68.8284 323.926 67.4832 323.028 67.0349Z" fill="#0C25BA"/>
<path d="M319.886 60.9816V67.9317C319.886 68.38 319.662 68.6042 319.437 68.8284L307.54 75.7785C306.417 76.4511 305.07 76.4511 303.948 75.7785L292.051 68.8284C291.602 68.6042 291.602 68.38 291.602 67.9317V60.9816H319.886Z" fill="url(#paint3_linear)"/>
<path d="M307.315 68.8284L319.212 61.8783C319.886 61.4299 319.886 60.5332 319.212 60.0848L307.315 53.1347C306.417 52.4621 305.07 52.4621 304.172 53.1347L292.05 60.0848C291.377 60.5332 291.377 61.4299 292.05 61.8783L303.947 68.8284C304.845 69.2768 306.192 69.2768 307.315 68.8284Z" fill="white"/>
<path d="M225.379 87.8852V96.4046C225.379 96.853 225.154 97.3014 224.705 97.5256L210.339 105.821C208.992 106.494 207.42 106.494 206.073 105.821L191.707 97.5256C191.258 97.3014 191.033 96.853 191.033 96.4046V87.8852H225.379Z" fill="url(#paint4_linear)"/>
<path d="M210.339 97.0772L224.706 88.7819C225.604 88.3336 225.604 87.2126 224.706 86.7642L210.339 78.4689C209.216 77.7963 207.645 77.7963 206.523 78.4689L191.931 86.9884C191.033 87.4368 191.033 88.5578 191.931 89.0062L206.298 97.3014C207.421 97.974 209.216 97.974 210.339 97.0772Z" fill="white"/>
<path d="M227.175 76.4511L211.685 67.4833C211.236 67.2591 211.236 67.0349 211.236 66.8107C211.236 66.3623 211.461 66.1381 211.91 65.9139L217.522 62.7751C218.42 62.3267 219.542 62.3267 220.216 62.7751L235.705 71.743C236.154 71.9672 236.154 72.1914 236.154 72.4156C236.154 72.864 235.929 73.0882 235.48 73.3124L229.868 76.4511C229.419 76.6753 228.746 76.8995 228.297 76.8995C228.072 76.8995 227.623 76.6753 227.175 76.4511ZM217.522 62.7751L211.91 65.9139C211.461 66.1381 211.236 66.3623 211.236 66.5865C211.236 66.8107 211.461 67.0349 211.685 67.2591L227.175 76.2269C227.848 76.6753 228.97 76.4511 229.644 76.2269L235.256 73.0882C235.705 72.864 235.929 72.6398 235.929 72.4156C235.929 72.1914 235.705 71.9672 235.48 71.743L219.991 62.7751C219.767 62.5509 219.318 62.5509 218.869 62.5509C218.644 62.3267 217.971 62.5509 217.522 62.7751Z" fill="url(#paint5_linear)"/>
<path d="M222.238 68.8284C222.463 68.6042 223.136 68.6042 223.361 68.8284C223.585 69.0526 223.585 69.7252 223.361 69.9494L222.463 70.8462C222.238 71.0704 221.565 71.0704 221.34 70.8462C221.116 70.622 221.116 69.9494 221.34 69.7252L222.238 68.8284Z" fill="#FF969B"/>
<path d="M218.195 67.9317C218.42 67.7075 219.093 67.7075 219.318 67.9317C219.542 68.1559 219.542 68.8285 219.318 69.0526L218.42 69.9494C218.195 70.1736 217.522 70.1736 217.297 69.9494C217.073 69.7252 217.073 69.0527 217.297 68.8285L218.195 67.9317Z" fill="#FF969B"/>
<path d="M218.195 70.3978C217.072 71.0704 216.175 71.5188 215.052 72.1914C214.154 72.6398 213.032 73.5366 211.909 73.5366C210.562 73.5366 210.113 72.4156 209.44 71.2946C208.767 70.1736 208.093 69.2768 207.195 68.1559C206.746 67.2591 208.093 66.5865 208.767 67.2591C209.216 67.9317 209.889 68.8285 210.338 69.501C210.787 70.1736 211.46 71.743 212.358 71.5188C213.256 71.2946 214.379 70.3978 215.052 69.9494C215.726 69.501 216.623 69.0526 217.297 68.6043C218.419 68.3801 219.093 69.7252 218.195 70.3978Z" fill="url(#paint6_linear)"/>
<path d="M213.706 77.5721C211.237 78.6931 208.992 80.2625 206.523 81.6077C204.951 82.5045 206.298 84.7464 207.87 83.8496C209.89 82.7287 211.91 81.6077 214.155 80.2625C214.38 80.2625 214.38 80.0383 214.604 80.0383C214.604 79.8141 214.829 79.8141 215.053 79.8141C214.829 79.8141 214.829 79.8141 214.604 80.0383C214.604 80.0383 214.604 80.2625 214.829 80.4867C214.829 80.4867 214.829 80.4867 214.829 80.7109L218.196 82.5044C217.747 79.3657 216.4 76.2269 213.706 77.5721Z" fill="url(#paint7_linear)"/>
<path d="M214.604 80.2625C214.828 80.2625 214.828 80.0383 215.053 80.0383C214.828 80.0383 214.604 80.0383 214.604 80.2625Z" fill="#2A4280"/>
<path d="M207.869 60.0848C208.093 60.0848 208.318 59.8606 208.542 59.8606C208.767 59.6364 208.767 59.4122 208.767 59.4122C208.991 58.9638 209.665 59.4122 210.114 59.188L210.338 58.9638C210.787 58.7396 211.011 59.4122 211.46 59.4122H211.685C211.685 59.4122 211.909 59.4122 211.909 59.6364C212.134 59.8606 212.134 60.0848 212.358 60.309C212.358 60.309 212.583 60.309 212.583 60.5332V60.7574C212.583 60.9816 212.583 61.4299 212.358 61.6541C212.358 61.8783 212.358 61.8783 212.134 62.1025C211.909 62.3267 211.685 62.7751 211.46 62.9993L211.236 63.2235V63.6719C211.236 63.6719 211.236 63.8961 211.011 63.8961C211.011 63.8961 211.011 63.8961 211.011 63.6719C211.011 63.2235 210.787 62.9993 210.787 62.9993C210.563 62.9993 210.563 63.2235 210.563 63.6719C210.563 63.8961 210.563 64.1203 210.563 64.1203C210.338 64.3445 210.338 64.5687 210.114 64.7929C209.889 65.0171 209.44 65.4655 209.216 65.2413C209.216 65.2413 209.216 65.2413 208.991 65.0171L208.767 64.7929C208.767 64.7929 208.767 64.7929 208.542 64.7929C208.542 64.7929 208.542 64.5687 208.318 64.5687C208.093 64.3445 207.869 64.3445 207.869 64.1203C207.869 63.8961 207.869 63.8961 207.869 63.6719C207.869 63.4477 207.42 63.4477 207.42 63.2235C207.42 62.9993 207.42 62.7751 207.42 62.5509C207.42 62.1025 207.42 61.8783 207.195 61.4299C207.42 60.5332 207.644 60.309 207.869 60.0848Z" fill="#212D60"/>
<path d="M209.217 64.7929C209.441 65.0171 209.89 64.7929 210.115 64.3445C210.339 64.1203 210.339 63.8961 210.564 63.6719C210.564 63.6719 210.564 63.4477 210.564 63.2235C210.564 62.7751 210.788 62.5509 210.788 62.5509C211.013 62.5509 211.013 62.7751 211.013 63.2235C211.013 63.2235 211.013 63.2235 211.013 63.4477C211.237 63.4477 211.237 63.4477 211.237 63.2235V62.7751L211.461 62.5509C211.686 62.3267 211.91 62.1025 212.135 61.6541V63.2235C212.135 64.1203 211.461 65.0171 210.339 65.2413C210.339 65.9139 210.339 66.5865 210.339 67.0349C210.339 67.7075 208.992 67.7075 208.992 67.0349C209.217 66.1381 209.217 65.4655 209.217 64.7929C209.217 64.5687 209.217 64.7929 209.217 64.7929Z" fill="#FF969B"/>
<path d="M210.562 67.7075C210.786 67.4833 210.786 67.2591 210.562 67.0349L210.113 66.8107C209.664 66.5865 209.215 66.5865 208.766 66.8107C208.542 67.0349 208.542 67.2591 208.766 67.4833L209.215 67.7075C209.664 67.7075 210.337 67.7075 210.562 67.7075Z" fill="#FFAB83"/>
<path d="M216.4 55.825L246.705 73.3124C247.603 73.7608 248.725 73.0882 248.725 72.1914V54.9282C248.725 54.0315 248.276 53.1347 247.378 52.6863L216.175 34.7505C215.951 34.5263 215.502 34.7505 215.502 35.1989V54.704C215.726 54.9282 216.175 55.3766 216.4 55.825Z" fill="#1A254F"/>
<path d="M220.439 42.149L217.072 39.907V40.3554L220.439 42.3732V42.149Z" fill="#F9A17E"/>
<path d="M220.439 43.4942L217.072 41.2522V41.7006L220.439 43.7184V43.4942Z" fill="#F9A17E"/>
<path d="M217.072 37.8893V38.1135L218.195 39.0103V38.5619L217.072 37.8893Z" fill="#F9A17E"/>
<path d="M217.072 38.5619V39.0103L218.195 39.6828V39.2344L217.072 38.5619Z" fill="#F9A17E"/>
<path d="M217.072 43.7184V43.9426L217.97 44.6152V44.1668L217.072 43.7184Z" fill="#F9A17E"/>
<path d="M217.072 44.391V44.8394L217.97 45.2878V45.0636L217.072 44.391Z" fill="#F9A17E"/>
<path d="M217.072 46.6329V46.8571L219.317 48.4265V47.9781L217.072 46.6329Z" fill="#F9A17E"/>
<path d="M217.072 47.9781V48.4265L219.317 49.7717V49.3233L217.072 47.9781Z" fill="#F9A17E"/>
<path d="M217.072 48.8749V49.0991L217.97 49.7717V49.3233L217.072 48.8749Z" fill="#F9A17E"/>
<path d="M217.072 50.8927V51.3411L217.97 51.7895V51.5653L217.072 50.8927Z" fill="#F9A17E"/>
<path d="M217.072 52.4621V52.6863L217.97 53.3588V52.9105L217.072 52.4621Z" fill="#F9A17E"/>
<path d="M218.42 82.0561H218.644C218.42 82.0561 218.42 81.8319 218.42 82.0561Z" fill="#2A4280"/>
<path d="M209.89 83.8496C211.461 82.9529 213.257 81.8319 214.829 80.9351C215.727 80.4867 216.4 80.0383 217.298 79.5899C219.992 78.2447 221.114 81.1593 221.563 83.177C221.788 83.8496 222.012 84.5222 222.012 85.1948L218.645 83.177C218.645 82.9529 218.42 82.7287 218.42 82.5045C218.42 82.2803 218.196 82.0561 218.196 82.0561H218.42C218.196 82.0561 218.196 82.0561 218.196 82.0561C217.971 82.2803 217.747 82.5045 217.522 82.5045C215.278 83.8496 213.482 84.9706 211.237 86.3158C210.115 86.9884 208.319 84.7464 209.89 83.8496Z" fill="url(#paint8_linear)"/>
<path d="M206.074 71.5188C206.298 69.501 206.972 65.6897 208.768 66.3623C210.339 66.8107 211.91 67.2591 212.359 68.3801C212.359 68.3801 212.359 68.3801 212.584 68.6043C213.033 69.2768 215.278 73.0882 216.176 72.864C217.074 72.6398 216.849 72.4156 221.114 70.1736C222.012 69.7252 222.91 71.0704 222.012 71.743C217.074 74.4334 216.849 74.8818 215.727 74.8818C214.604 74.8818 214.155 74.2092 212.584 71.9672C212.584 73.5366 212.359 76.6753 212.584 83.177C212.584 83.6254 212.808 85.419 212.584 85.8674C212.359 86.3158 212.135 86.7642 211.462 86.7642C211.013 86.7642 210.339 86.54 209.89 86.3158C205.849 84.0738 205.849 83.6254 205.625 81.1593C205.625 77.7963 205.849 74.6576 206.074 71.5188Z" fill="url(#paint9_linear)"/>
<path d="M433.249 191.913C414.168 180.927 414.168 163.215 433.025 152.23C451.881 141.244 482.635 141.468 501.716 152.454C520.797 163.44 520.797 181.151 501.94 192.137C483.084 202.898 452.106 202.898 433.249 191.913ZM499.471 153.575C481.737 143.262 453.003 143.262 435.269 153.351C417.535 163.44 417.76 180.254 435.494 190.343C453.228 200.656 481.962 200.656 499.696 190.567C517.205 180.478 517.205 163.888 499.471 153.575Z" fill="#F9A17E"/>
<path d="M446.494 184.29C434.821 177.564 434.821 166.578 446.27 159.852C457.718 153.126 476.799 153.126 488.472 159.852C500.145 166.578 500.145 177.564 488.697 184.29C477.024 191.016 458.167 191.016 446.494 184.29ZM487.35 160.525C476.35 154.247 458.392 154.023 447.392 160.525C436.392 166.802 436.392 177.116 447.616 183.617C458.616 189.895 476.575 190.119 487.574 183.617C498.349 177.34 498.349 167.027 487.35 160.525Z" fill="#F9A17E"/>
<path d="M504.635 189.222C502.39 187.877 498.799 187.877 496.554 189.222C496.554 189.222 496.329 189.222 496.329 189.446C480.167 198.414 454.351 198.414 438.189 189.222C422.026 179.806 422.026 164.785 437.964 155.368C453.902 146.176 479.718 146.176 496.105 155.144C496.105 155.144 496.105 155.144 496.329 155.144C496.329 155.144 496.554 155.144 496.554 155.368C498.799 156.489 502.166 156.489 504.186 155.144C506.207 154.023 506.431 152.005 504.411 150.66C504.186 150.66 504.186 150.436 504.186 150.436C503.962 150.436 503.962 150.212 503.737 150.212C483.085 138.778 450.311 138.778 430.107 150.436C409.68 162.319 409.68 181.599 430.332 193.482C450.76 205.14 483.534 205.364 503.962 193.93C504.186 193.93 504.411 193.706 504.411 193.706C506.88 192.585 506.88 190.567 504.635 189.222Z" fill="url(#paint10_linear)"/>
<path d="M490.267 158.956C477.696 151.557 457.269 151.557 444.473 158.731C443.126 159.628 443.126 160.749 444.473 161.646C445.82 162.319 448.065 162.543 449.412 161.646C449.412 161.646 449.412 161.646 449.636 161.646C459.513 156.041 475.676 156.041 485.553 161.87C495.655 167.699 495.655 177.116 485.778 182.72C475.9 188.55 459.513 188.325 449.636 182.72C448.289 181.824 446.044 181.824 444.698 182.72C443.351 183.393 443.351 184.738 444.698 185.635C457.493 193.033 478.145 193.033 490.716 185.859C503.063 178.237 503.063 166.354 490.267 158.956Z" fill="url(#paint11_linear)"/>
<path d="M40.6309 172.183L109.322 212.09L109.996 211.642L41.3043 171.959L40.6309 172.183Z" fill="#2A2D34"/>
<path d="M54.7734 164.112L123.465 203.795L123.914 203.571L55.2224 163.888L54.7734 164.112Z" fill="#2A2D34"/>
<path d="M69.3652 155.817L138.057 195.5L138.506 195.051L69.8142 155.368L69.3652 155.817Z" fill="#2A2D34"/>
<path d="M83.2832 147.522L151.975 187.204L152.648 186.98L83.9567 147.297L83.2832 147.522Z" fill="#2A2D34"/>
<path d="M95.4043 140.571L164.096 180.478L164.545 180.03L95.8533 140.347L95.4043 140.571Z" fill="#2A2D34"/>
<path d="M107.527 133.621L176.219 173.304L176.668 173.08L107.976 133.397L107.527 133.621Z" fill="#2A2D34"/>
<path d="M119.2 200.88C118.077 201.553 116.282 201.553 115.159 201.105L72.7321 176.443C71.6097 175.77 71.8341 174.874 72.9565 174.201C74.079 173.528 75.8748 173.528 76.9972 173.977L119.424 198.638C120.547 199.311 120.322 200.208 119.2 200.88Z" fill="url(#paint12_linear)"/>
<path d="M172.177 170.614C171.054 171.286 169.258 171.286 168.136 170.838L133.117 150.66C131.994 149.988 132.219 149.091 133.341 148.418C134.464 147.746 136.26 147.746 137.382 148.194L172.401 168.372C173.524 169.044 173.299 169.941 172.177 170.614Z" fill="url(#paint13_linear)"/>
<path d="M147.707 184.514C146.585 185.187 144.789 185.187 143.666 184.738L117.627 169.717C116.504 169.044 116.729 168.148 117.851 167.475C118.973 166.802 120.769 166.802 121.892 167.251L147.932 182.272C149.054 182.72 148.83 183.841 147.707 184.514Z" fill="url(#paint14_linear)"/>
<path d="M101.914 206.934C100.792 207.606 98.9956 207.606 97.8732 207.158L95.4039 205.588C94.2815 204.916 94.506 204.019 95.6284 203.347C96.7508 202.674 98.5467 202.674 99.6691 203.122L102.138 204.692C103.036 205.364 103.036 206.261 101.914 206.934Z" fill="url(#paint15_linear)"/>
<path d="M128.178 189.222C127.056 189.895 125.26 189.895 124.138 189.446L109.547 180.927C108.424 180.254 108.649 179.357 109.771 178.685C110.893 178.012 112.689 178.012 113.812 178.461L128.403 186.98C129.525 187.429 129.301 188.55 128.178 189.222Z" fill="url(#paint16_linear)"/>
<path d="M280.377 312.979L279.255 313.651L260.398 302.666L261.296 302.217L280.377 312.979Z" fill="#2A2D34"/>
<path d="M280.376 312.979L279.254 313.651L255.234 299.751L256.357 299.303L280.376 312.979Z" fill="#2A2D34"/>
<path d="M280.377 312.979L279.255 313.651L250.297 297.061L251.419 296.388L280.377 312.979Z" fill="#2A2D34"/>
<path d="M280.375 312.979L279.252 313.651L245.355 294.146L246.478 293.474L280.375 312.979Z" fill="#2A2D34"/>
<path d="M280.376 312.979L279.253 313.651L240.418 291.232L241.316 290.559L280.376 312.979Z" fill="#2A2D34"/>
<path d="M280.377 312.979L279.254 313.651L235.256 288.317L236.378 287.645L280.377 312.979Z" fill="#2A2D34"/>
<path d="M280.376 312.979L279.253 313.651L230.316 285.403L231.439 284.73L280.376 312.979Z" fill="#2A2D34"/>
<path d="M280.375 312.979L279.253 313.651L225.377 282.488L226.499 281.815L280.375 312.979Z" fill="#2A2D34"/>
<path d="M280.376 312.979L279.254 313.651L220.439 279.573L221.337 278.901L280.376 312.979Z" fill="#2A2D34"/>
<path d="M304.171 299.303L303.048 299.975L244.01 265.897L245.132 265.225L304.171 299.303Z" fill="#2A2D34"/>
<path d="M327.966 285.627L326.843 286.299L267.805 251.997L268.927 251.549L327.966 285.627Z" fill="#2A2D34"/>
<path d="M351.536 271.951L350.638 272.399L291.6 238.321L292.722 237.649L351.536 271.951Z" fill="#2A2D34"/>
<path d="M375.333 258.051L374.211 258.723L315.396 224.645L316.294 223.973L375.333 258.051Z" fill="#2A2D34"/>
<path d="M399.128 244.375L398.005 245.047L338.967 210.969L340.089 210.297L399.128 244.375Z" fill="#2A2D34"/>
<path d="M422.923 230.699L421.8 231.371L362.762 197.293L363.884 196.621L422.923 230.699Z" fill="#2A2D34"/>
<path d="M446.493 217.023L445.595 217.695L386.557 183.393L387.679 182.945L446.493 217.023Z" fill="#2A2D34"/>
<path d="M407.883 193.258L415.291 220.161V219.937C416.414 221.731 415.74 223.973 413.495 225.542C411.475 227.111 407.883 228.008 404.516 227.784C398.68 227.336 393.517 226.663 387.905 226.215L371.517 224.645C370.17 224.421 368.824 224.421 367.701 224.421C366.579 224.421 365.232 224.421 364.109 224.869C361.865 225.318 360.069 226.439 358.946 227.56L352.885 236.528C351.987 238.097 350.416 239.666 348.171 240.787C346.151 241.908 343.457 243.029 340.539 243.478C339.192 243.702 337.621 243.926 336.274 243.926L332.009 244.15L323.703 244.375L315.397 244.599L311.356 244.823C310.234 244.823 309.111 245.271 308.213 245.72C307.316 246.168 306.642 246.841 306.418 247.513C306.193 248.186 306.193 248.859 306.418 249.755L307.765 254.463L310.458 263.88L313.152 273.296C313.826 274.865 313.601 276.659 312.03 278.228C311.356 278.901 310.234 279.573 309.111 280.022C307.989 280.47 306.642 280.919 305.52 281.367L290.928 286.075C286.214 287.645 283.072 290.559 282.398 293.698L278.357 312.755L281.725 293.698C282.174 290.559 285.541 287.42 290.255 285.627L304.846 280.919C305.969 280.47 307.316 280.246 308.438 279.798C309.56 279.349 310.234 278.677 310.907 278.004C312.254 276.659 312.479 275.09 311.805 273.52L308.887 264.104L305.969 254.688L304.397 249.98C304.173 249.307 303.948 248.186 304.397 247.289C304.846 246.392 305.744 245.496 306.867 245.047C307.989 244.375 309.56 244.15 311.132 243.926L315.397 243.702L323.703 243.254L332.009 242.805L336.049 242.581C337.396 242.581 338.519 242.357 339.865 242.133C342.335 241.684 344.58 240.787 346.375 239.891C348.171 238.77 349.518 237.649 350.416 236.079L356.253 227.111C357.599 225.542 359.844 223.973 362.987 223.3C364.558 222.852 366.13 222.852 367.701 222.852C369.273 222.852 370.619 223.076 371.966 223.076L388.578 224.421L404.965 225.766C407.21 225.99 409.23 225.318 410.577 224.421C411.924 223.524 412.373 222.179 411.7 220.834C411.7 220.61 403.618 193.706 403.618 193.706C403.394 193.034 404.292 192.361 405.414 192.137C406.536 192.137 407.659 192.585 407.883 193.258Z" fill="url(#paint17_linear)"/>
<path d="M197.769 243.926C197.545 244.15 196.871 244.15 196.647 243.926C196.422 243.702 196.422 243.478 196.647 243.254C196.871 243.029 197.545 243.029 197.769 243.254C198.218 243.254 198.218 243.702 197.769 243.926Z" fill="url(#paint18_linear)"/>
<path d="M200.689 245.496C200.465 245.72 199.791 245.72 199.567 245.496C199.342 245.271 199.342 245.047 199.567 244.823C199.791 244.599 200.465 244.599 200.689 244.823C201.138 245.047 201.138 245.271 200.689 245.496Z" fill="url(#paint19_linear)"/>
<path d="M203.605 247.289C203.381 247.513 202.707 247.513 202.483 247.289C202.258 247.065 202.258 246.841 202.483 246.617C202.707 246.392 203.381 246.392 203.605 246.617C204.054 246.841 204.054 247.065 203.605 247.289Z" fill="url(#paint20_linear)"/>
<path d="M206.525 248.859C206.301 249.083 205.627 249.083 205.403 248.859C205.178 248.634 205.178 248.41 205.403 248.186C205.627 247.962 206.301 247.962 206.525 248.186C206.974 248.41 206.974 248.634 206.525 248.859Z" fill="url(#paint21_linear)"/>
<path d="M209.441 250.652C209.217 250.876 208.543 250.876 208.319 250.652C208.094 250.428 208.094 250.204 208.319 249.979C208.543 249.755 209.217 249.755 209.441 249.979C209.89 250.204 209.89 250.428 209.441 250.652Z" fill="url(#paint22_linear)"/>
<path d="M212.361 252.221C212.137 252.446 211.463 252.446 211.239 252.221C211.014 251.997 211.014 251.773 211.239 251.549C211.463 251.325 212.137 251.325 212.361 251.549C212.81 251.773 212.81 252.221 212.361 252.221Z" fill="url(#paint23_linear)"/>
<path d="M215.279 254.015C215.055 254.239 214.381 254.239 214.157 254.015C213.932 253.791 213.932 253.567 214.157 253.342C214.381 253.118 215.055 253.118 215.279 253.342C215.728 253.567 215.728 253.791 215.279 254.015Z" fill="url(#paint24_linear)"/>
<path d="M218.197 255.809C217.973 256.033 217.299 256.033 217.075 255.809C216.85 255.584 216.85 255.36 217.075 255.136C217.299 254.912 217.973 254.912 218.197 255.136C218.646 255.136 218.646 255.584 218.197 255.809Z" fill="url(#paint25_linear)"/>
<path d="M221.115 257.378C220.891 257.602 220.217 257.602 219.993 257.378C219.768 257.154 219.768 256.93 219.993 256.705C220.217 256.481 220.891 256.481 221.115 256.705C221.564 256.93 221.564 257.154 221.115 257.378Z" fill="url(#paint26_linear)"/>
<path d="M224.26 259.172C224.035 259.396 223.362 259.396 223.137 259.172C222.913 258.947 222.913 258.723 223.137 258.499C223.362 258.275 224.035 258.275 224.26 258.499C224.484 258.723 224.484 258.947 224.26 259.172Z" fill="url(#paint27_linear)"/>
<path d="M214.604 234.734L203.605 241.012L202.258 240.339L213.033 234.062L214.604 234.734Z" fill="url(#paint28_linear)"/>
<path d="M217.298 236.303L206.298 242.805L204.951 241.908L215.951 235.631L217.298 236.303Z" fill="url(#paint29_linear)"/>
<path d="M219.993 238.097L208.993 244.375L207.646 243.478L218.646 237.2L219.993 238.097Z" fill="url(#paint30_linear)"/>
<path d="M231.666 234.51L211.911 245.944L210.34 245.047L230.319 233.613L231.666 234.51Z" fill="url(#paint31_linear)"/>
<path d="M232.788 239.666L221.788 245.944L220.441 245.271L231.441 238.77L232.788 239.666Z" fill="url(#paint32_linear)"/>
<path d="M235.708 241.236L224.708 247.513L223.137 246.841L234.136 240.563L235.708 241.236Z" fill="url(#paint33_linear)"/>
<path d="M238.399 242.805L227.4 249.307L226.053 248.41L237.052 242.133L238.399 242.805Z" fill="url(#paint34_linear)"/>
<path d="M236.827 220.385L214.604 233.165L215.95 234.061L238.399 221.058L236.827 220.385Z" fill="url(#paint35_linear)"/>
<path d="M239.521 223.748L218.644 235.631L217.297 234.734L237.949 222.852L239.521 223.748Z" fill="url(#paint36_linear)"/>
<path d="M242.44 223.524L219.992 236.303L221.564 237.2L243.787 224.197L242.44 223.524Z" fill="url(#paint37_linear)"/>
<path d="M245.134 225.094L233.91 231.595L235.482 232.268L246.706 225.99L245.134 225.094Z" fill="url(#paint38_linear)"/>
<path d="M250.297 228.008L232.787 238.097L234.358 238.994L251.644 228.905L250.297 228.008Z" fill="url(#paint39_linear)"/>
<path d="M252.992 229.578L235.707 239.666L237.054 240.563L254.563 230.474L252.992 229.578Z" fill="url(#paint40_linear)"/>
<path d="M255.908 231.147L238.398 241.236L239.745 242.133L257.255 232.044L255.908 231.147Z" fill="url(#paint41_linear)"/>
<path d="M247.829 241.46L236.829 247.737L235.482 246.841L246.258 240.563L247.829 241.46Z" fill="url(#paint42_linear)"/>
<path d="M259.277 233.165L247.828 239.666L249.175 240.563L260.624 233.837L259.277 233.165Z" fill="url(#paint43_linear)"/>
<path d="M261.971 234.734L238.176 248.41L239.523 249.307L263.318 235.631L261.971 234.734Z" fill="url(#paint44_linear)"/>
<path d="M264.662 236.303L240.867 249.979L242.214 250.876L266.234 237.2L264.662 236.303Z" fill="url(#paint45_linear)"/>
<path d="M192.155 246.168L183.4 251.325L184.747 251.997L193.727 246.841L192.155 246.168Z" fill="url(#paint46_linear)"/>
<path d="M195.075 247.738L186.096 252.894L187.443 253.567L196.422 248.41L195.075 247.738Z" fill="url(#paint47_linear)"/>
<path d="M200.461 250.876L186.992 258.723L188.339 259.396L202.032 251.773L200.461 250.876Z" fill="url(#paint48_linear)"/>
<path d="M192.156 261.638L193.503 262.535L204.054 256.257L202.707 255.584L192.156 261.638Z" fill="url(#paint49_linear)"/>
<path d="M178.688 253.791L180.034 254.688L183.402 252.894L181.83 251.997L178.688 253.791Z" fill="url(#paint50_linear)"/>
<path d="M181.381 255.36L182.952 256.257L186.095 254.463L184.748 253.567L181.381 255.36Z" fill="url(#paint51_linear)"/>
<path d="M200.912 266.794L202.259 267.467L206.973 265.001L205.402 264.104L200.912 266.794Z" fill="url(#paint52_linear)"/>
<path d="M203.604 268.364L205.175 269.26L209.665 266.57L208.318 265.673L203.604 268.364Z" fill="url(#paint53_linear)"/>
<path d="M180.326 207.977C186.593 211.523 196.62 211.523 202.887 207.977C209.154 204.43 209.154 198.588 202.887 194.833C202.887 194.833 202.887 194.833 202.678 194.833L208.109 191.703C208.109 191.703 208.109 191.703 208.318 191.703C217.51 197.128 217.51 205.682 208.527 210.897C199.336 216.113 184.295 216.113 175.103 210.897C175.103 210.897 175.103 210.897 174.895 210.897L180.326 207.977C180.326 207.768 180.326 207.977 180.326 207.977Z" fill="url(#paint54_linear)"/>
<path d="M208.318 191.912L202.887 195.041C196.62 191.495 186.802 191.495 180.535 195.041L175.104 191.912C184.295 186.696 199.127 186.696 208.318 191.912Z" fill="#FC4452"/>
<path d="M180.534 194.833C180.534 195.041 180.534 195.041 180.534 194.833C174.267 198.379 174.267 204.221 180.325 207.768L174.894 210.897C165.702 205.473 165.702 196.919 174.894 191.703C175.103 191.912 180.534 194.833 180.534 194.833Z" fill="#F9A17E"/>
<path opacity="0.43" d="M303.947 137.881L290.253 130.034C288.906 129.137 287.335 129.137 285.988 130.034L268.479 140.123L283.968 149.315H290.702L304.396 141.02C305.069 140.347 305.069 138.554 303.947 137.881Z" fill="#0C25BA"/>
<path d="M300.131 130.707V139.226C300.131 139.675 299.906 140.123 299.457 140.347L284.866 148.867C283.519 149.539 281.948 149.539 280.601 148.867L266.009 140.571C265.56 140.347 265.336 139.899 265.336 139.45V130.931H300.131V130.707Z" fill="url(#paint55_linear)"/>
<path d="M284.866 140.123L299.457 131.604C300.355 131.155 300.355 130.034 299.457 129.362L284.866 120.842C283.744 120.17 282.172 120.17 281.05 120.842L266.234 129.362C265.336 129.81 265.336 130.931 266.234 131.379L280.825 139.675C281.948 141.02 283.519 141.02 284.866 140.123Z" fill="white"/>
<path d="M303.049 119.721C302.6 119.721 302.151 119.721 301.702 119.497L285.988 110.305C285.539 110.081 285.539 109.856 285.539 109.408C285.539 108.96 285.764 108.735 286.213 108.511L291.825 105.373C292.722 104.924 293.845 104.924 294.743 105.148L310.457 114.34C310.905 114.565 310.905 114.789 310.905 115.237C310.905 115.686 310.681 115.91 310.232 116.134L304.62 119.273C304.171 119.497 303.722 119.721 303.049 119.721ZM301.926 119.049C302.6 119.497 303.722 119.273 304.396 119.049L310.008 115.91C310.457 115.686 310.681 115.461 310.681 115.237C310.681 115.013 310.457 114.789 310.232 114.789L294.518 105.597C293.845 105.148 292.722 105.373 292.049 105.597L286.437 108.735C285.988 108.96 285.764 109.184 285.764 109.408C285.764 109.632 285.988 109.856 286.213 109.856L301.926 119.049Z" fill="url(#paint56_linear)"/>
<path d="M290.927 98.1982L321.457 115.91C322.355 116.358 323.477 115.686 323.477 114.789V97.3015C323.477 96.4047 323.028 95.5079 322.13 95.0595L290.703 76.8995C290.478 76.6753 290.029 76.8995 290.029 77.3479V97.0773C290.254 97.5256 290.478 97.974 290.927 98.1982Z" fill="#1A254F"/>
<path d="M294.967 84.5222L291.375 82.5045V82.7287L294.967 84.7464V84.5222Z" fill="#71D4FF"/>
<path d="M294.967 85.8674L291.375 83.8496V84.0738L294.967 86.0916V85.8674Z" fill="#71D4FF"/>
<path d="M291.375 80.2625V80.4867L292.722 81.3835V80.9351L291.375 80.2625Z" fill="#71D4FF"/>
<path d="M291.375 80.9351V81.3835L292.722 82.0561V81.6077L291.375 80.9351Z" fill="#71D4FF"/>
<path d="M291.375 86.0916V86.54L292.497 86.9884V86.7642L291.375 86.0916Z" fill="#71D4FF"/>
<path d="M291.375 86.7642V87.2126L292.497 87.8852V87.4368L291.375 86.7642Z" fill="#71D4FF"/>
<path d="M291.375 89.0062V89.4546L293.844 90.7997V90.3514L291.375 89.0062Z" fill="#71D4FF"/>
<path d="M291.375 90.5755V90.7997L293.844 92.3691V91.9207L291.375 90.5755Z" fill="#71D4FF"/>
<path d="M291.375 91.2481V91.6965L292.273 92.1449V91.6965L291.375 91.2481Z" fill="#71D4FF"/>
<path d="M291.375 93.4901V93.9385L292.273 94.3869V93.9385L291.375 93.4901Z" fill="#71D4FF"/>
<path d="M291.375 94.8353V95.2837L292.273 95.7321V95.5079L291.375 94.8353Z" fill="#71D4FF"/>
<path d="M282.621 123.981C284.642 123.308 286.438 122.636 288.458 121.739C290.478 121.066 293.397 119.945 293.846 123.084C294.07 124.205 293.846 125.326 293.846 126.447L290.927 124.653C290.927 124.205 290.927 123.981 290.927 123.981C290.927 123.981 289.131 124.653 288.233 124.878C286.662 125.55 285.091 125.999 283.519 126.671C281.724 127.344 280.826 124.653 282.621 123.981Z" fill="url(#paint57_linear)"/>
<path d="M287.111 126.447C289.131 125.774 290.927 125.102 292.947 124.205C293.621 123.981 294.294 123.532 295.192 123.532C296.764 123.308 298.111 124.429 298.335 125.999C298.56 126.895 298.335 127.792 298.335 128.913L295.417 127.344C295.417 127.344 295.417 127.344 295.417 127.12C295.417 126.671 295.417 126.671 294.968 126.671C294.519 126.671 293.172 127.344 292.499 127.568C290.927 128.241 289.356 128.689 287.784 129.362C286.213 130.034 285.315 127.12 287.111 126.447Z" fill="url(#paint58_linear)"/>
<path d="M286.212 110.977C286.661 110.753 286.661 110.305 285.987 109.856L285.089 109.408C284.64 109.184 283.742 109.184 283.293 109.408C282.844 109.632 282.844 110.081 283.518 110.529L284.416 110.977C285.089 111.202 285.763 111.202 286.212 110.977Z" fill="#FF7A93"/>
<path d="M296.314 113.668C295.64 114.116 294.742 114.565 294.069 115.013C293.171 115.461 292.048 116.582 290.926 116.807C290.253 117.031 289.804 116.582 289.13 115.91L288.008 116.807C288.681 117.703 289.355 118.824 290.702 118.6C291.824 118.376 292.946 117.479 293.844 117.031C294.967 116.358 296.089 115.91 297.212 115.237C297.885 114.565 297.212 113.219 296.314 113.668Z" fill="#FF969B"/>
<path d="M281.274 120.618C281.723 117.479 281.947 115.013 282.621 112.098C283.519 108.511 285.09 108.96 286.212 109.632C287.784 110.753 288.457 111.65 288.457 114.565C288.682 115.013 288.906 115.461 289.355 115.91L288.457 116.582C288.457 116.807 288.457 117.031 288.457 117.031C288.233 121.291 287.784 120.842 288.682 126.895C288.682 127.568 288.906 128.465 288.457 129.137C288.008 130.258 286.661 130.034 285.763 129.81C281.498 128.689 280.6 125.774 281.274 120.618Z" fill="url(#paint59_linear)"/>
<path d="M284.643 106.942C284.643 107.839 284.643 108.735 284.643 109.632C284.643 110.305 286.214 110.305 286.214 109.632C286.214 108.735 286.214 107.839 286.214 106.942C285.99 106.493 284.643 106.493 284.643 106.942Z" fill="#FF969B"/>
<path d="M285.09 107.839C284.865 107.839 284.865 107.839 284.641 107.615C283.967 106.718 283.967 105.148 284.416 104.027C284.641 103.355 284.865 102.906 286.212 102.906C286.437 102.906 287.335 102.906 287.559 103.131C287.559 103.131 287.784 103.131 287.784 103.355V105.597C287.784 106.718 286.886 107.615 285.763 107.615H285.09V107.839Z" fill="#FF969B"/>
<path d="M287.335 104.924C286.886 105.148 286.437 105.373 286.213 105.821C285.988 106.269 285.988 106.494 285.764 106.942C285.539 107.39 285.09 107.615 284.866 107.39C284.192 106.942 283.294 104.476 284.192 102.906C284.866 101.785 287.335 102.01 288.009 102.682C288.457 103.355 287.784 104.476 287.335 104.924Z" fill="#FF7A93"/>
<path d="M282.621 104.476C282.397 105.373 282.621 106.269 282.172 106.942C281.724 107.615 279.703 108.287 278.581 109.632C276.56 112.098 278.132 115.91 281.499 116.582C284.866 117.255 286.662 113.892 284.866 111.202C283.968 109.856 285.315 109.856 285.989 109.184C286.213 108.735 286.438 108.063 286.438 107.615C286.213 107.166 286.213 107.166 285.989 106.718C285.315 104.924 287.785 105.597 288.009 104.027C288.682 101.337 283.295 101.113 282.621 104.476Z" fill="url(#paint60_linear)"/>
<path d="M295.865 114.565C295.641 114.116 295.865 113.668 296.314 113.444L297.212 112.995C297.661 112.771 298.11 112.995 298.335 113.444C298.559 113.892 298.335 114.34 297.886 114.565L296.988 115.013C296.763 115.237 296.09 115.013 295.865 114.565Z" fill="#FF969B"/>
<path opacity="0.38" d="M306.193 101.785C308.663 103.131 310.459 102.01 310.459 99.3192C310.459 96.6289 308.438 93.2659 306.193 91.9207V89.4546C309.785 91.4723 312.703 96.4047 312.703 100.44C312.703 104.476 309.785 106.045 306.193 104.027C306.193 104.252 306.193 101.785 306.193 101.785Z" fill="#9FAFFC"/>
<path d="M301.927 94.3869C301.927 97.0772 303.947 100.44 306.192 101.785V104.252C302.6 102.234 299.906 97.3014 299.906 93.2659L301.927 94.3869Z" fill="url(#paint61_linear)"/>
<g opacity="0.36">
<path opacity="0.36" d="M226.051 51.5653C226.051 48.2023 228.52 46.6329 231.438 48.4265C234.357 50.2201 236.826 54.4798 236.826 57.8428C236.826 61.2057 234.357 62.7751 231.438 60.9815C228.52 59.188 226.051 54.9282 226.051 51.5653ZM226.5 51.7895C226.5 54.9282 228.745 58.9638 231.663 60.5331C234.581 62.1025 236.826 60.7573 236.826 57.6186C236.826 54.4798 234.581 50.4443 231.663 48.8749C228.745 47.3055 226.5 48.4265 226.5 51.7895Z" fill="#9FAFFC"/>
</g>
<path d="M225.604 51.1169C225.604 50.6685 225.828 50.4443 226.277 50.6685C226.726 50.8927 226.95 51.3411 226.95 51.7895C226.95 54.704 228.971 58.2912 231.665 59.8606C234.134 61.4299 236.379 60.0848 236.379 57.1702C236.379 54.2556 234.358 50.6685 231.889 49.0991C231.44 48.8749 231.216 48.4265 231.216 47.9781C231.216 47.5297 231.44 47.5297 231.889 47.5297C235.256 49.5475 237.726 54.0314 237.726 57.6186C237.726 61.4299 235.032 62.7751 231.889 60.9815C228.297 59.4122 225.604 54.9282 225.604 51.1169C225.604 51.3411 225.604 51.3411 225.604 51.1169Z" fill="url(#paint62_linear)"/>
<path opacity="0.43" d="M264.666 116.358L251.646 108.735C250.299 108.063 248.728 108.063 247.381 108.735L230.77 118.376L245.361 127.12H251.646L264.666 119.049C265.789 118.6 265.789 117.031 264.666 116.358Z" fill="#0C25BA"/>
<path d="M262.42 108.96V117.479C262.42 117.928 262.195 118.376 261.746 118.6L247.38 126.895C246.033 127.568 244.461 127.568 243.114 126.895L228.748 118.6C228.299 118.376 228.074 117.928 228.074 117.479V108.96H262.42Z" fill="url(#paint63_linear)"/>
<path d="M247.379 118.152L261.746 109.856C262.644 109.408 262.644 108.287 261.746 107.839L247.155 99.5434C246.033 98.8708 244.461 98.8708 243.339 99.5434L228.523 108.063C227.625 108.511 227.625 109.632 228.523 110.081L242.89 118.376C244.461 119.049 246.033 119.049 247.379 118.152Z" fill="white"/>
<path d="M265.562 97.974C265.113 97.974 264.664 97.974 264.215 97.7498L248.502 88.7819C248.053 88.5577 248.053 88.3335 248.053 87.8851C248.053 87.4368 248.277 87.2126 248.726 86.7642L254.338 83.6254C255.236 83.177 256.359 83.177 257.256 83.6254L272.97 92.5933C273.419 92.8175 273.419 93.0417 273.419 93.4901C273.419 93.9385 273.195 94.1627 272.746 94.6111L267.134 97.7498C266.685 97.7498 266.011 97.974 265.562 97.974ZM264.44 97.3014C265.113 97.7498 266.236 97.5256 266.909 97.3014L272.521 94.1627C272.97 93.9385 273.195 93.7143 273.195 93.4901C273.195 93.2659 272.97 93.0417 272.746 93.0417L257.032 84.0738C256.359 83.6254 255.236 83.8496 254.563 84.0738L248.951 87.2126C248.502 87.4368 248.277 87.661 248.277 87.8851C248.277 88.1093 248.502 88.3335 248.726 88.3335L264.44 97.3014Z" fill="url(#paint64_linear)"/>
<path d="M259.277 89.9029C259.502 89.6787 260.175 89.6787 260.4 89.9029C260.624 90.1271 260.624 90.7997 260.4 91.0239L259.502 91.9207C259.277 92.1449 258.604 92.1449 258.379 91.9207C258.155 91.6965 258.155 91.0239 258.379 90.7997L259.277 89.9029Z" fill="#FF969B"/>
<path d="M255.236 89.0061C255.461 88.7819 256.134 88.7819 256.359 89.0061C256.583 89.2303 256.583 89.9029 256.359 90.1271L255.461 91.0239C255.236 91.2481 254.563 91.2481 254.338 91.0239C254.114 90.7997 254.114 90.1271 254.338 89.9029L255.236 89.0061Z" fill="#FF969B"/>
<path d="M255.236 91.2481C254.114 91.9207 253.216 92.3691 252.093 93.0417C251.195 93.4901 250.073 94.3869 248.951 94.3869C247.604 94.3869 247.155 93.2659 246.481 92.1449C245.808 91.0239 245.134 90.1271 244.237 89.0062C243.563 88.1094 245.134 87.2126 245.808 88.1094C246.257 88.7819 246.93 89.6787 247.379 90.3513C247.828 91.0239 248.502 92.5933 249.4 92.3691C250.298 92.1449 251.42 91.2481 252.093 90.7997C252.767 90.3513 253.665 89.9029 254.338 89.4545C255.236 89.2303 256.134 90.7997 255.236 91.2481Z" fill="url(#paint65_linear)"/>
<path d="M250.747 98.6466C248.278 99.7676 246.033 101.337 243.564 102.682C241.992 103.579 243.339 105.821 244.911 105.148C246.931 104.027 248.951 102.906 251.196 101.561C251.421 101.561 251.421 101.337 251.645 101.337C251.645 101.113 251.87 101.113 252.094 101.113C251.87 101.113 251.87 101.113 251.645 101.337C251.645 101.337 251.645 101.561 251.87 101.785C251.87 101.785 251.87 101.785 251.87 102.01L255.237 103.803C254.563 100.44 253.441 97.3014 250.747 98.6466Z" fill="url(#paint66_linear)"/>
<path d="M251.645 101.337C251.869 101.337 251.869 101.113 252.093 101.113C251.645 101.113 251.645 101.113 251.645 101.337Z" fill="#2A4280"/>
<path d="M247.605 88.5578C247.829 88.3336 247.829 88.1094 247.605 87.8852L247.156 87.661C246.707 87.4368 246.258 87.4368 245.809 87.661C245.585 87.8852 245.585 88.1094 245.809 88.3336L246.258 88.5578C246.707 88.7819 247.156 88.7819 247.605 88.5578Z" fill="#FFAB83"/>
<path d="M253.441 76.6753L283.746 94.1627C284.644 94.6111 285.766 93.9385 285.766 93.0417V75.7785C285.766 74.8817 285.317 73.985 284.419 73.5366L253.216 55.6008C252.992 55.3766 252.543 55.6008 252.543 56.0492V75.7785C252.767 76.0027 252.992 76.4511 253.441 76.6753Z" fill="#1A254F"/>
<path d="M257.48 62.9993L253.889 60.9816V61.2057L257.48 63.4477V62.9993Z" fill="#FF7364"/>
<path d="M257.48 64.3445L253.889 62.3268V62.5509L257.48 64.7929V64.3445Z" fill="#71D4FF"/>
<path d="M253.889 58.7396V59.188L255.236 59.8606V59.4122L253.889 58.7396Z" fill="#FF7364"/>
<path d="M253.889 59.4122V59.8606L255.236 60.5332V60.309L253.889 59.4122Z" fill="#FF7364"/>
<path d="M253.889 64.5687V65.0171L255.011 65.6897V65.2413L253.889 64.5687Z" fill="#FF7364"/>
<path d="M253.889 65.2413V65.6897L255.011 66.3623V65.9139L253.889 65.2413Z" fill="#FF7364"/>
<path d="M253.889 67.4833V67.9317L256.358 69.2768V68.8284L253.889 67.4833Z" fill="#FF7364"/>
<path d="M253.889 69.0526V69.2768L256.358 70.622V70.3978L253.889 69.0526Z" fill="#FF7364"/>
<path d="M253.889 69.7252V70.1736L254.787 70.622V70.1736L253.889 69.7252Z" fill="#71D4FF"/>
<path d="M253.889 71.9672V72.1914L254.787 72.864V72.4156L253.889 71.9672Z" fill="#FF7364"/>
<path d="M253.889 73.3124V73.7608L254.787 74.2092V73.985L253.889 73.3124Z" fill="#71D4FF"/>
<path d="M255.459 103.131H255.683C255.459 103.131 255.459 102.906 255.459 103.131Z" fill="#2A4280"/>
<path d="M246.705 104.924C248.276 104.027 250.072 102.906 251.643 102.01C252.541 101.561 253.215 101.113 254.113 100.664C256.806 99.3192 257.929 102.234 258.378 104.252C258.602 104.924 258.827 105.597 258.827 106.269L255.459 104.252C255.459 104.027 255.235 103.803 255.235 103.579C255.235 103.355 255.01 103.131 255.01 103.131H255.235C255.01 103.131 255.01 103.131 255.01 103.131C254.786 103.355 254.562 103.579 254.337 103.579C252.092 104.924 250.296 106.045 248.052 107.39C246.929 108.063 245.358 105.821 246.705 104.924Z" fill="url(#paint67_linear)"/>
<path d="M242.891 92.5933C243.115 90.5755 243.789 86.7642 245.585 87.2126C247.156 87.661 248.727 88.1094 249.401 89.2303C249.401 89.2303 249.401 89.2303 249.625 89.4545C250.074 90.1271 252.319 93.9385 253.217 93.7143C254.115 93.4901 253.89 93.2659 258.156 91.0239C259.054 90.5755 259.952 91.9207 259.054 92.5933C254.115 95.2837 253.89 95.7321 252.768 95.7321C251.646 95.7321 251.197 95.0595 249.625 92.8175C249.625 94.3869 249.401 97.5256 249.625 104.027C249.625 104.476 249.85 106.269 249.625 106.718C249.401 107.166 249.176 107.614 248.503 107.614C247.829 107.614 247.38 107.39 246.932 107.166C242.891 104.924 242.891 104.476 242.666 102.01C242.442 98.8708 242.891 95.7321 242.891 92.5933Z" fill="url(#paint68_linear)"/>
<path d="M248.727 84.0738C248.502 84.0738 248.502 84.298 248.278 84.298V84.7464C248.278 84.7464 248.278 84.9706 248.053 84.9706C248.053 84.9706 248.053 84.9706 247.829 84.9706C247.829 84.9706 247.829 84.9706 247.829 84.7464C247.829 84.5222 247.604 84.298 247.38 84.298C247.155 84.298 246.931 84.5222 246.931 84.7464C246.931 84.9706 246.931 84.9706 247.155 85.1948C246.931 85.419 246.931 85.6432 246.706 85.8674C246.482 86.0916 246.033 86.3158 245.808 86.3158H245.584C245.584 86.9884 245.584 87.661 245.584 88.3336C245.584 88.782 247.155 88.782 247.155 88.3336C247.155 87.8852 247.155 87.2126 247.155 86.7642C248.278 86.7642 248.951 85.8674 248.951 85.1948V83.8496C249.176 83.6254 248.951 83.8496 248.727 84.0738Z" fill="#FF969B"/>
<path d="M246.033 86.0916C246.482 86.3158 246.706 86.0916 246.931 85.6432C247.155 85.419 247.155 85.1948 247.38 84.9706C247.38 84.9706 247.155 84.7464 247.155 84.5222C247.155 84.298 247.38 84.0738 247.604 84.0738C247.829 84.0738 248.053 84.298 248.053 84.5222C248.053 84.5222 248.053 84.5222 248.053 84.7464C248.053 84.7464 248.278 84.7464 248.278 84.5222V84.0738C248.502 84.0738 248.502 83.8496 248.727 83.8496C248.951 83.6254 249.176 83.4012 249.4 83.177C249.4 83.177 249.4 82.9528 249.625 82.9528C249.849 82.7286 249.849 82.5044 249.849 82.0561V81.8319C249.849 81.6077 249.4 81.6077 249.176 81.6077H248.951C248.727 81.6077 248.727 81.8319 248.502 81.8319C247.38 81.6077 245.809 81.8319 245.36 82.2803C244.462 83.6254 245.135 85.419 246.033 86.0916C245.809 86.0916 246.033 86.0916 246.033 86.0916Z" fill="#212D60"/>
<path d="M268.707 80.2625C271.176 81.6077 273.197 80.4867 273.197 77.7963C273.197 75.106 271.176 71.5188 268.707 70.1736V67.7075C272.299 69.7252 275.217 74.8818 275.217 78.9173C275.217 82.9529 272.299 84.7464 268.707 82.7287V80.2625Z" fill="url(#paint69_linear)"/>
<path opacity="0.38" d="M268.705 67.7075V70.1736C266.236 68.8284 264.44 69.9494 264.44 72.6398L262.42 71.5188C262.42 67.2591 265.114 65.6897 268.705 67.7075Z" fill="#9898ED"/>
<path d="M308.662 61.6541C309.111 60.7573 309.335 59.8605 309.335 58.5154C309.335 54.0314 306.192 48.4265 302.152 46.1845C301.029 45.512 300.131 45.2878 299.233 45.2878C298.56 45.2878 297.886 45.2878 297.438 45.512L300.58 43.9426C301.927 43.0458 303.723 43.27 305.743 44.391C309.784 46.6329 312.927 52.2379 312.927 56.7218C312.927 58.7396 312.253 60.3089 311.131 61.2057C311.131 61.2057 310.906 61.2057 310.906 61.4299L307.315 63.4477C307.764 62.7751 308.213 62.3267 308.662 61.6541Z" fill="#FFD33F"/>
<path d="M297.438 45.5119C297.887 45.2877 298.56 45.0636 299.234 45.2878C300.132 45.2878 301.03 45.7361 302.152 46.1845C306.193 48.4265 309.336 54.0314 309.336 58.5154C309.336 59.8605 309.111 60.7573 308.662 61.6541C308.213 62.3267 307.764 62.7751 307.315 63.2235C305.968 63.8961 304.173 63.8961 302.152 62.7751C298.112 60.5331 294.969 54.9282 294.969 50.4443C294.969 47.7539 295.867 46.1845 297.438 45.5119Z" fill="url(#paint70_linear)"/>
<path d="M301.704 58.067C301.03 57.6186 300.132 56.946 299.459 56.2734V54.2556C299.908 54.704 300.357 55.1524 300.806 55.6008C301.255 56.0492 301.704 56.2734 302.153 56.4976C302.377 56.7218 302.602 56.7218 302.826 56.7218C303.051 56.7218 303.051 56.7218 303.051 56.4976C303.051 56.2734 303.051 56.2734 302.826 56.0492C302.826 55.825 302.602 55.6008 302.377 55.3766C302.153 55.1524 301.928 54.704 301.479 54.4798C301.03 54.0314 300.581 53.583 300.357 53.1347C300.132 52.6863 299.908 52.4621 299.683 52.0137C299.459 51.5653 299.459 51.3411 299.459 50.8927C299.459 50.2201 299.683 49.7717 299.908 49.5475C300.357 49.3233 300.806 49.5475 301.479 49.7717V48.8749L302.602 49.5475V50.4443C303.275 50.8927 303.949 51.5653 304.622 52.2379L303.949 53.583C303.275 52.6863 302.602 52.2379 301.928 51.7895C301.704 51.5653 301.479 51.5653 301.255 51.5653C301.03 51.5653 301.03 51.5653 301.03 51.7895C301.03 52.0137 301.03 52.0137 301.255 52.2379C301.255 52.4621 301.479 52.4621 301.704 52.6863C301.928 52.9105 302.153 53.1346 302.602 53.583C303.275 54.2556 303.949 54.9282 304.173 55.6008C304.398 56.2734 304.622 56.7218 304.622 57.3944C304.622 58.067 304.398 58.5154 304.173 58.7396C303.724 58.9638 303.275 58.9638 302.602 58.5154V59.6364L301.479 58.9638V58.067H301.704Z" fill="#FFD33F"/>
<path d="M230.991 57.1702C230.542 56.946 230.093 56.4976 229.645 56.0492V54.704C229.869 54.9282 230.093 55.3766 230.542 55.6008C230.767 55.825 231.216 56.0492 231.44 56.2734C231.665 56.2734 231.665 56.4976 231.889 56.4976C231.889 56.4976 232.114 56.4976 232.114 56.2734V56.0492C232.114 56.0492 231.889 55.825 231.889 55.6008C231.665 55.3766 231.44 55.1524 231.216 54.9282C230.991 54.704 230.767 54.4799 230.542 54.0315C230.318 53.8073 230.318 53.5831 230.093 53.3589C230.093 53.1347 229.869 52.9105 229.869 52.6863C229.869 52.2379 230.093 52.0137 230.318 52.0137C230.542 52.0137 230.991 52.0137 231.44 52.2379V51.7895L232.114 52.2379V52.6863C232.563 52.9105 233.012 53.3589 233.461 53.8073L233.012 54.704C232.563 54.2557 232.114 53.8073 231.665 53.5831C231.44 53.5831 231.44 53.3589 231.216 53.3589C231.216 53.3589 231.216 53.3589 231.216 53.5831V53.8073C231.216 53.8073 231.44 54.0315 231.44 54.2557C231.665 54.4799 231.665 54.4799 231.889 54.704C232.338 55.1524 232.787 55.6008 232.787 55.825C233.012 56.2734 233.012 56.4976 233.012 56.946C233.012 57.3944 232.787 57.6186 232.563 57.8428C232.338 58.067 231.889 57.8428 231.44 57.8428V58.2912L230.767 57.8428V57.1702H230.991Z" fill="#FFD33F"/>
<path opacity="0.43" d="M343.681 73.7608L329.763 65.6897C328.416 64.7929 326.621 64.7929 325.274 65.6897L312.029 77.3479L323.029 85.419H329.763L343.457 76.8995C344.804 76.2269 344.804 74.4334 343.681 73.7608Z" fill="#0C25BA"/>
<path d="M337.173 37.6651H308.215V77.1237C308.215 77.5721 308.439 77.7963 308.664 78.0205L320.786 84.9706C321.908 85.6432 323.255 85.6432 324.378 84.9706L336.5 78.0205C336.949 77.7963 336.949 77.3479 336.949 77.1237C337.173 77.1237 337.173 37.6651 337.173 37.6651Z" fill="url(#paint71_linear)"/>
<path d="M321.01 45.7362L308.888 38.7861C308.214 38.3377 308.214 37.4409 308.888 36.9925L321.234 29.8182C322.357 29.1456 323.479 29.1456 324.602 29.8182L336.948 36.9925C337.622 37.4409 337.622 38.3377 336.948 38.7861L324.826 45.7362C323.479 46.4087 322.132 46.4087 321.01 45.7362Z" fill="white"/>
<path opacity="0.43" d="M357.821 84.0738L345.026 76.6753C343.679 76.0027 342.107 76.0027 340.985 76.6753L328.414 83.8496V88.3336L338.965 94.6111H345.25L358.046 86.9884C358.944 86.0916 358.943 84.7464 357.821 84.0738Z" fill="#0C25BA"/>
<path d="M325.498 65.4655V86.7642C325.498 86.9884 325.723 87.4368 325.947 87.661L337.171 94.1627C338.293 94.8353 339.416 94.8353 340.538 94.1627L351.762 87.661C351.987 87.4368 352.211 87.2126 352.211 86.7642V65.4655H325.498Z" fill="url(#paint72_linear)"/>
<path d="M337.171 72.6398L325.946 66.1381C325.273 65.6897 325.273 64.7929 325.946 64.5687L337.171 58.067C338.069 57.6186 339.191 57.6186 340.089 58.067L351.537 64.5687C352.211 65.0171 352.211 65.9139 351.537 66.1381L340.313 72.6398C339.64 73.3124 338.293 73.3124 337.171 72.6398Z" fill="white"/>
<path d="M344.128 66.3623C344.577 65.4655 344.802 64.5687 344.802 63.2235C344.802 58.7396 341.659 53.1347 337.618 50.8927C336.496 50.2201 335.598 49.9959 334.7 49.9959C334.027 49.9959 333.353 49.9959 332.904 50.2201L336.047 48.6507C337.394 47.7539 339.19 47.9781 341.21 49.0991C345.251 51.3411 348.394 56.946 348.394 61.4299C348.394 63.4477 347.72 65.0171 346.598 65.9139C346.598 65.9139 346.373 65.9139 346.373 66.1381L342.781 68.1558C343.23 67.4833 343.679 67.0349 344.128 66.3623Z" fill="#FFD33F"/>
<path d="M332.905 50.2201C333.354 49.9959 334.027 49.7717 334.701 49.9959C335.599 49.9959 336.497 50.4443 337.619 50.8927C341.66 53.1347 344.802 58.7396 344.802 63.2235C344.802 64.5687 344.578 65.4655 344.129 66.3623C343.68 67.0349 343.231 67.4832 342.782 67.9316C341.435 68.6042 339.639 68.6042 337.619 67.4832C333.578 65.2413 330.436 59.6364 330.436 55.1524C330.436 52.6863 331.333 50.8927 332.905 50.2201Z" fill="url(#paint73_linear)"/>
<path d="M327.292 37.6651C327.741 36.7683 327.966 35.8715 327.966 34.5263C327.966 30.0424 324.823 24.4375 320.782 22.1955C319.66 21.5229 318.762 21.2987 317.864 21.2987C317.191 21.2987 316.517 21.2987 316.068 21.5229L319.211 19.9535C320.558 19.0567 322.354 19.2809 324.374 20.4019C328.415 22.6439 331.558 28.2488 331.558 32.7327C331.558 34.7505 330.884 36.3199 329.762 37.2167C329.762 37.2167 329.537 37.2167 329.537 37.4409L325.946 39.4586C326.395 38.7861 326.844 38.1135 327.292 37.6651Z" fill="#FFD33F"/>
<path d="M316.069 21.2987C316.518 21.0745 317.191 20.8503 317.865 21.0745C318.763 21.0745 319.661 21.5229 320.783 21.9713C324.824 24.2133 327.966 29.8182 327.966 34.3021C327.966 35.6473 327.742 36.5441 327.293 37.4409C326.844 38.1135 326.395 38.5619 325.946 39.0103C324.599 39.6828 322.803 39.6828 320.783 38.5619C316.742 36.3199 313.6 30.715 313.6 26.231C313.6 23.7649 314.498 21.9713 316.069 21.2987Z" fill="url(#paint74_linear)"/>
<path d="M320.557 29.594L321.679 29.3698V28.0246L320.557 28.2488V25.5584L318.536 24.4374V28.6972L317.414 28.9214V30.2666L318.536 30.0424V33.1811L323.475 35.8715V34.0779L320.557 32.2843V29.594Z" fill="#FFD33F"/>
<path d="M306.194 95.7321L306.868 95.5079V94.6111L306.194 94.8353V93.0417L304.847 92.1449V95.0595L303.949 95.2837V96.1804L304.847 95.9562V98.1982L308.214 99.9918V98.8708L306.194 97.5256V95.7321Z" fill="#FFD33F"/>
<path d="M337.172 53.583L334.479 57.3944L337.172 64.3445L339.866 60.5331L337.172 53.583Z" fill="#FFD33F"/>
<path d="M316.518 47.0813C316.518 46.4087 316.07 45.512 315.621 45.0636C315.172 44.8394 314.723 45.0636 314.723 45.7362V53.583L316.743 54.704V47.0813H316.518Z" fill="#212D60"/>
<path d="M314.498 53.583V74.2092C314.498 74.8817 314.947 75.7785 315.396 76.2269C315.845 76.4511 316.294 76.2269 316.294 75.5543V54.9282L314.498 53.583Z" fill="url(#paint75_linear)"/>
<path d="M333.13 73.5366C333.13 72.864 332.681 71.9672 332.232 71.5188C331.783 71.2946 331.334 71.5188 331.334 72.1914V80.0383L333.354 81.1593V73.5366H333.13Z" fill="#212D60"/>
<path d="M331.109 80.0383V85.1948C331.109 85.8674 331.558 86.7642 332.007 87.2126C332.456 87.4368 332.905 87.2126 332.905 86.54V81.3834L331.109 80.0383Z" fill="url(#paint76_linear)"/>
<path opacity="0.43" d="M377.802 92.3691L363.884 84.298C362.538 83.4012 360.742 83.4012 359.395 84.298L346.15 95.9562L357.15 104.027H363.884L377.578 95.5078C379.149 94.6111 379.149 93.0417 377.802 92.3691Z" fill="#0C25BA"/>
<path d="M371.517 56.0492H342.559V95.5079C342.559 95.9562 342.783 96.1804 343.008 96.4046L355.13 103.355C356.252 104.027 357.599 104.027 358.721 103.355L370.843 96.4046C371.292 96.1804 371.292 95.732 371.292 95.5079C371.517 95.5079 371.517 56.0492 371.517 56.0492Z" fill="url(#paint77_linear)"/>
<path d="M355.129 64.1203L343.007 57.1702C342.334 56.7218 342.334 55.825 343.007 55.3766L355.354 48.2023C356.476 47.5297 357.598 47.5297 358.721 48.2023L371.067 55.3766C371.741 55.825 371.741 56.7218 371.067 57.1702L358.945 64.1203C357.598 64.7929 356.251 64.7929 355.129 64.1203Z" fill="white"/>
<path d="M360.292 56.4976C360.741 55.6008 360.966 54.704 360.966 53.3588C360.966 48.8749 357.823 43.27 353.782 41.028C352.66 40.3554 351.762 40.1312 350.864 40.1312C350.191 40.1312 349.517 40.1312 349.068 40.3554L352.211 38.7861C353.558 37.8893 355.354 38.1135 357.374 39.2344C361.415 41.4764 364.558 47.0813 364.558 51.5653C364.558 53.583 363.884 55.1524 362.762 56.0492C362.762 56.0492 362.537 56.0492 362.537 56.2734L358.946 58.2912C359.394 57.6186 360.068 57.1702 360.292 56.4976Z" fill="#FFD33F"/>
<path d="M349.069 40.3555C349.518 40.1313 350.191 39.9071 350.865 40.1313C351.763 40.1313 352.661 40.5796 353.783 41.028C357.824 43.27 360.966 48.8749 360.966 53.3589C360.966 54.7041 360.742 55.6008 360.293 56.4976C359.844 57.1702 359.395 57.6186 358.946 58.067C357.599 58.7396 355.803 58.7396 353.783 57.6186C349.742 55.3766 346.6 49.7717 346.6 45.2878C346.824 42.5974 347.722 41.028 349.069 40.3555Z" fill="url(#paint78_linear)"/>
<path d="M356.253 51.1169C356.029 50.6685 355.804 50.2201 355.355 49.7717C355.804 49.7717 356.029 49.7717 356.253 49.5475C356.478 49.3233 356.478 49.0991 356.478 48.4265C356.478 47.7539 356.253 47.0813 355.804 46.4088C355.58 45.9604 355.131 45.7362 354.682 45.2878V44.1668L354.008 43.7184V44.8394L353.784 44.6152L353.11 44.1668V43.0458L352.437 42.5974V43.7184L351.314 43.0458V51.3411L352.437 52.0137V52.9105L353.11 53.3589V52.4621L354.008 53.1347V54.0314L354.682 54.4798V53.3589C355.131 53.5831 355.58 53.5831 356.029 53.5831C356.478 53.3589 356.702 52.9105 356.702 52.2379C356.702 52.0137 356.478 51.5653 356.253 51.1169ZM353.11 46.1846L353.559 46.4088C354.233 46.8572 354.457 47.0813 354.457 47.7539C354.457 47.9781 354.457 48.2023 354.233 48.2023C354.008 48.2023 353.784 48.2023 353.559 47.9781L352.886 47.5297L353.11 46.1846ZM353.784 51.3411L353.11 50.8927V49.0991L353.784 49.5475C354.008 49.7717 354.233 49.9959 354.457 50.2201C354.682 50.4443 354.682 50.6685 354.682 51.1169C354.682 51.5653 354.233 51.7895 353.784 51.3411Z" fill="#FFD33F"/>
<path d="M269.828 76.4511C269.604 76.2269 269.604 76.0027 269.379 75.7785C269.604 75.7785 269.828 75.7785 269.828 75.5543C270.053 75.3301 270.053 75.3301 270.053 74.8818C270.053 74.4334 269.828 73.985 269.604 73.7608C269.379 73.5366 269.155 73.3124 268.93 73.0882V72.4156L268.481 72.1914V72.864H268.257L267.808 72.6398V71.9672L267.359 71.743V72.4156L266.686 71.9672V76.6753L267.359 77.1237V77.7963L267.808 78.0205V77.3479L268.257 77.5721V78.2447L268.706 78.4689V77.7963C268.93 77.7963 269.155 78.0205 269.379 77.7963C269.604 77.7963 269.828 77.3479 269.828 77.1237C270.053 76.8995 270.053 76.6753 269.828 76.4511ZM268.032 73.7608L268.257 73.985C268.706 74.2092 268.706 74.4334 268.706 74.6576C268.706 74.8818 268.706 74.8818 268.481 74.8818C268.481 74.8818 268.257 74.8818 268.032 74.8818L267.583 74.6576L268.032 73.7608ZM268.481 76.6753L268.032 76.4511V75.5543L268.481 75.7785C268.706 75.7785 268.706 76.0027 268.93 76.2269C268.93 76.4511 269.155 76.4511 269.155 76.6753C268.93 76.8995 268.706 76.8995 268.481 76.6753Z" fill="#FFD33F"/>
<path d="M350.417 67.0349C350.417 66.3623 349.968 65.4655 349.519 65.0171C349.07 64.7929 348.621 65.0171 348.621 65.6897V68.6042L350.641 69.7252V67.0349H350.417Z" fill="#212D60"/>
<path d="M348.395 68.8284V94.1627C348.395 94.8353 348.844 95.7321 349.292 96.1804C349.741 96.4046 350.19 96.1804 350.19 95.5078V69.9494L348.395 68.8284Z" fill="url(#paint79_linear)"/>
<path d="M279.926 15.2454C279.701 15.2454 279.701 15.4696 279.477 15.4696V15.918C279.477 15.918 279.477 16.1422 279.252 16.1422C279.252 16.1422 279.253 16.1422 279.028 16.1422C279.028 16.1422 279.028 16.1422 279.028 15.918C279.028 15.6938 278.804 15.4696 278.579 15.4696C278.355 15.4696 278.13 15.6938 278.13 15.918C278.13 16.1422 278.13 16.1422 278.355 16.3664C278.13 16.5906 278.13 16.8148 277.906 17.039C277.681 17.2632 277.232 17.4874 277.008 17.4874H276.783C276.783 18.1599 276.783 18.8325 276.783 19.5051C276.783 19.9535 278.355 19.9535 278.355 19.5051C278.355 19.0567 278.355 18.3841 278.355 17.9358C279.477 17.9358 280.15 17.039 280.15 16.3664V14.5728C280.375 14.797 280.15 15.2454 279.926 15.2454Z" fill="#FF969B"/>
<path d="M277.233 17.2632C277.682 17.4874 277.906 17.2632 278.131 16.8148C278.355 16.5906 278.355 16.3664 278.58 16.1422C278.58 16.1422 278.355 15.918 278.355 15.6938C278.355 15.4696 278.58 15.2454 278.804 15.2454C279.029 15.2454 279.253 15.4696 279.253 15.6938C279.253 15.6938 279.253 15.6938 279.253 15.918C279.253 15.918 279.478 15.918 279.478 15.6938V15.4696C279.702 15.4696 279.702 15.2454 279.927 15.2454C280.151 15.0212 280.376 14.797 280.6 14.5728C280.6 14.5728 280.6 14.3486 280.825 14.3486C281.049 14.1244 281.049 13.9002 281.049 13.4518V13.2276C281.049 13.0034 280.6 13.0034 280.376 13.0034H280.151C279.927 13.0034 279.927 13.2276 279.702 13.2276C278.58 13.0034 277.008 13.2276 276.559 13.676C275.662 14.797 276.559 16.5906 277.233 17.2632Z" fill="#FFD33F"/>
<path d="M276.561 30.9392C275.214 28.473 274.091 26.0068 272.744 23.5407C272.52 23.7649 272.52 23.7649 272.295 23.9891C272.295 23.7649 272.52 23.5407 272.52 23.3165C272.52 23.3165 272.52 23.5407 272.744 23.5407C272.969 23.3165 272.969 23.3165 273.193 23.0923L271.846 22.1955C271.622 22.4197 271.397 22.6439 271.173 22.8681C270.948 23.0923 270.724 23.3165 270.948 23.5407C272.295 26.231 273.642 28.6972 274.765 31.3876C275.214 32.0602 277.009 31.836 276.561 30.9392Z" fill="#FF969B"/>
<path d="M273.866 22.4197L272.519 21.2987C272.295 21.5229 272.07 21.7471 271.846 21.9713L273.193 22.8681C273.417 22.8681 273.642 22.6439 273.866 22.4197Z" fill="white"/>
<path d="M272.295 23.7649C272.519 23.5407 272.519 23.5407 272.744 23.3165C272.744 23.3165 272.744 23.0923 272.519 23.0923C272.519 23.3165 272.519 23.5407 272.295 23.7649Z" fill="#FF969B"/>
<path d="M281.948 53.3589C281.499 53.1347 280.376 53.1347 279.927 53.3589L279.03 53.8072C278.356 54.0314 278.356 54.4798 278.805 54.704C279.254 54.9282 280.376 54.9282 280.825 54.704L281.723 54.2556C282.397 54.0314 282.397 53.8072 281.948 53.3589Z" fill="#212D60"/>
<path d="M278.581 51.1169C278.132 50.8927 277.009 50.8927 276.56 51.1169L275.662 51.5653C274.989 51.7895 274.989 52.2379 275.438 52.4621C275.887 52.6863 277.009 52.6863 277.458 52.4621L278.356 52.0137C279.03 51.7895 279.03 51.3411 278.581 51.1169Z" fill="#212D60"/>
<path d="M281.275 33.4053C281.275 31.836 278.357 31.836 278.357 33.4053C278.357 34.0779 278.357 34.5263 278.357 35.1989L277.01 34.5263C277.01 33.6295 277.01 32.7327 276.785 31.836C276.785 30.2666 273.642 30.2666 273.867 31.836C274.316 38.1135 274.54 44.6152 274.765 50.8927C274.765 52.4621 277.683 52.4621 277.683 50.8927C277.683 45.9604 277.459 41.2522 277.234 36.3199L278.357 36.9925C278.132 42.3732 278.132 47.9781 278.357 53.3588C278.357 54.9282 281.275 54.9282 281.275 53.3588C280.601 46.8571 280.826 40.1312 281.275 33.4053Z" fill="url(#paint80_linear)"/>
<path d="M281.5 24.8858C281.724 25.11 281.724 25.3342 281.949 25.5584L283.745 24.8858C283.52 24.6617 283.52 24.4375 283.296 24.2133L281.5 24.8858Z" fill="white"/>
<path d="M281.499 24.8858L283.295 24.2133V23.9891C282.621 22.8681 282.173 21.7471 281.499 20.6261C281.499 20.6261 281.499 20.6261 281.499 20.4019C281.05 19.7293 280.377 19.0567 279.479 18.8325C279.703 18.6083 279.479 18.3841 279.03 18.1599L277.683 17.9357C277.458 17.9357 277.009 17.9357 277.009 18.1599C276.785 18.1599 276.785 18.1599 276.56 18.1599C275.887 18.1599 275.438 18.6083 274.989 19.0567C274.316 19.7293 273.642 20.4019 272.969 21.0745L274.091 21.9713V32.2843C274.316 33.4053 275.214 34.0779 278.805 35.4231C279.254 35.6473 279.928 35.8715 280.601 35.8715C281.275 35.8715 281.499 35.6473 281.724 35.1989C281.948 34.7505 281.724 33.1811 281.724 32.7327C281.275 28.9214 281.275 26.231 281.499 24.8858C281.275 24.6617 281.499 24.8858 281.499 24.8858Z" fill="url(#paint81_linear)"/>
<path d="M281.051 36.3199C280.826 36.3199 280.826 36.3199 280.826 36.0957V35.4231C280.826 35.4231 280.826 35.1989 281.051 35.1989H281.275C281.275 35.1989 281.5 35.1989 281.5 35.4231L281.051 36.3199C281.275 36.0957 281.275 36.3199 281.051 36.3199Z" fill="#FD256F"/>
<path d="M279.929 33.8537L281.276 33.1811C281.501 32.9569 281.725 32.5085 281.725 32.0601C281.725 31.6118 281.276 31.3876 281.052 31.6118L279.705 32.2843C279.48 32.5085 279.256 32.9569 279.256 33.4053C279.256 33.6295 279.48 33.8537 279.929 33.8537Z" fill="#FF969B"/>
<path d="M283.52 24.8859L281.724 25.5585C281.948 26.0068 282.173 26.231 282.397 26.6794C281.499 28.473 280.377 30.4908 279.479 32.2844C279.03 33.1811 280.152 33.6295 280.601 32.9569C281.05 31.836 281.948 31.1634 282.397 30.0424C283.744 27.1278 285.091 27.1278 283.52 24.8859Z" fill="#FF969B"/>
<path d="M166.976 183.608C162.706 181.139 157.313 179.792 151.695 179.792L151.92 192.36L166.976 183.608Z" fill="#FFD33F"/>
<path d="M161.361 211.212C161.586 211.212 161.586 211.212 161.811 210.988C161.586 211.212 161.586 211.212 161.361 211.212Z" fill="#FBA129"/>
<path d="M160.459 211.661C160.684 211.661 160.684 211.661 160.908 211.661C160.684 211.437 160.684 211.437 160.459 211.661Z" fill="#FBA129"/>
<path d="M166.976 183.608L151.92 192.36V199.542L166.976 206.948V183.608Z" fill="url(#paint82_linear)"/>
<path d="M166.076 209.417C166.301 209.192 166.526 209.193 166.975 208.968C166.526 209.193 166.301 209.417 166.076 209.417Z" fill="#FBA129"/>
<path d="M162.482 210.988C162.707 210.988 162.707 210.988 162.932 210.763C162.707 210.988 162.482 210.988 162.482 210.988Z" fill="#FBA129"/>
<path d="M165.178 209.866C165.402 209.866 165.627 209.641 165.627 209.641C165.402 209.641 165.402 209.866 165.178 209.866Z" fill="#FBA129"/>
<path d="M163.381 210.763C163.606 210.763 163.606 210.539 163.83 210.539C163.606 210.539 163.381 210.539 163.381 210.763Z" fill="#FBA129"/>
<path d="M164.279 210.315C164.504 210.315 164.504 210.09 164.729 210.09C164.504 210.09 164.279 210.315 164.279 210.315Z" fill="#FBA129"/>
<path d="M157.537 212.334H157.762C157.537 212.11 157.537 212.11 157.537 212.334Z" fill="#FBA129"/>
<path d="M159.561 211.886H159.785C159.785 211.661 159.561 211.886 159.561 211.886Z" fill="#FBA129"/>
<path d="M135.29 231.186V208.968H135.515L135.739 208.744V197.298V185.852C133.267 184.505 131.47 182.71 130.346 180.915C130.121 180.69 130.121 180.466 130.121 180.241C129.897 179.792 129.672 179.344 129.672 179.119C129.672 179.119 129.672 179.119 129.672 178.895C129.672 178.67 129.672 178.67 129.447 178.446V178.221C129.447 177.997 129.447 177.997 129.447 177.773C129.447 177.773 129.447 177.773 129.447 177.548C129.447 177.324 129.447 177.324 129.447 177.099C129.447 176.875 129.447 176.65 129.447 176.426V197.073V212.11V222.658C129.672 225.8 131.919 228.942 135.964 231.186C135.515 231.411 135.29 231.186 135.29 231.186Z" fill="url(#paint83_linear)"/>
<path d="M135.516 185.852V197.298V208.744L151.92 199.318V192.136L151.695 179.568V176.426L135.516 185.852Z" fill="url(#paint84_linear)"/>
<path d="M129 177.773C129 177.997 129 178.221 129 178.446V178.67C129 178.895 129 178.895 129.225 179.119C129.225 179.119 129.225 179.119 129.225 179.344C129.449 179.792 129.449 180.241 129.674 180.466C129.899 180.69 129.899 180.915 130.124 181.139C131.247 182.934 133.045 184.73 135.517 186.076L151.696 176.875L136.865 167C136.416 167.224 135.741 167.449 135.292 167.898C131.247 170.142 129 173.284 129 176.65C129 176.875 129 177.099 129 177.324C129 177.324 129 177.548 129 177.773Z" fill="#ED3BEF"/>
<path d="M168.83 207.098C168.603 207.318 168.376 207.538 168.149 207.538C167.694 207.758 167.467 207.978 167.013 208.198C166.786 208.419 166.559 208.419 166.105 208.639C166.105 208.639 165.878 208.639 165.878 208.859C165.651 208.859 165.424 209.079 165.424 209.079C165.197 209.079 165.197 209.299 164.97 209.299C164.743 209.299 164.743 209.519 164.516 209.519C164.289 209.519 164.289 209.739 164.062 209.739C163.835 209.739 163.835 209.959 163.608 209.959C163.381 209.959 163.154 210.179 163.154 210.179C162.927 210.179 162.927 210.179 162.7 210.4C162.472 210.4 162.245 210.62 162.018 210.62C161.791 210.62 161.791 210.62 161.564 210.84C161.337 210.84 161.11 211.06 160.883 211.06C160.656 211.06 160.656 211.06 160.429 211.06C160.202 211.06 159.975 211.06 159.748 211.28H159.521C159.294 211.28 159.067 211.28 158.84 211.5H158.613C158.386 211.5 158.159 211.5 157.932 211.72H157.705C157.477 211.72 157.25 211.72 156.796 211.94H156.569C156.342 211.94 155.888 211.94 155.661 212.161C155.661 212.161 155.661 212.161 155.434 212.161C155.207 212.161 154.753 212.161 154.526 212.161C154.526 212.161 154.526 212.161 154.299 212.161C154.072 212.161 153.618 212.161 153.391 212.161C152.937 212.161 152.71 212.161 152.255 212.161C151.801 212.161 151.574 212.161 151.12 212.161C145.444 212.161 139.541 210.84 135.227 208.419H135V230.21C135 230.21 135.227 230.21 135.227 230.43C138.406 232.191 142.492 233.292 146.579 233.732C153.618 234.613 161.337 233.292 166.786 230.21C167.467 229.77 168.376 229.33 168.83 228.89V207.098C169.057 207.098 169.057 206.878 168.83 207.098Z" fill="url(#paint85_linear)"/>
<path d="M151.924 199.318L135.52 208.744L135.295 208.968C139.789 211.437 145.407 212.783 151.025 212.783C151.474 212.783 151.699 212.783 152.148 212.783C152.598 212.783 152.823 212.783 153.272 212.783C153.721 212.783 153.946 212.783 154.396 212.783C154.396 212.783 154.396 212.783 154.62 212.783C154.845 212.783 155.294 212.783 155.519 212.783C155.519 212.783 155.519 212.783 155.744 212.783C155.969 212.783 156.418 212.783 156.643 212.559H156.867C157.092 212.559 157.317 212.559 157.766 212.334H157.991C158.216 212.334 158.44 212.334 158.665 212.11H158.89C159.115 212.11 159.339 212.11 159.564 211.886H159.789C160.013 211.886 160.238 211.886 160.463 211.661C160.687 211.661 160.687 211.661 160.912 211.661C161.137 211.661 161.362 211.661 161.586 211.437C161.811 211.437 161.811 211.437 162.036 211.212C162.26 211.212 162.485 210.988 162.71 210.988C162.935 210.988 162.935 210.988 163.159 210.763C163.384 210.763 163.609 210.539 163.609 210.539C163.833 210.539 163.833 210.315 164.058 210.315C164.283 210.315 164.283 210.09 164.508 210.09C164.732 210.09 164.732 209.866 164.957 209.866C165.182 209.866 165.182 209.641 165.406 209.641C165.631 209.641 165.856 209.417 165.856 209.417C165.856 209.417 166.081 209.417 166.081 209.192C166.305 208.968 166.53 208.968 166.979 208.744C167.429 208.519 167.654 208.295 168.103 208.07C168.328 207.846 168.552 207.846 168.777 207.621L169.002 207.397L167.204 206.499L151.924 199.318Z" fill="#FF7364"/>
<path d="M352.435 134.967L355.353 133.397C355.802 133.173 356.027 132.725 356.027 132.276C356.027 131.828 355.802 131.604 355.353 131.828L352.435 133.397C351.986 133.621 351.762 134.07 351.762 134.518C351.986 134.742 352.211 134.967 352.435 134.967Z" fill="#FFD33F"/>
<path d="M339.642 142.365L342.56 140.796C343.009 140.571 343.234 140.123 343.234 139.675C343.234 139.226 343.009 139.002 342.56 139.226L339.642 140.796C339.193 141.02 338.969 141.468 338.969 141.917C338.969 142.365 339.193 142.589 339.642 142.365Z" fill="#FFD33F"/>
<path d="M326.845 149.764L329.764 148.194C330.213 147.97 330.437 147.522 330.437 147.073C330.437 146.625 330.213 146.401 329.764 146.625L326.845 148.194C326.396 148.418 326.172 148.867 326.172 149.315C326.172 149.764 326.396 149.988 326.845 149.764Z" fill="#FFD33F"/>
<path d="M312.927 157.835L315.846 156.265C316.295 156.041 316.519 155.593 316.519 155.144C316.519 154.696 316.295 154.472 315.846 154.696L312.927 156.265C312.478 156.489 312.254 156.938 312.254 157.386C312.254 157.835 312.478 158.059 312.927 157.835Z" fill="#FFD33F"/>
<path d="M327.519 199.087L330.661 197.293C331.11 197.069 331.11 196.621 330.437 196.396C329.988 196.172 329.09 196.172 328.641 196.396L325.498 198.19C325.049 198.414 325.049 198.863 325.723 199.087C326.396 199.311 327.294 199.311 327.519 199.087Z" fill="url(#paint86_linear)"/>
<path d="M341.212 191.913L344.355 190.119C344.804 189.895 344.804 189.446 344.13 189.222C343.681 188.998 342.783 188.998 342.335 189.222L339.192 191.016C338.743 191.24 338.743 191.688 339.416 191.913C340.09 192.137 340.763 192.137 341.212 191.913Z" fill="url(#paint87_linear)"/>
<path d="M354.232 184.29L357.374 182.496C357.823 182.272 357.823 181.824 357.15 181.599C356.701 181.375 355.803 181.375 355.354 181.599L352.211 183.393C351.762 183.617 351.762 184.066 352.436 184.29C352.885 184.514 353.783 184.738 354.232 184.29Z" fill="url(#paint88_linear)"/>
<path d="M367.251 176.891L370.394 175.098C370.843 174.874 370.843 174.425 370.17 174.201C369.721 173.977 368.823 173.977 368.374 174.201L365.231 175.995C364.782 176.219 364.782 176.667 365.455 176.891C365.904 177.116 366.802 177.116 367.251 176.891Z" fill="url(#paint89_linear)"/>
<path d="M328.418 198.19H327.744V165.009C327.744 164.336 327.295 163.664 326.622 163.215L314.051 156.489L314.275 155.817L326.846 162.543C327.744 162.991 328.193 163.888 328.193 164.785V198.19H328.418Z" fill="url(#paint90_linear)"/>
<path d="M342.334 190.343H341.66V157.162C341.66 156.489 341.211 155.817 340.538 155.368L327.967 148.643L328.191 147.97L340.762 154.696C341.66 155.144 342.109 156.041 342.109 156.938V190.343H342.334Z" fill="url(#paint91_linear)"/>
<path d="M355.13 182.945H354.457V149.763C354.457 149.091 354.008 148.418 353.335 147.97L340.764 141.244L340.988 140.571L353.559 147.297C354.457 147.746 354.906 148.642 354.906 149.539V182.945H355.13Z" fill="url(#paint92_linear)"/>
<path d="M368.15 175.546H367.477V142.141C367.477 141.468 367.028 140.796 366.354 140.347L353.783 133.621L354.008 132.949L366.579 139.675C367.477 140.123 367.926 141.02 367.926 141.917V175.546H368.15Z" fill="url(#paint93_linear)"/>
</g>
<defs>
<linearGradient id="paint0_linear" x1="562.999" y1="92.8606" x2="-55.6745" y2="87.0261" gradientUnits="userSpaceOnUse">
<stop offset="0.0364583" stop-color="#2C3043"/>
<stop offset="0.192708" stop-color="#7F83A8"/>
<stop offset="0.3398" stop-color="#72769F"/>
<stop offset="0.4085" stop-color="#9395A3"/>
<stop offset="0.4896" stop-color="#20263D"/>
<stop offset="0.5796" stop-color="#454651"/>
<stop offset="0.782558" stop-color="#46474F"/>
</linearGradient>
<linearGradient id="paint1_linear" x1="389.047" y1="158.091" x2="148.986" y2="156.786" gradientUnits="userSpaceOnUse">
<stop offset="0.0776477" stop-color="#242538"/>
<stop offset="0.3398" stop-color="#8D90B3"/>
<stop offset="0.4085" stop-color="#818497"/>
<stop offset="0.4896" stop-color="#444553"/>
<stop offset="0.5796" stop-color="#24252F"/>
<stop offset="0.782558" stop-color="#46474F"/>
</linearGradient>
<linearGradient id="paint2_linear" x1="279.731" y1="31.6118" x2="279.731" y2="158.395" gradientUnits="userSpaceOnUse">
<stop stop-color="#F1F3F5"/>
<stop offset="1" stop-color="#4D4E68"/>
</linearGradient>
<linearGradient id="paint3_linear" x1="290.192" y1="68.6574" x2="320.642" y2="68.6574" gradientUnits="userSpaceOnUse">
<stop offset="0.2919" stop-color="#EAEAF9"/>
<stop offset="0.388" stop-color="#E3E3F7"/>
<stop offset="0.5253" stop-color="#D0D0F2"/>
<stop offset="0.627" stop-color="#BEBEED"/>
</linearGradient>
<linearGradient id="paint4_linear" x1="229.57" y1="97.0212" x2="194.101" y2="97.0212" gradientUnits="userSpaceOnUse">
<stop offset="0.2919" stop-color="#EAEAF9"/>
<stop offset="0.388" stop-color="#E3E3F7"/>
<stop offset="0.5253" stop-color="#D0D0F2"/>
<stop offset="0.627" stop-color="#BEBEED"/>
</linearGradient>
<linearGradient id="paint5_linear" x1="211.202" y1="69.4954" x2="236.335" y2="69.4954" gradientUnits="userSpaceOnUse">
<stop stop-color="#FF6F1B"/>
<stop offset="1" stop-color="#FF3933"/>
</linearGradient>
<linearGradient id="paint6_linear" x1="218.659" y1="70.2035" x2="207.163" y2="70.2035" gradientUnits="userSpaceOnUse">
<stop offset="0.0108108" stop-color="#9FAFFC"/>
<stop offset="1" stop-color="#E6F6FF"/>
</linearGradient>
<linearGradient id="paint7_linear" x1="218.091" y1="80.7308" x2="205.923" y2="80.7308" gradientUnits="userSpaceOnUse">
<stop offset="0.0108108" stop-color="#2234A4"/>
<stop offset="0.1346" stop-color="#263299"/>
<stop offset="0.4553" stop-color="#2F2D81"/>
<stop offset="0.7521" stop-color="#342A72"/>
<stop offset="1" stop-color="#36296D"/>
</linearGradient>
<linearGradient id="paint8_linear" x1="222.232" y1="82.7993" x2="209.31" y2="82.7993" gradientUnits="userSpaceOnUse">
<stop offset="0.0108108" stop-color="#2234A4"/>
<stop offset="0.1346" stop-color="#263299"/>
<stop offset="0.4553" stop-color="#2F2D81"/>
<stop offset="0.7521" stop-color="#342A72"/>
<stop offset="1" stop-color="#36296D"/>
</linearGradient>
<linearGradient id="paint9_linear" x1="213.749" y1="84.211" x2="214.242" y2="70.7733" gradientUnits="userSpaceOnUse">
<stop offset="0.0108108" stop-color="#9FAFFC"/>
<stop offset="1" stop-color="#E6F6FF"/>
</linearGradient>
<linearGradient id="paint10_linear" x1="414.91" y1="172.141" x2="506.273" y2="172.141" gradientUnits="userSpaceOnUse">
<stop stop-color="#FDA758"/>
<stop offset="1" stop-color="#FD256F"/>
</linearGradient>
<linearGradient id="paint11_linear" x1="443.473" y1="172.136" x2="499.924" y2="172.136" gradientUnits="userSpaceOnUse">
<stop stop-color="#FFD33F"/>
<stop offset="1" stop-color="#FF7364"/>
</linearGradient>
<linearGradient id="paint12_linear" x1="71.9941" y1="173.664" x2="122.64" y2="179.35" gradientUnits="userSpaceOnUse">
<stop stop-color="white"/>
<stop offset="0.369792" stop-color="#EBF4FF"/>
<stop offset="0.760417" stop-color="#F9A17E"/>
<stop offset="1" stop-color="white"/>
</linearGradient>
<linearGradient id="paint13_linear" x1="132.379" y1="147.882" x2="142.395" y2="180.571" gradientUnits="userSpaceOnUse">
<stop stop-color="white"/>
<stop offset="0.369792" stop-color="#CDE4FF"/>
<stop offset="0.760417" stop-color="#FFDDCF"/>
<stop offset="1" stop-color="white"/>
</linearGradient>
<linearGradient id="paint14_linear" x1="116.889" y1="166.938" x2="150.295" y2="170.73" gradientUnits="userSpaceOnUse">
<stop stop-color="white"/>
<stop offset="0.369792" stop-color="#EBF4FF"/>
<stop offset="0.760417" stop-color="#F9A17E"/>
<stop offset="1" stop-color="white"/>
</linearGradient>
<linearGradient id="paint15_linear" x1="94.666" y1="202.81" x2="96.6811" y2="209.351" gradientUnits="userSpaceOnUse">
<stop stop-color="white"/>
<stop offset="0.369792" stop-color="#CDE4FF"/>
<stop offset="0.760417" stop-color="#FFDDCF"/>
<stop offset="1" stop-color="white"/>
</linearGradient>
<linearGradient id="paint16_linear" x1="108.809" y1="178.148" x2="113.808" y2="194.458" gradientUnits="userSpaceOnUse">
<stop stop-color="white"/>
<stop offset="0.369792" stop-color="#CDE4FF"/>
<stop offset="0.760417" stop-color="#FFDDCF"/>
<stop offset="1" stop-color="white"/>
</linearGradient>
<linearGradient id="paint17_linear" x1="254.588" y1="300.842" x2="339.502" y2="153.585" gradientUnits="userSpaceOnUse">
<stop stop-color="#FFD33F"/>
<stop offset="1" stop-color="#FD256F"/>
</linearGradient>
<linearGradient id="paint18_linear" x1="196.479" y1="243.085" x2="196.943" y2="244.481" gradientUnits="userSpaceOnUse">
<stop stop-color="white"/>
<stop offset="0.369792" stop-color="#CDE4FF"/>
<stop offset="0.760417" stop-color="#FFDDCF"/>
<stop offset="1" stop-color="white"/>
</linearGradient>
<linearGradient id="paint19_linear" x1="199.398" y1="244.655" x2="199.863" y2="246.051" gradientUnits="userSpaceOnUse">
<stop stop-color="white"/>
<stop offset="0.369792" stop-color="#CDE4FF"/>
<stop offset="0.760417" stop-color="#FFDDCF"/>
<stop offset="1" stop-color="white"/>
</linearGradient>
<linearGradient id="paint20_linear" x1="202.314" y1="246.448" x2="202.779" y2="247.844" gradientUnits="userSpaceOnUse">
<stop stop-color="white"/>
<stop offset="0.369792" stop-color="#CDE4FF"/>
<stop offset="0.760417" stop-color="#FFDDCF"/>
<stop offset="1" stop-color="white"/>
</linearGradient>
<linearGradient id="paint21_linear" x1="205.234" y1="248.018" x2="205.699" y2="249.414" gradientUnits="userSpaceOnUse">
<stop stop-color="white"/>
<stop offset="0.369792" stop-color="#CDE4FF"/>
<stop offset="0.760417" stop-color="#FFDDCF"/>
<stop offset="1" stop-color="white"/>
</linearGradient>
<linearGradient id="paint22_linear" x1="208.15" y1="249.811" x2="208.615" y2="251.207" gradientUnits="userSpaceOnUse">
<stop stop-color="white"/>
<stop offset="0.369792" stop-color="#CDE4FF"/>
<stop offset="0.760417" stop-color="#FFDDCF"/>
<stop offset="1" stop-color="white"/>
</linearGradient>
<linearGradient id="paint23_linear" x1="211.07" y1="251.381" x2="211.535" y2="252.777" gradientUnits="userSpaceOnUse">
<stop stop-color="white"/>
<stop offset="0.369792" stop-color="#CDE4FF"/>
<stop offset="0.760417" stop-color="#FFDDCF"/>
<stop offset="1" stop-color="white"/>
</linearGradient>
<linearGradient id="paint24_linear" x1="213.988" y1="253.174" x2="214.453" y2="254.57" gradientUnits="userSpaceOnUse">
<stop stop-color="white"/>
<stop offset="0.369792" stop-color="#CDE4FF"/>
<stop offset="0.760417" stop-color="#FFDDCF"/>
<stop offset="1" stop-color="white"/>
</linearGradient>
<linearGradient id="paint25_linear" x1="216.906" y1="254.968" x2="217.371" y2="256.364" gradientUnits="userSpaceOnUse">
<stop stop-color="white"/>
<stop offset="0.369792" stop-color="#CDE4FF"/>
<stop offset="0.760417" stop-color="#FFDDCF"/>
<stop offset="1" stop-color="white"/>
</linearGradient>
<linearGradient id="paint26_linear" x1="219.824" y1="256.537" x2="220.289" y2="257.933" gradientUnits="userSpaceOnUse">
<stop stop-color="white"/>
<stop offset="0.369792" stop-color="#CDE4FF"/>
<stop offset="0.760417" stop-color="#FFDDCF"/>
<stop offset="1" stop-color="white"/>
</linearGradient>
<linearGradient id="paint27_linear" x1="222.969" y1="258.331" x2="223.474" y2="259.693" gradientUnits="userSpaceOnUse">
<stop stop-color="white"/>
<stop offset="0.369792" stop-color="#CDE4FF"/>
<stop offset="0.760417" stop-color="#FFDDCF"/>
<stop offset="1" stop-color="white"/>
</linearGradient>
<linearGradient id="paint28_linear" x1="202.258" y1="234.062" x2="205.215" y2="243.849" gradientUnits="userSpaceOnUse">
<stop stop-color="white"/>
<stop offset="0.369792" stop-color="#CDE4FF"/>
<stop offset="0.760417" stop-color="#FFDDCF"/>
<stop offset="1" stop-color="white"/>
</linearGradient>
<linearGradient id="paint29_linear" x1="204.951" y1="235.631" x2="208.085" y2="245.678" gradientUnits="userSpaceOnUse">
<stop stop-color="white"/>
<stop offset="0.369792" stop-color="#CDE4FF"/>
<stop offset="0.760417" stop-color="#FFDDCF"/>
<stop offset="1" stop-color="white"/>
</linearGradient>
<linearGradient id="paint30_linear" x1="207.646" y1="237.2" x2="210.78" y2="247.248" gradientUnits="userSpaceOnUse">
<stop stop-color="white"/>
<stop offset="0.369792" stop-color="#CDE4FF"/>
<stop offset="0.760417" stop-color="#FFDDCF"/>
<stop offset="1" stop-color="white"/>
</linearGradient>
<linearGradient id="paint31_linear" x1="210.34" y1="233.613" x2="215.704" y2="250.898" gradientUnits="userSpaceOnUse">
<stop stop-color="white"/>
<stop offset="0.369792" stop-color="#CDE4FF"/>
<stop offset="0.760417" stop-color="#FFDDCF"/>
<stop offset="1" stop-color="white"/>
</linearGradient>
<linearGradient id="paint32_linear" x1="220.441" y1="238.77" x2="223.575" y2="248.817" gradientUnits="userSpaceOnUse">
<stop stop-color="white"/>
<stop offset="0.369792" stop-color="#CDE4FF"/>
<stop offset="0.760417" stop-color="#FFDDCF"/>
<stop offset="1" stop-color="white"/>
</linearGradient>
<linearGradient id="paint33_linear" x1="223.137" y1="240.563" x2="226.05" y2="250.379" gradientUnits="userSpaceOnUse">
<stop stop-color="white"/>
<stop offset="0.369792" stop-color="#CDE4FF"/>
<stop offset="0.760417" stop-color="#FFDDCF"/>
<stop offset="1" stop-color="white"/>
</linearGradient>
<linearGradient id="paint34_linear" x1="226.053" y1="242.133" x2="229.186" y2="252.18" gradientUnits="userSpaceOnUse">
<stop stop-color="white"/>
<stop offset="0.369792" stop-color="#CDE4FF"/>
<stop offset="0.760417" stop-color="#FFDDCF"/>
<stop offset="1" stop-color="white"/>
</linearGradient>
<linearGradient id="paint35_linear" x1="214.604" y1="220.385" x2="220.523" y2="239.576" gradientUnits="userSpaceOnUse">
<stop stop-color="white"/>
<stop offset="0.369792" stop-color="#CDE4FF"/>
<stop offset="0.760417" stop-color="#FFDDCF"/>
<stop offset="1" stop-color="white"/>
</linearGradient>
<linearGradient id="paint36_linear" x1="217.297" y1="222.852" x2="222.831" y2="240.782" gradientUnits="userSpaceOnUse">
<stop stop-color="white"/>
<stop offset="0.369792" stop-color="#CDE4FF"/>
<stop offset="0.760417" stop-color="#FFDDCF"/>
<stop offset="1" stop-color="white"/>
</linearGradient>
<linearGradient id="paint37_linear" x1="219.992" y1="223.524" x2="225.912" y2="242.714" gradientUnits="userSpaceOnUse">
<stop stop-color="white"/>
<stop offset="0.369792" stop-color="#CDE4FF"/>
<stop offset="0.760417" stop-color="#FFDDCF"/>
<stop offset="1" stop-color="white"/>
</linearGradient>
<linearGradient id="paint38_linear" x1="233.91" y1="225.094" x2="236.952" y2="235.203" gradientUnits="userSpaceOnUse">
<stop stop-color="white"/>
<stop offset="0.369792" stop-color="#CDE4FF"/>
<stop offset="0.760417" stop-color="#FFDDCF"/>
<stop offset="1" stop-color="white"/>
</linearGradient>
<linearGradient id="paint39_linear" x1="232.787" y1="228.008" x2="237.596" y2="243.387" gradientUnits="userSpaceOnUse">
<stop stop-color="white"/>
<stop offset="0.369792" stop-color="#CDE4FF"/>
<stop offset="0.760417" stop-color="#FFDDCF"/>
<stop offset="1" stop-color="white"/>
</linearGradient>
<linearGradient id="paint40_linear" x1="235.707" y1="229.578" x2="240.516" y2="244.956" gradientUnits="userSpaceOnUse">
<stop stop-color="white"/>
<stop offset="0.369792" stop-color="#CDE4FF"/>
<stop offset="0.760417" stop-color="#FFDDCF"/>
<stop offset="1" stop-color="white"/>
</linearGradient>
<linearGradient id="paint41_linear" x1="238.398" y1="231.147" x2="243.207" y2="246.525" gradientUnits="userSpaceOnUse">
<stop stop-color="white"/>
<stop offset="0.369792" stop-color="#CDE4FF"/>
<stop offset="0.760417" stop-color="#FFDDCF"/>
<stop offset="1" stop-color="white"/>
</linearGradient>
<linearGradient id="paint42_linear" x1="235.482" y1="240.563" x2="238.616" y2="250.611" gradientUnits="userSpaceOnUse">
<stop stop-color="white"/>
<stop offset="0.369792" stop-color="#CDE4FF"/>
<stop offset="0.760417" stop-color="#FFDDCF"/>
<stop offset="1" stop-color="white"/>
</linearGradient>
<linearGradient id="paint43_linear" x1="247.828" y1="233.165" x2="251.047" y2="243.535" gradientUnits="userSpaceOnUse">
<stop stop-color="white"/>
<stop offset="0.369792" stop-color="#CDE4FF"/>
<stop offset="0.760417" stop-color="#FFDDCF"/>
<stop offset="1" stop-color="white"/>
</linearGradient>
<linearGradient id="paint44_linear" x1="238.176" y1="234.734" x2="244.528" y2="255.152" gradientUnits="userSpaceOnUse">
<stop stop-color="white"/>
<stop offset="0.369792" stop-color="#CDE4FF"/>
<stop offset="0.760417" stop-color="#FFDDCF"/>
<stop offset="1" stop-color="white"/>
</linearGradient>
<linearGradient id="paint45_linear" x1="240.867" y1="236.303" x2="247.173" y2="256.754" gradientUnits="userSpaceOnUse">
<stop stop-color="white"/>
<stop offset="0.369792" stop-color="#CDE4FF"/>
<stop offset="0.760417" stop-color="#FFDDCF"/>
<stop offset="1" stop-color="white"/>
</linearGradient>
<linearGradient id="paint46_linear" x1="183.4" y1="246.168" x2="185.886" y2="254.373" gradientUnits="userSpaceOnUse">
<stop stop-color="white"/>
<stop offset="0.369792" stop-color="#CDE4FF"/>
<stop offset="0.760417" stop-color="#FFDDCF"/>
<stop offset="1" stop-color="white"/>
</linearGradient>
<linearGradient id="paint47_linear" x1="186.096" y1="247.738" x2="188.582" y2="255.942" gradientUnits="userSpaceOnUse">
<stop stop-color="white"/>
<stop offset="0.369792" stop-color="#CDE4FF"/>
<stop offset="0.760417" stop-color="#FFDDCF"/>
<stop offset="1" stop-color="white"/>
</linearGradient>
<linearGradient id="paint48_linear" x1="186.992" y1="250.876" x2="190.636" y2="262.861" gradientUnits="userSpaceOnUse">
<stop stop-color="white"/>
<stop offset="0.369792" stop-color="#CDE4FF"/>
<stop offset="0.760417" stop-color="#FFDDCF"/>
<stop offset="1" stop-color="white"/>
</linearGradient>
<linearGradient id="paint49_linear" x1="192.156" y1="255.584" x2="195.205" y2="265.309" gradientUnits="userSpaceOnUse">
<stop stop-color="white"/>
<stop offset="0.369792" stop-color="#CDE4FF"/>
<stop offset="0.760417" stop-color="#FFDDCF"/>
<stop offset="1" stop-color="white"/>
</linearGradient>
<linearGradient id="paint50_linear" x1="178.688" y1="251.997" x2="179.845" y2="255.777" gradientUnits="userSpaceOnUse">
<stop stop-color="white"/>
<stop offset="0.369792" stop-color="#CDE4FF"/>
<stop offset="0.760417" stop-color="#FFDDCF"/>
<stop offset="1" stop-color="white"/>
</linearGradient>
<linearGradient id="paint51_linear" x1="181.381" y1="253.567" x2="182.539" y2="257.346" gradientUnits="userSpaceOnUse">
<stop stop-color="white"/>
<stop offset="0.369792" stop-color="#CDE4FF"/>
<stop offset="0.760417" stop-color="#FFDDCF"/>
<stop offset="1" stop-color="white"/>
</linearGradient>
<linearGradient id="paint52_linear" x1="200.912" y1="264.104" x2="202.326" y2="268.851" gradientUnits="userSpaceOnUse">
<stop stop-color="white"/>
<stop offset="0.369792" stop-color="#CDE4FF"/>
<stop offset="0.760417" stop-color="#FFDDCF"/>
<stop offset="1" stop-color="white"/>
</linearGradient>
<linearGradient id="paint53_linear" x1="203.604" y1="265.673" x2="205.194" y2="270.68" gradientUnits="userSpaceOnUse">
<stop stop-color="white"/>
<stop offset="0.369792" stop-color="#CDE4FF"/>
<stop offset="0.760417" stop-color="#FFDDCF"/>
<stop offset="1" stop-color="white"/>
</linearGradient>
<linearGradient id="paint54_linear" x1="174.811" y1="203.387" x2="215.166" y2="203.387" gradientUnits="userSpaceOnUse">
<stop stop-color="#FFD33F"/>
<stop offset="1" stop-color="#FD256F"/>
</linearGradient>
<linearGradient id="paint55_linear" x1="304.169" y1="140.076" x2="268.285" y2="140.076" gradientUnits="userSpaceOnUse">
<stop offset="0.2919" stop-color="#EAEAF9"/>
<stop offset="0.388" stop-color="#E3E3F7"/>
<stop offset="0.5253" stop-color="#D0D0F2"/>
<stop offset="0.627" stop-color="#BEBEED"/>
</linearGradient>
<linearGradient id="paint56_linear" x1="311.027" y1="112.228" x2="285.571" y2="112.228" gradientUnits="userSpaceOnUse">
<stop stop-color="#FF6F1B"/>
<stop offset="1" stop-color="#FF3933"/>
</linearGradient>
<linearGradient id="paint57_linear" x1="293.928" y1="123.904" x2="281.614" y2="123.904" gradientUnits="userSpaceOnUse">
<stop stop-color="#6732EF"/>
<stop offset="0.2757" stop-color="#450D95"/>
</linearGradient>
<linearGradient id="paint58_linear" x1="298.326" y1="126.509" x2="286.134" y2="126.509" gradientUnits="userSpaceOnUse">
<stop offset="0.1297" stop-color="#6732EF"/>
<stop offset="0.7778" stop-color="#450D95"/>
</linearGradient>
<linearGradient id="paint59_linear" x1="285.097" y1="129.749" x2="285.097" y2="114.498" gradientUnits="userSpaceOnUse">
<stop offset="0.0108108" stop-color="#9FAFFC"/>
<stop offset="1" stop-color="#E6F6FF"/>
</linearGradient>
<linearGradient id="paint60_linear" x1="277.701" y1="109.311" x2="288.172" y2="109.311" gradientUnits="userSpaceOnUse">
<stop offset="0.1189" stop-color="#FDA758"/>
<stop offset="0.6749" stop-color="#FD2A6E"/>
<stop offset="1" stop-color="#FD256F"/>
</linearGradient>
<linearGradient id="paint61_linear" x1="306.307" y1="98.7311" x2="299.959" y2="98.7311" gradientUnits="userSpaceOnUse">
<stop stop-color="#FDA758"/>
<stop offset="1" stop-color="#FD256F"/>
</linearGradient>
<linearGradient id="paint62_linear" x1="237.359" y1="58.0015" x2="225.553" y2="58.0015" gradientUnits="userSpaceOnUse">
<stop stop-color="#FDA758"/>
<stop offset="1" stop-color="#FD256F"/>
</linearGradient>
<linearGradient id="paint63_linear" x1="266.533" y1="118.146" x2="230.939" y2="118.146" gradientUnits="userSpaceOnUse">
<stop offset="0.2919" stop-color="#EAEAF9"/>
<stop offset="0.388" stop-color="#E3E3F7"/>
<stop offset="0.5253" stop-color="#D0D0F2"/>
<stop offset="0.627" stop-color="#BEBEED"/>
</linearGradient>
<linearGradient id="paint64_linear" x1="248.064" y1="90.5224" x2="273.357" y2="90.5224" gradientUnits="userSpaceOnUse">
<stop stop-color="#FF6F1B"/>
<stop offset="1" stop-color="#FF3933"/>
</linearGradient>
<linearGradient id="paint65_linear" x1="255.583" y1="91.2331" x2="244.046" y2="91.2331" gradientUnits="userSpaceOnUse">
<stop offset="0.0108108" stop-color="#9FAFFC"/>
<stop offset="1" stop-color="#E6F6FF"/>
</linearGradient>
<linearGradient id="paint66_linear" x1="255.013" y1="101.798" x2="242.802" y2="101.798" gradientUnits="userSpaceOnUse">
<stop offset="0.0108108" stop-color="#2234A4"/>
<stop offset="0.1346" stop-color="#263299"/>
<stop offset="0.4553" stop-color="#2F2D81"/>
<stop offset="0.7521" stop-color="#342A72"/>
<stop offset="1" stop-color="#36296D"/>
</linearGradient>
<linearGradient id="paint67_linear" x1="259.167" y1="103.874" x2="246.198" y2="103.874" gradientUnits="userSpaceOnUse">
<stop offset="0.0108108" stop-color="#2234A4"/>
<stop offset="0.1346" stop-color="#263299"/>
<stop offset="0.4553" stop-color="#2F2D81"/>
<stop offset="0.7521" stop-color="#342A72"/>
<stop offset="1" stop-color="#36296D"/>
</linearGradient>
<linearGradient id="paint68_linear" x1="250.655" y1="105.29" x2="251.15" y2="91.8052" gradientUnits="userSpaceOnUse">
<stop offset="0.0108108" stop-color="#9FAFFC"/>
<stop offset="1" stop-color="#E6F6FF"/>
</linearGradient>
<linearGradient id="paint69_linear" x1="275.251" y1="75.6122" x2="268.679" y2="75.6122" gradientUnits="userSpaceOnUse">
<stop stop-color="#FFD33F"/>
<stop offset="1" stop-color="#FF7364"/>
</linearGradient>
<linearGradient id="paint70_linear" x1="294.966" y1="54.4274" x2="309.27" y2="54.4274" gradientUnits="userSpaceOnUse">
<stop stop-color="#FFD33F"/>
<stop offset="1" stop-color="#FF7364"/>
</linearGradient>
<linearGradient id="paint71_linear" x1="308.175" y1="61.6485" x2="337.224" y2="61.6485" gradientUnits="userSpaceOnUse">
<stop offset="0.2919" stop-color="#EAEAF9"/>
<stop offset="0.388" stop-color="#E3E3F7"/>
<stop offset="0.5253" stop-color="#D0D0F2"/>
<stop offset="0.627" stop-color="#BEBEED"/>
</linearGradient>
<linearGradient id="paint72_linear" x1="322.395" y1="79.9408" x2="349.964" y2="79.9408" gradientUnits="userSpaceOnUse">
<stop offset="0.2919" stop-color="#EAEAF9"/>
<stop offset="0.388" stop-color="#E3E3F7"/>
<stop offset="0.5253" stop-color="#D0D0F2"/>
<stop offset="0.627" stop-color="#BEBEED"/>
</linearGradient>
<linearGradient id="paint73_linear" x1="330.423" y1="59.1846" x2="344.728" y2="59.1846" gradientUnits="userSpaceOnUse">
<stop stop-color="#FFD33F"/>
<stop offset="1" stop-color="#FF7364"/>
</linearGradient>
<linearGradient id="paint74_linear" x1="313.627" y1="30.3013" x2="327.931" y2="30.3013" gradientUnits="userSpaceOnUse">
<stop stop-color="#FFD33F"/>
<stop offset="1" stop-color="#FF7364"/>
</linearGradient>
<linearGradient id="paint75_linear" x1="315.518" y1="75.8045" x2="315.518" y2="58.5604" gradientUnits="userSpaceOnUse">
<stop stop-color="#FFD33F"/>
<stop offset="1" stop-color="#FF7364"/>
</linearGradient>
<linearGradient id="paint76_linear" x1="332.145" y1="88.2923" x2="332.145" y2="71.0486" gradientUnits="userSpaceOnUse">
<stop stop-color="#FFD33F"/>
<stop offset="1" stop-color="#FF7364"/>
</linearGradient>
<linearGradient id="paint77_linear" x1="342.359" y1="80.0546" x2="371.409" y2="80.0546" gradientUnits="userSpaceOnUse">
<stop offset="0.2919" stop-color="#EAEAF9"/>
<stop offset="0.388" stop-color="#E3E3F7"/>
<stop offset="0.5253" stop-color="#D0D0F2"/>
<stop offset="0.627" stop-color="#BEBEED"/>
</linearGradient>
<linearGradient id="paint78_linear" x1="346.712" y1="49.1603" x2="361.016" y2="49.1603" gradientUnits="userSpaceOnUse">
<stop stop-color="#FFD33F"/>
<stop offset="1" stop-color="#FF7364"/>
</linearGradient>
<linearGradient id="paint79_linear" x1="349.337" y1="88.2923" x2="349.337" y2="71.0484" gradientUnits="userSpaceOnUse">
<stop stop-color="#FFD33F"/>
<stop offset="1" stop-color="#FF7364"/>
</linearGradient>
<linearGradient id="paint80_linear" x1="277.451" y1="31.6866" x2="277.193" y2="50.9451" gradientUnits="userSpaceOnUse">
<stop offset="0.0108108" stop-color="#2234A4"/>
<stop offset="0.1346" stop-color="#263299"/>
<stop offset="0.4553" stop-color="#2F2D81"/>
<stop offset="0.7521" stop-color="#342A72"/>
<stop offset="1" stop-color="#36296D"/>
</linearGradient>
<linearGradient id="paint81_linear" x1="276.785" y1="36.2268" x2="277.879" y2="21.9917" gradientUnits="userSpaceOnUse">
<stop offset="0.0108108" stop-color="#9FAFFC"/>
<stop offset="1" stop-color="#E6F6FF"/>
</linearGradient>
<linearGradient id="paint82_linear" x1="151.958" y1="195.151" x2="167.067" y2="195.151" gradientUnits="userSpaceOnUse">
<stop stop-color="#FFD33F"/>
<stop offset="1" stop-color="#FF7364"/>
</linearGradient>
<linearGradient id="paint83_linear" x1="132.256" y1="231.473" x2="132.256" y2="188.934" gradientUnits="userSpaceOnUse">
<stop stop-color="#ED3BEF"/>
<stop offset="1" stop-color="#8319AC"/>
</linearGradient>
<linearGradient id="paint84_linear" x1="156.128" y1="192.758" x2="135.617" y2="192.758" gradientUnits="userSpaceOnUse">
<stop stop-color="#ED3BEF"/>
<stop offset="1" stop-color="#8319AC"/>
</linearGradient>
<linearGradient id="paint85_linear" x1="152.211" y1="234.972" x2="152.211" y2="213.147" gradientUnits="userSpaceOnUse">
<stop stop-color="#FDA758"/>
<stop offset="1" stop-color="#FD256F"/>
</linearGradient>
<linearGradient id="paint86_linear" x1="325.5" y1="197.667" x2="330.959" y2="197.667" gradientUnits="userSpaceOnUse">
<stop stop-color="#FF7364"/>
<stop offset="0.3712" stop-color="#FF9457"/>
<stop offset="1" stop-color="#FFD33F"/>
</linearGradient>
<linearGradient id="paint87_linear" x1="339.158" y1="190.404" x2="344.617" y2="190.404" gradientUnits="userSpaceOnUse">
<stop stop-color="#FF7364"/>
<stop offset="0.3712" stop-color="#FF9457"/>
<stop offset="1" stop-color="#FFD33F"/>
</linearGradient>
<linearGradient id="paint88_linear" x1="352.065" y1="182.984" x2="357.525" y2="182.984" gradientUnits="userSpaceOnUse">
<stop stop-color="#FF7364"/>
<stop offset="0.3712" stop-color="#FF9457"/>
<stop offset="1" stop-color="#FFD33F"/>
</linearGradient>
<linearGradient id="paint89_linear" x1="365.077" y1="175.431" x2="370.537" y2="175.431" gradientUnits="userSpaceOnUse">
<stop stop-color="#FF7364"/>
<stop offset="0.3712" stop-color="#FF9457"/>
<stop offset="1" stop-color="#FFD33F"/>
</linearGradient>
<linearGradient id="paint90_linear" x1="321.317" y1="198.219" x2="321.317" y2="155.907" gradientUnits="userSpaceOnUse">
<stop stop-color="#FF7364"/>
<stop offset="0.3712" stop-color="#FF9457"/>
<stop offset="1" stop-color="#FFD33F"/>
</linearGradient>
<linearGradient id="paint91_linear" x1="335.172" y1="190.404" x2="335.172" y2="148.092" gradientUnits="userSpaceOnUse">
<stop stop-color="#FF7364"/>
<stop offset="0.3712" stop-color="#FF9457"/>
<stop offset="1" stop-color="#FFD33F"/>
</linearGradient>
<linearGradient id="paint92_linear" x1="347.953" y1="182.984" x2="347.953" y2="140.673" gradientUnits="userSpaceOnUse">
<stop stop-color="#FF7364"/>
<stop offset="0.3712" stop-color="#FF9457"/>
<stop offset="1" stop-color="#FFD33F"/>
</linearGradient>
<linearGradient id="paint93_linear" x1="361.016" y1="175.508" x2="361.016" y2="133.197" gradientUnits="userSpaceOnUse">
<stop stop-color="#FF7364"/>
<stop offset="0.3712" stop-color="#FF9457"/>
<stop offset="1" stop-color="#FFD33F"/>
</linearGradient>
<clipPath id="clip0">
<rect width="563" height="328" fill="white"/>
</clipPath>
</defs>
</svg>
