<svg width="58" height="58" viewBox="0 0 58 58" fill="none" xmlns="http://www.w3.org/2000/svg">
<circle cx="29" cy="29" r="29" fill="#F9A17E"/>
<path d="M47.0429 19.4638C47.0474 18.4158 46.6606 17.4353 45.9544 16.6841C45.5586 16.2613 45.0908 15.9375 44.56 15.7216C44.4386 15.6721 44.3217 15.6181 44.2092 15.5597C43.4446 15.2628 42.2031 14.9389 40.7008 15.1458C40.1791 15.2178 39.6978 14.8535 39.6304 14.3272C39.5584 13.8055 39.9227 13.3242 40.449 13.2567C41.0112 13.1803 41.5509 13.1623 42.0502 13.1848C42.0232 13.1128 41.9917 13.0363 41.9603 12.9599C41.7669 12.4786 41.5824 12.0243 41.2811 11.7319C39.7473 10.2881 37.125 10.3466 35.5553 11.8534C34.6377 12.735 34.1924 13.9629 34.3363 15.2313C34.5297 16.927 33.972 18.5732 32.7935 19.7517L18.8293 33.7159C17.5699 34.9753 15.7932 35.5556 14.0795 35.2722C12.7706 35.0518 11.4393 35.4926 10.5172 36.4506C9.79754 37.1973 9.39723 38.1823 9.39273 39.2303C9.38823 40.2784 9.77505 41.2679 10.4812 42.019C10.877 42.4418 11.3448 42.7657 11.8756 42.9816C12.042 43.0491 12.2039 43.13 12.3613 43.2155L12.3658 43.22C12.3703 43.2245 12.8021 43.4674 13.4093 43.6518C13.9176 43.8092 14.6643 43.9531 15.321 43.7642C15.8292 43.6158 16.3555 43.9082 16.5039 44.4164C16.6074 44.7628 16.4994 45.1226 16.2655 45.3565C16.1531 45.4689 16.0181 45.5499 15.8562 45.5949C15.4019 45.7253 14.9476 45.7658 14.5068 45.7568C14.7137 46.1706 14.9971 46.5439 15.3389 46.8678C16.0361 47.529 17.0392 47.9113 18.0782 47.9158C19.1217 47.9248 20.1247 47.5514 20.8264 46.9038C21.7439 46.0581 22.2162 44.8662 22.1218 43.6203C22.0003 42.0235 22.442 40.5923 23.705 39.3293C30.8307 32.2037 38.0336 25.0007 38.0336 25.0007C39.212 23.8223 40.8583 23.2645 42.554 23.4579C43.8179 23.6064 45.0548 23.1611 45.9319 22.239C46.6426 21.4924 47.0339 20.5073 47.0429 19.4638Z" fill="#FFF4DB"/>
<path d="M44.9915 13.815C44.4653 13.5226 44.056 13.0593 43.8221 12.4926C43.7861 12.4116 43.7546 12.3262 43.7186 12.2452C43.4713 11.62 43.1879 10.9138 42.5762 10.3381C41.4697 9.29457 39.9764 8.73683 38.3706 8.77732C36.7919 8.8178 35.3166 9.41152 34.2146 10.4685C32.8652 11.7639 32.2085 13.5811 32.4244 15.4432C32.5504 16.5587 32.186 17.6337 31.4259 18.3938L17.4661 32.3536C16.643 33.1767 15.4871 33.559 14.3806 33.3791C13.4308 33.2216 12.4571 33.297 11.5428 33.5986C10.6286 33.9002 9.80117 34.4191 9.13155 35.1108C8.07005 36.2083 7.48082 37.6611 7.46733 39.2039C7.45833 40.7421 8.02956 42.2039 9.07757 43.3149C9.6623 43.9356 10.355 44.4124 11.1331 44.7318C11.8033 45.0061 12.3206 45.5234 12.5949 46.1936C12.9188 46.9762 13.3956 47.6689 14.0163 48.2536C15.0778 49.2521 16.5126 49.8144 18.0509 49.8234C19.5892 49.8324 21.033 49.2971 22.1035 48.3076C23.4528 47.0662 24.1545 45.303 24.0106 43.4768C23.9296 42.4333 24.3074 41.4168 25.0406 40.6837L39.3692 26.3551C40.1293 25.5949 41.2043 25.2306 42.3198 25.3566C44.1414 25.568 45.9136 24.9472 47.2045 23.6563L47.2945 23.5664C48.347 22.4689 48.9362 21.0161 48.9407 19.4823C48.9452 17.9485 48.3785 16.4912 47.3304 15.3802C46.9436 14.9664 46.5028 14.6156 46.0216 14.3322C45.9136 14.2513 45.5493 14.0399 44.9915 13.815ZM42.5492 23.4539C40.8535 23.2605 39.2072 23.8183 38.0288 24.9967L23.7002 39.3253C22.5713 40.4543 21.9955 42.0195 22.117 43.6163C22.2114 44.8622 21.7391 46.0541 20.8216 46.8997C20.1154 47.5519 19.1124 47.9163 18.0734 47.9118C17.0299 47.9028 16.0313 47.525 15.3341 46.8638C14.9923 46.5399 14.7089 46.1666 14.502 45.7528C14.9428 45.7618 15.4016 45.7258 15.8514 45.5909C16.0133 45.5459 16.1528 45.4604 16.2607 45.3525C16.4991 45.1141 16.6026 44.7588 16.4991 44.4124C16.3507 43.9042 15.8244 43.6118 15.3162 43.7602C14.6595 43.9491 13.9128 43.8052 13.4045 43.6478C12.7973 43.4634 12.3655 43.2115 12.361 43.216L12.3565 43.2115C12.1991 43.126 12.0372 43.0451 11.8708 42.9776C11.34 42.7617 10.8722 42.4378 10.4764 42.015C9.76575 41.2594 9.37893 40.2699 9.38793 39.2263C9.39692 38.1828 9.79274 37.1933 10.5124 36.4466C11.439 35.4931 12.7658 35.0568 14.0747 35.2682C15.7884 35.5516 17.5651 34.9713 18.8245 33.7119L32.7843 19.7522C33.9627 18.5737 34.5204 16.9275 34.327 15.2318C34.1786 13.9679 34.6239 12.74 35.546 11.8539C37.1202 10.3426 39.747 10.2886 41.2718 11.7324C41.5821 12.0248 41.7621 12.4746 41.951 12.9604C41.9824 13.0368 42.0094 13.1088 42.0409 13.1853C41.5417 13.1628 41.0019 13.1808 40.4397 13.2572C39.9179 13.3292 39.5536 13.8105 39.6211 14.3277C39.693 14.8495 40.1743 15.2138 40.6915 15.1463C42.1983 14.9439 43.4398 15.2678 44.1999 15.5601C44.3124 15.6186 44.4293 15.6726 44.5507 15.7221C45.0815 15.938 45.5493 16.2618 45.9451 16.6846C46.6513 17.4358 47.0381 18.4253 47.0336 19.4643C47.0291 20.5123 46.6333 21.4929 45.9181 22.235C45.05 23.1571 43.8131 23.6024 42.5492 23.4539Z" fill="#4B1E0E"/>
<path d="M19.9979 34.5807L18.1088 36.4698C17.7354 36.8432 17.7354 37.4459 18.1088 37.8192C18.4821 38.1925 19.0848 38.1925 19.4581 37.8192L21.3473 35.9301C21.7206 35.5568 21.7206 34.9541 21.3473 34.5807C20.9739 34.2074 20.3712 34.2074 19.9979 34.5807ZM30.1676 24.411L23.3308 31.2478C22.9575 31.6211 22.9575 32.2238 23.3308 32.5972C23.7041 32.9705 24.3069 32.9705 24.6802 32.5972L31.517 25.7604C31.8903 25.387 31.8903 24.7843 31.517 24.411C31.1437 24.0377 30.5364 24.0422 30.1676 24.411Z" fill="#4B1E0E"/>
</svg>
