<svg width="172" height="36" viewBox="0 0 172 36" fill="none" xmlns="http://www.w3.org/2000/svg">
<path fill-rule="evenodd" clip-rule="evenodd" d="M33.6914 3.03998C32.8539 3.08893 30.9874 3.42052 30.2308 3.65455C29.5797 3.85605 28.9886 4.07811 28.2342 4.40471C28.0634 4.47867 27.8637 4.56137 27.7905 4.58847C27.7173 4.61566 27.4578 4.75527 27.2137 4.89881C26.9697 5.04236 26.6503 5.2207 26.5039 5.29509C26.3575 5.36949 25.8184 5.73928 25.3059 6.11676C22.0261 8.53282 19.9919 11.8142 19.1458 16.0539C18.9529 17.0197 18.951 20.0858 19.1426 21.0474C19.5036 22.8602 19.9009 24.0731 20.5752 25.4218C21.2665 26.8045 21.8104 27.2844 22.7153 27.3102C23.5343 27.3335 24.7615 27.1772 25.032 27.0151C25.6371 26.6526 25.6142 26.8414 25.6384 22.0138C25.6504 19.6149 25.6921 17.5311 25.7311 17.3831C25.7705 17.2331 25.951 16.9949 26.1385 16.8452L26.4753 16.5764L27.7679 16.5479C29.2803 16.5145 29.683 16.615 30.077 17.1238L30.3195 17.437L30.3357 21.7171C30.3448 24.1078 30.3871 26.0321 30.4316 26.0759C30.5243 26.1672 31.464 25.9468 31.6833 25.7824C31.7629 25.7227 31.9164 25.5742 32.0244 25.4525L32.2209 25.2311L32.2241 19.8346C32.2276 13.8012 32.21 13.9806 32.8431 13.5385C33.1844 13.3002 33.1999 13.2981 34.6183 13.2981C35.8253 13.2981 36.0868 13.3219 36.29 13.45C37.0435 13.9249 37.019 13.7306 37.019 19.2254C37.019 21.8634 37.0424 24.0449 37.0711 24.0731C37.1691 24.1697 38.2921 23.6334 38.5875 23.3488L38.8824 23.0647V17.0764C38.8824 11.1692 38.8849 11.0831 39.0687 10.7207C39.3811 10.1045 39.6101 10.0243 41.1558 9.99039C42.3538 9.96407 42.5342 9.97937 42.8417 10.134C43.6745 10.5528 43.6844 10.6213 43.6734 15.8771C43.6624 21.0375 43.6509 20.5545 43.7851 20.5518C44.0062 20.5473 45.5804 19.2998 47.0366 17.9752C47.661 17.4071 49.2269 15.6036 49.3926 15.2614C49.7022 14.6225 49.7527 14.2116 49.5877 13.6734C49.5023 13.3949 49.3968 13.0883 49.3533 12.9922C49.3097 12.896 49.1887 12.6206 49.0843 12.3802C48.8009 11.7281 48.5807 11.293 48.2878 10.8066C48.143 10.5662 47.9967 10.3105 47.9626 10.2384C47.9287 10.1663 47.6292 9.74832 47.2972 9.30973C46.1382 7.77794 44.3536 6.19081 42.657 5.18267C42.3197 4.9823 42.0044 4.8183 41.9564 4.8183C41.9083 4.8183 41.806 4.7662 41.729 4.70255C41.496 4.50996 39.9175 3.89164 39.0156 3.6396C38.7227 3.55777 38.3633 3.45628 38.2169 3.41397C37.5921 3.23362 35.3507 2.97931 34.5788 3.00134C34.3348 3.00825 33.9355 3.02564 33.6914 3.03998ZM91.8131 6.73238C91.0463 6.93598 90.7168 7.08355 90.2158 7.44775C89.4813 7.9818 89.2091 8.34425 88.9194 9.17344C88.6927 9.82271 88.6981 10.7497 88.9324 11.4064C89.432 12.807 90.1987 13.3863 92.7004 14.2534C94.5719 14.902 95.0946 15.2489 95.3057 15.9822C95.4265 16.4017 95.3208 16.9777 95.068 17.2785C94.7373 17.6721 94.5076 17.7566 93.7695 17.7566C93.1146 17.7566 93.0257 17.7344 92.6328 17.4725C92.3171 17.2621 92.1479 17.0637 91.98 16.7076C91.643 15.9924 91.6249 15.9638 91.515 15.9732C91.4593 15.978 90.8348 15.9878 90.1271 15.9951L88.8404 16.0082V16.3101C88.8404 16.6124 88.8589 16.6756 89.161 17.4069C89.8203 19.0026 91.6669 20.0296 93.8772 20.0296C96.1303 20.0296 97.802 18.9219 98.231 17.1447C98.4191 16.3657 98.4272 16.1009 98.2826 15.4688C98.1112 14.7203 97.8471 14.237 97.3313 13.7278C96.7547 13.1587 96.2889 12.9137 94.6082 12.2956C93.1603 11.763 92.5673 11.5192 92.5673 11.4564C92.5673 11.4228 92.4909 11.3756 92.3975 11.3515C92.0981 11.2743 91.7687 10.6448 91.7687 10.1497C91.7687 9.44025 92.1265 9.01731 92.8763 8.84002C93.5342 8.68458 94.2264 8.89736 94.6506 9.38552C94.8225 9.58344 94.9632 9.8082 94.9632 9.88496C94.9632 9.9618 95.0254 10.1121 95.1013 10.2189C95.2339 10.4055 95.2943 10.4132 96.6126 10.4132C98.1863 10.4132 98.1707 10.4216 97.9835 9.68083C97.608 8.19581 96.433 7.13872 94.6824 6.71114C93.937 6.52913 92.5399 6.53944 91.8131 6.73238ZM56.1415 6.80581C56.0439 6.82968 55.9346 6.89385 55.8988 6.9484C55.8094 7.08434 55.8158 19.6084 55.9053 19.7474C55.9618 19.8352 56.7248 19.853 59.5199 19.8316C63.4065 19.802 63.4575 19.796 64.3741 19.2581C64.9882 18.8976 65.3305 18.5136 65.6847 17.7878C65.9229 17.2995 65.9467 17.1687 65.9466 16.3454C65.9466 15.5224 65.9225 15.3899 65.6824 14.8897C65.3663 14.2316 64.6991 13.5601 64.1334 13.3308C63.6799 13.1471 63.6373 13.0757 63.928 12.9863C64.2718 12.8807 64.8536 12.4218 65.1232 12.0437C65.5802 11.4028 65.7008 10.9467 65.6646 9.99563C65.6369 9.26663 65.5952 9.07282 65.3714 8.63405C64.9741 7.85522 64.3403 7.35272 63.2924 6.9859C62.8382 6.82697 62.5245 6.81027 59.5578 6.78737C57.7764 6.77364 56.2391 6.78195 56.1415 6.80581ZM61.8834 9.14511C62.2469 9.24075 62.7352 9.75426 62.8035 10.1126C62.8942 10.5892 62.7967 11.2744 62.6011 11.5343C62.5042 11.663 62.269 11.8567 62.0784 11.9646C61.7515 12.1499 61.6462 12.1598 60.2259 12.1395L58.7199 12.118L58.6995 10.6356C58.6884 9.82027 58.7136 9.11216 58.7557 9.06198C58.8391 8.96258 61.4535 9.03208 61.8834 9.14511ZM70.9603 9.40545C70.9115 9.42049 70.5721 9.48378 70.206 9.54611C69.2795 9.70391 68.8247 9.92395 68.2514 10.4917C67.5777 11.1589 67.3208 11.8225 67.3918 12.7124C67.5063 14.1489 68.3416 14.8898 70.4279 15.4053C72.8977 16.0157 73.3148 16.2463 73.3089 16.9984C73.3038 17.6668 72.8463 18.0178 71.9807 18.0175C71.0296 18.017 70.2854 17.574 70.0737 16.8824C69.9446 16.4603 69.8958 16.4453 68.6601 16.4453C67.9434 16.4453 67.4537 16.4817 67.3952 16.5394C67.2176 16.7144 67.5389 17.6925 67.9656 18.2755C68.8084 19.4271 70.2343 20.0284 72.1138 20.0247C73.6233 20.0218 74.8928 19.4635 75.4824 18.5434C76.4622 17.0144 75.9177 15.259 74.2193 14.4715C73.8645 14.307 73.5304 14.1723 73.477 14.1723C73.4237 14.1723 73.1949 14.1157 72.9687 14.0465C72.1914 13.8085 71.5655 13.6478 71.4165 13.6478C71.3343 13.6478 71.0112 13.5249 70.6983 13.3746C70.2893 13.1781 70.0998 13.0305 70.0233 12.8486C69.8709 12.4859 69.9782 11.9939 70.2676 11.7295C70.4772 11.5381 70.6099 11.5016 71.1932 11.4753C71.8016 11.4479 71.917 11.4694 72.277 11.6773C72.6713 11.9048 73.1343 12.5163 73.1343 12.8094C73.1343 13.0081 73.4066 13.0456 74.6428 13.0174L75.752 12.9922L75.7325 12.6645C75.7063 12.225 75.3363 11.4769 74.8815 10.9438C74.4924 10.4877 73.7506 9.88872 73.5748 9.88872C73.5184 9.88872 73.3662 9.83268 73.2367 9.76423C72.8352 9.55197 71.2795 9.30676 70.9603 9.40545ZM81.9635 9.41892C81.8658 9.4378 81.5664 9.49462 81.2979 9.54507C79.3537 9.9104 77.9277 11.1888 77.4041 13.0359C77.2299 13.6505 77.2172 15.7905 77.3845 16.3579C77.7747 17.6813 78.4513 18.5908 79.5614 19.2837C80.8799 20.1066 82.8522 20.2623 84.49 19.6727C85.4051 19.3433 86.5431 18.3827 86.9081 17.6316C86.9921 17.4585 87.1234 17.1885 87.1999 17.0315C87.2763 16.8745 87.3473 16.5702 87.3576 16.3553L87.3763 15.9645L86.134 15.9393C84.6508 15.9093 84.5142 15.9343 84.4354 16.2499C84.3372 16.6427 83.9135 17.2321 83.7293 17.2321C83.6729 17.2321 83.5812 17.2862 83.5256 17.3523C83.4698 17.4185 83.2553 17.5026 83.0488 17.5394C82.8423 17.5761 82.5935 17.6229 82.4959 17.6434C82.248 17.6953 81.405 17.4902 81.286 17.349C81.2318 17.2847 81.136 17.2321 81.0731 17.2321C80.911 17.2321 80.5382 16.7715 80.3092 16.2884C80.1414 15.9344 80.1132 15.7187 80.1071 14.7406C80.1003 13.6472 80.11 13.5847 80.3633 13.0922C80.6728 12.4905 81.072 12.1386 81.6603 11.949C82.1989 11.7754 82.5217 11.7764 83.1387 11.9531C83.7101 12.1167 84.4037 12.7353 84.4037 13.0813C84.4037 13.5195 84.5718 13.567 86.0317 13.5408L87.3763 13.5167L87.3548 13.1008C87.3004 12.0524 86.1688 10.5934 84.9596 10.0127C83.9675 9.53615 82.6771 9.28044 81.9635 9.41892ZM103.748 9.53527C103.333 9.62104 102.855 9.74246 102.686 9.80523C101.657 10.1863 100.647 11.1089 100.162 12.1112C99.315 13.8627 99.4186 16.2658 100.407 17.7842C100.949 18.6175 101.837 19.3504 102.683 19.6639C103.615 20.0092 105.263 20.106 106.293 19.8759C106.841 19.7534 107.912 19.1974 108.318 18.8249C108.772 18.4075 109.341 17.6706 109.48 17.3195C109.509 17.2474 109.566 17.1097 109.608 17.0135C109.752 16.6851 109.86 16.1702 109.812 16.0453C109.772 15.9451 109.5 15.9208 108.415 15.9208C107.034 15.9208 106.854 15.9617 106.854 16.2748C106.854 16.494 106.376 17.0975 106.041 17.2999C105.878 17.3989 105.505 17.5273 105.212 17.5854C104.188 17.7885 103.216 17.2898 102.731 16.313C102.506 15.8609 102.488 15.7443 102.49 14.7575C102.492 13.3358 102.677 12.8528 103.437 12.2807C104.339 11.6021 105.578 11.6873 106.387 12.4835C106.598 12.692 106.793 12.9795 106.823 13.1263C106.853 13.2723 106.949 13.4297 107.037 13.4761C107.293 13.6108 109.651 13.5843 109.769 13.4454C109.888 13.3032 109.777 12.8462 109.457 12.1617C108.787 10.7273 107.535 9.81607 105.801 9.49961C104.896 9.33429 104.705 9.33762 103.748 9.53527ZM115.372 9.42005C114.092 9.6053 113.279 9.97605 112.551 10.706C111.759 11.5015 111.346 12.3786 111.12 13.7453C110.834 15.4771 111.343 17.4961 112.336 18.5611C112.767 19.0247 113.463 19.5262 113.908 19.6942C115.105 20.1462 116.518 20.1102 117.604 19.6002C118.062 19.3852 118.875 18.6522 118.965 18.3732C119.095 17.9697 119.188 18.2418 119.188 19.0242V19.8547H120.509C121.633 19.8547 121.839 19.834 121.885 19.7164C121.914 19.6404 121.939 17.3635 121.939 14.6567C121.939 10.6674 121.916 9.71702 121.821 9.63878C121.744 9.57619 121.268 9.54935 120.467 9.56246L119.232 9.58274L119.208 10.3258C119.176 11.3351 119.143 11.3892 118.843 10.9293C118.705 10.7176 118.485 10.4547 118.354 10.3451C117.976 10.0293 117.153 9.65067 116.52 9.50144C115.946 9.3662 115.811 9.35659 115.372 9.42005ZM129.286 9.53632C128.342 9.78416 127.496 10.3289 127.207 10.8751C127.008 11.2496 126.909 11.0781 126.936 10.4079C126.95 10.0729 126.931 9.75024 126.894 9.6908C126.802 9.54445 124.512 9.48597 124.252 9.62322C124.067 9.72061 124.067 9.73084 124.09 14.7659L124.113 19.811L125.51 19.835C126.598 19.8538 126.907 19.8344 126.906 19.7476C126.905 19.6863 126.917 18.2593 126.933 16.5764C126.961 13.625 126.969 13.5012 127.162 13.0796C127.423 12.5058 127.737 12.1898 128.3 11.9339C129.42 11.4244 130.824 11.8878 131.323 12.9318C131.459 13.2146 131.483 13.6598 131.522 16.5327L131.567 19.811L132.764 19.8552C133.423 19.8795 134.036 19.8773 134.126 19.8503C134.281 19.8037 134.289 19.6335 134.283 16.4841C134.279 14.6597 134.252 12.99 134.222 12.7736C134.054 11.5297 133.196 10.2734 132.201 9.8131C131.203 9.35108 130.312 9.26654 129.286 9.53632ZM117.685 12.1169C118.035 12.291 118.656 12.8503 118.656 12.9924C118.656 13.0451 118.702 13.1343 118.759 13.1904C119.123 13.5487 119.272 14.7469 119.053 15.5506C118.822 16.399 118.385 16.9508 117.638 17.3359C117.119 17.6031 115.828 17.605 115.328 17.3393C114.636 16.9715 114.269 16.5244 114.02 15.7465C113.503 14.1289 114.283 12.3615 115.683 11.979C116.112 11.8616 117.342 11.9463 117.685 12.1169ZM62.1423 14.4292C62.93 14.7724 63.273 15.465 63.0853 16.3326C62.9952 16.7486 62.7036 17.2321 62.5429 17.2321C62.4949 17.2321 62.3926 17.2856 62.3156 17.3511C61.962 17.6513 59.0734 17.7914 58.7994 17.5215C58.6965 17.4201 58.6704 17.0892 58.6704 15.8854C58.6704 15.0554 58.697 14.3501 58.7296 14.3181C58.7621 14.286 59.4558 14.2598 60.2712 14.2598C61.5448 14.2598 61.8084 14.2836 62.1423 14.4292ZM49.6968 18.3467C48.6472 19.7067 46.542 21.9184 45.6707 22.5763C45.5243 22.6868 45.3845 22.8024 45.3601 22.833C45.2697 22.9464 44.3036 23.6947 43.7715 24.0634C43.4692 24.2729 42.9542 24.6295 42.6272 24.8557C42.3002 25.082 41.9888 25.2688 41.9354 25.271C41.882 25.2731 41.7659 25.3535 41.6776 25.4497C41.5893 25.5458 41.4848 25.6245 41.4455 25.6245C41.4062 25.6245 41.023 25.8316 40.5941 26.0848C39.8897 26.5005 37.4568 27.7226 37.3336 27.7226C37.3059 27.7226 37.114 27.7986 36.9071 27.8915C36.2176 28.201 35.0319 28.6565 34.1795 28.9393C33.7158 29.0931 33.0969 29.2995 32.8041 29.3979C32.2323 29.5901 30.6547 30.0248 29.7871 30.2293C29.4942 30.2983 29.1149 30.3884 28.9441 30.4295C28.5512 30.5241 27.8972 30.6464 26.7701 30.8361C26.282 30.9183 25.8428 31.0221 25.794 31.0666C25.6335 31.2133 26.4236 31.7447 27.7905 32.4092C28.9972 32.9959 29.3235 33.135 29.8042 33.268C30.0388 33.3328 30.5103 33.4642 30.8519 33.56C32.0473 33.895 33.4298 34.0387 34.9973 33.9911C37.4211 33.9176 38.4214 33.7144 40.7098 32.8311C42.6977 32.0636 44.6807 30.6906 46.1909 29.0357C47.2717 27.8515 48.1351 26.6341 48.6253 25.6039C49.3151 24.1538 49.442 23.8742 49.442 23.8026C49.442 23.7602 49.542 23.4152 49.6644 23.0359C50.124 21.6107 50.5385 18.5783 50.341 18.0844C50.2882 17.9522 50.2089 17.844 50.1648 17.844C50.1208 17.844 49.9101 18.0702 49.6968 18.3467ZM106.261 24.2266C105.83 24.428 105.58 24.7422 105.467 25.2224C105.39 25.5512 105.3 25.6455 104.968 25.7465C104.851 25.7821 104.813 25.8882 104.813 26.1725C104.813 26.5778 104.929 26.761 105.185 26.761C105.333 26.761 105.345 26.8769 105.345 28.3171C105.345 29.4108 105.377 29.9044 105.452 29.9781C105.586 30.1106 106.467 30.1161 106.55 29.985C106.584 29.931 106.604 29.2876 106.595 28.5551C106.574 26.9304 106.607 26.761 106.945 26.761C107.388 26.761 107.475 26.6838 107.475 26.2883C107.475 25.8448 107.357 25.7119 106.963 25.7119C106.691 25.7119 106.667 25.6912 106.693 25.4747C106.715 25.2842 106.779 25.2256 107.017 25.178C107.432 25.0952 107.489 25.0092 107.458 24.5221L107.43 24.0946L107.031 24.0738C106.778 24.0607 106.496 24.1167 106.261 24.2266ZM81.3426 24.4181C81.3195 24.4806 81.29 24.9354 81.2771 25.4289L81.2536 26.3261L81.019 26.1115C80.7317 25.8487 80.2067 25.6245 79.8785 25.6245C79.5267 25.6245 78.8975 25.8611 78.65 26.0864C78.1753 26.5186 77.9957 26.9277 77.9477 27.6855C77.8679 28.9441 78.3256 29.7477 79.293 30.0482C79.7289 30.1835 79.8532 30.1899 80.2131 30.095C80.442 30.0347 80.757 29.8893 80.9133 29.7719C81.2684 29.5051 81.28 29.5059 81.3143 29.7989C81.3414 30.0313 81.3599 30.0393 81.8747 30.0393H82.4071V27.1981V24.3569L81.8958 24.3307C81.5372 24.3122 81.372 24.3384 81.3426 24.4181ZM118.608 24.4064C118.573 24.4617 118.545 25.7272 118.546 27.2185C118.548 29.4036 118.571 29.9447 118.668 30.0053C118.815 30.0969 119.725 30.1051 119.867 30.0161C119.935 29.9736 119.98 29.5004 120 28.6209C120.035 27.125 120.085 27.0019 120.705 26.891C120.968 26.8441 121.07 26.8728 121.282 27.0521L121.539 27.2702L121.562 28.6059C121.578 29.5581 121.616 29.9615 121.695 30.0109C121.9 30.1392 122.884 30.0941 123.004 29.9509C123.137 29.7937 123.077 27.2455 122.931 26.7869C122.716 26.1176 122.026 25.6245 121.303 25.6245C120.943 25.6245 120.253 25.913 120.253 26.0634C120.253 26.1105 120.194 26.149 120.123 26.149C120.019 26.149 119.988 25.9703 119.967 25.253L119.942 24.3569L119.306 24.3314C118.897 24.3149 118.648 24.3416 118.608 24.4064ZM57.3825 24.658C57.267 24.7041 57.1356 24.9261 57.0105 25.2862C56.9042 25.5925 56.7321 26.0594 56.628 26.3239C56.5239 26.5883 56.4048 26.903 56.3633 27.0232C56.3218 27.1434 56.202 27.4582 56.0971 27.7226C55.9922 27.9871 55.8724 28.3018 55.8309 28.422C55.7894 28.5422 55.6676 28.8569 55.5603 29.1213C55.453 29.3858 55.3602 29.7005 55.354 29.8207C55.3435 30.0273 55.3712 30.0407 55.8605 30.0657C56.4514 30.0959 56.5887 30.0189 56.6657 29.6142C56.7724 29.0541 56.8514 29.0154 57.8774 29.0193C58.3867 29.0213 58.8523 29.0254 58.912 29.0284C58.9716 29.0315 59.0842 29.2502 59.1623 29.5147C59.3205 30.0511 59.4272 30.114 60.0973 30.0669C60.4703 30.0406 60.4891 30.0264 60.4796 29.777C60.4741 29.6328 60.3812 29.2984 60.2733 29.0339C60.1653 28.7695 60.0426 28.4548 60.0007 28.3346C59.9294 28.1298 59.7832 27.7397 59.1078 25.9523C58.9578 25.5556 58.7975 25.1077 58.7514 24.9568C58.6996 24.7874 58.5919 24.6625 58.4694 24.6302C58.1931 24.5573 57.5964 24.5725 57.3825 24.658ZM110.464 24.6319C110.389 24.706 110.382 29.7526 110.457 29.9447C110.503 30.0637 110.732 30.083 112.091 30.083C112.961 30.083 113.735 30.0591 113.812 30.0299C113.987 29.964 114.013 29.0812 113.844 28.9781C113.784 28.9418 113.423 28.9225 113.041 28.9354C112.66 28.9482 112.234 28.9343 112.096 28.9044C111.869 28.8551 111.844 28.8141 111.837 28.4641C111.826 27.8933 111.958 27.8061 112.758 27.8567C113.335 27.8932 113.442 27.8762 113.597 27.7231C113.786 27.5369 113.834 27.0762 113.688 26.8484C113.627 26.7519 113.375 26.7057 112.736 26.6736L111.867 26.6298V26.1927V25.7556L112.888 25.7119L113.908 25.6682V25.1437V24.6192L112.217 24.5955C111.286 24.5824 110.498 24.5989 110.464 24.6319ZM115.394 24.6628C115.226 24.7321 115.195 24.8111 115.195 25.1776C115.195 25.5843 115.179 25.614 114.938 25.6663C114.659 25.7267 114.577 25.8967 114.575 26.4225C114.574 26.7561 114.679 26.8959 114.973 26.9493C115.135 26.9787 115.156 27.0749 115.211 28.0528C115.299 29.6259 115.564 29.9704 116.753 30.059C117.383 30.106 117.411 30.0999 117.487 29.8987C117.531 29.7836 117.542 29.5141 117.512 29.2997C117.463 28.9506 117.429 28.904 117.184 28.8547C116.717 28.7607 116.703 28.7319 116.703 27.8099V26.9459L117.08 26.9189L117.458 26.8921L117.484 26.3821C117.516 25.7779 117.409 25.6065 117.022 25.6426C116.75 25.668 116.748 25.6645 116.721 25.2099C116.702 24.8845 116.65 24.7302 116.543 24.6779C116.332 24.5743 115.633 24.5651 115.394 24.6628ZM94.653 24.7721C94.6318 24.8323 94.6031 25.0348 94.5892 25.2223C94.5648 25.551 94.4876 25.6415 94.1424 25.7465C94.0216 25.7833 93.9871 25.891 93.9871 26.2312C93.9871 26.6513 93.9985 26.6715 94.2755 26.7419L94.5639 26.8153L94.6106 28.0339C94.6379 28.7441 94.7026 29.332 94.7657 29.4431C94.9706 29.8036 95.3869 30.0141 95.9889 30.0617C96.6694 30.1155 96.8266 30.0223 96.8266 29.5653C96.8266 29.1931 96.6999 29.0339 96.4037 29.0339C96.2883 29.0339 96.1166 28.9932 96.0221 28.9434C95.8671 28.8617 95.8505 28.7516 95.8505 27.807V26.761H96.1982C96.7466 26.761 96.8266 26.7007 96.8266 26.2883C96.8266 25.8254 96.7096 25.7119 96.2321 25.7119C95.8505 25.7119 95.8505 25.7119 95.8493 25.3841C95.8469 24.7158 95.8004 24.6629 95.2163 24.6629C94.8761 24.6629 94.6779 24.7013 94.653 24.7721ZM65.3781 25.8886C65.0898 26.0327 64.8502 26.1404 64.8457 26.128C64.7369 25.8266 64.6089 25.7539 64.1434 25.7295C63.6867 25.7055 63.641 25.7201 63.5954 25.9043C63.5681 26.0148 63.5568 27.4429 63.5705 29.0776L63.5952 32.0499L64.0683 32.0766C64.7783 32.1166 64.7932 32.0888 64.7932 30.7176V29.5377L65.0816 29.7491C65.4574 30.0246 66.0497 30.208 66.3387 30.1383C66.4647 30.1079 66.6776 30.0574 66.8119 30.0262C67.3672 29.8972 67.903 29.2415 68.0673 28.49C68.3251 27.3115 67.8325 26.2251 66.845 25.794C66.3123 25.5616 65.9914 25.5822 65.3781 25.8886ZM71.4071 25.7069C71.3752 25.7577 71.273 25.7993 71.18 25.7993C71.0869 25.7993 70.8723 25.9191 70.7031 26.0655L70.3953 26.3317L70.3673 26.0437C70.3394 25.7584 70.3342 25.7554 69.8343 25.7296C69.4202 25.7082 69.3153 25.7318 69.2508 25.8607C69.1582 26.0455 69.1715 29.8318 69.2653 29.9811C69.3669 30.1431 70.2643 30.1124 70.3296 29.9447C70.3593 29.8686 70.3835 29.3356 70.3835 28.7602C70.3835 27.322 70.5438 27.0479 71.4483 26.9398L71.8476 26.8921V26.2802C71.8476 25.7201 71.8314 25.6659 71.6563 25.6414C71.5512 25.6266 71.439 25.6561 71.4071 25.7069ZM74.1991 25.731C73.2971 26.1158 73.0972 26.2755 72.7773 26.8668C72.6476 27.1066 72.6019 27.3612 72.6019 27.8446C72.6019 28.5636 72.6767 28.8289 73.0163 29.3153C73.2969 29.717 73.6488 29.9248 74.31 30.0792C75.1366 30.2722 76.0389 29.9937 76.5482 29.3884C77.0707 28.7676 77.2068 27.6823 76.8594 26.9085C76.4425 25.98 75.0551 25.3658 74.1991 25.731ZM90.4072 25.7872C89.5049 26.1004 89.0231 26.8276 89.0199 27.8812C89.0162 29.0786 89.6087 29.8393 90.7389 30.0886C91.5261 30.2621 92.1286 30.085 92.7184 29.5064C93.1979 29.0361 93.3752 28.6584 93.1982 28.484C93.1424 28.4291 92.8878 28.392 92.6324 28.4016C92.2428 28.4163 92.1323 28.4597 91.9462 28.6711C91.8242 28.8098 91.5825 28.9728 91.4092 29.0335C91.1406 29.1275 91.0524 29.1226 90.8112 28.9996C90.5025 28.8424 90.1715 28.2975 90.1715 27.9464C90.1715 27.2782 90.797 26.5898 91.2926 26.7125C91.6119 26.7914 91.9462 27.021 91.9462 27.1614C91.9462 27.2262 92.0234 27.32 92.1178 27.3699C92.3395 27.4867 93.1611 27.4874 93.2342 27.3708C93.4636 27.0051 92.6443 26.0226 91.9018 25.7729C91.3564 25.5894 90.9664 25.5931 90.4072 25.7872ZM101.162 25.7884C99.7343 26.2805 99.2124 28.0545 100.124 29.316C100.576 29.9409 101.625 30.2807 102.478 30.0789C103.755 29.7773 104.4 28.6526 104.104 27.2467C104.014 26.8209 103.927 26.6672 103.582 26.3326C102.914 25.6833 102.038 25.4864 101.162 25.7884ZM125.399 25.732C125.277 25.7847 125.031 25.9229 124.852 26.0391C123.63 26.8323 123.631 28.8823 124.855 29.7461C125.329 30.0813 126.079 30.225 126.664 30.0931C127.488 29.9071 128.281 29.1917 128.221 28.6872C128.195 28.4716 128.176 28.4657 127.515 28.4657C126.888 28.4657 126.819 28.4841 126.61 28.7061C126.301 29.0342 125.841 29.0387 125.583 28.7161C125.308 28.3708 125.346 28.2477 125.732 28.243C126.857 28.2293 128.208 28.1327 128.283 28.0606C128.392 27.9572 128.369 27.2289 128.247 26.9133C128.103 26.539 127.537 25.9859 127.107 25.7986C126.663 25.6052 125.774 25.5705 125.399 25.732ZM129.503 25.7146C129.304 25.7935 129.304 25.7999 129.304 27.8335C129.304 29.3034 129.333 29.9024 129.41 29.9781C129.52 30.0865 130.424 30.1236 130.672 30.0299C130.79 29.9853 130.812 29.7975 130.812 28.8565C130.812 27.7786 130.821 27.7258 131.042 27.4671C131.24 27.2348 131.33 27.1981 131.702 27.1981C131.949 27.1981 132.162 27.1518 132.201 27.0899C132.306 26.9212 132.28 25.812 132.168 25.7013C132.036 25.5714 131.721 25.655 131.312 25.9283C130.915 26.194 130.812 26.204 130.812 25.9772C130.812 25.8828 130.735 25.7648 130.641 25.715C130.433 25.6056 129.779 25.6054 129.503 25.7146ZM133.77 25.8069C133.265 26.0357 132.998 26.475 133.01 27.0572C133.018 27.4663 133.05 27.5316 133.389 27.8295C133.606 28.0213 133.891 28.1782 134.082 28.2113C134.731 28.3241 135.382 28.581 135.414 28.7375C135.45 28.9111 135.206 29.1213 134.969 29.1213C134.882 29.1213 134.667 28.9965 134.491 28.8439C134.24 28.6269 134.07 28.5586 133.711 28.5309C133.409 28.5076 133.197 28.5368 133.089 28.6167C132.93 28.734 132.931 28.7509 133.117 29.1404C133.635 30.2256 135.529 30.507 136.418 29.6307C136.729 29.3241 136.758 29.2561 136.758 28.8154C136.758 28.3755 136.729 28.3067 136.423 28.0067C136.109 27.6995 135.31 27.3729 134.872 27.3729C134.792 27.3729 134.62 27.2823 134.489 27.1714C134.265 26.9821 134.26 26.9611 134.401 26.8217C134.631 26.5953 134.951 26.64 135.219 26.9358C135.439 27.1797 135.499 27.1981 136.073 27.1981H136.691L136.636 26.9271C136.554 26.5225 136.087 25.9996 135.631 25.8007C135.108 25.5728 134.28 25.5757 133.77 25.8069ZM138.89 25.7926C138.366 26.0019 137.809 26.6159 137.667 27.1402C137.403 28.1174 137.581 28.8808 138.222 29.5202C138.606 29.9031 138.741 29.9784 139.224 30.0794C139.93 30.2268 140.614 30.088 141.144 29.6894C141.538 29.3935 141.9 28.8401 141.903 28.5312C141.904 28.3436 141.872 28.3346 141.2 28.3346C140.52 28.3346 140.49 28.3431 140.307 28.5968C140.152 28.8106 140.054 28.8591 139.775 28.8591C139.284 28.8591 139.065 28.5623 139.065 27.8974C139.065 27.2326 139.284 26.9358 139.775 26.9358C140.055 26.9358 140.152 26.9841 140.31 27.2016C140.498 27.4628 140.513 27.467 141.181 27.442C141.805 27.4187 141.862 27.4009 141.888 27.2233C141.903 27.1148 141.79 26.8416 141.63 26.6004C141.063 25.7462 139.88 25.3975 138.89 25.7926ZM143.901 25.7694C143.157 26.1545 142.702 26.9568 142.704 27.8789C142.707 29.0344 143.263 29.84 144.235 30.0959C144.722 30.2242 145.309 30.0883 145.663 29.7656C145.877 29.5695 145.897 29.5655 145.897 29.719C145.897 30.0025 146.111 30.0935 146.71 30.0655L147.273 30.0393L147.317 28.0537C147.341 26.9616 147.34 25.9781 147.313 25.8681C147.27 25.6878 147.207 25.6657 146.669 25.6423C146.193 25.6217 146.064 25.6437 146.029 25.7516C145.885 26.2027 145.905 26.1828 145.74 26.0404C145.258 25.6239 144.42 25.5004 143.901 25.7694ZM148.669 25.6976C148.582 25.752 148.562 26.2533 148.58 27.9036L148.604 30.0393H149.269H149.935L149.979 28.7279C150.008 27.8819 150.065 27.3454 150.14 27.2157C150.291 26.9544 150.635 26.8305 151.014 26.9005C151.495 26.9894 151.576 27.2463 151.576 28.6692C151.576 29.6113 151.605 29.9099 151.702 29.9893C151.777 30.0509 152.051 30.0812 152.389 30.0655L152.952 30.0393L152.976 28.4515L153 26.8637L152.751 26.4408C152.319 25.7084 151.43 25.4358 150.633 25.7922C150.432 25.8822 150.24 25.9994 150.207 26.0525C150.11 26.2072 149.979 26.164 149.979 25.9772C149.979 25.8828 149.902 25.7648 149.807 25.715C149.605 25.6083 148.83 25.5964 148.669 25.6976ZM83.6468 26.0923C83.6149 26.3015 83.6055 27.0195 83.6257 27.6877C83.6656 28.999 83.6978 29.1069 84.2162 29.6619C84.7663 30.2509 85.8531 30.3042 86.365 29.7674C86.6027 29.5181 86.7108 29.502 86.7108 29.7158C86.7108 29.8024 86.7587 29.9204 86.8173 29.9781C86.9554 30.1141 87.7085 30.1141 87.8466 29.9781C87.9976 29.8293 87.9976 25.9656 87.8466 25.8168C87.6818 25.6545 86.8307 25.6807 86.7647 25.8502C86.735 25.9263 86.7108 26.5315 86.7108 27.1952C86.7108 28.4932 86.6342 28.7931 86.2489 29.0038C85.9594 29.1621 85.4566 29.1435 85.2363 28.9664C84.9367 28.7255 84.8474 28.2977 84.8474 27.1048C84.8474 26.4908 84.8231 25.9263 84.7935 25.8502C84.7529 25.746 84.6122 25.7119 84.2221 25.7119H83.7047L83.6468 26.0923ZM58.3187 27.1107C58.4606 27.5194 58.5779 27.903 58.5792 27.963C58.582 28.0897 57.3813 28.1224 57.3031 27.9978C57.2775 27.9568 57.3386 27.7109 57.439 27.4514C57.5394 27.1919 57.6633 26.8301 57.7142 26.6475C57.8553 26.1419 58.0282 26.2743 58.3187 27.1107ZM102.294 26.8154C102.749 27.028 102.949 27.3608 102.949 27.9027C102.949 28.7406 102.282 29.2759 101.591 28.9916C101.136 28.8043 100.956 28.4938 100.956 27.8974C100.956 27.3206 101.115 27.0296 101.544 26.8212C101.912 26.6424 101.924 26.6423 102.294 26.8154ZM66.5114 26.9762C66.9525 27.379 67.0404 27.9397 66.75 28.5004C66.3095 29.351 65.0119 29.1499 64.8316 28.2031C64.676 27.3859 65.1193 26.761 65.8544 26.761C66.1791 26.761 66.3298 26.8104 66.5114 26.9762ZM75.461 27.0014C75.5876 27.1336 75.7398 27.4047 75.7993 27.6036C75.8917 27.9134 75.8844 28.0246 75.7477 28.377C75.6184 28.7106 75.5163 28.8231 75.2087 28.9703C74.8347 29.1492 74.824 29.1496 74.4632 28.9893C74.0134 28.7895 73.7456 28.3318 73.7883 27.8361C73.8475 27.1473 74.2144 26.7683 74.8258 26.7639C75.1547 26.7615 75.274 26.8061 75.461 27.0014ZM80.7582 26.9307C80.8912 27.024 81.0733 27.2603 81.1628 27.456C81.3049 27.7662 81.3114 27.8587 81.2146 28.1824C81.1536 28.3862 81.0212 28.641 80.9204 28.7485C80.5135 29.1823 79.5913 29.0834 79.3293 28.5778C78.9836 27.911 79.0251 27.5198 79.49 27.0618C79.7378 26.8177 79.8634 26.761 80.1558 26.761C80.3704 26.761 80.6141 26.8297 80.7582 26.9307ZM126.534 26.9366C126.873 27.1404 126.986 27.358 126.81 27.4679C126.641 27.5733 125.512 27.5686 125.445 27.4622C125.362 27.3296 125.555 27.0404 125.823 26.8973C126.141 26.7275 126.19 26.7303 126.534 26.9366ZM145.623 27.1459C145.869 27.404 146.002 27.9331 145.892 28.2184C145.638 28.8741 144.855 29.0748 144.441 28.5901C144.256 28.3736 144.211 28.2293 144.211 27.8506C144.211 27.4499 144.247 27.347 144.454 27.1579C144.786 26.8547 145.34 26.849 145.623 27.1459Z" fill="white"/>
</svg>
