<svg width="37" height="54" viewBox="0 0 37 54" fill="none" xmlns="http://www.w3.org/2000/svg">
<path fill-rule="evenodd" clip-rule="evenodd" d="M12.6219 0.553767C12.6251 0.684859 12.6684 1.32628 12.718 1.97915C12.9039 4.42798 12.5215 6.83098 11.5587 9.26618C11.0574 10.5339 9.6769 13.3184 7.87908 16.6882C6.21719 19.803 2.85753 26.4765 2.32118 27.7282C-0.845969 35.1186 0.0852883 42.0613 5.12514 48.6321C5.91059 49.6562 7.91153 51.7264 8.86078 52.4972C9.61242 53.1074 9.76947 53.1858 9.65579 52.8932C9.48574 52.4559 8.85444 49.8287 8.67014 48.7921C8.26931 46.5367 8.19817 45.7011 8.20409 43.3194C8.21054 40.7408 8.38423 39.3067 8.93577 37.2809C9.50623 35.185 10.6199 32.8326 11.8654 31.0924C12.9397 29.5914 14.8455 27.6939 16.048 26.9278L16.308 26.7621L16.2713 28.3314C16.1771 32.3581 17.0394 36.4581 18.8259 40.4774C19.4749 41.9376 20.2442 43.4008 20.9016 44.4255L21.3463 45.1186L21.7467 44.9784C22.6581 44.6593 24.8153 43.4166 26.6377 42.1608C27.1708 41.7934 27.6309 41.5166 27.6601 41.5457C27.7395 41.6244 27.514 43.7594 27.2712 45.229C27.0519 46.556 26.3706 49.7145 25.8396 51.8651C25.6745 52.5345 25.5771 53.0686 25.6235 53.0521C25.8572 52.969 27.712 51.168 28.661 50.103C31.5288 46.8841 33.5071 43.6492 34.7811 40.0948C35.3157 38.6034 35.7919 36.7078 35.9079 35.6103C35.9698 35.0247 36.042 34.3495 36.0683 34.1099C36.0946 33.8704 36.068 32.9189 36.0092 31.9955C35.7363 27.7059 34.2226 23.2025 31.6103 18.9075L31.0767 18.0301L31.0089 20.0429C30.9301 22.3836 30.7468 23.7474 30.2319 25.8233C29.4717 28.8883 28.3108 31.4855 26.5182 34.1326C25.8782 35.0774 24.9059 36.3519 24.8248 36.3519C24.8002 36.3519 24.8736 36.1701 24.9877 35.9481C26.2184 33.5541 26.7656 29.1783 26.5507 23.4492C26.4346 20.3528 26.3265 19.1362 26.0243 17.5281C24.9333 11.7212 21.3749 6.37216 15.9697 2.41403C15.3111 1.93177 13.4267 0.748443 12.6939 0.35713C12.651 0.334215 12.6186 0.422676 12.6219 0.553767Z" fill="url(#paint0_linear)"/>
<defs>
<linearGradient id="paint0_linear" x1="18.2823" y1="0.353516" x2="18.2823" y2="53.0575" gradientUnits="userSpaceOnUse">
<stop stop-color="#F9A17E"/>
<stop offset="1" stop-color="#FFE9E0"/>
</linearGradient>
</defs>
</svg>
