<svg width="172" height="36" viewBox="0 0 172 36" fill="none" xmlns="http://www.w3.org/2000/svg">
<path fill-rule="evenodd" clip-rule="evenodd" d="M28.4199 3.50485C25.7504 4.32952 23.4988 5.06085 23.416 5.1301C23.0808 5.41068 23.3463 6.23222 23.7723 6.23222C23.8597 6.23222 26.0727 5.57327 28.69 4.76789L33.4485 3.30356L38.2744 4.79008C40.9286 5.60772 43.1946 6.26947 43.3101 6.26066C43.8184 6.22207 44.0301 5.54606 43.6406 5.20537C43.458 5.04557 33.6995 1.98832 33.4094 2.00003C33.3346 2.00304 31.0894 2.68029 28.4199 3.50485ZM19.5246 6.32489C19.007 6.8469 18.8148 11.9441 19.2128 14.596C20.3186 21.9651 23.893 27.8144 29.7901 31.9057C31.0972 32.8126 33.1663 34 33.4394 34C33.6768 34 35.6614 32.8837 36.8674 32.0718C42.789 28.0852 46.5891 21.9652 47.6535 14.7004C47.9286 12.8238 47.9835 9.66182 47.7694 8.03177C47.6699 7.27357 47.5384 6.55908 47.4774 6.44399C47.342 6.18895 46.903 6.06272 46.6495 6.20579C46.5468 6.26367 45.2576 8.84005 43.7843 11.9311L41.1055 17.5512H33.6161H26.1265L23.2724 11.9348C21.7027 8.84574 20.3499 6.27471 20.2662 6.22129C20.0229 6.06584 19.7427 6.10498 19.5246 6.32489ZM25.8348 19.7816C28.7879 25.6083 31.3593 30.6891 31.549 31.0721L31.8939 31.7687L31.2567 31.3614C30.0587 30.5958 28.5256 29.3758 27.4347 28.3199C23.0871 24.1117 20.6852 18.7278 20.2922 12.3099C20.1947 10.7162 20.2477 8.93306 20.3878 9.09665C20.4306 9.14661 22.8818 13.9548 25.8348 19.7816ZM46.6041 12.2837C46.1525 18.8141 43.8697 23.9753 39.5604 28.2095C38.403 29.3467 36.448 30.9073 35.5264 31.4296L35.0816 31.6817L35.3259 31.196C35.4602 30.9288 37.0985 27.8247 38.9667 24.298C40.8348 20.7713 43.3039 15.9079 44.4534 13.4905L46.5434 9.0952L46.6346 9.81047C46.6881 10.2301 46.6756 11.2521 46.6041 12.2837ZM57.2699 12.1975C56.7427 12.3842 56.1373 13.0429 56.0501 13.525C56.0156 13.7154 56.0023 15.8574 56.0205 18.2849L56.0535 22.6986L56.3634 23.1081C56.9865 23.9318 56.7796 23.904 62.5502 23.9397L67.72 23.9718V23.2985V22.6252H62.7684C58.4658 22.6252 57.7846 22.6025 57.571 22.4516L57.3252 22.2781V17.9973V13.7165L57.571 13.543C57.7846 13.3921 58.4658 13.3693 62.7684 13.3693H67.72V12.7002V12.0311L62.7161 12.036C58.7129 12.0399 57.6238 12.0723 57.2699 12.1975ZM75.3502 17.9973V23.9656L80.6858 23.9367L86.0214 23.9077L86.0546 23.2665L86.0878 22.6252H81.3825H76.6772V20.6737V18.7221H80.437H84.1968V17.9973V17.2724H80.437H76.6772V15.3209V13.3693H81.3825H86.0878L86.0546 12.7281L86.0214 12.0869L80.6858 12.0579L75.3502 12.029V17.9973ZM93.649 12.1653C93.6188 12.2449 93.607 14.9194 93.6229 18.1088L93.6516 23.9077L94.2875 23.9411L94.9233 23.9746V21.7366V19.4985L97.4379 19.5285L99.9524 19.5585L101.485 21.3986C102.328 22.4106 103.155 23.404 103.322 23.606C103.623 23.9699 103.634 23.9732 104.476 23.9406L105.326 23.9077L103.508 21.7331L101.689 19.5585L102.932 19.5028C104.09 19.4508 104.204 19.4249 104.593 19.1254C105.324 18.5627 105.423 18.1739 105.426 15.8777C105.429 13.6716 105.361 13.2651 104.906 12.7823C104.23 12.0658 104.434 12.0901 98.8198 12.0538C94.7076 12.0272 93.6932 12.0491 93.649 12.1653ZM112.47 12.1045C112.429 12.1459 112.395 12.4465 112.395 12.7726V13.3653L115.022 13.3952L117.648 13.4251L117.677 18.6943L117.706 23.9635H118.312H118.918L118.946 18.6943L118.975 13.4251L121.607 13.3952L124.239 13.3653L124.205 12.7261L124.172 12.0869L118.359 12.058C115.161 12.0422 112.511 12.063 112.47 12.1045ZM131.305 17.9973V23.9635H131.969H132.632V17.9973V12.0311H131.969H131.305V17.9973ZM140.815 17.9973V23.9746L141.451 23.9411L142.087 23.9077L142.116 21.3149L142.146 18.7221L144.052 18.7255L145.957 18.7288L148.114 21.3428L150.27 23.9568L151.135 23.9601L152 23.9635L151.799 23.7071C151.688 23.5661 150.602 22.2561 149.385 20.796C148.169 19.3359 147.157 18.0962 147.137 18.0411C147.116 17.986 148.161 16.6626 149.458 15.1003C150.755 13.5378 151.833 12.2081 151.854 12.1453C151.878 12.0742 151.586 12.0323 151.081 12.0345L150.27 12.0378L148.114 14.6518L145.957 17.2657L144.052 17.2691L142.146 17.2724L142.116 14.6796L142.087 12.0869L141.451 12.0534L140.815 12.02V17.9973ZM103.83 13.6431C104.097 13.9123 104.102 13.9481 104.102 15.8177C104.102 17.5698 104.084 17.7359 103.881 17.9415C103.667 18.1566 103.512 18.1646 99.5336 18.1646C96.1479 18.1646 95.3694 18.1362 95.1932 18.0065C94.9986 17.8631 94.9754 17.6785 94.9439 16.0253C94.9066 14.071 94.9806 13.6515 95.3916 13.485C95.5294 13.4291 97.4234 13.3802 99.6004 13.3763L103.559 13.3693L103.83 13.6431ZM40.2955 19.0109C40.2955 19.1315 33.5087 31.8812 33.4459 31.8785C33.3809 31.8757 26.915 19.1433 26.915 19.0179C26.915 18.9779 29.9256 18.9452 33.6052 18.9452C37.2849 18.9452 40.2955 18.9747 40.2955 19.0109Z" fill="white"/>
</svg>
