<svg width="62" height="62" viewBox="0 0 62 62" fill="none" xmlns="http://www.w3.org/2000/svg">
<rect x="0.999878" y="1" width="59.8491" height="59.8491" rx="29.9245" stroke="#30343D" stroke-width="2"/>
<path d="M52 28.2142C52 29.8568 52 31.4954 52 33.138C51.9314 33.4447 51.9677 33.7635 51.9112 34.0743C51.7377 35.0308 51.5198 35.9793 51.2332 36.9116C50.9709 37.7672 50.6359 38.5945 50.2686 39.4098C50.0951 39.7972 49.8852 40.1645 49.7036 40.5479C49.5381 40.8385 49.3767 41.1331 49.2031 41.4197C48.8722 41.9605 48.5049 42.4811 48.1498 43.0058C47.8995 43.3206 47.6493 43.6354 47.3991 43.9502C47.3103 44.0067 47.2861 44.1116 47.2175 44.1843C46.9471 44.4668 46.6968 44.7654 46.4103 45.0358C45.9704 45.5726 45.4134 45.9924 44.921 46.4807C44.8484 46.5614 44.7233 46.5816 44.6668 46.6865C44.3601 46.9529 44.0372 47.2031 43.7062 47.4412C43.2017 47.8085 42.6892 48.1596 42.1484 48.4704C41.5591 48.8296 40.9497 49.1525 40.3322 49.4552C39.5331 49.8426 38.7098 50.1574 37.8622 50.4198C36.8411 50.7386 35.8039 50.9888 34.7505 51.1745C34.4075 51.235 34.0564 51.2108 33.7133 51.2633C32.2079 51.2633 30.6985 51.2633 29.1931 51.2633C28.8218 51.2108 28.4464 51.2269 28.0751 51.1624C26.9572 50.9606 25.8554 50.6861 24.7738 50.331C24.2128 50.1453 23.6558 49.9516 23.115 49.7094C22.5782 49.4673 22.0455 49.213 21.5289 48.9265C20.9195 48.5834 20.3222 48.2202 19.745 47.8327C19.3616 47.5744 18.9822 47.304 18.6271 47.0054C18.5665 46.9529 18.502 46.9004 18.4293 46.8641C18.1105 46.5977 17.8037 46.3193 17.5011 46.0367C17.0329 45.5968 16.5849 45.1367 16.1369 44.6766C15.7414 44.269 15.3943 43.817 15.0432 43.369C14.9544 43.2439 14.8495 43.1349 14.7607 43.0058C14.1512 42.1502 13.5701 41.2824 13.0979 40.3421C12.7104 39.5753 12.3512 38.7963 12.0445 37.9891C11.7579 37.19 11.5279 36.3788 11.3261 35.5555C11.1526 34.8573 11.0436 34.151 10.9387 33.4407C10.8741 33.029 10.8983 32.6173 10.8418 32.2097C10.8418 31.2128 10.8418 30.22 10.8418 29.2231C10.8943 28.9931 10.8539 28.759 10.8781 28.5249C10.9629 27.6814 11.1041 26.8541 11.2938 26.0267C11.3786 25.6594 11.4714 25.2962 11.5723 24.933C11.6974 24.4971 11.8266 24.0572 11.9961 23.6334C12.21 23.0886 12.4158 22.5437 12.666 22.015C12.8598 21.6033 13.0696 21.1957 13.2795 20.7921C13.5055 20.3643 13.7719 19.9648 14.014 19.545C14.1351 19.3352 14.2804 19.1414 14.4176 18.9437C14.7284 18.5078 15.0593 18.084 15.3903 17.6602C15.9876 16.8934 16.6737 16.2154 17.3679 15.5454C17.9773 14.9562 18.6351 14.4275 19.3253 13.9351C19.5392 13.7817 19.7248 13.6001 19.963 13.479C20.4796 13.1683 20.98 12.8293 21.5168 12.5508C21.9284 12.2965 22.3764 12.1028 22.8123 11.8929C22.9132 11.8445 23.0141 11.7961 23.119 11.7476C23.7083 11.5055 24.2975 11.2674 24.8989 11.0575C25.0563 11.001 25.2137 10.9243 25.3792 11.0252C25.4922 11.0857 25.6132 11.0736 25.7343 11.0736C29.5523 11.0736 33.3703 11.0736 37.1882 11.0736C37.3093 11.0736 37.4304 11.0817 37.5434 11.0212C37.6322 10.9606 37.7331 10.9606 37.8259 10.997C38.0156 11.0777 38.2174 11.118 38.403 11.1947C39.1134 11.4692 39.8277 11.7436 40.5138 12.0826C41.1636 12.4055 41.8013 12.7445 42.4107 13.136C42.6246 13.2732 42.8425 13.4024 43.0484 13.5557C43.5085 13.8665 43.9524 14.2055 44.3923 14.5445C45.1592 15.1378 45.8412 15.8199 46.5193 16.51C46.7776 16.7723 47.0238 17.0508 47.2619 17.3293C47.6049 17.7611 47.952 18.1849 48.2709 18.6369C48.6623 19.1535 48.9973 19.7065 49.3323 20.2594C49.5946 20.6872 49.8206 21.1392 50.0466 21.5872C50.2767 22.0433 50.4785 22.5114 50.6682 22.9836C50.8054 23.3065 50.9265 23.6294 51.0435 23.9563C51.2615 24.5697 51.4229 25.1953 51.5843 25.8249C51.7135 26.3294 51.7902 26.85 51.9032 27.3585C51.9476 27.5523 51.9476 27.7581 51.9556 27.9559C51.9637 28.0487 51.9556 28.1334 52 28.2142Z" fill="#8DC449"/>
<path d="M37.5959 11.0294C37.5797 11.1222 37.503 11.1344 37.4304 11.1424C37.39 11.1465 37.3497 11.1424 37.3093 11.1424C33.4147 11.1424 29.52 11.1424 25.6254 11.1424C25.5124 11.1424 25.3751 11.1828 25.3267 11.0133C25.3186 10.9891 25.3267 10.9729 25.3469 10.9568C25.8473 10.755 26.372 10.6299 26.9007 10.5249C27.05 10.5169 27.1953 10.4967 27.3326 10.4361C27.6352 10.3474 27.95 10.311 28.2648 10.2908C28.3496 10.2868 28.4384 10.2949 28.5191 10.2505C30.4846 10.2505 32.4461 10.2505 34.4115 10.2505C34.7385 10.3191 35.0775 10.3151 35.4044 10.3877C35.4689 10.4039 35.5376 10.4039 35.5981 10.4361C35.7595 10.5088 35.9331 10.5128 36.1026 10.533C36.5344 10.6743 36.9824 10.7429 37.4102 10.8922C37.4788 10.9245 37.5676 10.9366 37.5959 11.0294Z" fill="#8DC449"/>
<path d="M31.6264 20.514C31.4932 20.5584 31.3641 20.522 31.2349 20.4938C30.1291 20.2436 29.0111 20.1265 27.877 20.1951C27.2192 20.2355 26.5815 20.3727 25.9479 20.5745C25.0479 20.857 24.16 21.1759 23.3084 21.5835C22.1945 22.1162 21.1653 22.7781 20.3178 23.6902C19.5792 24.4813 19.0424 25.3974 18.6953 26.4266C18.3805 27.3589 18.2231 28.3194 18.1303 29.2961C18.0738 29.9217 18.0254 30.5513 17.9648 31.1769C17.8922 31.9356 17.8599 32.6984 17.759 33.4531C17.6622 34.1876 17.5814 34.9262 17.4644 35.6567C17.3474 36.3953 17.2182 37.1298 17.0366 37.8523C16.8267 38.7038 16.5886 39.5514 16.2536 40.3626C16.1366 40.6451 16.0357 40.9397 15.9267 41.2263C15.8944 41.311 15.8742 41.424 15.7733 41.4442C15.6482 41.4725 15.6361 41.3433 15.5837 41.2707C15.2608 40.8267 14.9742 40.3626 14.724 39.8783C14.4254 39.3011 14.1307 38.7159 13.8845 38.1065C13.594 37.3841 13.3276 36.6536 13.1177 35.9029C12.8957 35.0998 12.7222 34.2885 12.5971 33.4652C12.4155 32.2988 12.3791 31.1325 12.4114 29.958C12.4235 29.4535 12.4558 28.945 12.5487 28.4405C12.6173 28.0611 12.6213 27.6697 12.702 27.2903C12.811 26.7817 12.9159 26.2732 13.0491 25.7728C13.2872 24.8566 13.598 23.9606 13.9814 23.097C14.4213 22.1041 14.9339 21.1476 15.5393 20.2395C16.068 19.4485 16.6411 18.6938 17.2828 17.9875C18.0092 17.1803 18.8003 16.4417 19.6519 15.7677C20.455 15.1301 21.2985 14.5691 22.1904 14.0686C22.6627 13.8063 23.147 13.5682 23.6393 13.3462C24.3012 13.0475 24.9752 12.7933 25.6654 12.5673C26.2021 12.3897 26.747 12.2444 27.2959 12.1193C27.9013 11.9821 28.5147 11.9013 29.1282 11.8085C30.1856 11.6551 31.239 11.6551 32.2964 11.6753C32.7686 11.6834 33.2408 11.7036 33.713 11.8085C33.9753 11.865 34.2578 11.8569 34.5282 11.9054C35.2668 12.0426 36.0013 12.1919 36.7238 12.4018C37.3372 12.5794 37.9466 12.7771 38.5319 13.0193C39.3754 13.3704 40.1947 13.7619 40.9897 14.222C41.9583 14.783 42.8705 15.4207 43.722 16.139C44.7108 16.9745 45.6149 17.8906 46.41 18.9158C46.7127 19.3072 47.0153 19.6987 47.2858 20.1104C47.649 20.6673 47.988 21.2364 48.3028 21.8216C48.5974 22.3745 48.8719 22.9396 49.114 23.5127C49.3481 24.0656 49.5539 24.6266 49.7113 25.2077C49.8768 25.8091 50.0463 26.4104 50.1553 27.0279C50.3006 27.8472 50.4257 28.6665 50.4741 29.502C50.5185 30.2203 50.5226 30.9387 50.4943 31.6571C50.4741 32.2423 50.4459 32.8316 50.3208 33.4087C50.2683 33.6549 50.2723 33.9132 50.2158 34.1594C50.0867 34.7365 49.9737 35.3137 49.8082 35.8827C49.7073 36.2298 49.6024 36.5729 49.4894 36.9119C49.3118 37.4406 49.1221 37.9653 48.8719 38.4698C48.7871 38.6433 48.7185 38.8249 48.6297 38.9985C48.3997 39.4424 48.1615 39.8864 47.9113 40.3222C47.6167 40.8348 47.2938 41.3272 46.9508 41.8115C46.5674 42.3523 46.1517 42.8689 45.7077 43.3693C45.2718 43.8577 44.8198 44.3299 44.3355 44.7658C43.8915 45.1613 43.4476 45.5568 42.9633 45.9079C42.592 46.1743 42.2368 46.4609 41.8494 46.703C41.3772 47.0017 40.905 47.2963 40.4045 47.5465C39.8395 47.8331 39.2745 48.1156 38.6933 48.3658C38.4955 48.4506 38.2978 48.5313 38.096 48.5959C37.6197 48.7452 37.1556 48.9228 36.6713 49.056C36.1507 49.2012 35.63 49.3264 35.1054 49.4353C34.8794 49.4838 34.8309 49.4394 34.8107 49.2133C34.6533 47.6757 34.8915 46.1905 35.396 44.7416C35.7148 43.8294 36.1265 42.9577 36.6027 42.1182C37.0345 41.3514 37.5108 40.6169 38.0193 39.9025C38.3866 39.3899 38.7861 38.9016 39.1857 38.4132C40.2068 37.1621 41.3166 35.9998 42.4709 34.8697C42.9552 34.3935 43.4597 33.9415 43.94 33.4612C44.5333 32.8679 45.1265 32.2746 45.6149 31.5885C46.1436 30.8459 46.5754 30.0508 46.7167 29.1347C46.8902 27.9966 46.5149 27.032 45.7198 26.2248C45.1225 25.6154 44.4001 25.1835 43.6332 24.8122C42.7938 24.4086 41.9099 24.1382 41.022 23.8799C40.1341 23.6257 39.2664 23.3028 38.4027 22.9718C37.983 22.8104 37.5632 22.649 37.1435 22.4916C37.0224 22.4472 36.9054 22.4028 36.8327 22.2857C36.7601 22.2656 36.7318 22.201 36.7076 22.1404C36.2314 21.0669 35.3596 20.5342 34.2417 20.3727C33.4466 20.2597 32.6475 20.296 31.8686 20.518C31.7838 20.5342 31.7031 20.5624 31.6264 20.514Z" fill="#F9E78D"/>
<path d="M32.4421 26.0553C32.43 28.1055 30.7672 29.736 28.7291 29.7239C26.6788 29.7078 25.0039 27.9965 25.0645 25.8817C25.121 23.9606 26.7918 22.322 28.7614 22.3301C30.8156 22.3341 32.4583 24.001 32.4421 26.0553Z" fill="#FEFEFE"/>
<path d="M45.6475 31.4752C45.478 31.6124 45.3327 31.7375 45.1794 31.8546C44.3924 32.4599 43.5408 32.9604 42.6489 33.4003C41.6237 33.9088 40.5663 34.3124 39.4726 34.6313C38.1165 35.0268 36.7403 35.3295 35.3156 35.2286C34.016 35.1358 32.8093 34.7927 31.8407 33.8523C31.7923 33.8079 31.7317 33.7716 31.7156 33.6869C31.7963 33.6546 31.8528 33.7111 31.9093 33.7474C32.5833 34.1591 33.3259 34.3891 34.1008 34.5062C34.7062 34.599 35.3156 34.6393 35.925 34.6192C37.5071 34.5707 39.0569 34.3245 40.5704 33.8483C41.6964 33.4931 42.7901 33.0573 43.8435 32.5205C44.4126 32.2339 44.9534 31.8949 45.4579 31.5075C45.4982 31.4833 45.5386 31.4389 45.6475 31.4752Z" fill="#58595B"/>
<path d="M31.6267 20.5139C32.329 20.3161 33.0433 20.2071 33.7738 20.2556C34.8958 20.3282 35.8685 20.6955 36.5303 21.6722C36.6595 21.8619 36.7281 22.0798 36.829 22.2816C36.8007 22.3139 36.7765 22.3099 36.7402 22.2897C35.3276 21.543 33.8061 21.0951 32.2725 20.6753C32.107 20.6309 31.9294 20.6107 31.7599 20.5785C31.7074 20.5744 31.6509 20.5744 31.6267 20.5139Z" fill="#139248"/>
<path d="M42.7575 29.7199C42.7575 30.1679 42.4063 30.511 41.9462 30.511C41.4982 30.511 41.1471 30.1518 41.1512 29.6998C41.1552 29.2558 41.5144 28.9047 41.9664 28.9087C42.4184 28.9087 42.7575 29.2599 42.7575 29.7199Z" fill="#FEFEFE"/>
<path d="M35.5782 10.4927C35.7518 10.5088 35.9253 10.525 36.0908 10.5815C35.9173 10.5855 35.7397 10.5774 35.5782 10.4927Z" fill="#8DC449"/>
<path d="M26.8931 10.5774C27.0384 10.5209 27.1917 10.5007 27.3451 10.4927C27.1998 10.5653 27.0505 10.5895 26.8931 10.5774Z" fill="#8DC449"/>
<path d="M33.6328 12.7244C34.3472 12.7002 35.0696 12.7971 35.7839 12.9343C37.2207 13.2087 38.5728 13.7132 39.7876 14.5487C40.6109 15.1137 41.3737 15.7594 42.1445 16.3931C43.323 17.3698 44.4934 18.3545 45.5428 19.4765C46.1401 20.1142 46.6446 20.8205 47.1087 21.5631C47.6334 22.4066 48.0975 23.2824 48.4729 24.1985C48.6787 24.703 48.8442 25.2236 48.9854 25.7564C49.1226 26.277 49.2356 26.8057 49.3285 27.3344C49.4173 27.8631 49.4818 28.3918 49.506 28.9286C49.5182 29.2152 49.5464 29.5057 49.5383 29.7923C49.5262 30.4421 49.4859 31.0878 49.4173 31.7376C49.4173 31.7497 49.4173 31.7659 49.4092 31.778C49.3688 31.8506 49.3809 31.9878 49.2921 31.9838C49.1993 31.9798 49.2034 31.8506 49.1872 31.7659C49.046 30.8457 48.8522 29.9335 48.6343 29.0255C48.4809 28.3959 48.3195 27.7703 48.1298 27.1528C47.8433 26.2044 47.5002 25.2721 47.1168 24.3519C46.8625 23.7344 46.6042 23.1169 46.3015 22.5196C46.0029 21.9263 45.676 21.3532 45.3248 20.7882C45.0464 20.3402 44.7598 19.8962 44.4692 19.4523C44.102 18.8913 43.6822 18.3666 43.2262 17.8783C42.5724 17.176 41.8378 16.5706 41.0105 16.0904C40.6311 15.8684 40.2356 15.6666 39.8279 15.5011C38.936 15.1419 38.0521 14.7626 37.1521 14.4276C36.4781 14.1773 35.7961 13.9473 35.1019 13.7576C34.5651 13.6083 34.0203 13.4751 33.4794 13.346C32.983 13.2289 32.4785 13.1401 31.974 13.0392C31.9135 13.0271 31.8449 13.0352 31.8328 12.9585C31.8207 12.8576 31.9095 12.8859 31.9579 12.8737C32.5028 12.7567 33.0557 12.7123 33.6328 12.7244Z" fill="#FEFEFE"/>
<path d="M28.7612 28.6543C27.3123 28.6543 26.1701 27.5202 26.1499 26.0633C26.1338 24.6386 27.3244 23.4561 28.7733 23.4561C30.206 23.4561 31.3563 24.6265 31.3563 26.0754C31.3522 27.5081 30.198 28.6543 28.7612 28.6543Z" fill="#58595B"/>
</svg>
