<svg width="172" height="36" viewBox="0 0 172 36" fill="none" xmlns="http://www.w3.org/2000/svg">
<path d="M44.3475 10.5618C45.989 13.141 46.5577 15.9565 46.3163 18.9714C46.3095 19.0561 46.318 19.1674 46.1191 19.1905C45.8411 17.8834 45.5963 16.56 45.1968 15.2759C44.3016 12.4005 43.0299 9.72033 41.0357 7.4416C40.1558 6.43577 38.9878 5.8143 37.7646 5.31352C35.9233 4.55937 34.0549 3.89081 32.0861 3.55012C31.9518 3.52615 31.8243 3.46195 31.6934 3.41743C34.1543 2.94148 36.4648 3.39346 38.4531 4.89407C40.6336 6.5402 42.837 8.18719 44.3475 10.5618Z" fill="white"/>
<path d="M34.1247 9.68181C33.3622 9.425 32.5894 9.46523 31.8201 9.62445C31.9408 9.66126 32.0616 9.69807 32.1823 9.73488C33.3052 10.0799 34.4282 10.4257 35.506 10.9034C35.506 10.9034 35.506 10.9034 35.5069 10.9042C35.5392 10.917 35.5715 10.9316 35.603 10.9462C35.3658 10.2434 34.7843 9.90523 34.1247 9.68181ZM28.9953 12.2088C27.795 12.2148 26.8047 13.224 26.8251 14.4199C26.8446 15.5961 27.8129 16.5659 28.98 16.5788C30.1914 16.5925 31.1613 15.6252 31.1639 14.4002C31.1673 13.1692 30.2109 12.2028 28.9953 12.2088ZM34.1247 9.68181C33.3622 9.425 32.5894 9.46523 31.8201 9.62445C31.9408 9.66126 32.0616 9.69807 32.1823 9.73488C33.3052 10.0799 34.4282 10.4257 35.506 10.9034C35.506 10.9034 35.506 10.9034 35.5069 10.9042C35.5392 10.917 35.5715 10.9316 35.603 10.9462C35.3658 10.2434 34.7843 9.90523 34.1247 9.68181ZM28.9953 12.2088C27.795 12.2148 26.8047 13.224 26.8251 14.4199C26.8446 15.5961 27.8129 16.5659 28.98 16.5788C30.1914 16.5925 31.1613 15.6252 31.1639 14.4002C31.1673 13.1692 30.2109 12.2028 28.9953 12.2088ZM28.9953 12.2088C27.795 12.2148 26.8047 13.224 26.8251 14.4199C26.8446 15.5961 27.8129 16.5659 28.98 16.5788C30.1914 16.5925 31.1613 15.6252 31.1639 14.4002C31.1673 13.1692 30.2109 12.2028 28.9953 12.2088ZM34.1247 9.68181C33.3622 9.425 32.5894 9.46523 31.8201 9.62445C31.9408 9.66126 32.0616 9.69807 32.1823 9.73488C33.3052 10.0799 34.4282 10.4257 35.506 10.9034C35.506 10.9034 35.506 10.9034 35.5069 10.9042C35.5392 10.917 35.5715 10.9316 35.603 10.9462C35.3658 10.2434 34.7843 9.90523 34.1247 9.68181ZM28.9953 12.2088C27.795 12.2148 26.8047 13.224 26.8251 14.4199C26.8446 15.5961 27.8129 16.5659 28.98 16.5788C30.1914 16.5925 31.1613 15.6252 31.1639 14.4002C31.1673 13.1692 30.2109 12.2028 28.9953 12.2088ZM31.3067 1.00002C21.7553 0.986322 14.0213 8.69824 14 18.2574C13.9796 27.8132 21.7128 35.6339 31.1962 35.6467C40.7621 35.6595 48.5309 27.9057 48.5436 18.3328C48.5555 8.77442 40.8386 1.01457 31.3067 1.00002ZM41.1888 20.1621C39.9434 20.9976 38.5689 21.4675 37.1441 21.8211C35.9523 22.1164 34.7597 22.2294 33.5475 21.9597C33.0408 21.8468 32.5699 21.6533 32.133 21.3742H32.1321C31.9731 21.3169 31.8456 21.2219 31.7564 21.0233C31.9986 20.9573 32.1372 21.1166 32.2919 21.2244C35.3879 22.0231 38.3104 21.322 41.1888 20.1621ZM39.407 17.4785C39.3926 17.053 39.6315 16.7996 40.031 16.7962C40.4161 16.7928 40.6923 17.0171 40.7059 17.4434C40.7204 17.8705 40.4577 18.0648 40.0718 18.1376C39.6689 18.0999 39.4215 17.9005 39.407 17.4785ZM32.1058 14.4096C32.0794 16.114 30.6946 17.4596 28.9783 17.4502C27.2629 17.4408 25.9257 16.0814 25.93 14.3531C25.9342 12.6531 27.3122 11.2595 29.0004 11.2492C30.6861 11.2381 32.1321 12.7104 32.1058 14.4096ZM34.4571 34.0057C34.3431 34.028 34.2309 34.0605 34.117 34.0887C34.3355 33.7985 34.2683 33.4587 34.2717 33.1351C34.2794 32.4777 34.2768 31.8271 34.4392 31.1774C34.9739 29.0356 36.0739 27.2003 37.3949 25.4712C38.8247 23.5982 40.564 22.0214 42.2089 20.3556C42.724 19.8334 43.1729 19.2684 43.5647 18.6555C44.811 16.7029 44.3502 14.7846 42.344 13.6246C41.4515 13.1085 40.5147 12.695 39.5133 12.4117C38.1855 12.0367 36.8806 11.5839 35.6412 10.9633C35.6285 10.9573 35.6157 10.9521 35.603 10.9462C35.3658 10.2434 34.7843 9.90523 34.1247 9.68181C33.3622 9.425 32.5894 9.46523 31.8201 9.62445C31.713 9.59107 31.6051 9.55768 31.498 9.5243C30.4787 9.40531 29.4646 9.14594 28.4343 9.24181C26.6585 9.40702 25.0136 10.0199 23.4818 10.9153C21.9975 11.7825 20.9222 13.0032 20.3781 14.6801C19.8553 16.2912 19.8613 17.9673 19.7023 19.6228C19.4779 21.9435 19.1821 24.2462 18.3439 26.4427C18.2368 26.7252 18.0846 27.0034 18.2054 27.3236C17.4233 26.6054 17.0161 25.6406 16.6429 24.6947C14.2508 18.635 14.9759 12.9818 19.1498 7.9475C22.6631 3.70933 27.3275 1.89114 32.7442 2.36195C40.2605 3.0151 46.0104 8.80438 47.0407 15.9684C48.3116 24.8035 42.3653 32.4529 34.4571 34.0057ZM28.9953 12.2088C27.795 12.2148 26.8047 13.224 26.8251 14.4199C26.8446 15.5961 27.8129 16.5659 28.98 16.5788C30.1914 16.5925 31.1613 15.6252 31.1639 14.4002C31.1673 13.1692 30.2109 12.2028 28.9953 12.2088ZM28.9953 12.2088C27.795 12.2148 26.8047 13.224 26.8251 14.4199C26.8446 15.5961 27.8129 16.5659 28.98 16.5788C30.1914 16.5925 31.1613 15.6252 31.1639 14.4002C31.1673 13.1692 30.2109 12.2028 28.9953 12.2088ZM34.1247 9.68181C33.3622 9.425 32.5894 9.46523 31.8201 9.62445C31.9408 9.66126 32.0616 9.69807 32.1823 9.73488C33.3052 10.0799 34.4282 10.4257 35.506 10.9034C35.506 10.9034 35.506 10.9034 35.5069 10.9042C35.5392 10.917 35.5715 10.9316 35.603 10.9462C35.3658 10.2434 34.7843 9.90523 34.1247 9.68181ZM28.9953 12.2088C27.795 12.2148 26.8047 13.224 26.8251 14.4199C26.8446 15.5961 27.8129 16.5659 28.98 16.5788C30.1914 16.5925 31.1613 15.6252 31.1639 14.4002C31.1673 13.1692 30.2109 12.2028 28.9953 12.2088ZM28.9953 12.2088C27.795 12.2148 26.8047 13.224 26.8251 14.4199C26.8446 15.5961 27.8129 16.5659 28.98 16.5788C30.1914 16.5925 31.1613 15.6252 31.1639 14.4002C31.1673 13.1692 30.2109 12.2028 28.9953 12.2088ZM34.1247 9.68181C33.3622 9.425 32.5894 9.46523 31.8201 9.62445C31.9408 9.66126 32.0616 9.69807 32.1823 9.73488C33.3052 10.0799 34.4282 10.4257 35.506 10.9034C35.506 10.9034 35.506 10.9034 35.5069 10.9042C35.5392 10.917 35.5715 10.9316 35.603 10.9462C35.3658 10.2434 34.7843 9.90523 34.1247 9.68181ZM28.9953 12.2088C27.795 12.2148 26.8047 13.224 26.8251 14.4199C26.8446 15.5961 27.8129 16.5659 28.98 16.5788C30.1914 16.5925 31.1613 15.6252 31.1639 14.4002C31.1673 13.1692 30.2109 12.2028 28.9953 12.2088Z" fill="white"/>
<path d="M110.992 24.5626C109.166 26.6406 106.941 26.9328 104.578 26.2268C101.658 25.3543 100.273 23.1527 99.8821 20.3119C99.627 18.4572 99.9003 16.6514 100.871 14.9922C102.806 11.6837 107.576 10.6846 110.72 12.9341C111.755 13.674 112.397 14.6721 112.713 15.8826C112.835 16.3463 112.835 16.7112 112.166 16.6065C111.975 16.5766 111.774 16.5836 111.58 16.6055C110.833 16.6903 110.358 16.5627 110.067 15.7022C109.648 14.4637 108.503 13.9711 107.248 13.8305C105.667 13.6531 104.323 14.1157 103.373 15.4349C101.969 17.3833 101.982 20.9829 103.395 22.9134C103.99 23.727 104.792 24.2306 105.79 24.442C108.296 24.9724 110.288 23.6692 110.649 21.309C110.736 20.7406 110.54 20.6569 110.05 20.6718C109.214 20.6978 108.375 20.6529 107.54 20.6888C107.043 20.7097 106.797 20.5851 106.875 20.0576C106.903 19.8701 106.904 19.6707 106.875 19.4833C106.787 18.9119 107.006 18.7374 107.6 18.7524C109.189 18.7942 110.78 18.7823 112.369 18.7573C112.84 18.7504 112.995 18.888 112.991 19.3586C112.968 21.4416 112.981 23.5246 112.982 25.6076C112.982 25.9167 113.009 26.2777 112.538 26.1829C112.106 26.0962 111.482 26.5359 111.272 25.7871C111.175 25.4431 111.111 25.0921 110.992 24.5626Z" fill="white"/>
<path d="M57.724 19.959C57.6284 15.5787 59.6117 12.6194 62.7469 11.9174C64.6596 11.4888 66.5077 11.7431 68.1453 12.9639C69.1891 13.742 69.7636 14.8266 70.0252 16.1144C70.1006 16.486 70.004 16.6272 69.6419 16.5931C69.4836 16.5781 69.3214 16.5761 69.164 16.5931C68.2409 16.6963 67.6548 16.518 67.1797 15.4545C66.246 13.3635 63.1524 13.1592 61.5051 14.9247C59.6696 16.8926 59.6368 21.324 61.454 23.3219C62.4543 24.4215 63.7047 24.7509 65.097 24.4365C66.4971 24.121 67.2927 23.1056 67.566 21.7185C67.7079 20.9985 67.9754 20.8122 68.6484 20.8323C70.2975 20.8813 70.3053 20.8493 69.8032 22.4887C69.1109 24.7509 67.6036 26.1229 65.3655 26.4714C62.8154 26.869 60.6207 26.1089 59.0594 23.8616C58.1122 22.4997 57.7337 20.9424 57.724 19.959Z" fill="white"/>
<path d="M145.987 26.5576C145.235 26.5576 144.497 26.5407 143.76 26.5645C143.375 26.5764 143.274 26.2878 143.123 26.0427C142.34 24.7759 141.548 23.514 140.787 22.2342C140.526 21.7957 140.371 21.6807 139.93 22.0934C139.315 22.6678 138.944 23.265 139.087 24.141C139.134 24.4326 139.095 24.7402 139.095 25.0398C139.095 26.5893 139.095 26.5655 137.586 26.5725C137.068 26.5745 136.911 26.4306 136.914 25.8899C136.934 21.6628 136.936 17.4357 136.913 13.2086C136.91 12.6342 137.124 12.5478 137.611 12.5488C139.096 12.5518 139.094 12.534 139.096 14.025C139.098 16.0974 139.102 18.1698 139.107 20.2422C139.107 20.26 139.136 20.2779 139.178 20.3265C140.047 19.4644 141.027 18.6896 141.757 17.7184C142.785 16.3494 144.069 16.1996 145.365 16.4357C144.59 17.3146 143.768 18.2998 142.889 19.2273C141.99 20.1767 141.966 20.1519 142.7 21.2829C143.674 22.7809 144.651 24.2769 145.617 25.7798C145.757 25.9991 145.973 26.1856 145.987 26.5576Z" fill="white"/>
<path d="M120.388 16.0282C118.187 15.3811 116.011 16.523 115.097 18.8059C114.589 20.0725 114.531 21.3827 114.796 22.7156C115.221 24.8452 116.43 26.1078 118.39 26.4868C120.573 26.9084 122.679 25.7427 123.348 23.7319C123.409 23.5469 123.597 23.341 123.395 23.1451C123.115 22.873 121.562 23.2005 121.358 23.5597C120.786 24.5691 119.742 25.0035 118.6 24.7056C117.597 24.4444 116.886 23.5102 116.773 22.3693C116.733 21.9576 116.794 21.7795 117.231 21.7934C118.215 21.825 119.203 21.8033 120.188 21.8033C121.175 21.8033 122.161 21.7944 123.147 21.8082C123.464 21.8122 123.644 21.7676 123.688 21.3481C123.932 19.0266 122.465 16.6378 120.388 16.0282ZM121.037 20.3328C120.405 20.3041 119.772 20.3249 119.14 20.3259C118.533 20.3259 117.924 20.2922 117.32 20.3358C116.811 20.3714 116.708 20.1626 116.807 19.6728C117.048 18.4962 118.1 17.5987 119.241 17.6283C120.332 17.657 121.317 18.608 121.508 19.7777C121.581 20.2299 121.441 20.3516 121.037 20.3328Z" fill="white"/>
<path d="M153.921 16.1156C150.022 15.0372 146.821 17.3244 146.813 21.1956C146.807 23.9015 148.258 25.8598 150.66 26.3891C154.541 27.2454 157.496 25.0332 157.536 21.243C157.563 18.6744 156.205 16.7477 153.921 16.1156ZM154.861 22.907C154.388 24.1296 153.422 24.7755 152.149 24.7715C150.9 24.7686 149.931 24.0881 149.452 22.8774C149.238 22.3372 149.174 21.7733 149.167 21.1996C149.171 19.3607 150.067 18.0354 151.51 17.7342C152.847 17.4557 154.045 17.9624 154.665 19.1208C155.321 20.3453 155.358 21.6252 154.861 22.907Z" fill="white"/>
<path d="M78.3455 16.0982C74.711 15.1006 71.7195 17.1524 71.7443 21.2083C71.7491 23.9186 73.1017 25.8791 75.3244 26.3978C78.8768 27.2249 81.5574 25.0511 81.6413 21.2748C81.6986 18.7361 80.4384 16.6734 78.3455 16.0982ZM79.1878 22.8198C78.749 24.107 77.8685 24.7744 76.6637 24.7675C75.4875 24.7615 74.5727 24.0435 74.1501 22.7861C73.9765 22.2655 73.9126 21.726 73.925 21.1766C73.9088 20.2523 74.1091 19.3886 74.6538 18.6428C75.7489 17.1434 77.983 17.2991 78.9064 18.9572C79.5904 20.1849 79.6409 21.4939 79.1878 22.8198Z" fill="white"/>
<path d="M90.692 17.5833C92.0498 15.9205 93.7481 15.5578 95.698 16.054C97.1392 16.4208 98.0455 17.406 98.0872 18.7875C98.1608 21.2205 98.1191 23.6554 98.1422 26.0894C98.1455 26.4725 97.9664 26.5856 97.5984 26.5499C97.5688 26.5469 97.538 26.5489 97.5072 26.5499C95.676 26.6223 95.676 26.6223 95.676 24.9351C95.676 23.3406 95.6947 21.7452 95.6705 20.1507C95.6441 18.4605 94.9729 17.6964 93.5514 17.6627C92.041 17.6261 90.8524 18.6184 90.7942 20.113C90.7206 22.0131 90.737 23.9183 90.7689 25.8194C90.7788 26.4154 90.5767 26.5713 89.9505 26.5642C88.2599 26.5458 88.2588 26.5723 88.2588 24.982C88.2588 22.2678 88.2785 19.5537 88.2434 16.8395C88.2357 16.2415 88.4279 16.0887 89.0563 16.1019C90.5481 16.1304 90.5481 16.1009 90.692 17.5833Z" fill="white"/>
<path d="M125.364 21.3902C125.415 18.4424 126.746 16.5654 129.099 16.0235C130.354 15.7353 131.615 15.7938 132.827 16.2702C133.573 16.5634 134.203 17.0111 134.633 17.6827C134.975 18.2185 135.494 18.9931 135.15 19.3804C134.754 19.8241 133.836 19.4943 133.146 19.5191C132.919 19.527 132.914 19.3368 132.866 19.1823C132.534 18.1185 131.716 17.6668 130.642 17.6351C129.586 17.6044 128.677 17.9838 128.205 18.9416C127.464 20.4462 127.431 21.9983 128.219 23.497C128.692 24.3974 129.519 24.8153 130.582 24.7688C131.587 24.7252 132.395 24.2577 132.644 23.3593C132.89 22.4668 133.407 22.4322 134.15 22.455C135.386 22.4936 135.387 22.4658 134.989 23.5831C134.228 25.7147 132.304 26.8023 129.778 26.5319C127.436 26.2813 125.756 24.6896 125.446 22.4153C125.39 22.0122 125.381 21.6021 125.364 21.3902Z" fill="white"/>
<path d="M86.5783 21.2712C86.5783 22.8164 86.5538 24.3626 86.5922 25.9068C86.606 26.4476 86.4302 26.5698 85.9005 26.5719C84.1355 26.5771 84.1355 26.599 84.1355 24.8909C84.1355 22.144 84.159 19.3961 84.1185 16.6492C84.1089 15.9873 84.3167 15.8359 84.9605 15.8494C86.5773 15.8829 86.5773 15.8515 86.5773 17.4082C86.5783 18.6955 86.5783 19.9828 86.5783 21.2712Z" fill="white"/>
<path d="M85.5192 14.172C83.9398 14.1569 84.1255 14.2841 84.1255 13.3318C84.1255 12.4298 83.9409 12.5593 85.428 12.551C86.5544 12.545 86.4653 12.5556 86.5809 13.4432C86.6817 14.2171 86.1344 14.245 85.5192 14.172Z" fill="white"/>
<path d="M31.1643 14.4004C31.1617 15.6254 30.1918 16.5927 28.9804 16.579C27.8133 16.5662 26.8451 15.5963 26.8255 14.4201C26.8051 13.2243 27.7954 12.215 28.9957 12.209C30.2113 12.203 31.1677 13.1695 31.1643 14.4004Z" fill="white"/>
<path d="M42.3442 13.6244C41.4516 13.1082 40.5149 12.6947 39.5135 12.4114C38.1857 12.0365 36.8808 11.5836 35.6414 10.963C35.6286 10.957 35.6159 10.9519 35.6031 10.9459C35.5717 10.9313 35.5394 10.9168 35.5071 10.9039C35.5062 10.9031 35.5062 10.9031 35.5062 10.9031C34.4283 10.4254 33.3054 10.0796 32.1824 9.73461C32.0617 9.6978 31.941 9.66099 31.8203 9.62418C31.7132 9.5908 31.6052 9.55741 31.4981 9.52403C30.4789 9.40504 29.4648 9.14567 28.4345 9.24154C26.6587 9.40675 25.0138 10.0197 23.4819 10.9151C21.9977 11.7822 20.9224 13.0029 20.3783 14.6799C19.8555 16.2909 19.8615 17.967 19.7025 19.6225C19.4781 21.9432 19.1823 24.2459 18.3441 26.4425C18.237 26.725 18.0848 27.0032 18.2055 27.3233C18.5328 28.5081 19.4058 29.3204 20.2423 30.1054C21.5412 31.3252 23.0255 32.3165 24.6669 33.0296C27.7051 34.3496 30.824 35.025 34.1172 34.0885C34.3357 33.7983 34.2685 33.4584 34.2719 33.1349C34.2796 32.4774 34.277 31.8269 34.4394 31.1771C34.9741 29.0354 36.0741 27.2001 37.3951 25.4709C38.8249 23.5979 40.5642 22.0211 42.2091 20.3553C42.7242 19.8331 43.173 19.2681 43.5649 18.6552C44.8111 16.7026 44.3504 14.7843 42.3442 13.6244ZM40.0312 16.7959C40.4163 16.7925 40.6925 17.0168 40.7061 17.4431C40.7206 17.8703 40.4579 18.0646 40.072 18.1373C39.669 18.0997 39.4217 17.9002 39.4072 17.4782C39.3928 17.0528 39.6316 16.7994 40.0312 16.7959ZM28.9785 17.45C27.2631 17.4405 25.9259 16.0812 25.9302 14.3529C25.9344 12.6528 27.3124 11.2592 29.0006 11.2489C30.6863 11.2378 32.1323 12.7101 32.1059 14.4094C32.0796 16.1137 30.6948 17.4594 28.9785 17.45ZM37.1443 21.8208C35.9525 22.1161 34.7599 22.2291 33.5477 21.9595C33.041 21.8465 32.5701 21.653 32.1331 21.374H32.1323C31.9733 21.3166 31.8458 21.2216 31.7566 21.023C31.9988 20.9571 32.1374 21.1163 32.2921 21.2242C35.3881 22.0228 38.3106 21.3217 41.189 20.1618C39.9436 20.9973 38.569 21.4673 37.1443 21.8208Z" fill="white"/>
<path d="M46.3163 18.9714C46.3095 19.0561 46.318 19.1674 46.1191 19.1905C45.8411 17.8834 45.5963 16.56 45.1968 15.2759C44.3016 12.4005 43.0299 9.72033 41.0357 7.4416C40.1558 6.43577 38.9878 5.8143 37.7646 5.31352C35.9233 4.55937 34.0549 3.89081 32.0861 3.55012C31.9518 3.52615 31.8243 3.46195 31.6934 3.41743C34.1543 2.94148 36.4648 3.39346 38.4531 4.89407C40.6336 6.5402 42.837 8.18719 44.3475 10.5618C45.989 13.141 46.5577 15.9565 46.3163 18.9714Z" fill="white"/>
<path d="M31.1643 14.4004C31.1617 15.6254 30.1918 16.5927 28.9804 16.579C27.8133 16.5662 26.8451 15.5963 26.8255 14.4201C26.8051 13.2243 27.7954 12.215 28.9957 12.209C30.2113 12.203 31.1677 13.1695 31.1643 14.4004Z" fill="#FDFDFD"/>
<path d="M35.6443 11.084C34.3106 10.6252 32.9768 10.1655 31.643 9.70665C31.6175 9.69809 31.5929 9.68953 31.5674 9.68097C31.6515 9.66042 31.7365 9.64159 31.8207 9.62447C32.59 9.46525 33.3627 9.42502 34.1253 9.68182C34.7849 9.90525 35.3664 10.2434 35.6035 10.9462C35.6188 10.9907 35.6324 11.0369 35.6443 11.084Z" fill="white"/>
<path d="M46.3163 18.9714C46.3095 19.0561 46.318 19.1674 46.1191 19.1905C45.8411 17.8834 45.5963 16.56 45.1968 15.2759C44.3016 12.4005 43.0299 9.72033 41.0357 7.4416C40.1558 6.43577 38.9878 5.8143 37.7646 5.31352C35.9233 4.55937 34.0549 3.89081 32.0861 3.55012C31.9518 3.52615 31.8243 3.46195 31.6934 3.41743C34.1543 2.94148 36.4648 3.39346 38.4531 4.89407C40.6336 6.5402 42.837 8.18719 44.3475 10.5618C45.989 13.141 46.5577 15.9565 46.3163 18.9714Z" fill="white"/>
<path d="M31.1643 14.4004C31.1617 15.6254 30.1918 16.5927 28.9804 16.579C27.8133 16.5662 26.8451 15.5963 26.8255 14.4201C26.8051 13.2243 27.7954 12.215 28.9957 12.209C30.2113 12.203 31.1677 13.1695 31.1643 14.4004Z" fill="white"/>
</svg>
