<svg width="172" height="36" viewBox="0 0 172 36" fill="none" xmlns="http://www.w3.org/2000/svg">
<path fill-rule="evenodd" clip-rule="evenodd" d="M13.7075 3.09016C10.6343 3.42437 7.08892 5.25865 5.03404 7.57759C-0.0679727 13.3353 -0.359702 21.5875 4.32562 27.6187C6.21926 30.0563 9.20921 31.9674 12.2779 32.7014C13.3235 32.9515 13.75 32.9932 15.334 32.9998C17.9743 33.0109 19.4657 32.6512 21.848 31.4285C23.1708 30.7496 25.0216 29.3606 25.3565 28.7953C25.7518 28.1283 25.5435 27.2141 24.9211 26.8827C24.3866 26.5982 23.9083 26.6667 23.3829 27.1025C21.1949 28.9175 19.6994 29.685 17.5117 30.1156C16.4774 30.3192 14.5628 30.3446 13.4931 30.1691C11.2627 29.8031 8.85316 28.5364 7.29954 26.9132L6.62859 26.2122L9.68189 21.168L12.7351 16.124L12.7962 19.1064C12.866 22.5218 12.9368 22.8787 13.6728 23.527C14.3608 24.1331 14.9951 24.1637 15.8974 23.6343C16.5192 23.2694 17.0085 22.5722 19.0767 19.1036L20.8567 16.1183L20.9288 17.9688C20.9686 18.9866 21.0605 20.0793 21.1333 20.397C21.4569 21.8097 22.3621 23.0311 23.4886 23.5745C24.0282 23.8348 24.2409 23.872 25.1883 23.872C26.141 23.872 26.3468 23.8354 26.9013 23.5682C27.712 23.1773 28.7724 22.0814 29.1771 21.2162C29.6699 20.1625 29.8221 19.1852 29.7536 17.5165C29.6846 15.8381 29.4898 14.7444 28.9768 13.1548C27.2505 7.80526 22.751 3.93654 17.3373 3.14711C16.1363 2.97192 14.9634 2.95354 13.7075 3.09016ZM17.3201 5.88416C18.823 6.12911 20.5675 6.85379 21.9396 7.80303C22.8451 8.42943 24.3832 9.99861 25.0122 10.9375C26.0957 12.555 26.7454 14.2669 27.0452 16.2941C27.2827 17.9001 27.207 19.1521 26.8236 19.9585C26.1304 21.4164 24.6171 21.6693 23.9336 20.4412C23.6837 19.9924 23.6692 19.8536 23.6028 17.2971C23.5281 14.4192 23.4561 14.0065 22.8975 13.253C22.5789 12.823 21.8885 12.4556 21.3923 12.4519C20.8654 12.448 19.9833 12.9722 19.4219 13.6229C19.139 13.9509 18.1278 15.5229 17.1749 17.1162L15.4423 20.0131L15.3881 16.4263C15.3364 12.9971 15.3235 12.8194 15.0951 12.38C14.71 11.6391 14.2804 11.3351 13.6182 11.3351C12.8966 11.3351 12.4011 11.6691 11.8373 12.5353C11.6088 12.8864 9.99192 15.5433 8.24447 18.4393C6.49691 21.3354 5.03274 23.7048 4.99072 23.7048C4.9486 23.7048 4.75693 23.3191 4.56461 22.8478C2.98555 18.9766 3.40311 14.592 5.68626 11.0695C6.35646 10.0355 7.8673 8.4739 8.86853 7.78041C11.3254 6.07862 14.35 5.40007 17.3201 5.88416ZM45.2255 11.7914C42.4747 12.2121 40.3308 14.2023 39.6417 16.9749C38.7987 20.3671 40.5448 23.888 43.7056 25.1699C44.4258 25.462 44.7639 25.5301 45.711 25.5736C47.0819 25.6364 47.7888 25.5018 48.8623 24.973C50.0076 24.4087 50.7693 23.775 50.9187 23.262C51.1595 22.4351 50.4207 21.5759 49.6335 21.7674C49.4702 21.8071 49.0836 22.0375 48.7745 22.2792C48.0905 22.8141 46.9294 23.2535 46.1919 23.2567C45.4822 23.2598 44.5163 22.997 43.9968 22.6594C43.3663 22.2499 42.6079 21.3139 42.3338 20.6071C42.1299 20.0811 42.0874 19.7606 42.0874 18.7458C42.0874 17.2064 42.3185 16.5291 43.1649 15.5883C44.5093 14.0939 46.434 13.8186 48.2712 14.8579C49.0015 15.271 49.5274 15.3364 49.9087 15.0615C50.1953 14.8549 50.4736 14.3367 50.4736 14.0096C50.4736 12.6897 47.5187 11.4407 45.2255 11.7914ZM63.4759 11.8647C62.9599 12.1353 62.6884 12.5626 62.6313 13.1935C62.5726 13.8424 62.8792 14.3973 63.4704 14.7114C64.4045 15.2075 65.634 14.3962 65.634 13.2836C65.634 12.7825 65.2081 12.1387 64.7135 11.8923C64.1652 11.6192 63.9528 11.6144 63.4759 11.8647ZM143.119 11.7891C141.655 12.0182 140.488 12.6405 139.377 13.7845C138.036 15.1657 137.429 16.6932 137.429 18.6901C137.429 20.687 138.036 22.2144 139.377 23.5956C140.728 24.9875 142.151 25.5993 144.035 25.5993C144.593 25.5993 145.325 25.5215 145.698 25.4227C146.578 25.189 147.714 24.566 148.374 23.9551C148.857 23.5078 148.908 23.4158 148.908 22.9787C148.908 22.1317 148.172 21.5264 147.474 21.7996C147.319 21.86 146.979 22.0773 146.718 22.2825C145.244 23.4402 143.342 23.5523 141.842 22.5699C140.135 21.4521 139.495 18.7195 140.448 16.6234C141.496 14.3179 144.085 13.5699 146.376 14.9108C147.316 15.4609 148.09 15.2622 148.366 14.3997C148.601 13.6677 148.24 13.0886 147.196 12.524C145.957 11.8538 144.446 11.5815 143.119 11.7891ZM78.6324 12.1078C78.5592 12.2488 78.5203 14.3921 78.5203 18.2963C78.5203 24.7767 78.519 24.7619 79.1174 25.2463C79.3223 25.4122 79.5674 25.4879 79.8994 25.4879C80.3049 25.4879 80.4423 25.4267 80.7511 25.109L81.1192 24.7301V21.4779C81.1192 19.6062 81.1605 18.2415 81.2164 18.2629C81.2698 18.2833 81.7157 18.7514 82.2073 19.303C84.2772 21.6254 84.4732 21.8104 84.8623 21.8104C85.1919 21.8104 85.3716 21.6473 86.8269 20.0277C87.7078 19.0472 88.4652 18.2449 88.5099 18.2447C88.5547 18.2444 88.5912 19.7036 88.5912 21.4872V24.7301L88.9593 25.109C89.2736 25.4324 89.402 25.4879 89.8365 25.4879C90.2709 25.4879 90.3994 25.4324 90.7136 25.109L91.0818 24.7301V18.3634C91.0818 11.4637 91.1094 11.7755 90.5131 11.9322C90.3737 11.9689 89.1834 13.2641 87.7286 14.962C86.3311 16.5932 85.1128 17.9672 85.0214 18.0153C84.93 18.0635 84.7935 18.0799 84.718 18.0522C84.6425 18.0243 83.477 16.7147 82.1279 15.142C80.7788 13.5691 79.5736 12.1957 79.4497 12.0898C79.1495 11.8335 78.7708 11.8418 78.6324 12.1078ZM112.219 12.1181C111.536 12.5466 111.54 12.5062 111.573 18.925L111.602 24.7251L112.007 25.1064C112.336 25.4168 112.498 25.4879 112.876 25.4879C113.376 25.4879 113.739 25.2892 113.957 24.8971C114.042 24.7435 114.113 24.0122 114.147 22.9368L114.201 21.2215L115.805 23.1597C116.687 24.2257 117.54 25.1853 117.7 25.2923C117.86 25.3992 118.179 25.487 118.408 25.4873C118.739 25.4878 118.902 25.4091 119.193 25.109C119.504 24.7897 119.562 24.6507 119.562 24.2259C119.562 23.7475 119.498 23.6421 118.316 22.1636C117.631 21.3068 117.071 20.5719 117.071 20.5307C117.071 20.4896 117.608 19.8494 118.265 19.108C118.921 18.3667 119.487 17.6433 119.522 17.5007C119.754 16.5497 118.675 15.6213 117.848 16.061C117.666 16.1581 116.771 17.0915 115.859 18.1352L114.201 20.0329L114.147 16.3805C114.089 12.4416 114.088 12.4361 113.49 12.0724C113.092 11.8303 112.652 11.8462 112.219 12.1181ZM131.989 12.0667C131.468 12.3576 131.365 12.7331 131.365 14.3384V15.7927L130.905 15.7931C129.683 15.7942 129.079 17.0289 129.892 17.8654C130.213 18.1954 130.331 18.2443 130.802 18.2443H131.344L131.389 20.7238C131.425 22.739 131.47 23.3077 131.627 23.7606C132.09 25.092 132.721 25.5089 134.381 25.5785C135.645 25.6314 135.897 25.5498 136.189 24.991C136.429 24.5328 136.335 23.9489 135.964 23.5904C135.761 23.3936 135.534 23.3169 135.051 23.2809C134.023 23.2045 134.024 23.2069 133.985 20.5175L133.952 18.2443H134.613C135.426 18.2443 135.879 18.021 136.083 17.5195C136.473 16.5595 135.833 15.7927 134.644 15.7927H133.964V14.3604C133.964 13.0542 133.942 12.895 133.717 12.5511C133.297 11.9099 132.613 11.7182 131.989 12.0667ZM55.358 15.9618C53.1142 16.6104 51.6185 18.7386 51.8043 21.0182C51.9698 23.0516 53.3103 24.796 55.1729 25.4022C56.1454 25.7187 57.5585 25.6399 58.4055 25.2219C60.1781 24.3472 61.3139 22.3281 61.1641 20.3181C61.0222 18.4157 59.8507 16.7757 58.1621 16.1154C57.3798 15.8096 56.1228 15.7407 55.358 15.9618ZM71.3818 15.9685C70.864 16.163 70.1346 16.6043 70.0224 16.791C69.917 16.9667 69.749 16.9299 69.749 16.7313C69.749 16.6347 69.6005 16.4028 69.4191 16.2161C69.134 15.9228 69.0347 15.8856 68.6882 15.9423C68.4488 15.9816 68.1887 16.1244 68.0434 16.2966C67.8006 16.5842 67.7998 16.5985 67.7998 20.5405C67.7998 23.7765 67.8284 24.5528 67.9567 24.8082C68.4212 25.7327 69.7901 25.7153 70.2216 24.7794C70.3679 24.4622 70.3987 23.9913 70.3987 22.0679C70.3987 19.8738 70.4127 19.7121 70.6423 19.2495C70.9977 18.5337 71.3628 18.3005 72.1106 18.3114C72.4667 18.3165 72.8791 18.4016 73.0874 18.5126C73.6873 18.8326 73.7555 19.1659 73.7563 21.7789C73.7566 23.0527 73.8067 24.2798 73.8677 24.5056C74.0294 25.1047 74.5211 25.4879 75.1284 25.4879C75.5427 25.4879 75.6759 25.4285 75.9929 25.1023L76.3676 24.7167L76.3325 21.7312C76.2997 18.9329 76.282 18.7063 76.0517 18.1165C75.7179 17.2621 75.0753 16.5401 74.3223 16.1734C73.5315 15.7884 72.1227 15.6902 71.3818 15.9685ZM95.9797 15.9654C95.2073 16.1795 94.9017 16.3552 94.2441 16.9636C93.8658 17.3137 93.5569 17.7465 93.2921 18.2981C92.0793 20.8234 92.942 23.9394 95.204 25.2039C95.6948 25.4783 95.9482 25.5405 96.7322 25.5794C97.9828 25.6412 98.9554 25.3506 99.6729 24.7007C100.124 24.2919 100.178 24.2686 100.178 24.4828C100.178 25.3829 101.224 25.83 101.842 25.1941L102.127 24.9002V20.728V16.5556L101.811 16.2298C101.595 16.0075 101.386 15.9041 101.153 15.9041C100.691 15.9041 100.178 16.4279 100.178 16.8985C100.178 17.087 100.129 17.2414 100.07 17.2414C100.01 17.2414 99.9614 17.1955 99.9614 17.1394C99.9614 16.9373 98.9165 16.2539 98.2584 16.0258C97.4862 15.7581 96.7943 15.7397 95.9797 15.9654ZM108.106 16.0036C107.79 16.1156 107.321 16.3638 107.062 16.555L106.592 16.9027L106.456 16.5654C106.313 16.2114 105.865 15.9041 105.491 15.9041C105.37 15.9041 105.112 16.0504 104.917 16.2292L104.564 16.5541L104.53 20.1574C104.511 22.1391 104.527 23.9832 104.566 24.2553C104.672 24.991 105.19 25.4879 105.851 25.4879C106.246 25.4879 106.419 25.4217 106.701 25.163L107.054 24.8381L107.108 22.2377C107.158 19.8736 107.183 19.6019 107.385 19.2476C107.703 18.6909 108.207 18.3819 108.928 18.3017C109.791 18.2058 110.217 17.9852 110.431 17.5251C110.582 17.1995 110.59 17.0672 110.482 16.6958C110.234 15.8446 109.31 15.5755 108.106 16.0036ZM123.298 15.9471C121.228 16.4651 120.103 18.1598 120.091 20.7769C120.081 23.0189 121.015 24.5851 122.765 25.2587C123.574 25.5703 125.118 25.7287 125.97 25.5874C126.783 25.4528 127.71 25.0166 128.005 24.6302C128.446 24.0543 128.199 23.1548 127.539 22.9312C127.257 22.8355 127.061 22.8638 126.438 23.0904C125.404 23.4659 124.231 23.4768 123.57 23.117C123.086 22.8538 122.702 22.2909 122.702 21.8453V21.5981L125.515 21.5649L128.328 21.5318L128.629 21.2221C128.899 20.943 128.927 20.8416 128.912 20.1963C128.86 17.9893 127.436 16.2361 125.42 15.8961C124.632 15.7632 123.969 15.7792 123.298 15.9471ZM153.015 15.9379C151.914 16.2594 150.854 17.1509 150.343 18.1848C149.067 20.7694 150.001 24.084 152.343 25.2785C152.792 25.5079 153.017 25.5427 154.052 25.5431C155.123 25.5436 155.306 25.513 155.874 25.2391C156.222 25.0716 156.641 24.7857 156.806 24.6037L157.107 24.2727L157.234 24.7091C157.474 25.5342 158.297 25.7609 158.879 25.1621L159.195 24.8364V20.8104C159.195 16.3875 159.182 16.2868 158.553 16.0187C157.934 15.7547 157.33 16.1326 157.196 16.8682L157.125 17.2557L156.684 16.8458C155.75 15.9774 154.197 15.593 153.015 15.9379ZM165.53 15.9425C164.863 16.1214 164.19 16.4723 163.916 16.7838C163.655 17.0809 163.527 17.082 163.527 16.787C163.527 16.4853 162.959 15.9041 162.663 15.9041C162.343 15.9041 161.823 16.1985 161.689 16.4552C161.617 16.5946 161.578 18.7596 161.578 22.6444C161.578 29.1111 161.57 29.0272 162.164 29.4275C162.516 29.6649 163.139 29.662 163.535 29.421C164.088 29.085 164.176 28.7131 164.176 26.7247C164.176 25.7379 164.195 24.9307 164.218 24.9307C164.24 24.9307 164.545 25.0686 164.894 25.2371C165.467 25.5133 165.648 25.5436 166.721 25.5436C167.872 25.5436 167.935 25.5308 168.597 25.1617C170.851 23.9043 171.688 20.5831 170.378 18.1045C169.966 17.3263 168.976 16.4212 168.214 16.1266C167.445 15.8294 166.256 15.7479 165.53 15.9425ZM63.6307 16.0604C63.452 16.1416 63.2083 16.3203 63.0892 16.4576C62.8828 16.6955 62.8711 16.8892 62.8415 20.5628C62.8191 23.3254 62.8463 24.5078 62.9373 24.734C63.1241 25.198 63.54 25.4879 64.0192 25.4879C64.6132 25.4879 64.9719 25.281 65.2095 24.8017C65.4019 24.4136 65.4174 24.1119 65.4174 20.7526C65.4174 16.7256 65.3895 16.5328 64.7471 16.1299C64.3329 15.8699 64.0841 15.8544 63.6307 16.0604ZM98.398 18.54C98.6175 18.6571 98.948 18.9674 99.1324 19.2294C99.4143 19.63 99.4746 19.8302 99.5105 20.4854C99.5664 21.5022 99.3452 22.1087 98.7081 22.6858C98.0308 23.2994 97.3345 23.4203 96.6272 23.047C95.8772 22.6512 95.4329 21.9388 95.3364 20.9773C95.1428 19.0465 96.8306 17.7028 98.398 18.54ZM155.165 18.4172C157.116 19.2546 157.015 22.4721 155.016 23.151C153.664 23.6101 152.373 22.4173 152.373 20.7092C152.373 19.5542 152.864 18.7296 153.743 18.4069C154.294 18.2048 154.677 18.2075 155.165 18.4172ZM167.435 18.6281C168.577 19.4056 168.726 21.4849 167.718 22.5755C166.43 23.9699 164.416 23.0588 164.209 20.9882C164.01 18.9798 165.91 17.5894 167.435 18.6281ZM57.6339 18.6747C59.0203 19.5796 58.8816 22.1953 57.4041 23.0086C56.0292 23.7654 54.3674 22.5013 54.3744 20.7039C54.3797 19.3138 55.2535 18.3698 56.5436 18.3602C57.0241 18.3567 57.2434 18.4199 57.6339 18.6747ZM125.595 18.59C126.046 18.8148 126.384 19.2611 126.384 19.6317C126.384 19.781 126.133 19.8045 124.543 19.8045C122.513 19.8045 122.501 19.7992 122.888 19.1248C123.31 18.3899 124.658 18.1234 125.595 18.59Z" fill="white"/>
</svg>
