<svg width="62" height="62" viewBox="0 0 62 62" fill="none" xmlns="http://www.w3.org/2000/svg">
<rect x="1" y="1" width="59.8491" height="59.8491" rx="29.9245" stroke="#30343D" stroke-width="2"/>
<g style="mix-blend-mode:hard-light">
<path fill-rule="evenodd" clip-rule="evenodd" d="M43.5642 33.9146C42.9624 34.3005 42.2537 34.3483 41.715 34.0401C41.0307 33.6483 40.6544 32.7306 40.6544 31.4544V27.636C40.6544 25.7921 39.9356 24.48 38.7336 24.1257C36.6967 23.5239 35.1648 26.0516 34.5891 27.0009L30.9967 32.9082V25.6879C30.9562 24.0267 30.4243 23.033 29.4142 22.7334C28.7459 22.5354 27.746 22.6148 26.7746 24.1223L18.7262 37.2294C17.6487 35.1548 17.087 32.8448 17.0899 30.5C17.0899 22.6045 23.3287 16.1816 30.9967 16.1816C38.6646 16.1816 44.9025 22.6045 44.9025 30.5C44.9025 30.5137 44.9059 30.5256 44.9067 30.5384C44.9067 30.5521 44.9042 30.564 44.9051 30.5777C44.9775 32.1066 44.4893 33.323 43.5642 33.9155V33.9146ZM47.9925 30.5009V30.5V30.4607L47.9916 30.4215C47.9487 20.8059 40.3422 13 30.9958 13C21.625 13 14 20.8502 14 30.5C14 40.1489 21.6251 48 30.9967 48C35.2969 48 39.4011 46.3422 42.5516 43.333C43.1779 42.7355 43.2149 41.729 42.6341 41.0854C42.4974 40.9325 42.332 40.8088 42.1476 40.7216C41.9632 40.6344 41.7635 40.5853 41.5601 40.5774C41.3568 40.5694 41.1539 40.6027 40.9634 40.6753C40.7729 40.7479 40.5986 40.8582 40.4507 41C37.8971 43.4525 34.5136 44.8191 30.9967 44.8184C26.8908 44.8184 23.1965 42.9754 20.6487 40.0524L27.9067 28.2327V33.6816C27.9067 36.2989 28.9075 37.1449 29.7467 37.3924C30.5867 37.64 31.8703 37.471 33.2179 35.2515L37.2102 28.6877C37.3381 28.476 37.4559 28.2933 37.5637 28.1354V31.4544C37.5637 33.901 38.53 35.8576 40.2142 36.8213C41.7327 37.6904 43.6417 37.6118 45.1971 36.6165C47.0826 35.4085 48.0985 33.183 47.9925 30.5009Z" fill="white"/>
</g>
</svg>
