<svg width="160" height="160" viewBox="0 0 160 160" fill="none" xmlns="http://www.w3.org/2000/svg">
<g clip-path="url(#clip0)">
<rect width="160" height="160" rx="20" fill="#2DBB77"/>
<path fill-rule="evenodd" clip-rule="evenodd" d="M99.5164 10.3302C98.1357 12.7216 95.0777 13.541 92.6862 12.1602L85.7582 8.16029C84.4217 7.38868 82.6039 7.62354 81.41 9.69132L77.1602 17.0523C75.7794 19.4438 72.7214 20.2634 70.3299 18.8827C67.9384 17.5019 67.1191 14.4439 68.4998 12.0525L72.7498 4.69132C76.3893 -1.61251 84.1095 -4.33842 90.758 -0.500058L97.6864 3.50002C100.078 4.88077 100.897 7.93873 99.5164 10.3302ZM11.4999 17.0525C12.8806 14.661 15.9386 13.8417 18.33 15.2224L25.2581 19.2223C26.5946 19.994 28.4124 19.7591 29.6062 17.6913L33.8561 10.3303C35.2368 7.93886 38.2949 7.11928 40.6864 8.49999C43.0778 9.8807 43.8972 12.9387 42.5164 15.3302L38.2665 22.6913C34.627 28.9952 26.9068 31.7211 20.2582 27.8827L13.3299 23.8826C10.9385 22.5019 10.1191 19.4439 11.4999 17.0525ZM80.5533 48.9147C81.9636 46.5405 85.0315 45.7591 87.4057 47.1694L94.2836 51.2549C95.6105 52.043 97.431 51.8307 98.6504 49.7779L102.991 42.4701C104.401 40.096 107.469 39.3143 109.844 40.7246C112.218 42.1348 112.999 45.2028 111.589 47.5769L107.248 54.8848C103.531 61.1431 95.7773 63.7731 89.1768 59.8526L82.2986 55.767C79.9244 54.3567 79.1431 51.2888 80.5533 48.9147ZM123.406 61.1694C121.032 59.7591 117.964 60.5405 116.553 62.9147C115.143 65.2888 115.924 68.3567 118.299 69.767L125.177 73.8526C131.777 77.7731 139.531 75.1431 143.248 68.8848L147.589 61.5769C148.999 59.2028 148.218 56.1348 145.844 54.7246C143.469 53.3143 140.401 54.096 138.991 56.4701L134.65 63.7779C133.431 65.8307 131.61 66.043 130.284 65.2549L123.406 61.1694ZM98.5533 98.9147C99.9636 96.5405 103.032 95.7591 105.406 97.1694L112.284 101.255C113.61 102.043 115.431 101.831 116.65 99.7779L120.991 92.4701C122.401 90.096 125.469 89.3143 127.844 90.7246C130.218 92.1348 130.999 95.2028 129.589 97.5769L125.248 104.885C121.531 111.143 113.777 113.773 107.177 109.853L100.299 105.767C97.9244 104.357 97.1431 101.289 98.5533 98.9147ZM13.3427 127.115C10.9685 125.705 7.90064 126.486 6.49036 128.86C5.08008 131.234 5.86145 134.302 8.2356 135.712L15.1138 139.798C21.7143 143.719 29.4677 141.089 33.185 134.83L37.5259 127.522C38.9362 125.148 38.1548 122.08 35.7806 120.67C33.4064 119.26 30.3384 120.041 28.9282 122.416L24.5874 129.723C23.368 131.776 21.5475 131.989 20.2206 131.2L13.3427 127.115ZM32.5164 110.33C31.1357 112.722 28.0777 113.541 25.6863 112.16L18.7582 108.16C17.4217 107.389 15.6039 107.624 14.41 109.691L10.1602 117.052C8.77945 119.444 5.72138 120.263 3.32991 118.883C0.938451 117.502 0.119105 114.444 1.49982 112.052L5.74978 104.691C9.3893 98.3875 17.1095 95.6616 23.758 99.4999L30.6864 103.5C33.0778 104.881 33.8971 107.939 32.5164 110.33ZM128.33 144.222C125.939 142.842 122.881 143.661 121.5 146.052C120.119 148.444 120.938 151.502 123.33 152.883L130.258 156.883C136.907 160.721 144.627 157.995 148.266 151.691L152.516 144.33C153.897 141.939 153.078 138.881 150.686 137.5C148.295 136.119 145.237 136.939 143.856 139.33L139.606 146.691C138.412 148.759 136.595 148.994 135.258 148.222L128.33 144.222ZM77.4999 147.052C78.8806 144.661 81.9386 143.842 84.33 145.222L91.2581 149.222C92.5946 149.994 94.4124 149.759 95.6062 147.691L99.8561 140.33C101.237 137.939 104.295 137.119 106.686 138.5C109.078 139.881 109.897 142.939 108.516 145.33L104.266 152.691C100.627 158.995 92.9068 161.721 86.2582 157.883L79.3299 153.883C76.9385 152.502 76.1191 149.444 77.4999 147.052ZM154.686 123.16C157.078 124.541 160.136 123.722 161.516 121.33C162.897 118.939 162.078 115.881 159.686 114.5L152.758 110.5C146.109 106.662 138.389 109.387 134.75 115.691L130.5 123.052C129.119 125.444 129.938 128.502 132.33 129.883C134.721 131.263 137.779 130.444 139.16 128.052L143.41 120.691C144.604 118.624 146.422 118.389 147.758 119.16L154.686 123.16ZM174.516 90.3302C173.136 92.7216 170.078 93.541 167.686 92.1602L160.758 88.1603C159.422 87.3887 157.604 87.6235 156.41 89.6913L152.16 97.0523C150.779 99.4438 147.721 100.263 145.33 98.8827C142.938 97.5019 142.119 94.4439 143.5 92.0525L147.75 84.6913C151.389 78.3875 159.109 75.6616 165.758 79.4999L172.686 83.5C175.078 84.8808 175.897 87.9387 174.516 90.3302ZM13.3301 72.2224C10.9387 70.8417 7.88073 71.661 6.49999 74.0525C5.11925 76.4439 5.93858 79.5019 8.33003 80.8826L15.2584 84.8827C21.9069 88.7211 29.6271 85.9952 33.2666 79.6913L37.5166 72.3302C38.8973 69.9387 38.0779 66.8807 35.6865 65.5C33.295 64.1193 30.2369 64.9389 28.8562 67.3303L24.6064 74.6913C23.4125 76.7591 21.5947 76.994 20.2582 76.2224L13.3301 72.2224ZM93.6862 134.16C96.0777 135.541 99.1357 134.722 100.516 132.33C101.897 129.939 101.078 126.881 98.6864 125.5L91.758 121.5C85.1095 117.662 77.3893 120.387 73.7498 126.691L69.4998 134.052C68.1191 136.444 68.9384 139.502 71.3299 140.883C73.7214 142.263 76.7794 141.444 78.1602 139.052L82.41 131.691C83.6039 129.624 85.4217 129.389 86.7582 130.16L93.6862 134.16ZM56.3302 90.5C58.7216 91.8808 59.541 94.9387 58.1602 97.3302L54.1603 104.258C53.3887 105.595 53.6236 107.413 55.6913 108.606L63.0523 112.856C65.4438 114.237 66.2634 117.295 64.8827 119.687C63.502 122.078 60.4439 122.897 58.0525 121.517L50.6913 117.267C44.3875 113.627 41.6616 105.907 45.5 99.2584L49.5 92.3301C50.8808 89.9386 53.9387 89.1193 56.3302 90.5ZM50.1602 144.33C51.541 141.939 50.7216 138.881 48.3302 137.5C45.9387 136.119 42.8808 136.939 41.5 139.33L37.5 146.258C33.6616 152.907 36.3875 160.627 42.6913 164.267L50.0525 168.517C52.4439 169.897 55.5019 169.078 56.8827 166.687C58.2634 164.295 57.4438 161.237 55.0523 159.856L47.6913 155.606C45.6236 154.413 45.3887 152.595 46.1603 151.258L50.1602 144.33ZM118.33 5.50002C120.721 6.88077 121.541 9.93873 120.16 12.3302L116.16 19.2582C115.389 20.5948 115.623 22.4126 117.691 23.6064L125.052 27.8563C127.444 29.237 128.263 32.295 126.882 34.6865C125.502 37.078 122.444 37.8973 120.052 36.5166L112.691 32.2666C106.387 28.6271 103.661 20.9069 107.5 14.2584L111.5 7.33006C112.881 4.93862 115.939 4.11928 118.33 5.50002ZM156.686 43.1602C159.078 44.541 162.136 43.7216 163.516 41.3302C164.897 38.9387 164.078 35.8808 161.686 34.5L154.758 30.4999C148.109 26.6616 140.389 29.3875 136.75 35.6913L132.5 43.0525C131.119 45.4439 131.938 48.5019 134.33 49.8827C136.721 51.2634 139.779 50.4438 141.16 48.0523L145.41 40.6913C146.604 38.6235 148.422 38.3887 149.758 39.1603L156.686 43.1602ZM73.5164 33.3302C72.1357 35.7216 69.0777 36.541 66.6862 35.1602L59.7582 31.1603C58.4217 30.3887 56.6039 30.6235 55.41 32.6913L51.1602 40.0523C49.7794 42.4438 46.7214 43.2634 44.3299 41.8827C41.9384 40.5019 41.1191 37.4439 42.4998 35.0525L46.7498 27.6913C50.3893 21.3875 58.1095 18.6616 64.758 22.4999L71.6864 26.5C74.0778 27.8808 74.8971 30.9387 73.5164 33.3302ZM20.6863 51.1602C23.0777 52.541 26.1357 51.7216 27.5164 49.3302C28.8971 46.9387 28.0778 43.8808 25.6864 42.5L18.758 38.4999C12.1095 34.6616 4.3893 37.3875 0.749782 43.6913L-3.50018 51.0525C-4.88089 53.4439 -4.06155 56.5019 -1.67009 57.8827C0.721377 59.2634 3.77945 58.4438 5.16016 56.0523L9.41004 48.6913C10.6039 46.6235 12.4217 46.3887 13.7582 47.1603L20.6863 51.1602Z" fill="#1EA665"/>
<circle cx="80" cy="74" r="32" fill="#2DBB77" stroke="white" stroke-width="6"/>
<path fill-rule="evenodd" clip-rule="evenodd" d="M103 74C103 86.7026 92.7026 97 80 97C67.2974 97 57 86.7026 57 74C57 61.2974 67.2974 51 80 51C92.7026 51 103 61.2974 103 74ZM96 68C96 72.4183 92.4183 76 88 76C83.5817 76 80 72.4183 80 68C80 63.5817 83.5817 60 88 60C92.4183 60 96 63.5817 96 68ZM69.5 87C71.433 87 73 85.433 73 83.5C73 81.567 71.433 80 69.5 80C67.567 80 66 81.567 66 83.5C66 85.433 67.567 87 69.5 87Z" fill="white"/>
<rect x="58" y="117" width="43" height="10" rx="5" fill="white"/>
</g>
<defs>
<clipPath id="clip0">
<rect width="160" height="160" fill="white"/>
</clipPath>
</defs>
</svg>
