<svg width="62" height="62" viewBox="0 0 62 62" fill="none" xmlns="http://www.w3.org/2000/svg">
<rect x="1" y="1" width="59.8491" height="59.8491" rx="29.9245" stroke="#30343D" stroke-width="2"/>
<path d="M46.0174 36.6569V24.1714L39.5032 30.6876L46.0174 36.655V36.6569ZM35.0228 35.166C34.4969 35.6949 33.8714 36.1142 33.1824 36.3998C32.4933 36.6853 31.7546 36.8314 31.0087 36.8296C29.4929 36.8296 28.0653 36.2386 26.9927 35.166L23.4986 31.67L16 38.5431V39.6943C16 41.2006 17.2242 42.4248 18.7285 42.4248H43.2889C44.7932 42.4248 46.0174 41.2006 46.0174 39.6963V38.5066L38.5361 31.6527L35.0247 35.1641" fill="white"/>
<path d="M43.3446 19H18.7842C17.2817 19 16.0595 20.2242 16.0595 21.7285V22.2984L28.0154 34.2582C28.8309 35.0717 29.915 35.5207 31.0663 35.5207C32.2195 35.5207 33.3036 35.0717 34.1171 34.2582L46.075 22.2984V21.7285C46.075 20.2242 44.847 19 43.3446 19ZM16 24.1711V36.6912L22.5315 30.7046L16 24.1711Z" fill="white"/>
</svg>
