<svg width="172" height="36" viewBox="0 0 172 36" fill="none" xmlns="http://www.w3.org/2000/svg">
<path fill-rule="evenodd" clip-rule="evenodd" d="M73.4065 7.0926C69.3039 7.76257 67.0778 10.137 66.2231 14.7545C65.9429 16.2682 65.9223 19.9302 66.1859 21.363C66.6332 23.7952 67.4832 25.524 68.8441 26.77C69.927 27.7612 71.1859 28.3607 72.9921 28.7449C74.3163 29.0267 77.1848 29.0532 78.4801 28.7957C79.8091 28.5315 81.653 27.8373 82.1309 27.4212C82.2874 27.285 82.2991 26.9014 82.2991 21.9377C82.2991 17.9133 82.2707 16.5725 82.1837 16.4865C82.0982 16.4019 81.1449 16.3724 78.4893 16.3724C75.3639 16.3724 74.8912 16.3914 74.7592 16.5218C74.633 16.6467 74.6082 16.9554 74.6082 18.4039C74.6082 19.625 74.6422 20.1704 74.7236 20.2508C74.8029 20.3293 75.2833 20.3649 76.2617 20.3649H77.6845V22.4544V24.5439L77.4202 24.617C77.2748 24.6572 76.4636 24.6888 75.6176 24.6874C73.7538 24.6842 73.2975 24.5484 72.4063 23.7327C71.3605 22.7753 70.8164 21.3202 70.6765 19.1066C70.437 15.3173 71.3106 12.8435 73.2475 11.826C74.6121 11.1091 77.2329 11.0334 79.6354 11.6414C80.2927 11.8077 80.4971 11.8289 80.5547 11.7369C80.5954 11.6718 80.8152 10.8407 81.0432 9.88989L81.4577 8.16125L81.2446 7.99052C80.9527 7.75677 79.6792 7.37074 78.6144 7.19317C77.3953 6.98993 74.3903 6.93185 73.4065 7.0926ZM102.8 7.78501C102.628 7.85364 102.623 28.351 102.795 28.521C102.97 28.6939 106.944 28.6816 107.089 28.5077C107.164 28.4192 107.204 27.0455 107.221 24.0161L107.246 19.652L110.299 19.6269L113.351 19.6018V24.0043C113.351 27.3018 113.38 28.4355 113.466 28.521C113.549 28.6025 114.164 28.635 115.623 28.635C117.35 28.635 117.687 28.612 117.815 28.4857C117.95 28.3518 117.966 27.2861 117.966 18.1786C117.966 9.07096 117.95 8.00535 117.815 7.87141C117.687 7.74537 117.356 7.72208 115.693 7.72208C114.519 7.72208 113.648 7.76181 113.537 7.82046C113.358 7.91524 113.351 8.05925 113.351 11.7179V15.5169H110.275H107.198V11.7336C107.198 8.91773 107.169 7.92104 107.083 7.83615C107 7.75411 106.399 7.72417 104.944 7.72959C103.831 7.73367 102.866 7.75868 102.8 7.78501ZM135.325 7.87141C135.19 8.00535 135.174 9.07096 135.174 18.1786C135.174 27.2861 135.19 28.3518 135.325 28.4857C135.449 28.608 135.734 28.635 136.905 28.635C138.469 28.635 138.634 28.5825 138.636 28.0817C138.639 27.5966 138.759 27.5506 139.221 27.8578C140.339 28.6009 141.674 28.9524 143.394 28.9566C144.704 28.9598 145.353 28.8359 146.179 28.4248C147.968 27.5342 148.84 25.4989 148.984 21.8813C149.165 17.3165 147.816 14.6817 144.999 14.101C143.646 13.8219 141.731 14.0326 140.426 14.6041C140.115 14.7402 139.845 14.8515 139.825 14.8515C139.805 14.8515 139.789 13.2987 139.789 11.4009C139.789 8.84377 139.759 7.92066 139.673 7.83615C139.591 7.75459 138.976 7.72208 137.517 7.72208C135.79 7.72208 135.453 7.74508 135.325 7.87141ZM86.117 8.33255C84.3645 8.79862 83.7378 11.0464 84.9804 12.4095C86.1674 13.7115 88.3073 13.4206 89.0836 11.8516C89.7701 10.4642 89.0456 8.77723 87.5782 8.34633C86.9798 8.17057 86.7348 8.16828 86.117 8.33255ZM93.0361 10.3503C92.9998 10.3861 92.9702 11.3263 92.9702 12.4397V14.4639L92.6097 14.5569C92.4115 14.608 91.968 14.7177 91.6243 14.8008C90.4646 15.0809 90.5579 14.9203 90.5883 16.5854L90.6149 18.036L91.7685 18.0835L92.9221 18.131L92.9718 21.8858C93.0242 25.8565 93.032 25.927 93.5203 26.8676C93.971 27.7359 95.0899 28.5066 96.3037 28.7849C97.5184 29.0635 100.164 28.908 100.624 28.5312C100.797 28.3888 100.82 25.4527 100.649 25.3478C100.589 25.3113 100.08 25.2767 99.5189 25.2709C98.351 25.2589 97.9746 25.1137 97.6362 24.5442C97.4505 24.2314 97.4406 24.0612 97.4406 21.1729V18.131L98.9787 18.1058C100.287 18.0844 100.535 18.0568 100.637 17.9213C100.722 17.8092 100.757 17.3072 100.757 16.2298C100.757 15.1524 100.722 14.6504 100.637 14.5384C100.535 14.4029 100.287 14.3752 98.9787 14.3539L97.4406 14.3287L97.3925 12.3324L97.3444 10.3362L95.2232 10.3106C94.0566 10.2967 93.0723 10.3144 93.0361 10.3503ZM84.6256 14.4903C84.538 14.5769 84.5102 16.2558 84.5102 21.4655C84.5102 27.7269 84.5241 28.338 84.6689 28.4571C84.7891 28.5558 85.3009 28.5945 86.7785 28.6167C88.6398 28.6444 88.7384 28.6368 88.927 28.4503C89.1229 28.2566 89.1248 28.1907 89.1248 21.4296C89.1248 16.2478 89.097 14.5769 89.0094 14.4903C88.846 14.3287 84.789 14.3287 84.6256 14.4903ZM120.009 14.4391C119.823 14.5132 119.84 24.8281 120.027 25.7007C120.474 27.7859 121.916 28.8245 124.589 28.9855C126.167 29.0806 127.901 28.7042 129.299 27.9632C129.583 27.8124 129.854 27.7118 129.899 27.7399C129.945 27.7678 129.983 27.9134 129.983 28.0635C129.983 28.5769 130.147 28.635 131.605 28.635C132.503 28.635 132.961 28.5986 133.04 28.521C133.127 28.4344 133.155 26.734 133.155 21.4492C133.155 15.1925 133.14 14.4858 133.003 14.4339C132.7 14.319 128.874 14.3697 128.752 14.4903C128.665 14.5761 128.637 15.846 128.637 19.6215V24.6387L128.273 24.822C127.225 25.3511 125.67 25.469 125.109 25.062C124.494 24.6161 124.503 24.7023 124.503 19.4448C124.503 15.2354 124.485 14.6574 124.352 14.5255C124.224 14.3986 123.894 14.3773 122.165 14.3837C121.045 14.3878 120.075 14.4128 120.009 14.4391ZM143.238 17.8984C144.141 18.4004 144.447 19.3026 144.446 21.4581C144.444 24.4793 143.962 25.3007 142.19 25.3059C141.423 25.3081 140.354 25.0667 139.938 24.797L139.692 24.6382V21.4525V18.2669L140.149 18.0728C141.339 17.5676 142.522 17.5007 143.238 17.8984Z" fill="white"/>
<path fill-rule="evenodd" clip-rule="evenodd" d="M37.7433 2.05749C31.9957 2.70811 27.0698 6.19698 24.6031 11.3643C20.7726 19.3884 24.0315 28.949 31.9825 33.0136C32.4528 33.254 33.1898 33.5823 33.6201 33.7431C34.5353 34.0852 34.9178 34.0855 35.2099 33.7445C35.3813 33.5445 35.3865 33.4881 35.3865 31.8407V30.143L35.1709 30.1953C35.0523 30.224 34.4964 30.2672 33.9356 30.2912C32.7425 30.3422 32.1124 30.2284 31.3599 29.8256C30.621 29.4303 30.2089 28.959 29.7112 27.94C29.2285 26.9517 28.8224 26.4126 28.2211 25.9618C27.3485 25.3075 27.1936 25.0357 27.6027 24.877C28.4452 24.55 29.8901 25.3257 30.6448 26.5101C31.4694 27.8044 32.4396 28.3366 33.8137 28.2488C34.6558 28.1949 35.465 27.9312 35.465 27.7107C35.465 27.4048 35.8002 26.5678 36.099 26.1274C36.4517 25.6077 36.5503 25.6902 35.3258 25.4796C31.4281 24.8091 29.4252 22.6604 29.0269 18.7221C28.8196 16.672 29.2168 15.0382 30.2661 13.6238L30.6442 13.1142L30.511 12.6024C30.2513 11.6039 30.3793 9.80986 30.7721 8.94436C30.87 8.72861 30.8822 8.72507 31.3843 8.76798C32.3234 8.84814 33.729 9.40995 34.9459 10.1915L35.3559 10.4548L36.2143 10.273C38.3823 9.81388 40.6256 9.81388 42.7936 10.273L43.652 10.4548L44.062 10.1915C45.2842 9.40664 46.6846 8.84814 47.6339 8.76712L48.1565 8.72255L48.3708 9.38294C48.6616 10.2793 48.7234 11.7332 48.5061 12.5702L48.3612 13.1284L48.7401 13.6299C50.0316 15.3397 50.37 17.7122 49.7003 20.3627C48.952 23.3244 46.8122 25.0505 43.2881 25.5349C42.9107 25.5868 42.6018 25.6541 42.6018 25.6845C42.6018 25.715 42.6853 25.8401 42.7874 25.9624C43.0976 26.3345 43.367 26.9498 43.4975 27.584C43.5962 28.0638 43.6214 28.73 43.6214 30.8623C43.6214 33.5246 43.6223 33.5394 43.798 33.7445C44.0904 34.0859 44.4728 34.0853 45.3878 33.742C54.3491 30.3802 58.5296 20.0051 54.4048 11.3643C52.0825 6.49926 47.6221 3.13795 42.2489 2.2037C41.1592 2.01418 38.8015 1.93764 37.7433 2.05749ZM28.851 25.332C28.7034 25.4801 29.002 25.7116 29.19 25.5949C29.2796 25.5393 29.2806 25.5062 29.1957 25.4036C29.0884 25.2737 28.9398 25.2428 28.851 25.332ZM29.5433 25.9101C29.4459 26.0685 29.5898 26.3031 29.7843 26.3031C30.0111 26.3031 30.033 26.144 29.8316 25.961C29.6654 25.81 29.6109 25.8004 29.5433 25.9101ZM30.1562 26.8256C30.0909 26.9964 30.2268 27.2028 30.4241 27.2325C30.6322 27.2638 30.699 27.0726 30.5529 26.8633C30.4143 26.6648 30.2246 26.6467 30.1562 26.8256ZM30.9162 27.8228C30.9162 28.0508 31.0544 28.1929 31.2764 28.1929C31.4994 28.1929 31.5624 28.0187 31.4156 27.8082C31.2518 27.5733 30.9162 27.5832 30.9162 27.8228ZM32.0422 28.4695C31.9695 28.6597 32.1705 28.8335 32.4328 28.8071C32.7122 28.7791 32.7758 28.6538 32.6003 28.4776C32.4404 28.3171 32.1023 28.3122 32.0422 28.4695ZM34.6999 28.52C34.5473 28.6733 34.5846 28.8153 34.791 28.8674C35.0328 28.9282 35.3251 28.773 35.2926 28.601C35.2618 28.4379 34.8392 28.3802 34.6999 28.52ZM33.3753 28.706C33.3476 28.7785 33.3816 28.8909 33.4532 28.9626C33.6237 29.134 34.0141 29.0079 34.0141 28.7815C34.0141 28.5719 33.452 28.5055 33.3753 28.706Z" fill="white"/>
</svg>
