<svg width="48" height="54" viewBox="0 0 48 54" fill="none" xmlns="http://www.w3.org/2000/svg">
<path fill-rule="evenodd" clip-rule="evenodd" d="M14.8804 4.23336C17.1414 2.04377 19.7667 0.805322 23.029 0.389309C23.8364 0.286389 26.0912 0.417669 27.1074 0.626913C32.449 1.72645 36.7443 6.08407 37.7538 11.4276C38.8484 17.2213 36.207 22.9712 31.091 25.9317C25.3 29.2829 17.7637 27.7808 13.6373 22.453C9.3476 16.9143 9.88256 9.0732 14.8804 4.23336Z" fill="#F9A17E"/>
<path d="M13.375 28.8937C8.82918 29.6952 4.65923 32.529 2.05864 36.5841C1.50919 37.4408 0.845543 38.8925 0.845543 39.2375C0.845543 39.9156 2.79881 42.6741 4.64547 44.6042C9.15731 49.32 14.7195 52.1305 21.1289 52.9333C22.4634 53.1005 26.1839 53.0987 27.4964 52.9301C32.6904 52.2633 37.3117 50.3153 41.3096 47.1073C42.5478 46.1137 44.9898 43.5815 45.9478 42.2976C47.0299 40.8475 47.8824 39.4565 47.8824 39.1409C47.8824 38.8346 47.3022 37.5655 46.8031 36.7803C45.0497 34.0217 42.6059 31.7789 39.8618 30.4102C37.8595 29.4114 35.3642 28.7176 34.1038 28.8091C33.6636 28.8411 33.3823 28.9377 32.972 29.1977C31.4869 30.1388 31.0212 30.4011 30.194 30.7623C28.1561 31.652 26.0733 32.0437 23.8505 31.955C21.0121 31.8418 18.6357 31.077 16.2646 29.5136C15.7487 29.1734 15.1995 28.8667 15.0441 28.8319C14.8886 28.7973 14.6922 28.7541 14.6074 28.7362C14.5227 28.7182 13.9681 28.7891 13.375 28.8937Z" fill="#FFE9E0"/>
</svg>
