<svg width="72" height="72" viewBox="0 0 72 72" fill="none" xmlns="http://www.w3.org/2000/svg">
<path d="M36.7317 68C29.9164 68 24.3554 62.6667 24.0209 55.9583H13.5679C9.38676 55.9583 6 52.5833 6 48.4167C6 44.9167 8.38327 41.9583 11.6446 41.125V26.9583C11.6028 14.8333 22.5157 5 35.9791 5C49.4007 5 60.3554 14.8333 60.3554 26.9583V41.0833C63.5749 41.9583 66 44.875 66 48.375C66 52.5417 62.6132 55.9167 58.4321 55.9167H49.5261C49.108 62.625 43.547 68 36.7317 68ZM29.4564 55.9167C29.7909 59.625 32.9268 62.5417 36.7317 62.5417C40.5366 62.5417 43.6725 59.625 44.007 55.9167H29.4564ZM13.5679 46.25C12.3972 46.25 11.4355 47.2083 11.4355 48.375C11.4355 49.5417 12.3972 50.5 13.5679 50.5H58.3484C59.5192 50.5 60.4808 49.5417 60.4808 48.375C60.4808 47.2083 59.5192 46.25 58.3484 46.25H57.5958C56.0906 46.25 54.8781 45.0417 54.8781 43.5417V26.9583C54.8781 17.8333 46.3902 10.4167 35.9791 10.4167C25.5679 10.4167 17.0383 17.8333 17.0383 26.9583V43.5417C17.0383 45.0417 15.8258 46.25 14.3206 46.25H13.5679Z" fill="url(#paint0_linear)"/>
<defs>
<linearGradient id="paint0_linear" x1="6" y1="5" x2="47.4094" y2="78.4771" gradientUnits="userSpaceOnUse">
<stop stop-color="white"/>
<stop offset="0.369792" stop-color="#CDE4FF"/>
<stop offset="0.760417" stop-color="#FFDDCF"/>
<stop offset="1" stop-color="white"/>
</linearGradient>
</defs>
</svg>
