<svg width="72" height="72" viewBox="0 0 72 72" fill="none" xmlns="http://www.w3.org/2000/svg">
<path fill-rule="evenodd" clip-rule="evenodd" d="M42.1762 11.4189C42.1762 7.78153 39.3947 5 35.7573 5C32.1199 5 29.3384 7.78153 29.3384 11.4189C29.3384 15.0563 32.1199 17.8378 35.7573 17.8378C39.3947 17.8378 42.1762 15.0563 42.1762 11.4189ZM29.3384 60.6305C29.3384 64.2679 32.1199 67.0494 35.7573 67.0494C39.3947 67.0494 42.1762 64.2679 42.1762 60.6305C42.1762 56.9932 39.3947 54.2116 35.7573 54.2116C32.1199 54.2116 29.3384 56.9932 29.3384 60.6305ZM65.2842 43.0855L60.3631 40.09L53.3023 36.2387L60.1491 32.1734L65.0703 29.1779C66.996 28.1081 66.996 25.1126 65.0703 24.0428L60.1491 21.0473L48.1672 13.7725C47.7392 15.9121 46.6694 17.8378 45.3856 19.5495L55.014 25.3265C55.8698 25.7545 55.8698 27.0383 55.014 27.4662L47.0973 32.1734L38.9667 27.2522L36.8271 25.9684C36.1852 25.5405 35.3293 25.5405 34.6875 25.9684L32.5478 27.2522L24.4172 32.1734L16.5005 27.4662C15.6447 27.0383 15.6447 25.7545 16.5005 25.3265L25.9149 19.3356C24.4172 17.8378 23.5613 15.6982 23.1334 13.5585L11.3654 20.6193L6.44425 23.6148C4.51858 24.6847 4.51858 27.6801 6.44425 28.75L11.3654 31.7455L18.2123 35.8108L11.3654 39.8761L6.44425 42.8716C4.51858 43.9414 4.51858 46.9369 6.44425 48.0067L11.3654 51.0022L23.1334 58.063C23.5613 55.9233 24.6312 53.9977 25.9149 52.286L16.5005 46.7229C15.6447 46.295 15.6447 45.0112 16.5005 44.5833L24.6312 40.09L32.7618 45.0112L34.9014 46.295C35.5433 46.7229 36.3992 46.7229 37.041 46.295L39.1807 45.0112L47.3113 40.09L55.228 44.7972C56.0838 45.2252 56.0838 46.5089 55.228 46.9369L45.5996 52.7139C47.0973 54.2116 47.9532 56.3513 48.3811 58.4909L60.3631 51.2161L65.2842 48.2207C67.2099 47.1508 67.2099 44.1553 65.2842 43.0855ZM30.6215 36.0247L34.6868 33.6711C35.5426 33.2432 36.1845 33.2432 36.8264 33.6711L40.8917 36.0247L36.8264 38.3783C36.1845 38.8062 35.3287 38.8062 34.6868 38.3783L30.6215 36.0247Z" fill="url(#paint0_linear)"/>
<defs>
<linearGradient id="paint0_linear" x1="5" y1="5" x2="44.8466" y2="78.8552" gradientUnits="userSpaceOnUse">
<stop stop-color="white"/>
<stop offset="0.369792" stop-color="#CDE4FF"/>
<stop offset="0.760417" stop-color="#FFDDCF"/>
<stop offset="1" stop-color="white"/>
</linearGradient>
</defs>
</svg>
