<svg width="69" height="69" viewBox="0 0 69 69" fill="none" xmlns="http://www.w3.org/2000/svg">
<circle cx="34.5" cy="34.5" r="34.5" fill="#F9A17E"/>
<path d="M32.6366 26.5136C32.4352 25.7912 31.9995 25.154 31.3965 24.7C30.7935 24.2459 30.0565 24 29.2985 24C28.5405 24 27.8034 24.2459 27.2004 24.7C26.5974 25.154 26.1618 25.7912 25.9603 26.5136H22V28.3345H25.9603C26.1618 29.057 26.5974 29.6941 27.2004 30.1482C27.8034 30.6022 28.5405 30.8481 29.2985 30.8481C30.0565 30.8481 30.7935 30.6022 31.3965 30.1482C31.9995 29.6941 32.4352 29.057 32.6366 28.3345H47V26.5136H32.6366ZM29.2985 29.0265C28.9779 29.0265 28.6645 28.9325 28.398 28.7564C28.1314 28.5804 27.9237 28.3301 27.801 28.0373C27.6784 27.7445 27.6463 27.4223 27.7088 27.1115C27.7713 26.8006 27.9257 26.5151 28.1524 26.291C28.3791 26.0669 28.6679 25.9143 28.9823 25.8525C29.2967 25.7906 29.6226 25.8224 29.9187 25.9437C30.2149 26.0649 30.468 26.2703 30.6461 26.5338C30.8242 26.7974 30.9193 27.1072 30.9193 27.4241C30.9193 27.8491 30.7485 28.2567 30.4446 28.5572C30.1406 28.8577 29.7283 29.0265 29.2985 29.0265ZM39.7015 31.5758C38.9439 31.5768 38.2074 31.8229 37.6046 32.2767C37.0018 32.7305 36.5659 33.3669 36.3634 34.0886H22V35.9095H36.3634C36.5648 36.632 37.0005 37.2691 37.6035 37.7232C38.2065 38.1772 38.9435 38.4231 39.7015 38.4231C40.4595 38.4231 41.1966 38.1772 41.7996 37.7232C42.4026 37.2691 42.8382 36.632 43.0397 35.9095H47V34.0886H43.0397C42.8372 33.3669 42.4012 32.7305 41.7984 32.2767C41.1956 31.8229 40.4592 31.5768 39.7015 31.5758ZM39.7015 36.6015C39.381 36.6015 39.0676 36.5075 38.8011 36.3315C38.5345 36.1554 38.3268 35.9051 38.2041 35.6123C38.0814 35.3195 38.0493 34.9973 38.1119 34.6865C38.1744 34.3756 38.3288 34.0901 38.5554 33.866C38.7821 33.6419 39.0709 33.4893 39.3853 33.4275C39.6997 33.3657 40.0256 33.3974 40.3218 33.5187C40.618 33.6399 40.8711 33.8453 41.0492 34.1088C41.2273 34.3724 41.3223 34.6822 41.3223 34.9991C41.3223 35.4241 41.1516 35.8317 40.8476 36.1322C40.5437 36.4327 40.1314 36.6015 39.7015 36.6015ZM29.2985 39.1526C28.5408 39.1536 27.8044 39.3998 27.2016 39.8535C26.5988 40.3073 26.1628 40.9437 25.9603 41.6655H22V43.4864H25.9603C26.1618 44.2088 26.5974 44.846 27.2004 45.3C27.8034 45.7541 28.5405 46 29.2985 46C30.0565 46 30.7935 45.7541 31.3965 45.3C31.9995 44.846 32.4352 44.2088 32.6366 43.4864H47V41.6655H32.6366C32.4341 40.9437 31.9982 40.3073 31.3954 39.8535C30.7926 39.3998 30.0561 39.1536 29.2985 39.1526ZM29.2985 44.1783C28.9779 44.1783 28.6645 44.0844 28.398 43.9083C28.1314 43.7322 27.9237 43.4819 27.801 43.1891C27.6784 42.8963 27.6463 42.5742 27.7088 42.2633C27.7713 41.9525 27.9257 41.667 28.1524 41.4429C28.3791 41.2188 28.6679 41.0661 28.9823 41.0043C29.2967 40.9425 29.6226 40.9742 29.9187 41.0955C30.2149 41.2168 30.468 41.4222 30.6461 41.6857C30.8242 41.9492 30.9193 42.259 30.9193 42.5759C30.9193 43.0009 30.7485 43.4085 30.4446 43.709C30.1406 44.0095 29.7283 44.1783 29.2985 44.1783Z" fill="#0E1014"/>
</svg>
