<svg width="69" height="69" viewBox="0 0 69 69" fill="none" xmlns="http://www.w3.org/2000/svg">
<circle cx="34.5" cy="34.5" r="34.5" fill="#F9A17E"/>
<path fill-rule="evenodd" clip-rule="evenodd" d="M40.1201 40.7918H29.8535C29.8529 40.7918 29.8524 40.7918 29.8519 40.7918C29.8518 40.7918 29.8518 40.7918 29.8517 40.7918C29.8298 40.7918 29.8079 40.7907 29.7863 40.7885C29.6344 40.7735 29.4915 40.7064 29.3826 40.5974C29.2582 40.473 29.1883 40.3043 29.1883 40.1283C29.1883 40.1235 29.1883 40.1187 29.1884 40.1139V29.8939C29.1884 29.7179 29.2583 29.5492 29.3828 29.4248C29.4477 29.3598 29.5248 29.3097 29.6086 29.2767C29.6927 29.2393 29.7845 29.2194 29.8783 29.2194H40.1127C40.1143 29.2194 40.1158 29.2194 40.1174 29.2194C40.1188 29.2194 40.1203 29.2194 40.1217 29.2194C40.2977 29.2194 40.4664 29.2893 40.5908 29.4137C40.7152 29.5381 40.7851 29.7069 40.7851 29.8828V40.1283C40.7851 40.2155 40.768 40.3017 40.7346 40.3822C40.7013 40.4627 40.6524 40.5358 40.5908 40.5975C40.5292 40.6591 40.4561 40.7079 40.3756 40.7413C40.3138 40.7669 40.2486 40.7829 40.1823 40.789C40.1622 40.7908 40.142 40.7918 40.1217 40.7918C40.1212 40.7918 40.1206 40.7918 40.1201 40.7918ZM30.5153 30.5463V39.4649H39.4583V30.5463H30.5153ZM29.8765 26.4374H26.4329V29.8006C26.4359 29.8263 26.4374 29.8523 26.4374 29.8784C26.4374 29.9046 26.4359 29.9305 26.4329 29.9562V34.9023C26.4359 34.928 26.4374 34.954 26.4374 34.9802C26.4374 35.0063 26.4359 35.0323 26.4329 35.058V40.0439C26.4359 40.0696 26.4374 40.0956 26.4374 40.1217C26.4374 40.1479 26.4359 40.1738 26.4329 40.1995V43.5737H29.7578C29.7973 43.5664 29.8377 43.5627 29.8784 43.5627C29.9192 43.5627 29.9595 43.5664 29.999 43.5737H34.8595C34.8991 43.5664 34.9394 43.5627 34.9802 43.5627C35.0209 43.5627 35.0613 43.5664 35.1008 43.5737H40.0011C40.0406 43.5664 40.081 43.5627 40.1217 43.5627C40.1625 43.5627 40.2028 43.5664 40.2423 43.5737H43.5559V26.4374H40.1237C40.123 26.4374 40.1224 26.4374 40.1217 26.4374C40.1211 26.4374 40.1204 26.4374 40.1198 26.4374H34.9821C34.9815 26.4374 34.9808 26.4374 34.9802 26.4374C34.9795 26.4374 34.9789 26.4374 34.9782 26.4374H29.8804C29.8797 26.4374 29.8791 26.4374 29.8784 26.4374C29.8778 26.4374 29.8771 26.4374 29.8765 26.4374ZM29.215 25.1106V20.6634C29.215 20.4875 29.2849 20.3187 29.4093 20.1943C29.5337 20.0699 29.7025 20 29.8784 20C30.0544 20 30.2231 20.0699 30.3475 20.1943C30.4719 20.3187 30.5418 20.4875 30.5418 20.6634V25.1106H34.3167V20.6634C34.3167 20.4875 34.3866 20.3187 34.511 20.1943C34.6355 20.0699 34.8042 20 34.9802 20C35.1561 20 35.3249 20.0699 35.4493 20.1943C35.5737 20.3187 35.6436 20.4875 35.6436 20.6634V25.1106H39.4583V20.6634C39.4583 20.4875 39.5282 20.3187 39.6526 20.1943C39.777 20.0699 39.9458 20 40.1217 20C40.2977 20 40.4664 20.0699 40.5908 20.1943C40.7152 20.3187 40.7851 20.4875 40.7851 20.6634V25.1106H44.2193C44.3953 25.1106 44.564 25.1805 44.6884 25.3049C44.8128 25.4293 44.8827 25.5981 44.8827 25.774L44.8827 25.7795L44.8827 25.7851V29.215H49.3367C49.5126 29.215 49.6814 29.2849 49.8058 29.4093C49.9302 29.5337 50.0001 29.7025 50.0001 29.8784C50.0001 30.0544 49.9302 30.2231 49.8058 30.3475C49.6814 30.4719 49.5126 30.5418 49.3367 30.5418H44.8827V34.3167H49.3367C49.5126 34.3167 49.6814 34.3866 49.8058 34.511C49.9302 34.6355 50.0001 34.8042 50.0001 34.9802C50.0001 35.1561 49.9302 35.3249 49.8058 35.4493C49.6814 35.5737 49.5126 35.6436 49.3367 35.6436H44.8827V39.4583H49.3367C49.5126 39.4583 49.6814 39.5282 49.8058 39.6526C49.9302 39.777 50.0001 39.9458 50.0001 40.1217C50.0001 40.2977 49.9302 40.4664 49.8058 40.5908C49.6814 40.7152 49.5126 40.7851 49.3367 40.7851H44.8827V44.2372C44.8827 44.4131 44.8128 44.5819 44.6884 44.7063C44.564 44.8307 44.3953 44.9006 44.2193 44.9006H40.7851V49.3367C40.7851 49.4238 40.768 49.5101 40.7346 49.5906C40.7013 49.6711 40.6524 49.7442 40.5908 49.8058C40.5292 49.8674 40.4561 49.9163 40.3756 49.9496C40.2951 49.983 40.2088 50.0001 40.1217 50.0001C39.9458 50.0001 39.777 49.9302 39.6526 49.8058C39.5282 49.6814 39.4583 49.5126 39.4583 49.3367V44.9006H35.6436V49.3367C35.6436 49.5126 35.5737 49.6814 35.4493 49.8058C35.3249 49.9302 35.1561 50.0001 34.9802 50.0001C34.8042 50.0001 34.6355 49.9302 34.511 49.8058C34.3866 49.6814 34.3167 49.5126 34.3167 49.3367V44.9006H30.5418V49.3367C30.5418 49.4238 30.5247 49.5101 30.4913 49.5906C30.458 49.6711 30.4091 49.7442 30.3475 49.8058C30.2859 49.8674 30.2128 49.9163 30.1323 49.9496C30.0518 49.983 29.9655 50.0001 29.8784 50.0001C29.7025 50.0001 29.5337 49.9302 29.4093 49.8058C29.2849 49.6814 29.215 49.5126 29.215 49.3367V44.9006H25.7694C25.5935 44.9006 25.4247 44.8307 25.3003 44.7063C25.1759 44.5819 25.106 44.4131 25.106 44.2372V40.7851H20.6634C20.4875 40.7851 20.3187 40.7152 20.1943 40.5908C20.0699 40.4664 20 40.2977 20 40.1217C20 39.9458 20.0699 39.777 20.1943 39.6526C20.3187 39.5282 20.4875 39.4583 20.6634 39.4583H25.106V35.6436H20.6634C20.4875 35.6436 20.3187 35.5737 20.1943 35.4493C20.0699 35.3249 20 35.1561 20 34.9802C20 34.8042 20.0699 34.6355 20.1943 34.511C20.3187 34.3866 20.4875 34.3167 20.6634 34.3167H25.106V30.5418H20.6634C20.4875 30.5418 20.3187 30.4719 20.1943 30.3475C20.0699 30.2231 20 30.0544 20 29.8784C20 29.7025 20.0699 29.5337 20.1943 29.4093C20.3187 29.2849 20.4875 29.215 20.6634 29.215H25.106V25.774C25.106 25.5981 25.1759 25.4293 25.3003 25.3049C25.4247 25.1805 25.5935 25.1106 25.7694 25.1106H29.215Z" fill="#0E1014"/>
</svg>
