<svg width="69" height="69" viewBox="0 0 69 69" fill="none" xmlns="http://www.w3.org/2000/svg">
<circle cx="34.5" cy="34.5" r="34.5" fill="#F9A17E"/>
<path fill-rule="evenodd" clip-rule="evenodd" d="M31.8444 36.7622C31.8444 38.2396 33.0485 39.4437 34.5288 39.4437C36.009 39.4437 37.2131 38.2424 37.2131 36.7622C37.2131 36.2426 37.0642 35.7568 36.8066 35.3453L37.4319 34.704L40.7373 38.504C40.3691 38.9961 40.1508 39.6064 40.1508 40.2664C40.1508 41.8918 41.4745 43.2155 43.1028 43.2155C44.731 43.2155 46.0547 41.8918 46.0547 40.2664C46.0547 38.641 44.731 37.3173 43.1028 37.3173C42.5985 37.3173 42.1234 37.4443 41.7078 37.6678L38.3285 33.7843L41.5645 30.4653C42.0127 30.7398 42.5395 30.8982 43.1028 30.8982C44.731 30.8982 46.0547 29.5745 46.0547 27.9491C46.0547 26.3237 44.731 25 43.1028 25C41.4745 25 40.1508 26.3237 40.1508 27.9491C40.1508 28.5503 40.3319 29.1102 40.6425 29.5771L37.4853 32.8152L35.0505 30.0171C35.022 29.9776 34.9884 29.9407 34.9499 29.9076C34.8292 29.8011 34.6789 29.7491 34.5292 29.7494C34.3798 29.7491 34.2293 29.8011 34.1073 29.9076C34.0683 29.9411 34.0344 29.9784 34.0057 30.0184L31.5777 32.8143L28.4186 29.5674C28.7253 29.1025 28.9039 28.5461 28.9039 27.9491C28.9039 26.3237 27.5802 25 25.9519 25C24.3237 25 23 26.3237 23 27.9491C23 29.5745 24.3237 30.8982 25.9519 30.8982C26.5194 30.8982 27.0498 30.7374 27.5001 30.4592L30.7362 33.7834L27.3578 37.6737C26.9397 37.4465 26.4607 37.3173 25.9519 37.3173C24.3237 37.3173 23 38.641 23 40.2664C23 41.8918 24.3237 43.2155 25.9519 43.2155C27.5802 43.2155 28.9039 41.8918 28.9039 40.2664C28.9039 39.6102 28.6881 39.0031 28.3237 38.5125L31.6316 34.7032L32.2531 35.3417C31.9942 35.754 31.8444 36.2411 31.8444 36.7622ZM34.529 31.3667L32.473 33.7344L33.1698 34.4506C33.5686 34.2156 34.0332 34.0807 34.5288 34.0807C35.0251 34.0807 35.4904 34.2161 35.8897 34.4518L36.5888 33.7347L34.529 31.3667ZM41.9354 39.0708C41.9662 39.0518 41.9958 39.03 42.0237 39.0053C42.0497 38.983 42.0733 38.959 42.0947 38.9337C42.375 38.7215 42.7243 38.5954 43.1028 38.5954C44.0251 38.5954 44.7737 39.3441 44.7737 40.2635C44.7737 41.183 44.0251 41.9316 43.1028 41.9316C42.1805 41.9316 41.4318 41.183 41.4318 40.2635C41.4318 39.7967 41.6248 39.374 41.9354 39.0708ZM27.1245 29.1338L27.1131 29.1447L27.1041 29.1535C26.8043 29.4389 26.3984 29.6144 25.9519 29.6144C25.0296 29.6144 24.281 28.8657 24.281 27.9462C24.281 27.0268 25.0296 26.2781 25.9519 26.2781C26.8714 26.2781 27.6229 27.0268 27.6229 27.9462C27.6229 28.4104 27.4321 28.831 27.1245 29.1338ZM42.0235 29.2189C42.0039 29.193 41.9822 29.1681 41.9582 29.1447C41.9312 29.1183 41.9026 29.0949 41.8726 29.0743C41.599 28.777 41.4318 28.3807 41.4318 27.9462C41.4318 27.0268 42.1805 26.2781 43.1028 26.2781C44.0251 26.2781 44.7737 27.0268 44.7737 27.9462C44.7737 28.8657 44.0251 29.6144 43.1028 29.6144C42.6915 29.6144 42.3147 29.4655 42.0235 29.2189ZM33.1254 36.765C33.1254 35.9936 33.7545 35.3645 34.5288 35.3645C35.303 35.3645 35.9321 35.9908 35.9321 36.765C35.9321 37.5365 35.303 38.1656 34.5288 38.1656C33.7545 38.1656 33.1254 37.5365 33.1254 36.765ZM24.281 40.2635C24.281 39.3441 25.0296 38.5954 25.9519 38.5954C26.8714 38.5954 27.6229 39.3441 27.6229 40.2635C27.6229 41.183 26.8742 41.9316 25.9519 41.9316C25.0296 41.9316 24.281 41.183 24.281 40.2635Z" fill="black"/>
</svg>
