<svg width="72" height="72" viewBox="0 0 72 72" fill="none" xmlns="http://www.w3.org/2000/svg">
<path d="M63.9397 49.7353C60.8407 47.9379 57.0636 48.4201 54.5188 50.6705L50.6541 48.4274V37.3433C50.6541 36.1962 50.0416 35.1294 49.0499 34.5595L39.1332 28.8384V23.9357C42.3561 22.8397 44.6749 19.7855 44.6749 16.1834C44.6749 11.6606 41.0217 8 36.5081 8C31.9945 8 28.3414 11.6606 28.3414 16.1834C28.3414 19.7855 30.6601 22.8397 33.8831 23.9357V28.8384L23.9663 34.5595C22.9746 35.1294 22.3621 36.1962 22.3621 37.3433V48.4201L18.4975 50.6632C15.9527 48.4128 12.1683 47.9306 9.07655 49.728C5.17546 51.993 3.84836 56.9907 6.08693 60.8998C8.33279 64.8088 13.2985 66.1532 17.185 63.8955C20.284 62.098 21.7569 58.5617 21.0934 55.2152L24.6444 53.1475L34.8967 59.0658C35.3925 59.3508 35.9467 59.4969 36.5008 59.4969C37.055 59.4969 37.6092 59.3508 38.105 59.0658L48.3499 53.1548L51.901 55.2225C51.2375 58.5617 52.7177 62.1054 55.8094 63.9028C59.6959 66.1605 64.6689 64.8234 66.9075 60.9071C69.1533 56.9907 67.8262 51.993 63.9397 49.7353ZM14.8662 59.8476C13.2037 60.8121 11.0672 60.2422 10.112 58.5617C9.14947 56.8884 9.71822 54.7403 11.388 53.7758C13.0506 52.8114 15.187 53.3813 16.1423 55.0618C17.1048 56.735 16.536 58.8831 14.8662 59.8476ZM33.0008 16.1834C33.0008 14.2471 34.5685 12.6762 36.5008 12.6762C38.4332 12.6762 40.0009 14.2471 40.0009 16.1834C40.0009 18.1196 38.4332 19.6906 36.5008 19.6906C34.5685 19.6906 33.0008 18.1196 33.0008 16.1834ZM45.3968 48.7854L36.5008 53.922L27.6049 48.7854V38.527L36.5008 33.3904L45.3968 38.527V48.7854ZM62.8897 58.569C61.9272 60.2422 59.798 60.8194 58.1355 59.8549C56.473 58.8905 55.8969 56.7423 56.8594 55.0691C57.8219 53.3959 59.9511 52.8187 61.6136 53.7831C63.2835 54.7476 63.8522 56.8884 62.8897 58.569Z" fill="url(#paint0_linear)" stroke="url(#paint1_linear)" stroke-width="2"/>
<defs>
<linearGradient id="paint0_linear" x1="5" y1="8" x2="39.4199" y2="78.8789" gradientUnits="userSpaceOnUse">
<stop stop-color="white"/>
<stop offset="0.369792" stop-color="#CDE4FF"/>
<stop offset="0.760417" stop-color="#FFDDCF"/>
<stop offset="1" stop-color="white"/>
</linearGradient>
<linearGradient id="paint1_linear" x1="5" y1="8" x2="39.4199" y2="78.8789" gradientUnits="userSpaceOnUse">
<stop stop-color="white"/>
<stop offset="0.369792" stop-color="#CDE4FF"/>
<stop offset="0.760417" stop-color="#FFDDCF"/>
<stop offset="1" stop-color="white"/>
</linearGradient>
</defs>
</svg>
