<svg width="72" height="72" viewBox="0 0 72 72" fill="none" xmlns="http://www.w3.org/2000/svg">
<path d="M36.0062 6C40.7361 5.99994 45.3069 7.72647 48.8779 10.862C52.4489 13.9975 54.7798 18.3312 55.4418 23.0657C60.5425 24.2352 65.0378 27.2644 68.068 31.574C71.0983 35.8836 72.4509 41.1712 71.8671 46.4256C71.2834 51.68 68.8042 56.5325 64.9038 60.0552C61.0034 63.5778 55.9554 65.5235 50.7252 65.52H24.5581C24.2899 65.52 24.0184 65.5134 23.7535 65.5035C18.1026 65.7175 12.5733 63.8099 8.23076 60.1483C3.88819 56.4866 1.0396 51.3299 0.233748 45.6716C-0.572105 40.0133 0.721794 34.2536 3.86618 29.5022C7.01057 24.7508 11.783 21.3438 17.264 19.9376C18.5103 15.898 21.001 12.3669 24.3727 9.85952C27.7444 7.35216 31.8205 5.99986 36.0062 6V6ZM36.0062 12.6133C34.4337 12.6156 32.8742 12.9012 31.4008 13.4565C30.6024 13.7599 29.8355 14.142 29.1112 14.5973L28.8005 14.799C28.071 15.2857 27.3916 15.8452 26.7725 16.4689L26.6253 16.621C26.5401 16.7102 26.4562 16.8006 26.3735 16.8922L26.1576 17.1335C25.5811 17.8006 25.0716 18.5239 24.6366 19.2928C23.6187 21.0918 23.0359 23.1086 22.9358 25.1787L22.9227 25.84C18.5852 25.84 14.4254 27.5819 11.3583 30.6825C8.2913 33.7831 6.56825 37.9884 6.56825 42.3733C6.56825 46.7582 8.2913 50.9636 11.3583 54.0642C14.4254 57.1648 18.5852 58.9067 22.9227 58.9067H38.9435V58.9133L50.7252 58.9067H52.3607V58.8141C54.5964 58.5622 56.7453 57.7955 58.6423 56.573C60.5393 55.3505 62.1338 53.7047 63.3034 51.762C64.473 49.8193 65.1866 47.6314 65.3893 45.3665C65.592 43.1015 65.2785 40.8197 64.4728 38.6963L64.4564 38.6533C63.934 37.2892 63.2142 36.011 62.3205 34.8606L62.1897 34.6953C60.726 32.8606 58.8544 31.4013 56.7273 30.4363L56.5637 30.3635C56.3639 30.2763 56.1621 30.1936 55.9586 30.1155L55.5792 29.9766L55.2685 29.8675L55.226 29.8543L54.7451 29.7088C52.7586 29.1393 50.6757 28.9985 48.6318 29.2955C49.1513 27.3519 49.2273 25.3145 48.8543 23.3369L48.6776 22.5333C48.5908 22.1921 48.4904 21.8546 48.3767 21.5215L48.3211 21.3661L48.2949 21.2933L48.1216 20.837L48.0987 20.7808C47.6489 19.6817 47.0537 18.6494 46.3291 17.7122L46.231 17.5866C46.1486 17.4828 46.0646 17.3803 45.9792 17.279L45.7567 17.0211C45.6352 16.8841 45.5109 16.7496 45.3839 16.6177L45.1287 16.3598L44.9194 16.1581L44.7068 15.9597C44.1552 15.4639 43.5632 15.0159 42.9372 14.6205L42.669 14.4551C42.6104 14.4205 42.5515 14.3863 42.4924 14.3526L42.0999 14.1344L41.9625 14.0617C41.6607 13.9052 41.353 13.7607 41.0401 13.6285L40.7425 13.5061L40.435 13.3904C40.2296 13.3157 40.0224 13.2462 39.8135 13.1821L39.7841 13.1722L39.2771 13.03C38.2087 12.7512 37.1096 12.6112 36.0062 12.6133ZM27.829 35.76C28.2628 35.76 28.6787 35.9342 28.9854 36.2442C29.2921 36.5543 29.4645 36.9748 29.4645 37.4133V47.3333C29.4645 47.7718 29.2921 48.1924 28.9854 48.5024C28.6787 48.8125 28.2628 48.9867 27.829 48.9867H24.5581C24.3434 48.9867 24.1307 48.9439 23.9323 48.8608C23.7338 48.7777 23.5536 48.6559 23.4017 48.5024C23.2498 48.3489 23.1294 48.1666 23.0472 47.966C22.965 47.7654 22.9227 47.5505 22.9227 47.3333V37.4133C22.9227 37.1962 22.965 36.9812 23.0472 36.7806C23.1294 36.58 23.2498 36.3978 23.4017 36.2442C23.5536 36.0907 23.7338 35.9689 23.9323 35.8859C24.1307 35.8028 24.3434 35.76 24.5581 35.76H27.829ZM37.6417 25.84C37.8564 25.84 38.0691 25.8828 38.2675 25.9659C38.4659 26.0489 38.6462 26.1707 38.7981 26.3242C38.95 26.4778 39.0704 26.66 39.1526 26.8606C39.2348 27.0612 39.2771 27.2762 39.2771 27.4933V47.3333C39.2771 47.7718 39.1048 48.1924 38.7981 48.5024C38.4914 48.8125 38.0754 48.9867 37.6417 48.9867H34.3708C34.156 48.9867 33.9433 48.9439 33.7449 48.8608C33.5465 48.7777 33.3662 48.6559 33.2143 48.5024C33.0625 48.3489 32.942 48.1666 32.8598 47.966C32.7776 47.7654 32.7353 47.5505 32.7353 47.3333V27.4933C32.7353 27.2762 32.7776 27.0612 32.8598 26.8606C32.942 26.66 33.0625 26.4778 33.2143 26.3242C33.3662 26.1707 33.5465 26.0489 33.7449 25.9659C33.9433 25.8828 34.156 25.84 34.3708 25.84H37.6417ZM47.4543 35.76C47.8881 35.76 48.3041 35.9342 48.6108 36.2442C48.9175 36.5543 49.0898 36.9748 49.0898 37.4133V47.3333C49.0898 47.7718 48.9175 48.1924 48.6108 48.5024C48.3041 48.8125 47.8881 48.9867 47.4543 48.9867H44.1834C43.7497 48.9867 43.3337 48.8125 43.027 48.5024C42.7203 48.1924 42.548 47.7718 42.548 47.3333V37.4133C42.548 36.9748 42.7203 36.5543 43.027 36.2442C43.3337 35.9342 43.7497 35.76 44.1834 35.76H47.4543Z" fill="url(#paint0_linear)"/>
<defs>
<linearGradient id="paint0_linear" x1="0" y1="6" x2="33.9081" y2="82.4213" gradientUnits="userSpaceOnUse">
<stop stop-color="white"/>
<stop offset="0.369792" stop-color="#CDE4FF"/>
<stop offset="0.760417" stop-color="#FFDDCF"/>
<stop offset="1" stop-color="white"/>
</linearGradient>
</defs>
</svg>
