<svg width="72" height="72" viewBox="0 0 72 72" fill="none" xmlns="http://www.w3.org/2000/svg">
<path fill-rule="evenodd" clip-rule="evenodd" d="M35.9927 52.2884C36.6365 51.6256 37.6764 51.6256 38.3202 52.2884L45.5172 59.6976C46.1609 60.3604 46.1609 61.431 45.5172 62.0937L38.3202 69.5029C37.6764 70.1657 36.6365 70.1657 35.9927 69.5029L28.7957 62.0937C28.152 61.431 28.152 60.3604 28.7957 59.6976L30.4959 57.9473L21.6318 48.6178C20.5753 47.4962 20.5918 45.6949 21.6813 44.6073C22.7707 43.5197 24.5205 43.5367 25.5769 44.6583L34.3916 53.9368L35.9927 52.2884ZM24.636 27.4777C24.1078 27.9875 23.431 28.2424 22.7542 28.2424C22.0279 28.2424 21.2851 27.9535 20.7404 27.3587C19.7005 26.2032 19.7665 24.4188 20.8724 23.3482L30.5125 14.0867L28.7957 12.3194C28.152 11.6566 28.152 10.586 28.7957 9.92328L35.9927 2.49706C36.6365 1.83431 37.6764 1.83431 38.3202 2.49706L45.5172 9.90629C46.1609 10.569 46.1609 11.6396 45.5172 12.3024L38.3202 19.7116C37.6764 20.3744 36.6365 20.3744 35.9927 19.7116L34.4081 18.0802L24.636 27.4777ZM62.0957 27.4914L69.5031 34.8157C70.1656 35.4708 70.1656 36.5292 69.5031 37.1843L62.0957 44.5086C61.4331 45.1638 60.3628 45.1638 59.7002 44.5086L53.9238 38.797H18.0762L12.2998 44.5086C11.6372 45.1638 10.5669 45.1638 9.90431 44.5086L2.49694 37.1843C1.83435 36.5292 1.83435 35.4708 2.49694 34.8157L9.90431 27.4914C10.5669 26.8362 11.6372 26.8362 12.2998 27.4914L18.0762 33.203H53.9238L59.7002 27.4914C60.3628 26.8362 61.4331 26.8362 62.0957 27.4914Z" fill="url(#paint0_linear)"/>
<defs>
<linearGradient id="paint0_linear" x1="2" y1="2" x2="45.5434" y2="83.1267" gradientUnits="userSpaceOnUse">
<stop stop-color="white"/>
<stop offset="0.369792" stop-color="#CDE4FF"/>
<stop offset="0.760417" stop-color="#FFDDCF"/>
<stop offset="1" stop-color="white"/>
</linearGradient>
</defs>
</svg>
