<svg width="160" height="160" viewBox="0 0 160 160" fill="none" xmlns="http://www.w3.org/2000/svg">
<g clip-path="url(#clip0)">
<rect width="160" height="160" rx="20" fill="#001252"/>
<circle cx="-21.5" cy="-0.5" r="211.5" fill="url(#paint0_radial)"/>
<circle cx="159.5" cy="166.5" r="211.5" fill="url(#paint1_radial)"/>
<path d="M117 74.3433V47.8507C117 45.6119 115.15 43.7463 112.93 43.7463H85.55C83.33 43.7463 81.48 45.6119 81.48 47.8507V74.3433C81.48 76.5821 83.33 78.4478 85.55 78.4478H112.93C115.15 78.4478 117 76.5821 117 74.3433ZM47.07 82.5522C44.85 82.5522 43 84.4179 43 86.6567V113.149C43 115.388 44.85 117.254 47.07 117.254H74.45C76.67 117.254 78.52 115.388 78.52 113.149V86.6567C78.52 84.4179 76.67 82.5522 74.45 82.5522H47.07ZM62.24 64.6418H58.17C58.17 57.5522 64.09 51.5821 71.12 51.5821H72.6C73.71 51.5821 74.45 50.8358 74.45 49.7164V44.8657C74.45 43.7463 73.71 43 72.6 43H71.12C59.28 43 49.66 52.7015 49.66 64.6418H44.85C44.11 64.6418 43.74 65.3881 43.74 66.1343C43.74 66.5075 43.74 66.5075 44.11 66.8806L52.25 76.209C52.99 76.9552 54.1 76.9552 54.84 76.209L62.98 66.8806C63.35 66.5075 63.35 65.7612 62.98 65.3881C62.61 65.0149 62.61 64.6418 62.24 64.6418ZM97.76 95.9851H101.83C101.83 103.075 95.91 109.045 88.88 109.045H87.4C86.29 109.045 85.55 109.791 85.55 110.91V116.134C85.55 117.254 86.29 118 87.4 118H88.88C100.72 118 110.34 108.299 110.34 96.3582H115.15C115.89 96.3582 116.26 95.9851 116.26 95.2388C116.26 94.8657 116.26 94.8657 115.89 94.4925L107.75 85.1642C107.01 84.4179 105.9 84.4179 105.16 85.1642L97.02 94.4925C96.65 94.8657 96.65 95.6119 97.02 95.9851C97.02 95.6119 97.39 95.9851 97.76 95.9851Z" fill="white"/>
</g>
<defs>
<radialGradient id="paint0_radial" cx="0" cy="0" r="1" gradientUnits="userSpaceOnUse" gradientTransform="translate(-21.5 -0.500003) rotate(90) scale(176.66)">
<stop stop-color="#095DFF"/>
<stop offset="1" stop-color="#BF09FF" stop-opacity="0"/>
</radialGradient>
<radialGradient id="paint1_radial" cx="0" cy="0" r="1" gradientUnits="userSpaceOnUse" gradientTransform="translate(159.5 166.5) rotate(90) scale(176.66)">
<stop stop-color="#FF09F5"/>
<stop offset="1" stop-color="#BF09FF" stop-opacity="0"/>
</radialGradient>
<clipPath id="clip0">
<rect width="160" height="160" rx="20" fill="white"/>
</clipPath>
</defs>
</svg>
