<svg width="49" height="53" viewBox="0 0 49 53" fill="none" xmlns="http://www.w3.org/2000/svg">
<path fill-rule="evenodd" clip-rule="evenodd" d="M2.92074 35.4661C1.49772 37.0381 0.703295 38.7905 0.703296 40.6382C0.703296 47.4226 11.4134 52.9224 24.625 52.9224C37.8367 52.9224 48.5468 47.4226 48.5468 40.6382C48.5468 38.7904 47.7523 37.0379 46.3291 35.4658C42.5272 39.6658 34.2382 42.5778 24.6248 42.5778C15.0116 42.5778 6.72278 39.6659 2.92074 35.4661Z" fill="#FFE9E0"/>
<path fill-rule="evenodd" clip-rule="evenodd" d="M2.92077 21.8889C1.49773 23.4609 0.703295 25.2133 0.703296 27.0611C0.703296 33.8454 11.4134 39.3452 24.625 39.3452C37.8367 39.3452 48.5468 33.8454 48.5468 27.0611C48.5468 25.2132 47.7523 23.4607 46.3291 21.8886C42.5271 26.0886 34.2382 29.0006 24.6248 29.0006C15.0116 29.0006 6.72282 26.0887 2.92077 21.8889Z" fill="#FFC9B4"/>
<ellipse cx="24.625" cy="12.7573" rx="23.9217" ry="12.4039" transform="rotate(180 24.625 12.7573)" fill="#F9A17E"/>
</svg>
