<svg width="172" height="36" viewBox="0 0 172 36" fill="none" xmlns="http://www.w3.org/2000/svg">
<path fill-rule="evenodd" clip-rule="evenodd" d="M123.557 11.5505C122.108 11.8223 120.844 12.5799 120.303 13.5017C119.868 14.2422 119.682 15.4871 119.873 16.3787C120.196 17.8859 121.237 18.7738 123.965 19.8684C125.897 20.6437 126.335 20.9249 126.487 21.4861C126.631 22.017 126.41 22.5012 125.914 22.7397C125.656 22.8643 125.456 22.8989 124.863 22.9214C123.672 22.9668 122.537 22.7207 121.389 22.168C121.048 22.0042 120.706 21.8794 120.629 21.8906C120.529 21.9051 120.309 22.1903 119.874 22.868C119.155 23.9889 119.121 24.135 119.497 24.4437C120.969 25.6502 125.053 26.2606 127.515 25.6419C129.099 25.2437 130.214 24.2375 130.568 22.8876C130.694 22.4056 130.693 21.372 130.566 20.8366C130.381 20.0539 129.931 19.3779 129.261 18.8765C128.759 18.5001 127.146 17.7097 126.088 17.3216C124.361 16.688 123.965 16.3592 123.965 15.5625C123.965 15.0836 124.121 14.8104 124.51 14.6074C124.75 14.4819 124.924 14.4546 125.622 14.4325C126.715 14.3981 127.345 14.5268 128.199 14.9593C128.546 15.135 128.88 15.2787 128.942 15.2787C129.092 15.2787 129.173 15.1774 129.756 14.2558C130.444 13.167 130.455 13.1396 130.293 12.9176C129.938 12.4336 128.833 11.9179 127.565 11.6443C126.708 11.4593 124.338 11.4038 123.557 11.5505ZM34.3166 11.7777C34.0104 11.8701 33.8591 11.9798 33.7405 12.1955C33.6318 12.3934 33.6226 12.8283 33.6068 18.5124C33.5884 25.1534 33.5877 25.1391 33.9436 25.4023C34.1185 25.5316 34.2274 25.5419 35.6024 25.559C37.8563 25.587 37.7706 25.6846 37.7708 23.091L37.7709 21.3013L39.4131 21.2652C41.1655 21.2266 41.7728 21.142 42.6821 20.8098C43.9842 20.334 44.8375 19.293 45.1487 17.8006C45.3233 16.9634 45.2877 15.6374 45.0705 14.8838C44.5265 12.9974 43.1918 12.0385 40.7548 11.7832C40.0234 11.7066 34.5676 11.7019 34.3166 11.7777ZM96.026 11.7753C95.719 11.8723 95.5681 11.9803 95.4665 12.1757C95.3791 12.3437 95.3663 13.1794 95.3663 18.6774C95.3663 25.6735 95.3418 25.2895 95.7998 25.4799C95.9701 25.5507 96.3609 25.5737 97.3901 25.5737C99.5287 25.5737 99.4342 25.6759 99.4802 23.3128L99.5134 21.6067L100.927 23.5237C101.704 24.578 102.396 25.4706 102.465 25.5072C102.541 25.5474 103.336 25.5737 104.475 25.5737C106.217 25.5737 106.369 25.5645 106.47 25.453C106.612 25.2975 106.61 25.0523 106.466 24.846C106.375 24.7145 105.375 23.5307 102.946 20.6775C102.86 20.5768 103.027 20.3653 104.649 18.5141C106.226 16.7155 106.447 16.4353 106.447 16.2437C106.447 15.8141 106.412 15.8067 104.406 15.8067C103.417 15.8067 102.537 15.8334 102.45 15.8661C102.359 15.9007 101.714 16.6763 100.903 17.7267L99.5134 19.5279L99.4802 15.902C99.4441 11.9498 99.4617 12.1166 99.0544 11.8712C98.8751 11.7633 98.6862 11.7465 97.5228 11.7348C96.7929 11.7276 96.1193 11.7457 96.026 11.7753ZM40.0216 14.8153C40.3692 14.9144 40.717 15.1856 40.8922 15.4941C41.0214 15.7218 41.0558 15.8921 41.0772 16.4115C41.1009 16.9851 41.0867 17.0858 40.936 17.4132C40.7345 17.8508 40.3679 18.1413 39.8876 18.2437C39.7052 18.2826 39.1543 18.3144 38.6634 18.3144H37.7709V16.5326V14.7508H38.7833C39.34 14.7508 39.8973 14.7798 40.0216 14.8153ZM51.4067 15.5182C48.367 15.8464 46.3474 17.5399 45.9313 20.1096C45.8262 20.7581 45.8795 22.2936 46.0258 22.835C46.4257 24.3148 47.4403 25.3599 48.852 25.7465C49.376 25.89 50.8008 25.9074 51.4067 25.7777C52.0204 25.6463 52.7503 25.319 53.1478 24.997C53.346 24.8364 53.5171 24.7149 53.528 24.7269C53.5389 24.7389 53.6151 24.9058 53.6975 25.0979C53.7798 25.2899 53.9008 25.4755 53.9663 25.5103C54.0317 25.5452 54.7007 25.5737 55.4529 25.5737C56.8176 25.5737 56.8209 25.5734 56.9839 25.4112L57.1473 25.2487L57.1302 21.0097L57.1131 16.7707L56.5825 16.4896C55.9361 16.1472 55.0123 15.8358 54.1489 15.6694C53.5195 15.548 51.938 15.4608 51.4067 15.5182ZM65.0171 15.5473C64.1168 15.6709 63.0648 16.0955 62.5544 16.5413L62.3276 16.7392L62.2818 16.3952C62.2032 15.8064 62.204 15.8067 60.6041 15.8067C59.3383 15.8067 59.2044 15.8176 59.0613 15.9328L58.9047 16.059L58.8867 20.411C58.8673 25.1286 58.8679 25.1389 59.2245 25.4024C59.3989 25.5313 59.5108 25.5421 60.8605 25.5607C62.5697 25.5843 62.7123 25.5522 62.9198 25.0977C63.0411 24.8317 63.049 24.6445 63.0514 21.9771C63.054 19.164 63.0553 19.1371 63.2022 18.8803C63.4083 18.5201 63.8181 18.3144 64.3295 18.3144C64.8623 18.3144 65.1583 18.4616 65.3148 18.8044C65.4283 19.0529 65.4378 19.294 65.4392 21.9771C65.441 25.2276 65.4407 25.2255 65.905 25.46C66.1105 25.5637 66.3071 25.5751 67.609 25.559C68.9831 25.5419 69.0931 25.5315 69.2679 25.4025C69.6032 25.155 69.6131 25.0514 69.6172 21.7684C69.6213 18.3975 69.5884 18.0231 69.2233 17.2838C68.8464 16.5204 68.027 15.887 67.0964 15.6397C66.6235 15.514 65.5927 15.4682 65.0171 15.5473ZM75.8519 15.5428C73.876 15.7695 72.287 16.7007 71.506 18.0897C70.6655 19.5845 70.6198 21.6594 71.3921 23.2639C71.7075 23.9194 72.5587 24.7778 73.2372 25.1248C73.7789 25.4018 74.5577 25.6538 75.261 25.7795C75.9824 25.9085 77.8623 25.8907 78.5969 25.748C79.9852 25.4781 81.3656 24.817 81.3656 24.4218C81.3656 24.2934 80.4522 22.6302 80.2459 22.383C80.1016 22.2102 79.9048 22.2517 79.2173 22.5998C78.4295 22.9987 78.023 23.0881 77.1571 23.0528C76.597 23.03 76.4333 22.9972 76.1483 22.8507C75.3867 22.4595 75.0584 21.8919 75.0095 20.8823C74.9539 19.7357 75.3354 18.9477 76.1486 18.5292C76.4384 18.38 76.5924 18.3503 77.1937 18.3273C78.0371 18.2951 78.3726 18.3761 79.2063 18.8135C79.5219 18.9791 79.8444 19.1053 79.9228 19.094C80.0663 19.0732 80.5747 18.2851 81.0497 17.3468C81.2504 16.9504 81.2527 16.9356 81.1405 16.7652C80.8879 16.3818 79.8015 15.8699 78.8121 15.668C78.1111 15.525 76.5743 15.46 75.8519 15.5428ZM87.6109 15.5456C86.85 15.6407 86.1044 15.8592 85.38 16.1992C83.8838 16.9015 82.9157 18.0433 82.4783 19.6212C82.2765 20.3491 82.2767 22.0739 82.4784 22.8098C82.7686 23.8676 83.3756 24.7479 84.16 25.2485C85.6007 26.168 88.0796 26.0859 89.501 25.0715L89.9863 24.7253L90.1485 25.0779C90.2378 25.2718 90.3745 25.4643 90.4523 25.5057C90.5492 25.5573 91.0343 25.5747 91.9902 25.5609C93.2829 25.5422 93.3936 25.5312 93.4806 25.4126C93.5595 25.3052 93.5747 24.5961 93.5747 21.0172V16.7499L92.9609 16.4495C92.2309 16.092 91.2698 15.7789 90.4853 15.6429C89.7619 15.5174 88.2469 15.4662 87.6109 15.5456ZM111.756 15.5462C110.983 15.6422 110.261 15.8465 109.638 16.1452C109.173 16.3683 108.964 16.5233 108.501 16.987C107.862 17.6265 107.548 18.173 107.3 19.0772C107.104 19.7921 107.082 21.5547 107.262 22.208C107.71 23.8384 108.87 24.9932 110.595 25.5264C111.473 25.7981 112.039 25.8711 113.216 25.865C114.853 25.8564 115.874 25.6457 116.953 25.0935C117.522 24.8023 117.7 24.6112 117.624 24.3725C117.522 24.0516 116.767 22.7236 116.652 22.6624C116.56 22.6136 116.391 22.6606 115.951 22.8574C115.141 23.2204 114.948 23.266 114.041 23.3096C112.205 23.3978 111.195 22.9039 111.049 21.8462L111.008 21.5481L114.351 21.5471C117.944 21.5461 117.888 21.5512 118.151 21.1983C118.425 20.8317 118.363 19.602 118.019 18.5832C117.495 17.0326 116.261 16.016 114.45 15.6449C113.807 15.5133 112.428 15.4627 111.756 15.5462ZM152.704 15.5456C150.323 15.8432 148.532 17.0746 147.789 18.9247C147.479 19.6954 147.367 20.4466 147.407 21.4821C147.447 22.523 147.561 23.0169 147.935 23.7819C148.406 24.7434 149.166 25.3629 150.307 25.7153C150.981 25.9233 152.395 25.9246 153.17 25.7179C153.79 25.5526 154.407 25.2504 154.747 24.9448C154.887 24.8189 155.018 24.7158 155.038 24.7158C155.058 24.7158 155.124 24.8472 155.186 25.0079C155.408 25.5864 155.4 25.5839 157.031 25.5609C158.095 25.5459 158.485 25.5187 158.549 25.4549C158.618 25.3864 158.635 24.5052 158.635 21.0664V16.7636L158.104 16.4861C157.466 16.1527 156.323 15.7743 155.549 15.6406C154.83 15.5162 153.338 15.4664 152.704 15.5456ZM164.773 15.5231C163.473 15.6248 161.668 16.1947 160.711 16.8058L160.393 17.0083L160.394 22.9243C160.394 26.6366 160.419 28.9282 160.46 29.0762C160.496 29.206 160.603 29.3841 160.697 29.4722C160.868 29.6322 160.869 29.6323 162.418 29.6323C164.609 29.6323 164.494 29.7726 164.502 27.0777L164.507 25.3152L164.822 25.4719C165.417 25.7678 165.928 25.8631 166.896 25.8589C168.456 25.8522 169.458 25.4784 170.387 24.557C170.836 24.1122 170.976 23.918 171.227 23.3959C171.693 22.4273 171.77 22.044 171.771 20.6902C171.772 19.684 171.753 19.4683 171.621 19.0151C171.215 17.6161 170.476 16.7328 169.226 16.1537C168.122 15.642 166.389 15.3967 164.773 15.5231ZM131.7 15.9104C131.643 15.9674 131.596 16.0342 131.596 16.0588C131.596 16.0835 132.221 18.1815 132.984 20.7211C134.081 24.3744 134.401 25.3632 134.517 25.4562C134.646 25.56 134.816 25.5737 135.979 25.5737C137.252 25.5737 137.3 25.5688 137.456 25.4252C137.569 25.3205 137.819 24.7176 138.303 23.3803C138.68 22.3372 139.011 21.5057 139.037 21.5325C139.064 21.5592 139.386 22.4126 139.753 23.4289C140.253 24.8099 140.464 25.3142 140.591 25.4252C140.753 25.568 140.808 25.5737 142.014 25.5737C142.808 25.5737 143.328 25.5462 143.433 25.4987C143.524 25.4575 143.641 25.3165 143.694 25.1853C143.788 24.9501 146.459 16.1287 146.459 16.053C146.459 16.0317 146.412 15.9674 146.355 15.9104C146.266 15.8219 146.018 15.8067 144.67 15.8067C143.264 15.8067 143.074 15.8194 142.946 15.9222C142.83 16.0161 142.698 16.4685 142.242 18.3418C141.934 19.609 141.67 20.6576 141.656 20.672C141.626 20.7018 141.625 20.7002 140.82 18.5124C140.431 17.4533 140.176 16.8557 140.083 16.7801C139.963 16.6824 139.799 16.6646 139.017 16.6646C138.146 16.6646 138.084 16.6732 137.945 16.8131C137.856 16.9028 137.524 17.7021 137.105 18.8344C136.593 20.2193 136.399 20.6749 136.359 20.5832C136.33 20.515 136.069 19.4644 135.779 18.2484C135.349 16.4451 135.225 16.0163 135.108 15.9222C134.981 15.8194 134.791 15.8067 133.385 15.8067C132.036 15.8067 131.789 15.8219 131.7 15.9104ZM113.877 18.1549C114.278 18.3718 114.52 18.7278 114.585 19.1942L114.627 19.5023H112.818H111.008L111.044 19.2379C111.123 18.6523 111.548 18.1728 112.135 18.0081C112.329 17.9536 112.663 17.9286 112.993 17.9439C113.43 17.9642 113.6 18.0046 113.877 18.1549ZM53.0888 18.3869L53.2978 18.4594V20.2272V21.995L53.113 22.3467C52.9635 22.6314 52.8609 22.7335 52.5746 22.8822C52.2669 23.0421 52.1465 23.0659 51.6479 23.0654C51.1349 23.0648 51.039 23.0442 50.7324 22.8694C50.2626 22.6014 50.0457 22.1662 49.9972 21.3949C49.9004 19.8496 50.5163 18.717 51.6389 18.3761C51.8942 18.2986 52.8547 18.3057 53.0888 18.3869ZM89.6432 18.4025C89.7063 18.4418 89.7262 18.8885 89.7262 20.2678C89.7262 21.9171 89.7148 22.1035 89.6005 22.3262C89.341 22.8319 88.8774 23.0624 88.115 23.0645C87.5606 23.0661 87.2164 22.9631 86.9503 22.7163C86.2279 22.0462 86.2804 20.0565 87.0469 19.0571C87.2418 18.8028 87.62 18.5393 87.9813 18.406C88.2492 18.3071 89.4862 18.3045 89.6432 18.4025ZM154.611 18.3869L154.82 18.4594V20.2573C154.82 22.0124 154.816 22.0623 154.665 22.3462C154.564 22.537 154.4 22.705 154.189 22.835C153.905 23.0104 153.799 23.0355 153.258 23.0555C152.556 23.0815 152.269 22.9794 151.914 22.5767C151.671 22.3013 151.576 22.0114 151.524 21.3831C151.402 19.9043 152.05 18.7135 153.161 18.3761C153.416 18.2986 154.377 18.3057 154.611 18.3869ZM166.664 18.5283C167.074 18.7371 167.244 18.915 167.44 19.3381C167.579 19.6367 167.593 19.7624 167.593 20.6902C167.593 21.6155 167.578 21.7442 167.441 22.0394C167.076 22.8286 166.684 23.097 165.899 23.0962C165.276 23.0955 164.893 22.9025 164.639 22.462C164.476 22.1784 164.474 22.1541 164.453 20.3683C164.439 19.2468 164.456 18.5371 164.496 18.4969C164.622 18.3723 165.011 18.32 165.668 18.3395C166.226 18.356 166.385 18.3862 166.664 18.5283Z" fill="white"/>
<g clip-path="url(#clip0)">
<path d="M23.0889 9.08837C23.2204 10.1828 22.8738 11.221 22.6983 12.2785C22.5587 13.1218 22.3891 13.9615 22.2144 14.7982C22.1621 15.047 22.2674 15.1393 22.472 15.2331C23.7521 15.8187 24.9089 16.5771 25.8783 17.6036C26.8507 18.6337 27.4123 19.8448 27.5863 21.2383C27.5848 21.8638 27.5624 22.49 27.5848 23.1147C27.6535 24.9956 26.8709 26.5109 25.5422 27.7847C23.8268 29.4293 21.7163 30.3332 19.425 30.8442C15.7319 31.6683 12.0897 31.4911 8.53998 30.1412C6.75731 29.4633 5.1703 28.4811 3.97687 26.9665C3.12922 25.8906 2.6505 24.6832 2.67888 23.2978C2.69158 22.6606 2.67366 22.0225 2.66992 21.3852C2.81033 19.0569 4.20241 17.5164 5.99629 16.2345C6.53849 15.8468 7.12026 15.5159 7.73714 15.2597C7.99928 15.1504 8.03662 15.0241 7.98584 14.7671C7.69233 13.2784 7.41601 11.7867 7.14118 10.295C7.09935 10.0676 7.09562 9.83347 7.07471 9.60233C7.19644 8.23101 7.86037 7.20898 9.15686 6.68689C10.5019 6.14486 11.7215 6.4587 12.7894 7.40541C13.481 8.16086 13.7678 9.0448 13.7357 10.0646C13.6998 11.1908 13.7342 12.3191 13.723 13.446C13.7207 13.7015 13.7849 13.7776 14.0583 13.7562C14.7625 13.7023 15.4713 13.7038 16.1755 13.7547C16.4354 13.7732 16.4802 13.6934 16.478 13.463C16.4676 12.4092 16.5056 11.354 16.4646 10.3017C16.422 9.20135 16.6655 8.21772 17.4287 7.38916C18.0897 6.82055 18.835 6.45058 19.7297 6.43655C21.2891 6.41144 22.6363 7.42683 23.0292 8.91926C23.0434 8.97686 23.0688 9.03224 23.0889 9.08837ZM26.5773 22.4265C26.708 20.7627 26.1756 19.3367 24.9978 18.1456C23.9552 17.0903 22.6931 16.3733 21.3167 15.8386C21.1031 15.7559 21.0112 15.6806 21.065 15.417C21.3294 14.1195 21.5744 12.8183 21.8036 11.5142C21.9179 10.8644 22.1569 10.2219 22.0934 9.55655C21.9664 8.23544 20.941 7.39433 19.5997 7.46227C18.4093 7.52283 17.5086 8.52935 17.5079 9.80541C17.5064 11.3643 17.5012 12.9225 17.5131 14.4814C17.5154 14.7708 17.478 14.8868 17.1307 14.8476C15.7827 14.6955 14.4302 14.7051 13.0822 14.8491C12.7924 14.8801 12.7215 14.8107 12.723 14.5316C12.7349 13.0465 12.7289 11.5615 12.7282 10.0764C12.7282 9.74486 12.7133 9.41255 12.6192 9.09206C12.2749 7.92381 11.0687 7.22892 9.88203 7.50953C8.65649 7.79901 7.91638 8.9488 8.15313 10.2042C8.47725 11.9278 8.79988 13.6513 9.13819 15.3712C9.18972 15.6348 9.1479 15.7648 8.87755 15.8682C7.6998 16.3172 6.6169 16.9323 5.66769 17.7638C4.2517 19.0037 3.53549 20.5345 3.6871 22.4257C3.51682 24.3103 4.12325 25.898 5.53774 27.1792C6.27411 27.8468 7.08964 28.4065 8.00003 28.806C12.5101 30.7866 17.0687 30.825 21.6565 29.0807C22.5751 28.7315 23.4123 28.2286 24.1897 27.6319C25.9097 26.313 26.7805 24.6101 26.5773 22.4265Z" fill="white"/>
<path d="M20.7247 21.2259C20.7374 21.6447 20.609 22.1114 20.3185 22.5256C19.8517 23.1917 19.0705 23.1917 18.5918 22.5338C18.0444 21.782 18.0436 20.5178 18.5896 19.7623C19.0742 19.0911 19.8188 19.0874 20.3125 19.7571C20.6149 20.1677 20.727 20.6381 20.7247 21.2259Z" fill="white"/>
<path d="M11.9446 21.1661C11.9484 21.7355 11.8102 22.259 11.4077 22.6844C10.9655 23.1503 10.3845 23.1437 9.94388 22.6822C9.22543 21.9289 9.23066 20.3516 9.95359 19.602C10.4211 19.1169 11.0604 19.1523 11.4935 19.687C11.7968 20.0621 11.9491 20.5606 11.9446 21.1661Z" fill="white"/>
</g>
<defs>
<clipPath id="clip0">
<rect width="24.9201" height="24.9201" fill="white" transform="translate(2.66992 6.42188)"/>
</clipPath>
</defs>
</svg>
