<svg width="60" height="53" viewBox="0 0 60 53" fill="none" xmlns="http://www.w3.org/2000/svg">
<path d="M54.5504 26.1945C54.7919 25.5341 54.7941 25.4318 54.7941 15.0921V4.65625L55.3856 4.7264C56.2007 4.82292 57.2868 5.35991 57.8931 5.96635C58.1722 6.24544 58.561 6.81064 58.757 7.22242L59.1135 7.97111L59.1498 17.6465C59.1881 27.9003 59.1808 28.0677 58.6471 29.1073C58.4596 29.4724 55.0173 32.9855 46.9985 40.9956C37.6987 50.2851 35.5155 52.4096 35.0667 52.6067C33.4234 53.328 31.5758 53.031 30.2488 51.832L29.785 51.4131L42.0458 39.1371C53.7697 27.3989 54.3174 26.8321 54.5504 26.1945Z" fill="#FFE9E0"/>
<path fill-rule="evenodd" clip-rule="evenodd" d="M26.8919 0.508716C27.0348 0.477047 27.1805 0.458135 27.3553 0.427992C27.6543 0.376505 32.227 0.344023 37.5168 0.356002C45.1477 0.37328 47.2189 0.409102 47.5429 0.529584C48.2378 0.78771 49.1811 1.49413 49.6361 2.09688C49.7853 2.29453 49.908 2.44065 50.009 2.60052C50.5066 3.38863 50.4749 4.51093 50.4749 13.788V23.7514L50.1389 24.5001C49.822 25.2065 49.1199 25.9333 37.6991 37.3771C31.0421 44.0478 25.3345 49.6799 25.0157 49.8928C24.2075 50.4328 23.2614 50.6881 22.3212 50.6197C22.0709 50.6016 21.8734 50.5988 21.6801 50.5689C20.6118 50.4038 19.6715 49.4111 10.6579 40.4156C4.05827 33.8292 0.930115 30.6298 0.737298 30.2686C0.0784485 29.0345 0.0527626 27.6617 0.663926 26.3468C0.990932 25.6434 1.81127 24.7968 13.2469 13.3614C24.9143 1.69418 25.8242 0.745341 26.8919 0.508716ZM39.9479 9.31777C40.5757 9.58143 41.1952 10.1904 41.5639 10.9066C41.7673 11.3018 41.8296 11.6128 41.8296 12.2332C41.8296 15.6826 37.0959 16.6675 35.6648 13.516C35.3732 12.8739 35.3714 11.5964 35.6611 10.9587C36.4241 9.27884 38.2191 8.59177 39.9479 9.31777Z" fill="#F9A17E"/>
</svg>
