<svg width="1085" height="449" viewBox="0 0 1085 449" fill="none" xmlns="http://www.w3.org/2000/svg">
<path d="M120.446 386.5C175.446 404 265.774 439.303 318.946 448.325H475.946C456.551 445.688 316.946 412.5 279.446 403.5C239.682 393.957 262.661 399 151.523 370.7C52.1147 345.388 26.0015 332.391 26.0015 324.063C26.0015 315.735 49.5366 309.073 92.0307 300.744C129.949 293.313 203.169 289.502 255.47 284.921C307.77 280.341 465.325 272.845 489.514 272.013C513.703 271.18 711.791 264.101 766.053 262.435C820.314 260.77 921.646 255.356 939.952 250.776C958.257 246.196 956.949 238.284 939.952 231.205C922.954 224.126 835.351 217.88 834.697 215.382C834.043 212.883 850.387 211.218 879.152 208.303C907.918 205.388 1056.68 208.491 1056.68 195.166C1056.68 181.841 965.448 176.24 965.448 170.826C965.448 165.413 1118.8 158.938 1077.61 158.938C1036.43 158.938 961.526 164.164 960.218 170.826C958.911 177.489 989.533 179.516 1008.95 183C1028.45 186.5 1050.29 189.752 1050.95 193.5C1051.6 197.248 1041.64 196.831 1020.72 199.33C999.799 201.828 933.414 202.057 909.225 202.89C885.036 203.722 827.506 204.139 823.583 214.132C819.661 224.126 861.501 226.208 885.036 228.29C908.571 230.372 941.259 237.451 941.913 241.199C942.567 244.946 933.414 245.779 924.262 247.445C915.109 249.11 856.271 251.609 839.927 252.858C823.583 254.107 748.401 254.94 674.527 257.438C600.652 259.937 397.989 264.517 262.661 273.262C127.334 282.006 7.69624 292 0.504989 321.565C-5.41394 345.899 41.0691 361.244 120.446 386.5Z" fill="#2A2D34"/>
<path d="M223.946 66.3774C223.946 58.9893 229.935 53 237.323 53H339.272C346.66 53 352.649 58.9893 352.649 66.3774V125.649C352.649 129.27 351.199 132.702 348.509 135.06C346.09 137.181 342.201 138.31 337.211 139.236C335.474 139.558 333.602 139.855 331.642 140.167C328.099 140.729 324.267 141.338 320.418 142.222C308.74 144.903 296.303 150.221 288.234 164.986C278.988 150.233 266.587 144.911 255.203 142.223C251.486 141.346 247.814 140.738 244.429 140.178C242.522 139.863 240.706 139.562 239.024 139.237C234.249 138.314 230.512 137.187 228.086 135.06C225.397 132.702 223.946 129.27 223.946 125.649V66.3774Z" fill="#3D3E3C" stroke="#3D3E3C" stroke-width="2"/>
<rect x="286.946" y="156" width="3" height="119" fill="#3D3E3C"/>
<ellipse cx="288.298" cy="276.921" rx="11.7633" ry="3.92111" fill="#3D3E3C"/>
<path d="M51.9458 44.3774C51.9458 36.9893 57.9351 31 65.3232 31H167.272C174.66 31 180.649 36.9893 180.649 44.3774V103.649C180.649 107.27 179.199 110.702 176.509 113.06C174.09 115.181 170.201 116.31 165.211 117.236C163.474 117.558 161.602 117.855 159.642 118.167C156.099 118.729 152.267 119.338 148.418 120.222C136.74 122.903 124.303 128.221 116.234 142.986C106.988 128.233 94.5872 122.911 83.203 120.223C79.4857 119.346 75.8136 118.738 72.4286 118.178C70.5216 117.863 68.7058 117.562 67.0242 117.237C62.2486 116.314 58.5118 115.187 56.0864 113.06C53.3967 110.702 51.9458 107.27 51.9458 103.649V44.3774Z" fill="#5E8F2C" stroke="#5E8F2C" stroke-width="2"/>
<rect x="114.946" y="142" width="3" height="145" fill="#5E8F2C"/>
<ellipse cx="116.298" cy="288.921" rx="11.7633" ry="3.92111" fill="#5E8F2C"/>
<path d="M255.889 303H264.184V300.989H259.298V300.909L260.997 299.244C263.389 297.062 264.031 295.972 264.031 294.648C264.031 292.631 262.383 291.205 259.889 291.205C257.446 291.205 255.77 292.665 255.775 294.949H258.111C258.105 293.835 258.809 293.153 259.872 293.153C260.895 293.153 261.656 293.79 261.656 294.812C261.656 295.739 261.088 296.375 260.031 297.392L255.889 301.227V303ZM270.53 303.256C273.456 303.256 275.223 301.028 275.228 297.193C275.234 293.386 273.444 291.205 270.53 291.205C267.609 291.205 265.836 293.381 265.831 297.193C265.819 301.017 267.598 303.25 270.53 303.256ZM270.53 301.216C269.194 301.216 268.331 299.875 268.336 297.193C268.342 294.551 269.2 293.222 270.53 293.222C271.853 293.222 272.717 294.551 272.717 297.193C272.723 299.875 271.859 301.216 270.53 301.216ZM276.983 303H285.278V300.989H280.392V300.909L282.091 299.244C284.483 297.062 285.125 295.972 285.125 294.648C285.125 292.631 283.477 291.205 280.983 291.205C278.54 291.205 276.863 292.665 276.869 294.949H279.204C279.199 293.835 279.903 293.153 280.966 293.153C281.988 293.153 282.75 293.79 282.75 294.812C282.75 295.739 282.182 296.375 281.125 297.392L276.983 301.227V303ZM292.123 291.364H289.811L286.93 293.188V295.369L289.595 293.699H289.663V303H292.123V291.364ZM295.717 303.148C296.444 303.148 297.075 302.54 297.081 301.784C297.075 301.04 296.444 300.432 295.717 300.432C294.967 300.432 294.348 301.04 294.353 301.784C294.348 302.54 294.967 303.148 295.717 303.148ZM303.123 303.256C306.049 303.256 307.817 301.028 307.822 297.193C307.828 293.386 306.038 291.205 303.123 291.205C300.203 291.205 298.43 293.381 298.424 297.193C298.413 301.017 300.192 303.25 303.123 303.256ZM303.123 301.216C301.788 301.216 300.924 299.875 300.93 297.193C300.936 294.551 301.794 293.222 303.123 293.222C304.447 293.222 305.311 294.551 305.311 297.193C305.317 299.875 304.453 301.216 303.123 301.216ZM314.042 303.159C316.633 303.17 318.4 301.472 318.395 299.102C318.4 296.92 316.878 295.347 314.815 295.347C313.537 295.347 312.406 295.96 311.883 296.989H311.804C311.815 294.722 312.611 293.312 314.128 293.312C315.02 293.312 315.662 293.801 315.849 294.614H318.275C318.042 292.699 316.451 291.205 314.128 291.205C311.253 291.205 309.406 293.534 309.395 297.443C309.389 301.705 311.65 303.148 314.042 303.159ZM314.031 301.227C312.895 301.227 312.054 300.312 312.054 299.176C312.059 298.045 312.917 297.125 314.048 297.125C315.184 297.125 316.014 298.017 316.008 299.17C316.014 300.335 315.167 301.227 314.031 301.227Z" fill="white"/>
<path d="M234.113 86H236.574V82.2273H238.642C241.318 82.2273 242.875 80.6307 242.875 78.3068C242.875 75.9943 241.346 74.3636 238.704 74.3636H234.113V86ZM236.574 80.2557V76.375H238.233C239.653 76.375 240.341 77.1477 240.341 78.3068C240.341 79.4602 239.653 80.2557 238.244 80.2557H236.574ZM244.473 86H252.336V83.9716H246.933V81.1932H251.91V79.1648H246.933V76.392H252.314V74.3636H244.473V86ZM253.826 76.392H257.389V86H259.821V76.392H263.383V74.3636H253.826V76.392ZM278.393 74.3636H275.944V81.6818H275.842L270.819 74.3636H268.66V86H271.121V78.6761H271.206L276.268 86H278.393V74.3636ZM280.426 86H282.886V81.1932H287.619V79.1648H282.886V76.392H288.13V74.3636H280.426V86ZM289.342 76.392H292.905V86H295.336V76.392H298.899V74.3636H289.342V76.392ZM314.443 78.4375C314.119 75.75 312.085 74.2045 309.392 74.2045C306.318 74.2045 303.971 76.375 303.971 80.1818C303.971 83.9773 306.278 86.1591 309.392 86.1591C312.375 86.1591 314.176 84.1761 314.443 82.0341L311.954 82.0227C311.721 83.267 310.744 83.983 309.432 83.983C307.665 83.983 306.466 82.6705 306.466 80.1818C306.466 77.7614 307.648 76.3807 309.449 76.3807C310.795 76.3807 311.767 77.1591 311.954 78.4375H314.443ZM318.65 86.1648C319.94 86.1648 320.775 85.6023 321.201 84.7898H321.27V86H323.565V80.1136C323.565 78.0341 321.804 77.1591 319.861 77.1591C317.77 77.1591 316.395 78.1591 316.059 79.75L318.298 79.9318C318.463 79.3523 318.98 78.9261 319.849 78.9261C320.673 78.9261 321.145 79.3409 321.145 80.0568V80.0909C321.145 80.6534 320.548 80.7273 319.031 80.875C317.304 81.0341 315.753 81.6136 315.753 83.5625C315.753 85.2898 316.986 86.1648 318.65 86.1648ZM319.344 84.4943C318.599 84.4943 318.065 84.1477 318.065 83.483C318.065 82.8011 318.628 82.4659 319.48 82.3466C320.008 82.2727 320.872 82.1477 321.162 81.9545V82.8807C321.162 83.7955 320.406 84.4943 319.344 84.4943ZM325.443 86H327.863V81.0625C327.863 79.9886 328.648 79.25 329.716 79.25C330.051 79.25 330.511 79.3068 330.738 79.3807V77.233C330.523 77.1818 330.221 77.1477 329.977 77.1477C329 77.1477 328.199 77.7159 327.88 78.7955H327.79V77.2727H325.443V86ZM334.799 86.142C336.209 86.142 336.942 85.3295 337.277 84.6023H337.379V86H339.765V74.3636H337.351V78.7386H337.277C336.953 78.0284 336.254 77.1591 334.794 77.1591C332.879 77.1591 331.26 78.6477 331.26 81.6477C331.26 84.5682 332.811 86.142 334.799 86.142ZM335.567 84.2159C334.379 84.2159 333.731 83.1591 333.731 81.6364C333.731 80.125 334.368 79.0852 335.567 79.0852C336.743 79.0852 337.402 80.0795 337.402 81.6364C337.402 83.1932 336.731 84.2159 335.567 84.2159ZM281.694 98.3636H279.381L276.5 100.188V102.369L279.165 100.699H279.233V110H281.694V98.3636ZM285.287 110.148C286.015 110.148 286.645 109.54 286.651 108.784C286.645 108.04 286.015 107.432 285.287 107.432C284.537 107.432 283.918 108.04 283.924 108.784C283.918 109.54 284.537 110.148 285.287 110.148ZM292.694 110.256C295.62 110.256 297.387 108.028 297.393 104.193C297.398 100.386 295.608 98.2045 292.694 98.2045C289.773 98.2045 288 100.381 287.995 104.193C287.983 108.017 289.762 110.25 292.694 110.256ZM292.694 108.216C291.358 108.216 290.495 106.875 290.5 104.193C290.506 101.551 291.364 100.222 292.694 100.222C294.018 100.222 294.881 101.551 294.881 104.193C294.887 106.875 294.023 108.216 292.694 108.216ZM254.959 120.364H253.618V132H254.959V120.364ZM259.983 132.205C261.506 132.205 262.302 131.386 262.574 130.818H262.643V132H263.983V126.25C263.983 123.477 261.87 123.159 260.756 123.159C259.438 123.159 257.938 123.614 257.256 125.205L258.529 125.659C258.824 125.023 259.523 124.341 260.802 124.341C262.035 124.341 262.643 124.994 262.643 126.114V126.159C262.643 126.807 261.983 126.75 260.393 126.955C258.773 127.165 257.006 127.523 257.006 129.523C257.006 131.227 258.324 132.205 259.983 132.205ZM260.188 131C259.12 131 258.347 130.523 258.347 129.591C258.347 128.568 259.279 128.25 260.324 128.114C260.893 128.045 262.415 127.886 262.643 127.614V128.841C262.643 129.932 261.779 131 260.188 131ZM271.931 128.432C271.931 130.068 270.681 130.818 269.681 130.818C268.567 130.818 267.772 130 267.772 128.727V123.273H266.431V128.818C266.431 131.045 267.613 132.114 269.249 132.114C270.567 132.114 271.431 131.409 271.84 130.523H271.931V132H273.272V123.273H271.931V128.432ZM277.069 126.75C277.069 125.227 278.012 124.364 279.296 124.364C280.54 124.364 281.296 125.176 281.296 126.545V132H282.637V126.455C282.637 124.227 281.449 123.159 279.682 123.159C278.364 123.159 277.546 123.75 277.137 124.636H277.023V123.273H275.728V132H277.069V126.75ZM288.633 132.182C290.564 132.182 291.837 131 292.064 129.455H290.723C290.473 130.409 289.678 130.977 288.633 130.977C287.042 130.977 286.019 129.659 286.019 127.636C286.019 125.659 287.064 124.364 288.633 124.364C289.814 124.364 290.519 125.091 290.723 125.886H292.064C291.837 124.25 290.451 123.159 288.61 123.159C286.246 123.159 284.678 125.023 284.678 127.682C284.678 130.295 286.178 132.182 288.633 132.182ZM295.366 126.75C295.366 125.227 296.337 124.364 297.661 124.364C298.922 124.364 299.684 125.159 299.684 126.545V132H301.025V126.455C301.025 124.21 299.831 123.159 298.047 123.159C296.672 123.159 295.888 123.733 295.479 124.636H295.366V120.364H294.025V132H295.366V126.75ZM307.137 132.182C308.91 132.182 310.205 131.295 310.614 129.977L309.319 129.614C308.978 130.523 308.188 130.977 307.137 130.977C305.563 130.977 304.478 129.96 304.415 128.091H310.75V127.523C310.75 124.273 308.819 123.159 307 123.159C304.637 123.159 303.069 125.023 303.069 127.705C303.069 130.386 304.614 132.182 307.137 132.182ZM304.415 126.932C304.506 125.574 305.466 124.364 307 124.364C308.455 124.364 309.387 125.455 309.387 126.932H304.415ZM316.086 132.182C317.768 132.182 318.336 131.136 318.631 130.659H318.79V132H320.086V120.364H318.745V124.659H318.631C318.336 124.205 317.813 123.159 316.108 123.159C313.904 123.159 312.381 124.909 312.381 127.659C312.381 130.432 313.904 132.182 316.086 132.182ZM316.268 130.977C314.586 130.977 313.722 129.5 313.722 127.636C313.722 125.795 314.563 124.364 316.268 124.364C317.904 124.364 318.768 125.682 318.768 127.636C318.768 129.614 317.881 130.977 316.268 130.977Z" fill="white"/>
<path d="M73.0518 58.1911H77.0596V69H79.7954V58.1911H83.8032V55.9091H73.0518V58.1911ZM97.0236 62.4545C97.0236 58.1719 94.3645 55.7301 90.8936 55.7301C87.4035 55.7301 84.7636 58.1719 84.7636 62.4545C84.7636 66.718 87.4035 69.179 90.8936 69.179C94.3645 69.179 97.0236 66.7372 97.0236 62.4545ZM94.2175 62.4545C94.2175 65.2287 92.9007 66.7308 90.8936 66.7308C88.8801 66.7308 87.5697 65.2287 87.5697 62.4545C87.5697 59.6804 88.8801 58.1783 90.8936 58.1783C92.9007 58.1783 94.2175 59.6804 94.2175 62.4545ZM111.104 62.4545C111.104 58.1719 108.445 55.7301 104.974 55.7301C101.484 55.7301 98.8437 58.1719 98.8437 62.4545C98.8437 66.718 101.484 69.179 104.974 69.179C108.445 69.179 111.104 66.7372 111.104 62.4545ZM108.298 62.4545C108.298 65.2287 106.981 66.7308 104.974 66.7308C102.96 66.7308 101.65 65.2287 101.65 62.4545C101.65 59.6804 102.96 58.1783 104.974 58.1783C106.981 58.1783 108.298 59.6804 108.298 62.4545ZM113.154 69H121.534V66.718H115.922V55.9091H113.154V69ZM123.367 69H128.96C131.9 69 133.466 67.4659 133.466 65.3821C133.466 63.4453 132.079 62.2756 130.59 62.2053V62.0774C131.951 61.7706 132.955 60.8054 132.955 59.2649C132.955 57.3026 131.497 55.9091 128.608 55.9091H123.367V69ZM126.135 66.7372V63.2599H128.455C129.784 63.2599 130.609 64.027 130.609 65.1072C130.609 66.0916 129.938 66.7372 128.391 66.7372H126.135ZM126.135 61.3871V58.1463H128.238C129.465 58.1463 130.162 58.7791 130.162 59.7251C130.162 60.7607 129.318 61.3871 128.186 61.3871H126.135ZM147.297 62.4545C147.297 58.1719 144.638 55.7301 141.167 55.7301C137.677 55.7301 135.037 58.1719 135.037 62.4545C135.037 66.718 137.677 69.179 141.167 69.179C144.638 69.179 147.297 66.7372 147.297 62.4545ZM144.491 62.4545C144.491 65.2287 143.174 66.7308 141.167 66.7308C139.154 66.7308 137.843 65.2287 137.843 62.4545C137.843 59.6804 139.154 58.1783 141.167 58.1783C143.174 58.1783 144.491 59.6804 144.491 62.4545ZM151.345 55.9091H148.206L152.227 62.4545L148.13 69H151.3L153.985 64.532H154.087L156.772 69H159.955L155.87 62.4545L159.865 55.9091H156.74L154.087 60.3707H153.985L151.345 55.9091Z" fill="white"/>
<path d="M83.504 82.3636H81.0836V94H83.504V82.3636ZM87.9316 94.1648C89.2214 94.1648 90.0566 93.6023 90.4827 92.7898H90.5509V94H92.8464V88.1136C92.8464 86.0341 91.085 85.1591 89.1418 85.1591C87.0509 85.1591 85.6759 86.1591 85.3407 87.75L87.5793 87.9318C87.7441 87.3523 88.2611 86.9261 89.1305 86.9261C89.9543 86.9261 90.4259 87.3409 90.4259 88.0568V88.0909C90.4259 88.6534 89.8293 88.7273 88.3123 88.875C86.585 89.0341 85.0339 89.6136 85.0339 91.5625C85.0339 93.2898 86.2668 94.1648 87.9316 94.1648ZM88.6248 92.4943C87.8805 92.4943 87.3464 92.1477 87.3464 91.483C87.3464 90.8011 87.9089 90.4659 88.7611 90.3466C89.2896 90.2727 90.1532 90.1477 90.443 89.9545V90.8807C90.443 91.7955 89.6873 92.4943 88.6248 92.4943ZM100.321 90.2841C100.326 91.4545 99.5253 92.0682 98.656 92.0682C97.7413 92.0682 97.1503 91.4261 97.1447 90.3977V85.2727H94.7242V90.8295C94.7299 92.8693 95.9231 94.1136 97.6788 94.1136C98.9913 94.1136 99.9344 93.4375 100.326 92.4148H100.417V94H102.741V85.2727H100.321V90.2841ZM107.098 88.9545C107.103 87.8295 107.774 87.1705 108.751 87.1705C109.723 87.1705 110.308 87.8068 110.302 88.875V94H112.723V88.4432C112.723 86.4091 111.53 85.1591 109.711 85.1591C108.416 85.1591 107.478 85.7955 107.086 86.8125H106.984V85.2727H104.677V94H107.098V88.9545ZM118.574 94.1705C120.898 94.1705 122.358 92.8068 122.471 90.8011H120.187C120.045 91.733 119.432 92.2557 118.602 92.2557C117.471 92.2557 116.738 91.3068 116.738 89.6364C116.738 87.9886 117.477 87.0455 118.602 87.0455C119.488 87.0455 120.057 87.6307 120.187 88.5H122.471C122.369 86.483 120.841 85.1591 118.562 85.1591C115.915 85.1591 114.278 86.9943 114.278 89.6705C114.278 92.3239 115.886 94.1705 118.574 94.1705ZM126.442 88.9545C126.447 87.8295 127.135 87.1705 128.123 87.1705C129.106 87.1705 129.686 87.8011 129.68 88.875V94H132.101V88.4432C132.106 86.3977 130.902 85.1591 129.084 85.1591C127.76 85.1591 126.873 85.7841 126.476 86.8125H126.373V82.3636H124.021V94H126.442V88.9545ZM137.983 94.1705C140.142 94.1705 141.596 93.1193 141.937 91.5L139.699 91.3523C139.454 92.017 138.829 92.3636 138.023 92.3636C136.812 92.3636 136.045 91.5625 136.045 90.2614V90.2557H141.988V89.5909C141.988 86.625 140.193 85.1591 137.886 85.1591C135.318 85.1591 133.653 86.983 133.653 89.6761C133.653 92.4432 135.295 94.1705 137.983 94.1705ZM136.045 88.7557C136.096 87.7614 136.852 86.9659 137.926 86.9659C138.977 86.9659 139.704 87.7159 139.71 88.7557H136.045ZM146.784 94.142C148.193 94.142 148.926 93.3295 149.261 92.6023H149.363V94H151.75V82.3636H149.335V86.7386H149.261C148.937 86.0284 148.238 85.1591 146.778 85.1591C144.863 85.1591 143.244 86.6477 143.244 89.6477C143.244 92.5682 144.795 94.142 146.784 94.142ZM147.551 92.2159C146.363 92.2159 145.716 91.1591 145.716 89.6364C145.716 88.125 146.352 87.0852 147.551 87.0852C148.727 87.0852 149.386 88.0795 149.386 89.6364C149.386 91.1932 148.716 92.2159 147.551 92.2159Z" fill="white"/>
<path d="M491.946 88.3774C491.946 80.9893 497.935 75 505.323 75H607.272C614.66 75 620.649 80.9893 620.649 88.3774V180.979C620.649 184.6 619.199 188.031 616.509 190.39C614.09 192.511 610.201 193.64 605.211 194.565C603.474 194.887 601.602 195.184 599.642 195.496C596.099 196.059 592.267 196.668 588.418 197.551C576.74 200.233 564.303 205.551 556.234 220.316C546.988 205.563 534.587 200.24 523.203 197.553C519.486 196.675 515.814 196.068 512.429 195.508C510.522 195.192 508.706 194.892 507.024 194.566C502.249 193.643 498.512 192.516 496.086 190.39C493.397 188.031 491.946 184.6 491.946 180.979V88.3774Z" fill="#F3997B" stroke="#F3997B" stroke-width="2"/>
<rect x="554.991" y="218.428" width="2.61407" height="44.4392" fill="#F3997B"/>
<ellipse cx="556.297" cy="264.174" rx="11.7633" ry="3.92111" fill="#F3997B"/>
<path d="M370.946 30.3774C370.946 22.9893 376.935 17 384.323 17H486.272C493.66 17 499.649 22.9893 499.649 30.3774V111.215C499.649 114.836 498.199 118.268 495.509 120.626C493.09 122.747 489.201 123.876 484.211 124.802C482.474 125.124 480.602 125.421 478.642 125.733C475.099 126.296 471.267 126.904 467.418 127.788C455.74 130.469 443.303 135.787 435.234 150.552C425.988 135.8 413.587 130.477 402.203 127.789C398.486 126.912 394.814 126.304 391.429 125.744C389.522 125.429 387.706 125.128 386.024 124.803C381.249 123.88 377.512 122.753 375.086 120.626C372.397 118.268 370.946 114.836 370.946 111.215V30.3774Z" fill="#CEAA47" stroke="#CDAC4C" stroke-width="2"/>
<rect x="433.946" y="144" width="3" height="124" fill="#CDAC4C"/>
<ellipse cx="435.298" cy="269.201" rx="11.7633" ry="3.92111" fill="#CDAC4C"/>
<path d="M401.889 299H410.184V296.989H405.298V296.909L406.997 295.244C409.389 293.062 410.031 291.972 410.031 290.648C410.031 288.631 408.383 287.205 405.889 287.205C403.446 287.205 401.77 288.665 401.775 290.949H404.111C404.105 289.835 404.809 289.153 405.872 289.153C406.895 289.153 407.656 289.79 407.656 290.812C407.656 291.739 407.088 292.375 406.031 293.392L401.889 297.227V299ZM416.53 299.256C419.456 299.256 421.223 297.028 421.228 293.193C421.234 289.386 419.444 287.205 416.53 287.205C413.609 287.205 411.836 289.381 411.831 293.193C411.819 297.017 413.598 299.25 416.53 299.256ZM416.53 297.216C415.194 297.216 414.331 295.875 414.336 293.193C414.342 290.551 415.2 289.222 416.53 289.222C417.853 289.222 418.717 290.551 418.717 293.193C418.723 295.875 417.859 297.216 416.53 297.216ZM422.983 299H431.278V296.989H426.392V296.909L428.091 295.244C430.483 293.062 431.125 291.972 431.125 290.648C431.125 288.631 429.477 287.205 426.983 287.205C424.54 287.205 422.863 288.665 422.869 290.949H425.204C425.199 289.835 425.903 289.153 426.966 289.153C427.988 289.153 428.75 289.79 428.75 290.812C428.75 291.739 428.182 292.375 427.125 293.392L422.983 297.227V299ZM438.123 287.364H435.811L432.93 289.188V291.369L435.595 289.699H435.663V299H438.123V287.364ZM441.717 299.148C442.444 299.148 443.075 298.54 443.081 297.784C443.075 297.04 442.444 296.432 441.717 296.432C440.967 296.432 440.348 297.04 440.353 297.784C440.348 298.54 440.967 299.148 441.717 299.148ZM455.807 293.182C455.807 289.375 453.443 287.205 450.358 287.205C447.255 287.205 444.909 289.375 444.909 293.182C444.909 296.972 447.255 299.159 450.358 299.159C451.085 299.159 451.773 299.04 452.398 298.801L453.335 299.955H455.63L453.966 297.864C455.102 296.847 455.807 295.256 455.807 293.182ZM449.505 294.955L450.994 296.92C450.795 296.96 450.579 296.983 450.358 296.983C448.568 296.983 447.403 295.648 447.403 293.182C447.403 290.716 448.568 289.381 450.358 289.381C452.142 289.381 453.312 290.716 453.312 293.182C453.312 294.449 453 295.42 452.46 296.062L451.596 294.955H449.505ZM461.862 299.159C464.476 299.159 466.345 297.722 466.339 295.733C466.345 294.284 465.424 293.25 463.714 293.034V292.943C465.015 292.71 465.913 291.79 465.907 290.483C465.913 288.648 464.305 287.205 461.896 287.205C459.51 287.205 457.714 288.602 457.68 290.614H460.038C460.067 289.727 460.879 289.153 461.885 289.153C462.879 289.153 463.544 289.756 463.538 290.631C463.544 291.545 462.765 292.165 461.646 292.165H460.561V293.972H461.646C462.964 293.972 463.788 294.631 463.782 295.568C463.788 296.494 462.993 297.131 461.868 297.131C460.782 297.131 459.97 296.562 459.924 295.71H457.447C457.487 297.744 459.305 299.159 461.862 299.159Z" fill="white"/>
<path d="M389.458 67H392.225V62.7557H394.552C397.563 62.7557 399.314 60.9595 399.314 58.3452C399.314 55.7436 397.595 53.9091 394.622 53.9091H389.458V67ZM392.225 60.5376V56.1719H394.092C395.69 56.1719 396.463 57.0412 396.463 58.3452C396.463 59.6428 395.69 60.5376 394.105 60.5376H392.225ZM401.112 67H409.958V64.718H403.88V61.5923H409.479V59.3104H403.88V56.1911H409.933V53.9091H401.112V67ZM411.635 56.1911H415.643V67H418.378V56.1911H422.386V53.9091H411.635V56.1911ZM431.27 67H433.967L436.454 58.4411H436.556L439.049 67H441.746L445.492 53.9091H442.468L440.302 63.0241H440.186L437.802 53.9091H435.213L432.823 63.005H432.714L430.547 53.9091H427.524L431.27 67ZM447.894 67L448.865 64.0149H453.589L454.561 67H457.527L453.014 53.9091H449.447L444.928 67H447.894ZM449.568 61.8544L451.179 56.9006H451.281L452.892 61.8544H449.568ZM459.102 67H461.87V62.3594H463.89L466.37 67H469.425L466.645 61.9119C468.134 61.2727 468.959 59.9751 468.959 58.1854C468.959 55.5838 467.239 53.9091 464.267 53.9091H459.102V67ZM461.87 60.1349V56.1719H463.736C465.334 56.1719 466.108 56.8814 466.108 58.1854C466.108 59.483 465.334 60.1349 463.749 60.1349H461.87ZM478.016 57.674H480.669C480.631 55.3409 478.713 53.7301 475.798 53.7301C472.928 53.7301 470.825 55.3153 470.838 57.6932C470.832 59.6236 472.193 60.7294 474.405 61.2599L475.83 61.6179C477.256 61.9631 478.048 62.3722 478.055 63.2543C478.048 64.2131 477.14 64.8651 475.734 64.8651C474.296 64.8651 473.261 64.2003 473.171 62.8899H470.493C470.563 65.7216 472.589 67.1854 475.766 67.1854C478.962 67.1854 480.841 65.6577 480.848 63.2607C480.841 61.081 479.199 59.924 476.923 59.4126L475.747 59.1314C474.609 58.8693 473.657 58.4474 473.676 57.5078C473.676 56.6641 474.424 56.044 475.779 56.044C477.102 56.044 477.914 56.6449 478.016 57.674Z" fill="white"/>
<path d="M398.609 81.9091H396.697V95H398.609V81.9091ZM404.037 95.2173C405.661 95.2173 406.575 94.3928 406.939 93.6577H407.016V95H408.882V88.4801C408.882 85.6229 406.632 85.054 405.073 85.054C403.296 85.054 401.659 85.7699 401.02 87.5597L402.816 87.9688C403.097 87.272 403.813 86.6009 405.098 86.6009C406.332 86.6009 406.965 87.2464 406.965 88.3587V88.4034C406.965 89.1001 406.249 89.0874 404.485 89.2919C402.624 89.5092 400.72 89.995 400.72 92.2259C400.72 94.1562 402.171 95.2173 404.037 95.2173ZM404.453 93.6832C403.372 93.6832 402.592 93.1974 402.592 92.2514C402.592 91.2287 403.5 90.8643 404.606 90.7173C405.226 90.6342 406.696 90.468 406.971 90.1932V91.4588C406.971 92.6222 406.044 93.6832 404.453 93.6832ZM417.647 90.9283C417.654 92.5966 416.414 93.3892 415.34 93.3892C414.157 93.3892 413.339 92.5327 413.339 91.1967V85.1818H411.428V91.4268C411.428 93.8622 412.764 95.1278 414.649 95.1278C416.126 95.1278 417.13 94.348 417.583 93.2997H417.686V95H419.565V85.1818H417.647V90.9283ZM424.044 89.1705C424.044 87.6044 425.003 86.7095 426.333 86.7095C427.63 86.7095 428.416 87.5597 428.416 88.9851V95H430.328V88.755C430.328 86.326 428.992 85.054 426.985 85.054C425.508 85.054 424.543 85.7379 424.089 86.7798H423.967V85.1818H422.133V95H424.044V89.1705ZM437.026 95.1982C439.347 95.1982 440.849 93.8047 441.06 91.8935H439.2C438.957 92.9545 438.132 93.581 437.039 93.581C435.422 93.581 434.38 92.2322 434.38 90.0909C434.38 87.9879 435.441 86.6648 437.039 86.6648C438.254 86.6648 438.995 87.4318 439.2 88.3523H441.06C440.855 86.3707 439.238 85.054 437.007 85.054C434.239 85.054 432.45 87.1378 432.45 90.1357C432.45 93.0952 434.176 95.1982 437.026 95.1982ZM445.015 89.1705C445.015 87.6044 446.006 86.7095 447.367 86.7095C448.684 86.7095 449.47 87.5469 449.47 88.9851V95H451.381V88.755C451.381 86.3068 450.039 85.054 448.019 85.054C446.491 85.054 445.571 85.7188 445.111 86.7798H444.989V81.9091H443.104V95H445.015V89.1705ZM458.163 95.1982C460.305 95.1982 461.82 94.1435 462.254 92.5455L460.445 92.2195C460.1 93.1463 459.269 93.6193 458.182 93.6193C456.546 93.6193 455.447 92.5582 455.396 90.6662H462.376V89.9886C462.376 86.4411 460.254 85.054 458.029 85.054C455.293 85.054 453.491 87.1378 453.491 90.1548C453.491 93.2038 455.268 95.1982 458.163 95.1982ZM455.402 89.2344C455.479 87.8409 456.489 86.6328 458.042 86.6328C459.525 86.6328 460.496 87.7322 460.503 89.2344H455.402ZM468.172 95.1918C469.961 95.1918 470.665 94.0987 471.01 93.4723H471.17V95H473.036V81.9091H471.125V86.7734H471.01C470.665 86.1662 470.013 85.054 468.184 85.054C465.813 85.054 464.068 86.9268 464.068 90.1101C464.068 93.2869 465.787 95.1918 468.172 95.1918ZM468.594 93.5618C466.887 93.5618 465.998 92.0597 465.998 90.0909C465.998 88.1413 466.868 86.6776 468.594 86.6776C470.262 86.6776 471.157 88.0391 471.157 90.0909C471.157 92.1555 470.243 93.5618 468.594 93.5618Z" fill="white"/>
<path d="M522.889 291H531.184V288.989H526.298V288.909L527.997 287.244C530.389 285.062 531.031 283.972 531.031 282.648C531.031 280.631 529.383 279.205 526.889 279.205C524.446 279.205 522.77 280.665 522.775 282.949H525.111C525.105 281.835 525.809 281.153 526.872 281.153C527.895 281.153 528.656 281.79 528.656 282.812C528.656 283.739 528.088 284.375 527.031 285.392L522.889 289.227V291ZM537.53 291.256C540.456 291.256 542.223 289.028 542.228 285.193C542.234 281.386 540.444 279.205 537.53 279.205C534.609 279.205 532.836 281.381 532.831 285.193C532.819 289.017 534.598 291.25 537.53 291.256ZM537.53 289.216C536.194 289.216 535.331 287.875 535.336 285.193C535.342 282.551 536.2 281.222 537.53 281.222C538.853 281.222 539.717 282.551 539.717 285.193C539.723 287.875 538.859 289.216 537.53 289.216ZM543.983 291H552.278V288.989H547.392V288.909L549.091 287.244C551.483 285.062 552.125 283.972 552.125 282.648C552.125 280.631 550.477 279.205 547.983 279.205C545.54 279.205 543.863 280.665 543.869 282.949H546.204C546.199 281.835 546.903 281.153 547.966 281.153C548.988 281.153 549.75 281.79 549.75 282.812C549.75 283.739 549.182 284.375 548.125 285.392L543.983 289.227V291ZM559.123 279.364H556.811L553.93 281.188V283.369L556.595 281.699H556.663V291H559.123V279.364ZM562.717 291.148C563.444 291.148 564.075 290.54 564.081 289.784C564.075 289.04 563.444 288.432 562.717 288.432C561.967 288.432 561.348 289.04 561.353 289.784C561.348 290.54 561.967 291.148 562.717 291.148ZM576.807 285.182C576.807 281.375 574.443 279.205 571.358 279.205C568.255 279.205 565.909 281.375 565.909 285.182C565.909 288.972 568.255 291.159 571.358 291.159C572.085 291.159 572.773 291.04 573.398 290.801L574.335 291.955H576.63L574.966 289.864C576.102 288.847 576.807 287.256 576.807 285.182ZM570.505 286.955L571.994 288.92C571.795 288.96 571.579 288.983 571.358 288.983C569.568 288.983 568.403 287.648 568.403 285.182C568.403 282.716 569.568 281.381 571.358 281.381C573.142 281.381 574.312 282.716 574.312 285.182C574.312 286.449 574 287.42 573.46 288.062L572.596 286.955H570.505ZM582.862 291.159C585.476 291.159 587.345 289.722 587.339 287.733C587.345 286.284 586.424 285.25 584.714 285.034V284.943C586.015 284.71 586.913 283.79 586.907 282.483C586.913 280.648 585.305 279.205 582.896 279.205C580.51 279.205 578.714 280.602 578.68 282.614H581.038C581.067 281.727 581.879 281.153 582.885 281.153C583.879 281.153 584.544 281.756 584.538 282.631C584.544 283.545 583.765 284.165 582.646 284.165H581.561V285.972H582.646C583.964 285.972 584.788 286.631 584.782 287.568C584.788 288.494 583.993 289.131 582.868 289.131C581.782 289.131 580.97 288.562 580.924 287.71H578.447C578.487 289.744 580.305 291.159 582.862 291.159Z" fill="white"/>
<path d="M38.889 378H47.1844V375.989H42.2981V375.909L43.9969 374.244C46.389 372.062 47.031 370.972 47.031 369.648C47.031 367.631 45.3833 366.205 42.889 366.205C40.4458 366.205 38.7697 367.665 38.7753 369.949H41.1106C41.1049 368.835 41.8094 368.153 42.8719 368.153C43.8947 368.153 44.656 368.79 44.656 369.812C44.656 370.739 44.0878 371.375 43.031 372.392L38.889 376.227V378ZM53.5296 378.256C56.4557 378.256 58.2228 376.028 58.2285 372.193C58.2342 368.386 56.4444 366.205 53.5296 366.205C50.6092 366.205 48.8364 368.381 48.8307 372.193C48.8194 376.017 50.5978 378.25 53.5296 378.256ZM53.5296 376.216C52.1944 376.216 51.3307 374.875 51.3364 372.193C51.3421 369.551 52.2001 368.222 53.5296 368.222C54.8535 368.222 55.7171 369.551 55.7171 372.193C55.7228 374.875 54.8592 376.216 53.5296 376.216ZM59.9827 378H68.2782V375.989H63.3918V375.909L65.0907 374.244C67.4827 372.062 68.1248 370.972 68.1248 369.648C68.1248 367.631 66.4771 366.205 63.9827 366.205C61.5396 366.205 59.8634 367.665 59.8691 369.949H62.2043C62.1986 368.835 62.9032 368.153 63.9657 368.153C64.9884 368.153 65.7498 368.79 65.7498 369.812C65.7498 370.739 65.1816 371.375 64.1248 372.392L59.9827 376.227V378ZM75.1234 366.364H72.8109L69.9302 368.188V370.369L72.5949 368.699H72.6631V378H75.1234V366.364ZM78.7171 378.148C79.4444 378.148 80.0751 377.54 80.0807 376.784C80.0751 376.04 79.4444 375.432 78.7171 375.432C77.9671 375.432 77.3478 376.04 77.3535 376.784C77.3478 377.54 77.9671 378.148 78.7171 378.148ZM86.1234 378.256C89.0495 378.256 90.8165 376.028 90.8222 372.193C90.8279 368.386 89.0381 366.205 86.1234 366.205C83.2029 366.205 81.4302 368.381 81.4245 372.193C81.4131 376.017 83.1915 378.25 86.1234 378.256ZM86.1234 376.216C84.7881 376.216 83.9245 374.875 83.9302 372.193C83.9359 369.551 84.7938 368.222 86.1234 368.222C87.4472 368.222 88.3109 369.551 88.3109 372.193C88.3165 374.875 87.4529 376.216 86.1234 376.216ZM96.8265 378.159C99.4174 378.159 101.179 376.472 101.173 374.119C101.179 371.892 99.6219 370.29 97.5253 370.29C96.5026 370.29 95.6219 370.716 95.2128 371.29H95.1447L95.4458 368.375H100.531V366.364H93.4174L92.8663 372.5L95.0538 372.892C95.4117 372.409 96.1049 372.108 96.7924 372.108C97.9628 372.114 98.8038 372.96 98.8038 374.182C98.8038 375.392 97.9799 376.227 96.8265 376.227C95.8492 376.227 95.0594 375.614 95.0026 374.71H92.6163C92.6617 376.722 94.4174 378.159 96.8265 378.159Z" fill="white"/>
<path d="M874.946 14.3774C874.946 6.98926 880.935 1 888.323 1H990.272C997.66 1 1003.65 6.98927 1003.65 14.3774V66.9787C1003.65 70.5996 1002.2 74.0313 999.509 76.3897C997.09 78.5106 993.201 79.6397 988.211 80.565C986.474 80.8871 984.602 81.1845 982.642 81.496C979.099 82.0589 975.267 82.6678 971.418 83.5514C959.74 86.2326 947.303 91.5505 939.234 106.316C929.988 91.5628 917.587 86.2401 906.203 83.5528C902.486 82.6753 898.814 82.0677 895.429 81.5075C893.522 81.192 891.706 80.8915 890.024 80.5664C885.249 79.643 881.512 78.5164 879.086 76.3897C876.397 74.0313 874.946 70.5996 874.946 66.9787V14.3774Z" fill="#BD5D15" stroke="#BD5D15" stroke-width="2"/>
<rect x="937.946" y="105" width="3" height="97" fill="#BD5D15"/>
<ellipse cx="939.297" cy="203.174" rx="11.7633" ry="3.92111" fill="#BD5D15"/>
<path d="M512.421 118H515.496V113.284H518.081C521.427 113.284 523.373 111.288 523.373 108.384C523.373 105.493 521.462 103.455 518.16 103.455H512.421V118ZM515.496 110.82V105.969H517.57C519.346 105.969 520.205 106.935 520.205 108.384C520.205 109.825 519.346 110.82 517.584 110.82H515.496ZM525.37 118H535.2V115.464H528.445V111.991H534.667V109.456H528.445V105.99H535.171V103.455H525.37V118ZM537.062 105.99H541.515V118H544.555V105.99H549.008V103.455H537.062V105.99ZM567.771 103.455H564.71V112.602H564.582L558.303 103.455H555.605V118H558.68V108.845H558.786L565.114 118H567.771V103.455ZM570.312 118H573.387V111.991H579.303V109.456H573.387V105.99H579.942V103.455H570.312V118ZM581.457 105.99H585.91V118H588.95V105.99H593.403V103.455H581.457V105.99ZM535.957 133H537.594C537.108 130.469 534.986 128.73 532.224 128.73C528.869 128.73 526.497 131.312 526.497 135.455C526.497 139.597 528.849 142.179 532.327 142.179C535.446 142.179 537.67 140.102 537.67 136.861V135.455H532.685V136.861H536.136C536.092 139.213 534.545 140.696 532.327 140.696C529.898 140.696 528.031 138.855 528.031 135.455C528.031 132.054 529.898 130.213 532.224 130.213C534.117 130.213 535.401 131.281 535.957 133ZM543.07 142.23C544.783 142.23 545.678 141.31 545.985 140.67H546.062V142H547.57V135.531C547.57 132.412 545.192 132.054 543.939 132.054C542.457 132.054 540.769 132.565 540.002 134.355L541.434 134.866C541.766 134.151 542.552 133.384 543.991 133.384C545.378 133.384 546.062 134.119 546.062 135.378V135.429C546.062 136.158 545.32 136.094 543.53 136.324C541.709 136.56 539.721 136.963 539.721 139.213C539.721 141.131 541.204 142.23 543.07 142.23ZM543.3 140.875C542.099 140.875 541.229 140.338 541.229 139.29C541.229 138.139 542.278 137.781 543.454 137.628C544.093 137.551 545.806 137.372 546.062 137.065V138.446C546.062 139.673 545.09 140.875 543.3 140.875ZM550.324 142H551.832V135.864C551.832 134.425 552.88 133.409 554.057 133.409C555.201 133.409 556 134.157 556 135.276V142H557.534V135.608C557.534 134.342 558.326 133.409 559.707 133.409C560.781 133.409 561.701 133.978 561.701 135.429V142H563.21V135.429C563.21 133.121 561.97 132.054 560.218 132.054C558.812 132.054 557.783 132.7 557.278 133.716H557.176C556.69 132.668 555.833 132.054 554.542 132.054C553.264 132.054 552.318 132.668 551.909 133.716H551.781V132.182H550.324V142ZM570.085 142.205C572.079 142.205 573.536 141.207 573.996 139.724L572.539 139.315C572.156 140.338 571.267 140.849 570.085 140.849C568.314 140.849 567.093 139.705 567.023 137.602H574.15V136.963C574.15 133.307 571.977 132.054 569.931 132.054C567.272 132.054 565.508 134.151 565.508 137.168C565.508 140.185 567.246 142.205 570.085 142.205ZM567.023 136.298C567.125 134.771 568.205 133.409 569.931 133.409C571.568 133.409 572.616 134.636 572.616 136.298H567.023ZM583.399 134.381C582.926 132.987 581.865 132.054 579.922 132.054C577.851 132.054 576.317 133.23 576.317 134.892C576.317 136.247 577.122 137.155 578.925 137.577L580.561 137.96C581.552 138.19 582.019 138.663 582.019 139.341C582.019 140.185 581.124 140.875 579.717 140.875C578.484 140.875 577.71 140.344 577.442 139.29L576.01 139.648C576.362 141.316 577.736 142.205 579.743 142.205C582.025 142.205 583.578 140.958 583.578 139.264C583.578 137.896 582.722 137.033 580.97 136.605L579.513 136.247C578.349 135.96 577.825 135.57 577.825 134.815C577.825 133.972 578.72 133.358 579.922 133.358C581.239 133.358 581.782 134.087 582.044 134.764L583.399 134.381ZM518.961 150.909H517.452V164H518.961V150.909ZM524.613 164.23C526.326 164.23 527.221 163.31 527.528 162.67H527.605V164H529.113V157.531C529.113 154.412 526.735 154.054 525.482 154.054C524 154.054 522.312 154.565 521.545 156.355L522.977 156.866C523.309 156.151 524.095 155.384 525.534 155.384C526.921 155.384 527.605 156.119 527.605 157.378V157.429C527.605 158.158 526.863 158.094 525.073 158.324C523.252 158.56 521.264 158.963 521.264 161.213C521.264 163.131 522.747 164.23 524.613 164.23ZM524.843 162.875C523.642 162.875 522.772 162.338 522.772 161.29C522.772 160.139 523.821 159.781 524.997 159.628C525.636 159.551 527.349 159.372 527.605 159.065V160.446C527.605 161.673 526.633 162.875 524.843 162.875ZM538.054 159.986C538.054 161.827 536.648 162.67 535.523 162.67C534.27 162.67 533.375 161.75 533.375 160.318V154.182H531.867V160.42C531.867 162.926 533.196 164.128 535.037 164.128C536.52 164.128 537.492 163.335 537.952 162.338H538.054V164H539.563V154.182H538.054V159.986ZM543.834 158.094C543.834 156.381 544.895 155.409 546.34 155.409C547.74 155.409 548.59 156.323 548.59 157.864V164H550.098V157.761C550.098 155.256 548.762 154.054 546.774 154.054C545.291 154.054 544.371 154.719 543.911 155.716H543.783V154.182H542.326V164H543.834V158.094ZM556.843 164.205C559.017 164.205 560.449 162.875 560.704 161.136H559.196C558.914 162.21 558.02 162.849 556.843 162.849C555.054 162.849 553.903 161.366 553.903 159.091C553.903 156.866 555.079 155.409 556.843 155.409C558.173 155.409 558.966 156.227 559.196 157.122H560.704C560.449 155.281 558.889 154.054 556.818 154.054C554.159 154.054 552.395 156.151 552.395 159.142C552.395 162.082 554.082 164.205 556.843 164.205ZM564.418 158.094C564.418 156.381 565.511 155.409 567 155.409C568.419 155.409 569.276 156.304 569.276 157.864V164H570.784V157.761C570.784 155.237 569.442 154.054 567.435 154.054C565.888 154.054 565.006 154.7 564.546 155.716H564.418V150.909H562.909V164H564.418V158.094ZM577.661 164.205C579.655 164.205 581.112 163.207 581.573 161.724L580.115 161.315C579.732 162.338 578.843 162.849 577.661 162.849C575.89 162.849 574.669 161.705 574.599 159.602H581.726V158.963C581.726 155.307 579.553 154.054 577.507 154.054C574.848 154.054 573.084 156.151 573.084 159.168C573.084 162.185 574.823 164.205 577.661 164.205ZM574.599 158.298C574.701 156.771 575.781 155.409 577.507 155.409C579.144 155.409 580.192 156.636 580.192 158.298H574.599ZM587.728 164.205C589.62 164.205 590.259 163.028 590.592 162.491H590.771V164H592.228V150.909H590.72V155.741H590.592C590.259 155.23 589.671 154.054 587.754 154.054C585.274 154.054 583.561 156.023 583.561 159.116C583.561 162.236 585.274 164.205 587.728 164.205ZM587.933 162.849C586.041 162.849 585.069 161.188 585.069 159.091C585.069 157.02 586.015 155.409 587.933 155.409C589.774 155.409 590.745 156.892 590.745 159.091C590.745 161.315 589.748 162.849 587.933 162.849Z" fill="white"/>
<path d="M707.946 123.377C707.946 115.989 713.935 110 721.323 110H823.272C830.66 110 836.649 115.989 836.649 123.377V192.908C836.649 196.529 835.199 199.961 832.509 202.319C830.09 204.44 826.201 205.569 821.211 206.495C819.474 206.817 817.602 207.114 815.642 207.426C812.099 207.988 808.267 208.597 804.418 209.481C792.74 212.162 780.303 217.48 772.234 232.245C762.988 217.492 750.587 212.17 739.203 209.482C735.486 208.605 731.814 207.997 728.429 207.437C726.522 207.122 724.706 206.821 723.024 206.496C718.249 205.573 714.512 204.446 712.086 202.319C709.397 199.961 707.946 196.529 707.946 192.908V123.377Z" fill="#13BB9F" stroke="#13BB9F" stroke-width="2"/>
<rect x="770.991" y="198.011" width="2.61407" height="57.5096" fill="#13BB9F"/>
<ellipse cx="772.297" cy="257.481" rx="11.7633" ry="3.92111" fill="#13BB9F"/>
<path d="M738.308 284.533H746.604V282.522H741.718V282.442L743.416 280.778C745.808 278.596 746.45 277.505 746.45 276.181C746.45 274.164 744.803 272.738 742.308 272.738C739.865 272.738 738.189 274.198 738.195 276.482H740.53C740.524 275.368 741.229 274.687 742.291 274.687C743.314 274.687 744.075 275.323 744.075 276.346C744.075 277.272 743.507 277.908 742.45 278.925L738.308 282.76V284.533ZM752.949 284.789C755.875 284.789 757.642 282.562 757.648 278.726C757.654 274.92 755.864 272.738 752.949 272.738C750.029 272.738 748.256 274.914 748.25 278.726C748.239 282.55 750.017 284.783 752.949 284.789ZM752.949 282.749C751.614 282.749 750.75 281.408 750.756 278.726C750.762 276.084 751.619 274.755 752.949 274.755C754.273 274.755 755.137 276.084 755.137 278.726C755.142 281.408 754.279 282.749 752.949 282.749ZM759.402 284.533H767.698V282.522H762.811V282.442L764.51 280.778C766.902 278.596 767.544 277.505 767.544 276.181C767.544 274.164 765.896 272.738 763.402 272.738C760.959 272.738 759.283 274.198 759.289 276.482H761.624C761.618 275.368 762.323 274.687 763.385 274.687C764.408 274.687 765.169 275.323 765.169 276.346C765.169 277.272 764.601 277.908 763.544 278.925L759.402 282.76V284.533ZM774.543 272.897H772.23L769.35 274.721V276.903L772.014 275.232H772.083V284.533H774.543V272.897ZM778.137 284.681C778.864 284.681 779.494 284.073 779.5 283.317C779.494 282.573 778.864 281.965 778.137 281.965C777.387 281.965 776.767 282.573 776.773 283.317C776.767 284.073 777.387 284.681 778.137 284.681ZM792.226 278.715C792.226 274.908 789.862 272.738 786.777 272.738C783.675 272.738 781.328 274.908 781.328 278.715C781.328 282.505 783.675 284.692 786.777 284.692C787.504 284.692 788.192 284.573 788.817 284.334L789.754 285.488H792.05L790.385 283.397C791.521 282.38 792.226 280.789 792.226 278.715ZM785.925 280.488L787.414 282.454C787.215 282.493 786.999 282.516 786.777 282.516C784.987 282.516 783.823 281.181 783.823 278.715C783.823 276.249 784.987 274.914 786.777 274.914C788.561 274.914 789.732 276.249 789.732 278.715C789.732 279.982 789.419 280.954 788.879 281.596L788.016 280.488H785.925ZM793.804 282.488H799.389V284.533H801.742V282.488H803.185V280.516H801.742V272.897H798.662L793.804 280.55V282.488ZM799.435 280.516H796.281V280.425L799.344 275.579H799.435V280.516Z" fill="white"/>
<path d="M907.889 230H916.184V227.989H911.298V227.909L912.997 226.244C915.389 224.062 916.031 222.972 916.031 221.648C916.031 219.631 914.383 218.205 911.889 218.205C909.446 218.205 907.77 219.665 907.775 221.949H910.111C910.105 220.835 910.809 220.153 911.872 220.153C912.895 220.153 913.656 220.79 913.656 221.812C913.656 222.739 913.088 223.375 912.031 224.392L907.889 228.227V230ZM922.53 230.256C925.456 230.256 927.223 228.028 927.228 224.193C927.234 220.386 925.444 218.205 922.53 218.205C919.609 218.205 917.836 220.381 917.831 224.193C917.819 228.017 919.598 230.25 922.53 230.256ZM922.53 228.216C921.194 228.216 920.331 226.875 920.336 224.193C920.342 221.551 921.2 220.222 922.53 220.222C923.853 220.222 924.717 221.551 924.717 224.193C924.723 226.875 923.859 228.216 922.53 228.216ZM928.983 230H937.278V227.989H932.392V227.909L934.091 226.244C936.483 224.062 937.125 222.972 937.125 221.648C937.125 219.631 935.477 218.205 932.983 218.205C930.54 218.205 928.863 219.665 928.869 221.949H931.204C931.199 220.835 931.903 220.153 932.966 220.153C933.988 220.153 934.75 220.79 934.75 221.812C934.75 222.739 934.182 223.375 933.125 224.392L928.983 228.227V230ZM939.061 230H947.356V227.989H942.47V227.909L944.169 226.244C946.561 224.062 947.203 222.972 947.203 221.648C947.203 219.631 945.555 218.205 943.061 218.205C940.618 218.205 938.942 219.665 938.947 221.949H941.282C941.277 220.835 941.981 220.153 943.044 220.153C944.067 220.153 944.828 220.79 944.828 221.812C944.828 222.739 944.26 223.375 943.203 224.392L939.061 228.227V230ZM950.576 230.148C951.304 230.148 951.934 229.54 951.94 228.784C951.934 228.04 951.304 227.432 950.576 227.432C949.826 227.432 949.207 228.04 949.213 228.784C949.207 229.54 949.826 230.148 950.576 230.148ZM964.666 224.182C964.666 220.375 962.302 218.205 959.217 218.205C956.115 218.205 953.768 220.375 953.768 224.182C953.768 227.972 956.115 230.159 959.217 230.159C959.944 230.159 960.632 230.04 961.257 229.801L962.194 230.955H964.49L962.825 228.864C963.961 227.847 964.666 226.256 964.666 224.182ZM958.365 225.955L959.853 227.92C959.655 227.96 959.439 227.983 959.217 227.983C957.427 227.983 956.263 226.648 956.263 224.182C956.263 221.716 957.427 220.381 959.217 220.381C961.001 220.381 962.172 221.716 962.172 224.182C962.172 225.449 961.859 226.42 961.319 227.062L960.456 225.955H958.365ZM966.42 230H974.716V227.989H969.829V227.909L971.528 226.244C973.92 224.062 974.562 222.972 974.562 221.648C974.562 219.631 972.915 218.205 970.42 218.205C967.977 218.205 966.301 219.665 966.307 221.949H968.642C968.636 220.835 969.341 220.153 970.403 220.153C971.426 220.153 972.187 220.79 972.187 221.812C972.187 222.739 971.619 223.375 970.562 224.392L966.42 228.227V230Z" fill="white"/>
<path d="M745.272 133.674H747.924C747.886 131.341 745.968 129.73 743.054 129.73C740.184 129.73 738.081 131.315 738.093 133.693C738.087 135.624 739.448 136.729 741.66 137.26L743.085 137.618C744.511 137.963 745.304 138.372 745.31 139.254C745.304 140.213 744.396 140.865 742.99 140.865C741.551 140.865 740.516 140.2 740.426 138.89H737.748C737.818 141.722 739.845 143.185 743.022 143.185C746.218 143.185 748.097 141.658 748.103 139.261C748.097 137.081 746.454 135.924 744.179 135.413L743.002 135.131C741.865 134.869 740.912 134.447 740.931 133.508C740.931 132.664 741.679 132.044 743.034 132.044C744.358 132.044 745.169 132.645 745.272 133.674ZM749.965 143H752.733V137.592H758.351V143H761.113V129.909H758.351V135.31H752.733V129.909H749.965V143ZM766.162 129.909H763.395V143H766.162V129.909ZM768.44 143H774.033C776.973 143 778.539 141.466 778.539 139.382C778.539 137.445 777.152 136.276 775.663 136.205V136.077C777.024 135.771 778.028 134.805 778.028 133.265C778.028 131.303 776.57 129.909 773.681 129.909H768.44V143ZM771.207 140.737V137.26H773.528C774.857 137.26 775.682 138.027 775.682 139.107C775.682 140.092 775.011 140.737 773.464 140.737H771.207ZM771.207 135.387V132.146H773.31C774.538 132.146 775.234 132.779 775.234 133.725C775.234 134.761 774.391 135.387 773.259 135.387H771.207ZM787.441 133.674H790.094C790.056 131.341 788.138 129.73 785.223 129.73C782.353 129.73 780.25 131.315 780.263 133.693C780.257 135.624 781.618 136.729 783.83 137.26L785.255 137.618C786.681 137.963 787.473 138.372 787.48 139.254C787.473 140.213 786.566 140.865 785.16 140.865C783.721 140.865 782.686 140.2 782.596 138.89H779.918C779.988 141.722 782.015 143.185 785.191 143.185C788.388 143.185 790.267 141.658 790.273 139.261C790.267 137.081 788.624 135.924 786.348 135.413L785.172 135.131C784.035 134.869 783.082 134.447 783.101 133.508C783.101 132.664 783.849 132.044 785.204 132.044C786.527 132.044 787.339 132.645 787.441 133.674ZM803.685 134.492C803.321 131.469 801.033 129.73 798.003 129.73C794.545 129.73 791.905 132.172 791.905 136.455C791.905 140.724 794.5 143.179 798.003 143.179C801.359 143.179 803.385 140.948 803.685 138.538L800.886 138.526C800.623 139.925 799.524 140.731 798.047 140.731C796.06 140.731 794.711 139.254 794.711 136.455C794.711 133.732 796.04 132.178 798.067 132.178C799.582 132.178 800.675 133.054 800.886 134.492H803.685ZM767.058 151.909H764.303V160.142H764.188L758.537 151.909H756.108V165H758.876V156.761H758.972L764.667 165H767.058V151.909ZM769.345 165H772.113V159.592H777.437V157.31H772.113V154.191H778.012V151.909H769.345V165ZM779.376 154.191H783.383V165H786.119V154.191H790.127V151.909H779.376V154.191ZM730.717 185H739.563V182.718H733.485V179.592H739.084V177.31H733.485V174.191H739.538V171.909H730.717V185ZM743.963 175.182H741.15L743.963 180.091L741.048 185H743.861L745.765 181.606L747.702 185H750.483L747.562 180.091L750.406 175.182H747.613L745.765 178.614L743.963 175.182ZM756.09 185.192C758.704 185.192 760.347 183.658 760.475 181.401H757.905C757.746 182.45 757.055 183.038 756.122 183.038C754.85 183.038 754.025 181.97 754.025 180.091C754.025 178.237 754.856 177.176 756.122 177.176C757.119 177.176 757.758 177.835 757.905 178.812H760.475C760.36 176.543 758.641 175.054 756.077 175.054C753.099 175.054 751.258 177.119 751.258 180.129C751.258 183.114 753.067 185.192 756.09 185.192ZM764.941 179.324C764.948 178.058 765.721 177.317 766.834 177.317C767.939 177.317 768.591 178.026 768.585 179.234V185H771.308V178.749C771.314 176.447 769.959 175.054 767.914 175.054C766.424 175.054 765.427 175.757 764.98 176.914H764.865V171.909H762.218V185H764.941V179.324ZM776.251 185.185C777.702 185.185 778.641 184.553 779.121 183.638H779.197V185H781.78V178.378C781.78 176.038 779.798 175.054 777.612 175.054C775.26 175.054 773.713 176.179 773.336 177.969L775.854 178.173C776.04 177.521 776.621 177.042 777.599 177.042C778.526 177.042 779.057 177.509 779.057 178.314V178.352C779.057 178.985 778.386 179.068 776.679 179.234C774.736 179.413 772.991 180.065 772.991 182.258C772.991 184.201 774.378 185.185 776.251 185.185ZM777.03 183.306C776.193 183.306 775.592 182.916 775.592 182.168C775.592 181.401 776.225 181.024 777.184 180.89C777.778 180.807 778.75 180.666 779.076 180.449V181.491C779.076 182.52 778.226 183.306 777.03 183.306ZM786.615 179.324C786.622 178.058 787.376 177.317 788.475 177.317C789.568 177.317 790.227 178.033 790.22 179.234V185H792.943V178.749C792.943 176.46 791.601 175.054 789.556 175.054C788.098 175.054 787.044 175.77 786.603 176.914H786.487V175.182H783.892V185H786.615V179.324ZM799.513 188.886C802.319 188.886 804.313 187.608 804.313 185.096V175.182H801.609V176.831H801.507C801.143 176.032 800.344 175.054 798.701 175.054C796.547 175.054 794.725 176.729 794.725 180.072C794.725 183.338 796.496 184.859 798.707 184.859C800.274 184.859 801.149 184.073 801.507 183.261H801.622V185.058C801.622 186.406 800.759 186.93 799.577 186.93C798.375 186.93 797.768 186.406 797.544 185.812L795.026 186.151C795.352 187.697 796.867 188.886 799.513 188.886ZM799.57 182.814C798.234 182.814 797.506 181.753 797.506 180.059C797.506 178.391 798.222 177.221 799.57 177.221C800.894 177.221 801.635 178.339 801.635 180.059C801.635 181.791 800.881 182.814 799.57 182.814ZM810.955 185.192C813.384 185.192 815.02 184.009 815.403 182.188L812.885 182.021C812.61 182.769 811.907 183.159 810.999 183.159C809.638 183.159 808.775 182.258 808.775 180.794V180.788H815.461V180.04C815.461 176.703 813.441 175.054 810.846 175.054C807.957 175.054 806.084 177.106 806.084 180.136C806.084 183.249 807.931 185.192 810.955 185.192ZM808.775 179.1C808.832 177.982 809.683 177.087 810.891 177.087C812.073 177.087 812.891 177.93 812.898 179.1H808.775Z" fill="white"/>
<path d="M890.61 38.674H893.263C893.224 36.3409 891.307 34.7301 888.392 34.7301C885.522 34.7301 883.419 36.3153 883.432 38.6932C883.425 40.6236 884.787 41.7294 886.998 42.2599L888.424 42.6179C889.849 42.9631 890.642 43.3722 890.648 44.2543C890.642 45.2131 889.734 45.8651 888.328 45.8651C886.89 45.8651 885.854 45.2003 885.765 43.8899H883.087C883.157 46.7216 885.183 48.1854 888.36 48.1854C891.556 48.1854 893.435 46.6577 893.442 44.2607C893.435 42.081 891.792 40.924 889.517 40.4126L888.341 40.1314C887.203 39.8693 886.251 39.4474 886.27 38.5078C886.27 37.6641 887.018 37.044 888.373 37.044C889.696 37.044 890.508 37.6449 890.61 38.674ZM897.975 42.3239C897.982 41.0582 898.755 40.3168 899.867 40.3168C900.973 40.3168 901.625 41.0263 901.619 42.2344V48H904.342V41.7486C904.348 39.4474 902.993 38.054 900.947 38.054C899.458 38.054 898.461 38.7571 898.014 39.9141H897.898V34.9091H895.252V48H897.975V42.3239ZM906.485 48H909.208V38.1818H906.485V48ZM907.852 36.9162C908.664 36.9162 909.329 36.2962 909.329 35.5355C909.329 34.7812 908.664 34.1612 907.852 34.1612C907.047 34.1612 906.382 34.7812 906.382 35.5355C906.382 36.2962 907.047 36.9162 907.852 36.9162ZM911.44 48H914.125V46.4276H914.246C914.623 47.2457 915.448 48.1598 917.033 48.1598C919.27 48.1598 921.015 46.3892 921.015 43.1037C921.015 39.7287 919.194 38.054 917.039 38.054C915.397 38.054 914.61 39.032 914.246 39.831H914.163V34.9091H911.44V48ZM914.106 43.0909C914.106 41.3395 914.847 40.2209 916.17 40.2209C917.519 40.2209 918.235 41.3906 918.235 43.0909C918.235 44.804 917.506 45.9929 916.17 45.9929C914.86 45.9929 914.106 44.8423 914.106 43.0909ZM931.001 40.9815C930.758 39.1726 929.301 38.054 926.821 38.054C924.309 38.054 922.653 39.2173 922.66 41.1094C922.653 42.5795 923.58 43.532 925.498 43.9155L927.198 44.2543C928.055 44.4268 928.444 44.7401 928.457 45.2322C928.444 45.8139 927.812 46.2294 926.859 46.2294C925.888 46.2294 925.242 45.8139 925.076 45.0149L922.398 45.1555C922.653 47.0348 924.251 48.1918 926.853 48.1918C929.397 48.1918 931.219 46.8942 931.225 44.9574C931.219 43.5384 930.292 42.6882 928.387 42.2983L926.61 41.9403C925.696 41.7422 925.357 41.429 925.364 40.956C925.357 40.3679 926.022 39.9844 926.866 39.9844C927.812 39.9844 928.374 40.5021 928.508 41.1349L931.001 40.9815ZM937.376 48.1918C939.99 48.1918 941.633 46.6577 941.761 44.4013H939.191C939.031 45.4496 938.341 46.0376 937.408 46.0376C936.136 46.0376 935.311 44.9702 935.311 43.0909C935.311 41.2372 936.142 40.1761 937.408 40.1761C938.405 40.1761 939.044 40.8345 939.191 41.8125H941.761C941.646 39.5433 939.926 38.054 937.363 38.054C934.384 38.054 932.543 40.1186 932.543 43.1293C932.543 46.1143 934.352 48.1918 937.376 48.1918ZM954.823 38.674H957.476C957.437 36.3409 955.52 34.7301 952.605 34.7301C949.735 34.7301 947.632 36.3153 947.645 38.6932C947.638 40.6236 949 41.7294 951.211 42.2599L952.637 42.6179C954.062 42.9631 954.855 43.3722 954.861 44.2543C954.855 45.2131 953.947 45.8651 952.541 45.8651C951.103 45.8651 950.067 45.2003 949.978 43.8899H947.299C947.37 46.7216 949.396 48.1854 952.573 48.1854C955.769 48.1854 957.648 46.6577 957.655 44.2607C957.648 42.081 956.005 40.924 953.73 40.4126L952.554 40.1314C951.416 39.8693 950.463 39.4474 950.483 38.5078C950.483 37.6641 951.231 37.044 952.586 37.044C953.909 37.044 954.721 37.6449 954.823 38.674ZM961.402 48H964.278L965.966 41.8253H966.087L967.775 48H970.658L973.323 38.1818H970.574L969.079 44.7401H968.996L967.385 38.1818H964.681L963.096 44.7784H963.006L961.485 38.1818H958.73L961.402 48ZM977.575 48.1854C979.026 48.1854 979.966 47.5526 980.445 46.6385H980.522V48H983.104V41.3778C983.104 39.0384 981.123 38.054 978.937 38.054C976.585 38.054 975.038 39.179 974.661 40.9688L977.179 41.1733C977.364 40.5213 977.946 40.0419 978.924 40.0419C979.851 40.0419 980.381 40.5085 980.381 41.3139V41.3523C980.381 41.9851 979.71 42.0682 978.004 42.2344C976.06 42.4134 974.315 43.0653 974.315 45.2578C974.315 47.201 975.702 48.1854 977.575 48.1854ZM978.355 46.3061C977.518 46.3061 976.917 45.9162 976.917 45.1683C976.917 44.4013 977.55 44.0241 978.509 43.8899C979.103 43.8068 980.075 43.6662 980.401 43.4489V44.4908C980.401 45.5199 979.55 46.3061 978.355 46.3061ZM985.217 51.6818H987.94V46.4276H988.023C988.4 47.2457 989.225 48.1598 990.81 48.1598C993.047 48.1598 994.792 46.3892 994.792 43.1037C994.792 39.7287 992.971 38.054 990.816 38.054C989.174 38.054 988.387 39.032 988.023 39.831H987.902V38.1818H985.217V51.6818ZM987.883 43.0909C987.883 41.3395 988.624 40.2209 989.947 40.2209C991.296 40.2209 992.012 41.3906 992.012 43.0909C992.012 44.804 991.283 45.9929 989.947 45.9929C988.637 45.9929 987.883 44.8423 987.883 43.0909Z" fill="white"/>
<path d="M6.9458 157C6.9458 149.612 12.9351 143.623 20.3232 143.623H122.272C129.66 143.623 135.649 149.612 135.649 157V211.632C135.649 215.253 134.199 218.685 131.509 221.043C129.09 223.164 125.201 224.293 120.211 225.219C118.474 225.541 116.602 225.838 114.642 226.149C111.099 226.712 107.267 227.321 103.418 228.205C91.7399 230.886 79.3032 236.204 71.2344 250.969C61.9882 236.216 49.5872 230.894 38.203 228.206C34.4857 227.329 30.8135 226.721 27.4285 226.161C25.5215 225.846 23.7057 225.545 22.0242 225.22C17.2486 224.297 13.5118 223.17 11.0864 221.043C8.3967 218.685 6.9458 215.253 6.9458 211.632V157Z" fill="white" stroke="#CDAC4C" stroke-width="2"/>
<rect x="69.9907" y="246.467" width="2.61407" height="103.256" fill="#CDAC4C"/>
<ellipse cx="71.2975" cy="351.03" rx="11.7633" ry="3.92111" fill="#CDAC4C"/>
<path d="M34.1837 182H41.6326V179.972H36.644V170.364H34.1837V182ZM43.2164 182H45.6369V173.273H43.2164V182ZM44.4323 172.148C45.1539 172.148 45.7448 171.597 45.7448 170.92C45.7448 170.25 45.1539 169.699 44.4323 169.699C43.7164 169.699 43.1255 170.25 43.1255 170.92C43.1255 171.597 43.7164 172.148 44.4323 172.148ZM54.8371 175.761C54.6212 174.153 53.3258 173.159 51.1212 173.159C48.8883 173.159 47.4167 174.193 47.4224 175.875C47.4167 177.182 48.2405 178.028 49.9451 178.369L51.4565 178.67C52.2178 178.824 52.5644 179.102 52.5758 179.54C52.5644 180.057 52.0019 180.426 51.1553 180.426C50.2917 180.426 49.7178 180.057 49.5701 179.347L47.1894 179.472C47.4167 181.142 48.8371 182.17 51.1496 182.17C53.411 182.17 55.0303 181.017 55.036 179.295C55.0303 178.034 54.2065 177.278 52.5133 176.932L50.9337 176.614C50.1212 176.438 49.8201 176.159 49.8258 175.739C49.8201 175.216 50.411 174.875 51.161 174.875C52.0019 174.875 52.5019 175.335 52.6212 175.898L54.8371 175.761ZM61.2022 173.273H59.5601V171.182H57.1397V173.273H55.9465V175.091H57.1397V179.636C57.1283 181.347 58.2931 182.193 60.0488 182.119C60.6738 182.097 61.117 181.972 61.3613 181.892L60.9806 180.091C60.8613 180.114 60.6056 180.17 60.3783 180.17C59.8954 180.17 59.5601 179.989 59.5601 179.318V175.091H61.2022V173.273ZM62.7789 182H65.1994V173.273H62.7789V182ZM63.9948 172.148C64.7164 172.148 65.3073 171.597 65.3073 170.92C65.3073 170.25 64.7164 169.699 63.9948 169.699C63.2789 169.699 62.688 170.25 62.688 170.92C62.688 171.597 63.2789 172.148 63.9948 172.148ZM69.5587 176.955C69.5644 175.83 70.2349 175.17 71.2121 175.17C72.1837 175.17 72.769 175.807 72.7633 176.875V182H75.1837V176.443C75.1837 174.409 73.9905 173.159 72.1724 173.159C70.8769 173.159 69.9394 173.795 69.5474 174.812H69.4451V173.273H67.1383V182H69.5587V176.955ZM81.0232 185.455C83.5175 185.455 85.2903 184.318 85.2903 182.085V173.273H82.8869V174.739H82.7959C82.4721 174.028 81.7619 173.159 80.3016 173.159C78.3869 173.159 76.7675 174.648 76.7675 177.619C76.7675 180.523 78.3414 181.875 80.3073 181.875C81.6994 181.875 82.4778 181.176 82.7959 180.455H82.8982V182.051C82.8982 183.25 82.1312 183.716 81.08 183.716C80.0119 183.716 79.4721 183.25 79.2732 182.722L77.0346 183.023C77.3244 184.398 78.6709 185.455 81.0232 185.455ZM81.0744 180.057C79.8869 180.057 79.2391 179.114 79.2391 177.608C79.2391 176.125 79.8755 175.085 81.0744 175.085C82.2505 175.085 82.9096 176.08 82.9096 177.608C82.9096 179.148 82.2391 180.057 81.0744 180.057ZM94.8627 182.17C97.5104 182.17 99.1582 180.358 99.1582 177.67C99.1582 174.966 97.5104 173.159 94.8627 173.159C92.215 173.159 90.5672 174.966 90.5672 177.67C90.5672 180.358 92.215 182.17 94.8627 182.17ZM94.8741 180.295C93.6525 180.295 93.0275 179.176 93.0275 177.653C93.0275 176.131 93.6525 175.006 94.8741 175.006C96.0729 175.006 96.6979 176.131 96.6979 177.653C96.6979 179.176 96.0729 180.295 94.8741 180.295ZM103.152 176.955C103.158 175.83 103.829 175.17 104.806 175.17C105.777 175.17 106.363 175.807 106.357 176.875V182H108.777V176.443C108.777 174.409 107.584 173.159 105.766 173.159C104.471 173.159 103.533 173.795 103.141 174.812H103.039V173.273H100.732V182H103.152V176.955ZM31.1182 206H34.1935V201.284H36.7787C40.1239 201.284 42.0699 199.288 42.0699 196.384C42.0699 193.493 40.1594 191.455 36.8568 191.455H31.1182V206ZM34.1935 198.82V193.969H36.2674C38.0429 193.969 38.9023 194.935 38.9023 196.384C38.9023 197.825 38.0429 198.82 36.2816 198.82H34.1935ZM46.8284 206.206C48.4407 206.206 49.4847 205.503 50.0174 204.487H50.1026V206H52.9719V198.642C52.9719 196.043 50.7702 194.949 48.3412 194.949C45.7276 194.949 44.0088 196.199 43.5898 198.188L46.3881 198.415C46.5941 197.69 47.2404 197.158 48.327 197.158C49.3568 197.158 49.9463 197.676 49.9463 198.571V198.614C49.9463 199.317 49.2006 199.409 47.3043 199.594C45.1452 199.793 43.2063 200.517 43.2063 202.953C43.2063 205.112 44.7475 206.206 46.8284 206.206ZM47.6949 204.118C46.7645 204.118 46.0969 203.685 46.0969 202.854C46.0969 202.001 46.8 201.582 47.8654 201.433C48.5259 201.341 49.6054 201.185 49.9676 200.943V202.101C49.9676 203.244 49.023 204.118 47.6949 204.118ZM58.3448 199.693C58.3519 198.287 59.1899 197.463 60.4115 197.463C61.626 197.463 62.3576 198.259 62.3505 199.594V206H65.376V199.054C65.376 196.511 63.8845 194.949 61.6118 194.949C59.9925 194.949 58.8206 195.744 58.3306 197.016H58.2027V195.091H55.3192V206H58.3448V199.693ZM72.6896 206.213C75.5944 206.213 77.4197 204.509 77.5617 202.001H74.7066C74.5291 203.166 73.762 203.82 72.7251 203.82C71.3117 203.82 70.3956 202.634 70.3956 200.545C70.3956 198.486 71.3188 197.307 72.7251 197.307C73.8331 197.307 74.5433 198.038 74.7066 199.125H77.5617C77.4339 196.604 75.5234 194.949 72.6754 194.949C69.3657 194.949 67.3203 197.243 67.3203 200.588C67.3203 203.905 69.3302 206.213 72.6896 206.213ZM82.6097 206.206C84.2219 206.206 85.2659 205.503 85.7986 204.487H85.8838V206H88.7532V198.642C88.7532 196.043 86.5514 194.949 84.1225 194.949C81.5088 194.949 79.7901 196.199 79.371 198.188L82.1693 198.415C82.3753 197.69 83.0216 197.158 84.1083 197.158C85.1381 197.158 85.7276 197.676 85.7276 198.571V198.614C85.7276 199.317 84.9818 199.409 83.0855 199.594C80.9264 199.793 78.9875 200.517 78.9875 202.953C78.9875 205.112 80.5287 206.206 82.6097 206.206ZM83.4762 204.118C82.5458 204.118 81.8782 203.685 81.8782 202.854C81.8782 202.001 82.5813 201.582 83.6466 201.433C84.3071 201.341 85.3867 201.185 85.7489 200.943V202.101C85.7489 203.244 84.8043 204.118 83.4762 204.118ZM91.1005 206H94.126V202.534L94.9428 201.604L97.9186 206H101.463L97.2084 199.814L101.257 195.091H97.7837L94.2894 199.232H94.126V191.455H91.1005V206ZM107.263 206.213C109.962 206.213 111.78 204.899 112.207 202.875L109.408 202.69C109.103 203.521 108.322 203.955 107.313 203.955C105.8 203.955 104.842 202.953 104.842 201.327V201.32H112.271V200.489C112.271 196.781 110.026 194.949 107.143 194.949C103.932 194.949 101.852 197.229 101.852 200.595C101.852 204.054 103.904 206.213 107.263 206.213ZM104.842 199.445C104.905 198.202 105.85 197.207 107.192 197.207C108.506 197.207 109.415 198.145 109.423 199.445H104.842Z" fill="#0C0E11"/>
<mask id="path-38-inside-1" fill="white">
<path fill-rule="evenodd" clip-rule="evenodd" d="M356 221H338V240H327L347.5 265L368 240H356V221Z"/>
</mask>
<path fill-rule="evenodd" clip-rule="evenodd" d="M356 221H338V240H327L347.5 265L368 240H356V221Z" fill="#EE845A"/>
<path d="M338 221V217H334V221H338ZM356 221H360V217H356V221ZM338 240V244H342V240H338ZM327 240V236H318.547L323.907 242.536L327 240ZM347.5 265L344.407 267.536L347.5 271.308L350.593 267.536L347.5 265ZM368 240L371.093 242.536L376.453 236H368V240ZM356 240H352V244H356V240ZM338 225H356V217H338V225ZM342 240V221H334V240H342ZM327 244H338V236H327V244ZM350.593 262.464L330.093 237.464L323.907 242.536L344.407 267.536L350.593 262.464ZM364.907 237.464L344.407 262.464L350.593 267.536L371.093 242.536L364.907 237.464ZM356 244H368V236H356V244ZM352 221V240H360V221H352Z" fill="white" mask="url(#path-38-inside-1)"/>
<mask id="path-40-inside-2" fill="white">
<path d="M375 204C375 219.464 362.464 232 347 232C331.536 232 319 219.464 319 204C319 188.536 331.536 176 347 176C362.464 176 375 188.536 375 204Z"/>
</mask>
<path d="M375 204C375 219.464 362.464 232 347 232C331.536 232 319 219.464 319 204C319 188.536 331.536 176 347 176C362.464 176 375 188.536 375 204Z" fill="#F9A17E"/>
<path d="M371 204C371 217.255 360.255 228 347 228V236C364.673 236 379 221.673 379 204H371ZM347 228C333.745 228 323 217.255 323 204H315C315 221.673 329.327 236 347 236V228ZM323 204C323 190.745 333.745 180 347 180V172C329.327 172 315 186.327 315 204H323ZM347 180C360.255 180 371 190.745 371 204H379C379 186.327 364.673 172 347 172V180Z" fill="white" mask="url(#path-40-inside-2)"/>
<path d="M335.357 218.921C335.702 218.109 336.249 217.461 336.918 216.936C336.774 216.857 336.63 216.778 336.486 216.692L336.508 216.713C335.443 217.742 333.681 219.957 333.286 221.244C333.264 221.316 333.243 221.395 333.221 221.474C333.847 221.848 334.487 222.193 335.141 222.517C334.846 221.258 334.89 220.022 335.357 218.921Z" fill="#ECBC70"/>
<path d="M358.024 216.994L358.118 216.894C357.902 217.016 357.693 217.138 357.478 217.26L357.348 217.483C357.665 217.836 357.945 218.231 358.161 218.677C358.772 219.936 358.837 221.388 358.499 222.855C359.34 222.474 360.153 222.05 360.951 221.582C360.915 221.41 360.872 221.259 360.829 221.115C360.426 219.828 359.088 218.023 358.024 216.994Z" fill="#ECBC70"/>
<path d="M358.161 218.677C357.945 218.231 357.672 217.835 357.348 217.483C357.32 217.447 357.284 217.418 357.255 217.382C355.594 218.274 353.896 218.95 352.17 219.403C350.092 219.95 348.46 220.036 347.604 220.036C347.568 220.036 347.532 220.036 347.496 220.036C345.986 220.022 344.202 219.712 342.318 219.151C341.239 218.828 339.233 218.224 336.917 216.937C336.249 217.461 335.702 218.116 335.357 218.921C334.882 220.022 334.846 221.259 335.134 222.51C338.766 224.301 342.858 225.3 347.18 225.3C351.214 225.3 355.047 224.423 358.499 222.855C358.837 221.388 358.772 219.928 358.161 218.677Z" fill="white"/>
<path d="M363.943 210.666C364.964 209.45 365.705 208.105 365.87 206.459C365.892 206.25 365.899 206.034 365.899 205.826C365.633 207.012 365.144 208.566 364.216 210.198C364.13 210.363 364.036 210.515 363.943 210.666Z" fill="#ECBC70"/>
<path d="M330.783 205.034C330.783 204.963 330.783 204.891 330.798 204.819C330.97 203.704 332.768 203.064 334.803 203.388C336.839 203.711 338.349 204.869 338.169 205.984C338.147 206.12 338.104 206.25 338.032 206.372C338.543 206.573 338.953 206.789 339.262 207.048C339.629 206.192 340.398 205.466 341.894 204.171C342.685 203.488 344.433 201.985 347.036 201.906C350.1 201.82 352.171 203.769 352.732 204.294C354.134 205.61 354.774 206.35 355.062 207.17C355.867 206.545 356.924 206.573 358.24 206.034C358.19 205.926 358.147 205.811 358.132 205.696C357.96 204.581 359.463 203.424 361.498 203.1C363.533 202.776 365.324 203.416 365.504 204.531C365.525 204.682 365.518 204.833 365.482 204.991C365.612 205.006 365.741 205.02 365.856 205.034C365.755 204.107 365.504 203.122 365.173 201.856L365.072 201.475C364.59 199.634 363.907 197.836 363.037 196.139L362.944 195.952L363.001 195.75C363.519 193.816 364.037 191.917 364.54 190.112L364.562 190.04C365.007 188.451 365.561 186.473 365.604 183.899C365.633 182.216 365.417 181.698 365.087 181.432C364.562 181.008 363.684 181.188 362.677 181.446C361.218 181.82 360.297 182.496 358.269 183.992L357.895 184.266C356.759 185.1 355.572 185.955 354.378 186.818L354.191 186.955L353.969 186.919C351.833 186.56 349.661 186.38 347.496 186.38C347.482 186.38 347.46 186.38 347.446 186.38C345.181 186.38 342.894 186.588 340.657 186.984L340.391 187.034L340.19 186.854C338.493 185.287 336.716 183.841 334.918 182.532C333.473 181.49 332.509 180.9 331.718 180.9C331.56 180.9 331.402 180.921 331.251 180.972C330.719 181.152 330.402 181.576 330.251 181.777C329.259 183.122 329.554 185.078 330.079 187.696C330.604 190.314 331.244 192.967 331.977 195.578L332.035 195.786L331.941 195.98C331.2 197.44 330.596 198.979 330.143 200.561C329.661 202.244 329.216 203.783 329.122 205.279C329.59 205.178 330.15 205.085 330.783 205.034ZM360.987 183.597C361.836 183.187 363.699 182.288 364.31 182.827C364.324 182.842 364.339 182.849 364.353 182.863C364.612 183.144 364.475 183.625 364.353 184.15C363.763 186.624 363.605 189.184 363.13 191.68C362.908 192.852 362.807 193.406 362.519 193.456C361.973 193.55 361.541 191.709 359.945 189.904C359.391 189.278 358.816 188.789 358.305 188.415C358.01 188.199 357.737 188.027 357.492 187.883C357.032 187.689 356.874 187.459 356.816 187.272C356.478 186.128 359.398 184.359 360.987 183.597ZM355.989 198.814C356.874 198.929 358.075 199.792 358.535 200.274C359.003 200.756 359.52 201.295 359.377 201.856C359.233 202.417 358.614 202.834 356.198 202.481C353.782 202.129 352.077 201.453 351.861 201.338C351.646 201.223 351.128 200.986 351.157 200.662C351.185 200.338 352.192 199.626 353.185 199.267C354.156 198.922 355.076 198.699 355.989 198.814ZM349.74 195.93C349.783 195.851 350.215 195.081 350.998 195.06C351.948 195.031 352.437 196.11 352.48 196.203C352.545 196.354 352.854 197.052 352.53 197.584C352.048 198.368 350.38 198.476 349.762 197.606C349.416 197.117 349.474 196.419 349.74 195.93ZM341.189 196.477C341.225 196.39 341.686 195.391 342.563 195.419C343.296 195.441 343.692 196.153 343.735 196.232C343.98 196.692 344.037 197.332 343.714 197.785C343.138 198.591 341.592 198.49 341.146 197.764C340.844 197.268 341.125 196.613 341.189 196.477ZM340.693 199.094C341.686 199.454 342.692 200.166 342.721 200.489C342.75 200.813 342.232 201.05 342.016 201.165C341.801 201.28 340.089 201.956 337.68 202.309C335.264 202.661 334.638 202.244 334.501 201.683C334.357 201.122 334.875 200.583 335.343 200.101C335.81 199.619 337.004 198.756 337.888 198.641C338.802 198.519 339.722 198.742 340.693 199.094ZM332.035 191.586C331.553 189.091 331.402 186.531 330.812 184.057C330.69 183.532 330.553 183.05 330.812 182.77C330.826 182.755 330.841 182.748 330.855 182.734C331.466 182.194 333.329 183.093 334.178 183.503C335.76 184.273 338.68 186.035 338.342 187.178C338.284 187.365 338.126 187.595 337.666 187.789C337.428 187.933 337.148 188.106 336.853 188.321C336.342 188.695 335.767 189.177 335.213 189.81C333.624 191.615 333.192 193.456 332.639 193.363C332.351 193.312 332.258 192.759 332.035 191.586Z" fill="#ECBC70"/>
<path d="M362.138 207.128C360.319 207.415 358.693 206.933 358.247 206.034C356.924 206.574 355.867 206.545 355.069 207.171C354.781 206.351 354.141 205.61 352.739 204.294C352.178 203.769 350.107 201.813 347.043 201.907C344.433 201.986 342.685 203.489 341.901 204.172C340.405 205.466 339.636 206.193 339.269 207.048C338.96 206.782 338.55 206.567 338.039 206.372C337.558 207.243 335.961 207.696 334.17 207.415C332.265 207.113 330.826 206.078 330.79 205.035C330.158 205.085 329.597 205.179 329.129 205.279C329.072 206.135 329.129 206.977 329.359 207.825C329.935 209.99 331.366 211.263 333.53 213.183C337.22 216.462 341.017 217.606 342.642 218.095C344.425 218.627 346.108 218.922 347.511 218.936C348.273 218.943 349.848 218.878 351.897 218.339C355.054 217.512 358.118 215.901 361.009 213.542C362.073 212.593 363.109 211.673 363.957 210.666C364.051 210.515 364.144 210.364 364.231 210.206C365.158 208.566 365.647 207.02 365.913 205.833C365.913 205.567 365.899 205.308 365.87 205.035C365.748 205.02 365.626 205.006 365.496 204.992C365.252 205.948 363.893 206.847 362.138 207.128ZM346.612 204.014C348.798 204.014 349.452 205.049 349.452 205.323C349.452 205.596 349.236 205.927 348.33 206.768C347.424 207.609 346.475 207.372 346.475 207.372C344.835 207.372 343.857 205.459 343.857 205.164C343.857 204.855 344.433 204.014 346.612 204.014ZM342.218 209.544L342.426 209.486C342.448 209.551 342.865 210.939 344.051 210.817C344.656 210.759 344.871 210.644 345.073 210.536C345.303 210.414 345.526 210.299 346.137 210.263C345.964 209.875 345.806 209.069 346.223 207.581L346.497 207.66C346.036 209.292 346.302 210.011 346.453 210.256C347.101 210.256 347.683 210.364 348.251 210.472C348.97 210.608 349.646 210.73 350.294 210.587C351.473 210.313 352.401 209.321 352.595 208.731L353.005 208.868C352.739 209.673 351.624 210.723 350.387 211.004C349.654 211.176 348.934 211.04 348.172 210.896C347.626 210.795 347.057 210.687 346.439 210.687C345.698 210.687 345.504 210.795 345.274 210.91C345.044 211.033 344.785 211.169 344.095 211.241C344.03 211.248 343.972 211.248 343.908 211.248C342.786 211.248 342.174 210.191 342.009 209.594L342.218 209.544Z" fill="white"/>
<path d="M361.721 214.369C364.13 212.226 366.625 210.004 366.963 206.566C367.121 204.97 366.747 203.546 366.23 201.576L366.129 201.202C365.647 199.346 364.964 197.541 364.101 195.83C364.597 193.967 365.093 192.148 365.582 190.407L365.604 190.335C366.064 188.681 366.647 186.632 366.69 183.913C366.719 182.331 366.568 181.217 365.762 180.569C364.763 179.771 363.389 180.116 362.389 180.375C360.721 180.799 359.678 181.569 357.6 183.101L357.233 183.374C356.154 184.165 355.04 184.97 353.911 185.783C351.789 185.438 349.632 185.265 347.482 185.265C347.467 185.265 347.446 185.265 347.431 185.265C345.188 185.265 342.937 185.459 340.722 185.841C339.053 184.338 337.32 182.928 335.558 181.648C333.818 180.375 332.372 179.447 330.905 179.929C330.042 180.217 329.553 180.871 329.373 181.123C328.108 182.835 328.424 185.014 329.007 187.919C329.525 190.493 330.15 193.104 330.869 195.679C330.143 197.146 329.546 198.685 329.093 200.259C328.28 203.057 327.59 205.473 328.288 208.105C328.949 210.586 330.56 212.025 332.789 214.002C333.767 214.873 334.753 215.599 335.709 216.21C334.947 216.85 334.314 217.555 333.825 218.332C333.66 218.598 333.509 218.871 333.379 219.151C332.948 219.813 332.602 220.453 332.437 220.978V220.985C332.696 221.151 332.955 221.309 333.221 221.467C333.242 221.388 333.264 221.309 333.286 221.237C333.688 219.95 335.443 217.735 336.507 216.706L336.486 216.685C336.63 216.771 336.773 216.85 336.917 216.929C339.233 218.217 341.232 218.821 342.318 219.144C344.195 219.712 345.986 220.014 347.496 220.029C347.532 220.029 347.568 220.029 347.604 220.029C348.452 220.029 350.092 219.943 352.17 219.396C353.896 218.943 355.601 218.267 357.255 217.375C357.327 217.332 357.406 217.296 357.478 217.253C357.693 217.138 357.902 217.016 358.118 216.886L358.024 216.987C359.089 218.015 360.426 219.82 360.829 221.108C360.872 221.251 360.915 221.41 360.951 221.575C361.217 221.417 361.483 221.259 361.742 221.093C361.721 221.007 361.692 220.928 361.67 220.841C361.246 219.468 359.923 217.627 358.779 216.483C359.772 215.858 360.75 215.16 361.706 214.376L361.721 214.369ZM331.948 195.981L332.042 195.786L331.984 195.578C331.25 192.975 330.61 190.321 330.085 187.703C329.56 185.086 329.266 183.122 330.258 181.785C330.409 181.583 330.725 181.159 331.258 180.979C331.409 180.929 331.56 180.907 331.725 180.907C332.516 180.907 333.48 181.49 334.918 182.54C336.716 183.849 338.492 185.294 340.189 186.84L340.391 187.02L340.657 186.97C342.893 186.574 345.173 186.366 347.446 186.366C347.46 186.366 347.482 186.366 347.496 186.366C349.653 186.366 351.832 186.545 353.968 186.905L354.191 186.941L354.378 186.804C355.572 185.948 356.759 185.093 357.895 184.251L358.269 183.978C360.297 182.489 361.224 181.806 362.677 181.432C363.684 181.173 364.561 180.994 365.086 181.418C365.417 181.684 365.633 182.202 365.604 183.885C365.561 186.459 365.007 188.437 364.561 190.026L364.54 190.098C364.036 191.903 363.519 193.794 363.001 195.736L362.943 195.937L363.037 196.124C363.907 197.822 364.59 199.612 365.072 201.46L365.173 201.842C365.503 203.107 365.762 204.093 365.856 205.02C365.885 205.286 365.899 205.552 365.899 205.818C365.899 206.027 365.892 206.236 365.87 206.451C365.712 208.098 364.971 209.436 363.943 210.658C363.101 211.665 362.059 212.586 360.994 213.535C358.111 215.887 355.04 217.505 351.883 218.332C349.833 218.871 348.258 218.936 347.496 218.929C346.094 218.914 344.411 218.626 342.627 218.087C341.002 217.598 337.205 216.455 333.516 213.175C331.351 211.248 329.92 209.982 329.345 207.818C329.115 206.969 329.057 206.128 329.115 205.272C329.208 203.776 329.654 202.237 330.136 200.554C330.603 198.987 331.207 197.44 331.948 195.981Z" fill="#40220F"/>
<path d="M343.713 197.786C344.037 197.332 343.987 196.685 343.735 196.232C343.692 196.153 343.296 195.441 342.563 195.42C341.685 195.391 341.225 196.39 341.189 196.477C341.132 196.613 340.844 197.268 341.146 197.764C341.585 198.49 343.138 198.591 343.713 197.786Z" fill="white"/>
<path d="M352.53 197.577C352.854 197.045 352.544 196.34 352.48 196.196C352.436 196.103 351.947 195.024 350.998 195.053C350.214 195.074 349.783 195.844 349.74 195.923C349.474 196.412 349.416 197.11 349.761 197.599C350.38 198.469 352.048 198.361 352.53 197.577Z" fill="white"/>
<path d="M332.646 193.363C333.192 193.456 333.624 191.615 335.22 189.81C335.774 189.184 336.349 188.695 336.86 188.322C333.832 184.719 332.221 183.403 331.301 182.957C331.229 182.921 331.042 182.834 330.848 182.727C330.833 182.741 330.819 182.748 330.804 182.763C330.546 183.043 330.682 183.525 330.804 184.05C331.394 186.524 331.552 189.084 332.027 191.579C332.257 192.759 332.351 193.312 332.646 193.363Z" fill="#F6EDEA"/>
<path d="M336.853 188.322C337.147 188.106 337.421 187.933 337.665 187.79C338.125 187.595 338.284 187.365 338.341 187.178C338.679 186.035 335.759 184.273 334.177 183.504C333.322 183.094 331.466 182.195 330.848 182.734C331.042 182.842 331.236 182.928 331.301 182.964C332.221 183.403 333.832 184.719 336.853 188.322Z" fill="#E1D5CE"/>
<path d="M358.305 188.415C358.815 188.789 359.391 189.271 359.944 189.904C361.534 191.709 361.965 193.55 362.519 193.456C362.807 193.406 362.907 192.852 363.13 191.68C363.612 189.184 363.763 186.624 364.353 184.15C364.475 183.625 364.612 183.144 364.353 182.863C364.338 182.849 364.324 182.842 364.31 182.827C364.115 182.935 363.921 183.021 363.856 183.057C362.936 183.496 361.332 184.812 358.305 188.415Z" fill="#F6EDEA"/>
<path d="M357.492 187.883C357.729 188.027 358.01 188.199 358.305 188.415C361.332 184.812 362.936 183.496 363.857 183.05C363.929 183.014 364.116 182.928 364.31 182.82C363.698 182.281 361.836 183.18 360.987 183.589C359.405 184.359 356.485 186.121 356.823 187.264C356.874 187.451 357.032 187.681 357.492 187.883Z" fill="#E1D5CE"/>
<path d="M351.156 200.662C351.128 200.986 351.645 201.223 351.861 201.338C352.077 201.453 353.788 202.129 356.198 202.481C358.607 202.834 359.24 202.417 359.376 201.856C359.513 201.295 359.002 200.755 358.535 200.274C358.067 199.792 356.874 198.929 355.989 198.814C355.076 198.699 354.155 198.922 353.184 199.274C352.192 199.626 351.185 200.338 351.156 200.662Z" fill="#4B1E0E"/>
<path d="M335.342 200.094C334.875 200.576 334.357 201.115 334.501 201.676C334.645 202.237 335.263 202.654 337.68 202.302C340.096 201.95 341.8 201.274 342.016 201.159C342.232 201.044 342.75 200.806 342.721 200.483C342.692 200.159 341.685 199.447 340.693 199.087C339.722 198.735 338.802 198.512 337.888 198.627C337.004 198.749 335.81 199.612 335.342 200.094Z" fill="#4B1E0E"/>
<path d="M343.907 211.248C343.965 211.248 344.03 211.248 344.094 211.241C344.785 211.169 345.044 211.032 345.274 210.91C345.504 210.787 345.698 210.687 346.439 210.687C347.05 210.687 347.618 210.795 348.172 210.895C348.934 211.039 349.653 211.176 350.387 211.003C351.624 210.716 352.738 209.666 353.005 208.867L352.595 208.731C352.4 209.313 351.466 210.313 350.293 210.586C349.646 210.737 348.97 210.608 348.251 210.471C347.683 210.363 347.1 210.255 346.453 210.255C346.302 210.011 346.036 209.292 346.496 207.659L346.223 207.58C345.806 209.069 345.957 209.874 346.137 210.262C345.525 210.291 345.31 210.406 345.072 210.536C344.871 210.644 344.655 210.759 344.051 210.816C342.857 210.938 342.44 209.551 342.426 209.486L342.217 209.543L342.009 209.601C342.174 210.191 342.785 211.248 343.907 211.248Z" fill="#330108"/>
<path d="M346.475 207.372C346.475 207.372 347.431 207.617 348.33 206.768C349.229 205.919 349.452 205.596 349.452 205.323C349.452 205.049 348.797 204.014 346.611 204.014C344.425 204.014 343.857 204.862 343.857 205.157C343.857 205.459 344.842 207.372 346.475 207.372Z" fill="#330108"/>
<path d="M362.138 207.127C363.893 206.847 365.259 205.948 365.482 204.991C365.518 204.84 365.525 204.689 365.503 204.531C365.331 203.417 363.533 202.776 361.498 203.1C359.463 203.424 357.952 204.582 358.132 205.696C358.154 205.811 358.19 205.926 358.24 206.034C358.693 206.933 360.318 207.415 362.138 207.127Z" fill="#EF9F86"/>
<path d="M334.163 207.415C335.947 207.695 337.543 207.235 338.032 206.372C338.097 206.25 338.147 206.12 338.169 205.984C338.341 204.869 336.838 203.711 334.803 203.388C332.768 203.064 330.977 203.704 330.798 204.819C330.783 204.891 330.783 204.963 330.783 205.035C330.819 206.077 332.257 207.113 334.163 207.415Z" fill="#EF9F86"/>
</svg>
