<svg width="1085" height="449" viewBox="0 0 1085 449" fill="none" xmlns="http://www.w3.org/2000/svg">
<path d="M120.5 386.5C175.5 404 265.828 439.303 319 448.325H476C456.605 445.688 317 412.5 279.5 403.5C239.736 393.957 262.715 399 151.577 370.7C52.1689 345.388 26.0557 332.391 26.0557 324.063C26.0557 315.735 49.5908 309.073 92.0849 300.744C130.003 293.313 203.223 289.502 255.524 284.921C307.824 280.341 465.38 272.845 489.569 272.013C513.758 271.18 711.845 264.101 766.107 262.435C820.369 260.77 921.701 255.356 940.006 250.776C958.311 246.196 957.003 238.284 940.006 231.205C923.008 224.126 835.405 217.88 834.751 215.382C834.097 212.883 850.441 211.218 879.207 208.303C907.972 205.388 1056.73 208.491 1056.73 195.166C1056.73 181.841 965.502 176.24 965.502 170.826C965.502 165.413 1118.85 158.938 1077.67 158.938C1036.48 158.938 961.58 164.164 960.272 170.826C958.965 177.489 989.587 179.516 1009 183C1028.5 186.5 1050.35 189.752 1051 193.5C1051.65 197.248 1041.69 196.831 1020.77 199.33C999.853 201.828 933.468 202.057 909.279 202.89C885.09 203.722 827.56 204.139 823.637 214.132C819.715 224.126 861.555 226.208 885.09 228.29C908.626 230.372 941.313 237.451 941.967 241.199C942.621 244.946 933.468 245.779 924.316 247.445C915.163 249.11 856.325 251.609 839.981 252.858C823.637 254.107 748.455 254.94 674.581 257.438C600.707 259.937 398.043 264.517 262.715 273.262C127.388 282.006 7.75044 292 0.559188 321.565C-5.35974 345.899 41.1233 361.244 120.5 386.5Z" fill="#2A2D34"/>
<path d="M224 66.3774C224 58.9893 229.989 53 237.377 53H339.326C346.714 53 352.704 58.9893 352.704 66.3774V125.649C352.704 129.27 351.253 132.702 348.563 135.06C346.144 137.181 342.255 138.31 337.265 139.236C335.528 139.558 333.656 139.855 331.696 140.167C328.153 140.729 324.321 141.338 320.472 142.222C308.794 144.903 296.357 150.221 288.289 164.986C279.042 150.233 266.641 144.911 255.257 142.223C251.54 141.346 247.868 140.738 244.483 140.178C242.576 139.863 240.76 139.562 239.078 139.237C234.303 138.314 230.566 137.187 228.141 135.06C225.451 132.702 224 129.27 224 125.649V66.3774Z" fill="#3D3E3C" stroke="#3D3E3C" stroke-width="2"/>
<rect x="287" y="156" width="3" height="119" fill="#3D3E3C"/>
<ellipse cx="288.352" cy="276.921" rx="11.7633" ry="3.92111" fill="#3D3E3C"/>
<path d="M52 44.3774C52 36.9893 57.9893 31 65.3774 31H167.326C174.714 31 180.704 36.9893 180.704 44.3774V103.649C180.704 107.27 179.253 110.702 176.563 113.06C174.144 115.181 170.255 116.31 165.265 117.236C163.528 117.558 161.656 117.855 159.696 118.167C156.153 118.729 152.321 119.338 148.472 120.222C136.794 122.903 124.357 128.221 116.289 142.986C107.042 128.233 94.6414 122.911 83.2572 120.223C79.5399 119.346 75.8678 118.738 72.4828 118.178C70.5758 117.863 68.76 117.562 67.0784 117.237C62.3028 116.314 58.566 115.187 56.1406 113.06C53.4509 110.702 52 107.27 52 103.649V44.3774Z" fill="#5E8F2C" stroke="#5E8F2C" stroke-width="2"/>
<rect x="115" y="142" width="3" height="145" fill="#5E8F2C"/>
<ellipse cx="116.352" cy="288.921" rx="11.7633" ry="3.92111" fill="#5E8F2C"/>
<path d="M255.943 303H264.239V300.989H259.352V300.909L261.051 299.244C263.443 297.062 264.085 295.972 264.085 294.648C264.085 292.631 262.438 291.205 259.943 291.205C257.5 291.205 255.824 292.665 255.83 294.949H258.165C258.159 293.835 258.864 293.153 259.926 293.153C260.949 293.153 261.71 293.79 261.71 294.812C261.71 295.739 261.142 296.375 260.085 297.392L255.943 301.227V303ZM270.584 303.256C273.51 303.256 275.277 301.028 275.283 297.193C275.288 293.386 273.499 291.205 270.584 291.205C267.663 291.205 265.891 293.381 265.885 297.193C265.874 301.017 267.652 303.25 270.584 303.256ZM270.584 301.216C269.249 301.216 268.385 299.875 268.391 297.193C268.396 294.551 269.254 293.222 270.584 293.222C271.908 293.222 272.771 294.551 272.771 297.193C272.777 299.875 271.913 301.216 270.584 301.216ZM277.037 303H285.332V300.989H280.446V300.909L282.145 299.244C284.537 297.062 285.179 295.972 285.179 294.648C285.179 292.631 283.531 291.205 281.037 291.205C278.594 291.205 276.918 292.665 276.923 294.949H279.259C279.253 293.835 279.957 293.153 281.02 293.153C282.043 293.153 282.804 293.79 282.804 294.812C282.804 295.739 282.236 296.375 281.179 297.392L277.037 301.227V303ZM292.178 291.364H289.865L286.984 293.188V295.369L289.649 293.699H289.717V303H292.178V291.364ZM295.771 303.148C296.499 303.148 297.129 302.54 297.135 301.784C297.129 301.04 296.499 300.432 295.771 300.432C295.021 300.432 294.402 301.04 294.408 301.784C294.402 302.54 295.021 303.148 295.771 303.148ZM303.178 303.256C306.104 303.256 307.871 301.028 307.876 297.193C307.882 293.386 306.092 291.205 303.178 291.205C300.257 291.205 298.484 293.381 298.479 297.193C298.467 301.017 300.246 303.25 303.178 303.256ZM303.178 301.216C301.842 301.216 300.979 299.875 300.984 297.193C300.99 294.551 301.848 293.222 303.178 293.222C304.501 293.222 305.365 294.551 305.365 297.193C305.371 299.875 304.507 301.216 303.178 301.216ZM314.097 303.159C316.688 303.17 318.455 301.472 318.449 299.102C318.455 296.92 316.932 295.347 314.869 295.347C313.591 295.347 312.46 295.96 311.938 296.989H311.858C311.869 294.722 312.665 293.312 314.182 293.312C315.074 293.312 315.716 293.801 315.903 294.614H318.33C318.097 292.699 316.506 291.205 314.182 291.205C311.307 291.205 309.46 293.534 309.449 297.443C309.443 301.705 311.705 303.148 314.097 303.159ZM314.085 301.227C312.949 301.227 312.108 300.312 312.108 299.176C312.114 298.045 312.972 297.125 314.102 297.125C315.239 297.125 316.068 298.017 316.062 299.17C316.068 300.335 315.222 301.227 314.085 301.227Z" fill="white"/>
<path d="M137.943 295H146.239V292.989H141.352V292.909L143.051 291.244C145.443 289.062 146.085 287.972 146.085 286.648C146.085 284.631 144.438 283.205 141.943 283.205C139.5 283.205 137.824 284.665 137.83 286.949H140.165C140.159 285.835 140.864 285.153 141.926 285.153C142.949 285.153 143.71 285.79 143.71 286.812C143.71 287.739 143.142 288.375 142.085 289.392L137.943 293.227V295ZM152.584 295.256C155.51 295.256 157.277 293.028 157.283 289.193C157.288 285.386 155.499 283.205 152.584 283.205C149.663 283.205 147.891 285.381 147.885 289.193C147.874 293.017 149.652 295.25 152.584 295.256ZM152.584 293.216C151.249 293.216 150.385 291.875 150.391 289.193C150.396 286.551 151.254 285.222 152.584 285.222C153.908 285.222 154.771 286.551 154.771 289.193C154.777 291.875 153.913 293.216 152.584 293.216ZM159.037 295H167.332V292.989H162.446V292.909L164.145 291.244C166.537 289.062 167.179 287.972 167.179 286.648C167.179 284.631 165.531 283.205 163.037 283.205C160.594 283.205 158.918 284.665 158.923 286.949H161.259C161.253 285.835 161.957 285.153 163.02 285.153C164.043 285.153 164.804 285.79 164.804 286.812C164.804 287.739 164.236 288.375 163.179 289.392L159.037 293.227V295ZM174.178 283.364H171.865L168.984 285.188V287.369L171.649 285.699H171.717V295H174.178V283.364ZM177.771 295.148C178.499 295.148 179.129 294.54 179.135 293.784C179.129 293.04 178.499 292.432 177.771 292.432C177.021 292.432 176.402 293.04 176.408 293.784C176.402 294.54 177.021 295.148 177.771 295.148ZM185.178 295.256C188.104 295.256 189.871 293.028 189.876 289.193C189.882 285.386 188.092 283.205 185.178 283.205C182.257 283.205 180.484 285.381 180.479 289.193C180.467 293.017 182.246 295.25 185.178 295.256ZM185.178 293.216C183.842 293.216 182.979 291.875 182.984 289.193C182.99 286.551 183.848 285.222 185.178 285.222C186.501 285.222 187.365 286.551 187.365 289.193C187.371 291.875 186.507 293.216 185.178 293.216ZM195.881 295.159C198.472 295.159 200.233 293.472 200.227 291.119C200.233 288.892 198.676 287.29 196.58 287.29C195.557 287.29 194.676 287.716 194.267 288.29H194.199L194.5 285.375H199.585V283.364H192.472L191.92 289.5L194.108 289.892C194.466 289.409 195.159 289.108 195.847 289.108C197.017 289.114 197.858 289.96 197.858 291.182C197.858 292.392 197.034 293.227 195.881 293.227C194.903 293.227 194.114 292.614 194.057 291.71H191.67C191.716 293.722 193.472 295.159 195.881 295.159Z" fill="white"/>
<path d="M234.168 86H236.628V82.2273H238.696C241.372 82.2273 242.929 80.6307 242.929 78.3068C242.929 75.9943 241.401 74.3636 238.759 74.3636H234.168V86ZM236.628 80.2557V76.375H238.287C239.707 76.375 240.395 77.1477 240.395 78.3068C240.395 79.4602 239.707 80.2557 238.298 80.2557H236.628ZM244.527 86H252.391V83.9716H246.987V81.1932H251.964V79.1648H246.987V76.392H252.368V74.3636H244.527V86ZM253.881 76.392H257.443V86H259.875V76.392H263.438V74.3636H253.881V76.392ZM278.447 74.3636H275.999V81.6818H275.896L270.874 74.3636H268.714V86H271.175V78.6761H271.26L276.322 86H278.447V74.3636ZM280.48 86H282.94V81.1932H287.673V79.1648H282.94V76.392H288.185V74.3636H280.48V86ZM289.396 76.392H292.959V86H295.391V76.392H298.953V74.3636H289.396V76.392ZM314.497 78.4375C314.173 75.75 312.139 74.2045 309.446 74.2045C306.372 74.2045 304.026 76.375 304.026 80.1818C304.026 83.9773 306.332 86.1591 309.446 86.1591C312.429 86.1591 314.23 84.1761 314.497 82.0341L312.009 82.0227C311.776 83.267 310.798 83.983 309.486 83.983C307.719 83.983 306.52 82.6705 306.52 80.1818C306.52 77.7614 307.702 76.3807 309.503 76.3807C310.849 76.3807 311.821 77.1591 312.009 78.4375H314.497ZM318.705 86.1648C319.994 86.1648 320.83 85.6023 321.256 84.7898H321.324V86H323.619V80.1136C323.619 78.0341 321.858 77.1591 319.915 77.1591C317.824 77.1591 316.449 78.1591 316.114 79.75L318.352 79.9318C318.517 79.3523 319.034 78.9261 319.903 78.9261C320.727 78.9261 321.199 79.3409 321.199 80.0568V80.0909C321.199 80.6534 320.602 80.7273 319.085 80.875C317.358 81.0341 315.807 81.6136 315.807 83.5625C315.807 85.2898 317.04 86.1648 318.705 86.1648ZM319.398 84.4943C318.653 84.4943 318.119 84.1477 318.119 83.483C318.119 82.8011 318.682 82.4659 319.534 82.3466C320.062 82.2727 320.926 82.1477 321.216 81.9545V82.8807C321.216 83.7955 320.46 84.4943 319.398 84.4943ZM325.497 86H327.918V81.0625C327.918 79.9886 328.702 79.25 329.77 79.25C330.105 79.25 330.565 79.3068 330.793 79.3807V77.233C330.577 77.1818 330.276 77.1477 330.031 77.1477C329.054 77.1477 328.253 77.7159 327.935 78.7955H327.844V77.2727H325.497V86ZM334.854 86.142C336.263 86.142 336.996 85.3295 337.331 84.6023H337.433V86H339.82V74.3636H337.405V78.7386H337.331C337.007 78.0284 336.308 77.1591 334.848 77.1591C332.933 77.1591 331.314 78.6477 331.314 81.6477C331.314 84.5682 332.865 86.142 334.854 86.142ZM335.621 84.2159C334.433 84.2159 333.786 83.1591 333.786 81.6364C333.786 80.125 334.422 79.0852 335.621 79.0852C336.797 79.0852 337.456 80.0795 337.456 81.6364C337.456 83.1932 336.786 84.2159 335.621 84.2159ZM281.748 98.3636H279.435L276.555 100.188V102.369L279.219 100.699H279.288V110H281.748V98.3636ZM285.342 110.148C286.069 110.148 286.7 109.54 286.705 108.784C286.7 108.04 286.069 107.432 285.342 107.432C284.592 107.432 283.972 108.04 283.978 108.784C283.972 109.54 284.592 110.148 285.342 110.148ZM292.748 110.256C295.674 110.256 297.441 108.028 297.447 104.193C297.452 100.386 295.663 98.2045 292.748 98.2045C289.827 98.2045 288.055 100.381 288.049 104.193C288.038 108.017 289.816 110.25 292.748 110.256ZM292.748 108.216C291.413 108.216 290.549 106.875 290.555 104.193C290.56 101.551 291.418 100.222 292.748 100.222C294.072 100.222 294.935 101.551 294.935 104.193C294.941 106.875 294.077 108.216 292.748 108.216ZM255.013 120.364H253.673V132H255.013V120.364ZM260.038 132.205C261.56 132.205 262.356 131.386 262.629 130.818H262.697V132H264.038V126.25C264.038 123.477 261.924 123.159 260.81 123.159C259.492 123.159 257.992 123.614 257.31 125.205L258.583 125.659C258.879 125.023 259.577 124.341 260.856 124.341C262.089 124.341 262.697 124.994 262.697 126.114V126.159C262.697 126.807 262.038 126.75 260.447 126.955C258.827 127.165 257.06 127.523 257.06 129.523C257.06 131.227 258.379 132.205 260.038 132.205ZM260.242 131C259.174 131 258.401 130.523 258.401 129.591C258.401 128.568 259.333 128.25 260.379 128.114C260.947 128.045 262.469 127.886 262.697 127.614V128.841C262.697 129.932 261.833 131 260.242 131ZM271.985 128.432C271.985 130.068 270.735 130.818 269.735 130.818C268.621 130.818 267.826 130 267.826 128.727V123.273H266.485V128.818C266.485 131.045 267.667 132.114 269.303 132.114C270.621 132.114 271.485 131.409 271.894 130.523H271.985V132H273.326V123.273H271.985V128.432ZM277.123 126.75C277.123 125.227 278.066 124.364 279.35 124.364C280.594 124.364 281.35 125.176 281.35 126.545V132H282.691V126.455C282.691 124.227 281.504 123.159 279.737 123.159C278.418 123.159 277.6 123.75 277.191 124.636H277.077V123.273H275.782V132H277.123V126.75ZM288.687 132.182C290.619 132.182 291.891 131 292.119 129.455H290.778C290.528 130.409 289.732 130.977 288.687 130.977C287.096 130.977 286.073 129.659 286.073 127.636C286.073 125.659 287.119 124.364 288.687 124.364C289.869 124.364 290.573 125.091 290.778 125.886H292.119C291.891 124.25 290.505 123.159 288.664 123.159C286.3 123.159 284.732 125.023 284.732 127.682C284.732 130.295 286.232 132.182 288.687 132.182ZM295.42 126.75C295.42 125.227 296.391 124.364 297.715 124.364C298.977 124.364 299.738 125.159 299.738 126.545V132H301.079V126.455C301.079 124.21 299.886 123.159 298.102 123.159C296.727 123.159 295.942 123.733 295.533 124.636H295.42V120.364H294.079V132H295.42V126.75ZM307.191 132.182C308.964 132.182 310.259 131.295 310.668 129.977L309.373 129.614C309.032 130.523 308.242 130.977 307.191 130.977C305.617 130.977 304.532 129.96 304.469 128.091H310.805V127.523C310.805 124.273 308.873 123.159 307.055 123.159C304.691 123.159 303.123 125.023 303.123 127.705C303.123 130.386 304.668 132.182 307.191 132.182ZM304.469 126.932C304.56 125.574 305.521 124.364 307.055 124.364C308.509 124.364 309.441 125.455 309.441 126.932H304.469ZM316.14 132.182C317.822 132.182 318.39 131.136 318.685 130.659H318.844V132H320.14V120.364H318.799V124.659H318.685C318.39 124.205 317.867 123.159 316.163 123.159C313.958 123.159 312.435 124.909 312.435 127.659C312.435 130.432 313.958 132.182 316.14 132.182ZM316.322 130.977C314.64 130.977 313.776 129.5 313.776 127.636C313.776 125.795 314.617 124.364 316.322 124.364C317.958 124.364 318.822 125.682 318.822 127.636C318.822 129.614 317.935 130.977 316.322 130.977Z" fill="white"/>
<path d="M73.106 58.1911H77.1138V69H79.8496V58.1911H83.8574V55.9091H73.106V58.1911ZM97.0778 62.4545C97.0778 58.1719 94.4187 55.7301 90.9478 55.7301C87.4577 55.7301 84.8178 58.1719 84.8178 62.4545C84.8178 66.718 87.4577 69.179 90.9478 69.179C94.4187 69.179 97.0778 66.7372 97.0778 62.4545ZM94.2717 62.4545C94.2717 65.2287 92.9549 66.7308 90.9478 66.7308C88.9343 66.7308 87.6239 65.2287 87.6239 62.4545C87.6239 59.6804 88.9343 58.1783 90.9478 58.1783C92.9549 58.1783 94.2717 59.6804 94.2717 62.4545ZM111.158 62.4545C111.158 58.1719 108.499 55.7301 105.028 55.7301C101.538 55.7301 98.8979 58.1719 98.8979 62.4545C98.8979 66.718 101.538 69.179 105.028 69.179C108.499 69.179 111.158 66.7372 111.158 62.4545ZM108.352 62.4545C108.352 65.2287 107.035 66.7308 105.028 66.7308C103.014 66.7308 101.704 65.2287 101.704 62.4545C101.704 59.6804 103.014 58.1783 105.028 58.1783C107.035 58.1783 108.352 59.6804 108.352 62.4545ZM113.208 69H121.588V66.718H115.976V55.9091H113.208V69ZM123.421 69H129.014C131.954 69 133.52 67.4659 133.52 65.3821C133.52 63.4453 132.133 62.2756 130.644 62.2053V62.0774C132.006 61.7706 133.009 60.8054 133.009 59.2649C133.009 57.3026 131.552 55.9091 128.662 55.9091H123.421V69ZM126.189 66.7372V63.2599H128.509C129.839 63.2599 130.663 64.027 130.663 65.1072C130.663 66.0916 129.992 66.7372 128.445 66.7372H126.189ZM126.189 61.3871V58.1463H128.292C129.519 58.1463 130.216 58.7791 130.216 59.7251C130.216 60.7607 129.372 61.3871 128.241 61.3871H126.189ZM147.351 62.4545C147.351 58.1719 144.692 55.7301 141.221 55.7301C137.731 55.7301 135.091 58.1719 135.091 62.4545C135.091 66.718 137.731 69.179 141.221 69.179C144.692 69.179 147.351 66.7372 147.351 62.4545ZM144.545 62.4545C144.545 65.2287 143.228 66.7308 141.221 66.7308C139.208 66.7308 137.897 65.2287 137.897 62.4545C137.897 59.6804 139.208 58.1783 141.221 58.1783C143.228 58.1783 144.545 59.6804 144.545 62.4545ZM151.399 55.9091H148.26L152.281 62.4545L148.184 69H151.354L154.039 64.532H154.141L156.826 69H160.009L155.925 62.4545L159.92 55.9091H156.794L154.141 60.3707H154.039L151.399 55.9091Z" fill="white"/>
<path d="M83.5582 82.3636H81.1378V94H83.5582V82.3636ZM87.9858 94.1648C89.2756 94.1648 90.1108 93.6023 90.5369 92.7898H90.6051V94H92.9006V88.1136C92.9006 86.0341 91.1392 85.1591 89.196 85.1591C87.1051 85.1591 85.7301 86.1591 85.3949 87.75L87.6335 87.9318C87.7983 87.3523 88.3153 86.9261 89.1847 86.9261C90.0085 86.9261 90.4801 87.3409 90.4801 88.0568V88.0909C90.4801 88.6534 89.8835 88.7273 88.3665 88.875C86.6392 89.0341 85.0881 89.6136 85.0881 91.5625C85.0881 93.2898 86.321 94.1648 87.9858 94.1648ZM88.679 92.4943C87.9347 92.4943 87.4006 92.1477 87.4006 91.483C87.4006 90.8011 87.9631 90.4659 88.8153 90.3466C89.3438 90.2727 90.2074 90.1477 90.4972 89.9545V90.8807C90.4972 91.7955 89.7415 92.4943 88.679 92.4943ZM100.375 90.2841C100.381 91.4545 99.5795 92.0682 98.7102 92.0682C97.7955 92.0682 97.2045 91.4261 97.1989 90.3977V85.2727H94.7784V90.8295C94.7841 92.8693 95.9773 94.1136 97.733 94.1136C99.0455 94.1136 99.9886 93.4375 100.381 92.4148H100.472V94H102.795V85.2727H100.375V90.2841ZM107.152 88.9545C107.158 87.8295 107.828 87.1705 108.805 87.1705C109.777 87.1705 110.362 87.8068 110.357 88.875V94H112.777V88.4432C112.777 86.4091 111.584 85.1591 109.766 85.1591C108.47 85.1591 107.533 85.7955 107.141 86.8125H107.038V85.2727H104.732V94H107.152V88.9545ZM118.628 94.1705C120.952 94.1705 122.412 92.8068 122.526 90.8011H120.241C120.099 91.733 119.486 92.2557 118.656 92.2557C117.526 92.2557 116.793 91.3068 116.793 89.6364C116.793 87.9886 117.531 87.0455 118.656 87.0455C119.543 87.0455 120.111 87.6307 120.241 88.5H122.526C122.423 86.483 120.895 85.1591 118.616 85.1591C115.969 85.1591 114.332 86.9943 114.332 89.6705C114.332 92.3239 115.94 94.1705 118.628 94.1705ZM126.496 88.9545C126.501 87.8295 127.189 87.1705 128.178 87.1705C129.161 87.1705 129.74 87.8011 129.734 88.875V94H132.155V88.4432C132.161 86.3977 130.956 85.1591 129.138 85.1591C127.814 85.1591 126.928 85.7841 126.53 86.8125H126.428V82.3636H124.075V94H126.496V88.9545ZM138.037 94.1705C140.196 94.1705 141.651 93.1193 141.991 91.5L139.753 91.3523C139.509 92.017 138.884 92.3636 138.077 92.3636C136.866 92.3636 136.099 91.5625 136.099 90.2614V90.2557H142.043V89.5909C142.043 86.625 140.247 85.1591 137.94 85.1591C135.372 85.1591 133.707 86.983 133.707 89.6761C133.707 92.4432 135.349 94.1705 138.037 94.1705ZM136.099 88.7557C136.151 87.7614 136.906 86.9659 137.98 86.9659C139.031 86.9659 139.759 87.7159 139.764 88.7557H136.099ZM146.838 94.142C148.247 94.142 148.98 93.3295 149.315 92.6023H149.418V94H151.804V82.3636H149.389V86.7386H149.315C148.991 86.0284 148.293 85.1591 146.832 85.1591C144.918 85.1591 143.298 86.6477 143.298 89.6477C143.298 92.5682 144.849 94.142 146.838 94.142ZM147.605 92.2159C146.418 92.2159 145.77 91.1591 145.77 89.6364C145.77 88.125 146.406 87.0852 147.605 87.0852C148.781 87.0852 149.44 88.0795 149.44 89.6364C149.44 91.1932 148.77 92.2159 147.605 92.2159Z" fill="white"/>
<path d="M492 88.3774C492 80.9893 497.989 75 505.377 75H607.326C614.714 75 620.704 80.9893 620.704 88.3774V180.979C620.704 184.6 619.253 188.031 616.563 190.39C614.144 192.511 610.255 193.64 605.265 194.565C603.528 194.887 601.656 195.184 599.696 195.496C596.153 196.059 592.321 196.668 588.472 197.551C576.794 200.233 564.357 205.551 556.289 220.316C547.042 205.563 534.641 200.24 523.257 197.553C519.54 196.675 515.868 196.068 512.483 195.508C510.576 195.192 508.76 194.892 507.078 194.566C502.303 193.643 498.566 192.516 496.141 190.39C493.451 188.031 492 184.6 492 180.979V88.3774Z" fill="#F3997B" stroke="#F3997B" stroke-width="2"/>
<rect x="555.045" y="218.427" width="2.61407" height="44.4392" fill="#F3997B"/>
<ellipse cx="556.352" cy="264.174" rx="11.7633" ry="3.92111" fill="#F3997B"/>
<path d="M371 30.3774C371 22.9893 376.989 17 384.377 17H486.326C493.714 17 499.704 22.9893 499.704 30.3774V111.215C499.704 114.836 498.253 118.268 495.563 120.626C493.144 122.747 489.255 123.876 484.265 124.802C482.528 125.124 480.656 125.421 478.696 125.733C475.153 126.296 471.321 126.904 467.472 127.788C455.794 130.469 443.357 135.787 435.289 150.552C426.042 135.8 413.641 130.477 402.257 127.789C398.54 126.912 394.868 126.304 391.483 125.744C389.576 125.429 387.76 125.128 386.078 124.803C381.303 123.88 377.566 122.753 375.141 120.626C372.451 118.268 371 114.836 371 111.215V30.3774Z" fill="#CEAA47" stroke="#CDAC4C" stroke-width="2"/>
<rect x="434" y="144" width="3" height="124" fill="#CDAC4C"/>
<ellipse cx="435.352" cy="269.202" rx="11.7633" ry="3.92111" fill="#CDAC4C"/>
<path d="M401.943 299H410.239V296.989H405.352V296.909L407.051 295.244C409.443 293.062 410.085 291.972 410.085 290.648C410.085 288.631 408.438 287.205 405.943 287.205C403.5 287.205 401.824 288.665 401.83 290.949H404.165C404.159 289.835 404.864 289.153 405.926 289.153C406.949 289.153 407.71 289.79 407.71 290.812C407.71 291.739 407.142 292.375 406.085 293.392L401.943 297.227V299ZM416.584 299.256C419.51 299.256 421.277 297.028 421.283 293.193C421.288 289.386 419.499 287.205 416.584 287.205C413.663 287.205 411.891 289.381 411.885 293.193C411.874 297.017 413.652 299.25 416.584 299.256ZM416.584 297.216C415.249 297.216 414.385 295.875 414.391 293.193C414.396 290.551 415.254 289.222 416.584 289.222C417.908 289.222 418.771 290.551 418.771 293.193C418.777 295.875 417.913 297.216 416.584 297.216ZM423.037 299H431.332V296.989H426.446V296.909L428.145 295.244C430.537 293.062 431.179 291.972 431.179 290.648C431.179 288.631 429.531 287.205 427.037 287.205C424.594 287.205 422.918 288.665 422.923 290.949H425.259C425.253 289.835 425.957 289.153 427.02 289.153C428.043 289.153 428.804 289.79 428.804 290.812C428.804 291.739 428.236 292.375 427.179 293.392L423.037 297.227V299ZM438.178 287.364H435.865L432.984 289.188V291.369L435.649 289.699H435.717V299H438.178V287.364ZM441.771 299.148C442.499 299.148 443.129 298.54 443.135 297.784C443.129 297.04 442.499 296.432 441.771 296.432C441.021 296.432 440.402 297.04 440.408 297.784C440.402 298.54 441.021 299.148 441.771 299.148ZM455.861 293.182C455.861 289.375 453.497 287.205 450.412 287.205C447.31 287.205 444.963 289.375 444.963 293.182C444.963 296.972 447.31 299.159 450.412 299.159C451.139 299.159 451.827 299.04 452.452 298.801L453.389 299.955H455.685L454.02 297.864C455.156 296.847 455.861 295.256 455.861 293.182ZM449.56 294.955L451.048 296.92C450.849 296.96 450.634 296.983 450.412 296.983C448.622 296.983 447.457 295.648 447.457 293.182C447.457 290.716 448.622 289.381 450.412 289.381C452.196 289.381 453.366 290.716 453.366 293.182C453.366 294.449 453.054 295.42 452.514 296.062L451.651 294.955H449.56ZM461.916 299.159C464.53 299.159 466.399 297.722 466.393 295.733C466.399 294.284 465.479 293.25 463.768 293.034V292.943C465.07 292.71 465.967 291.79 465.962 290.483C465.967 288.648 464.359 287.205 461.95 287.205C459.564 287.205 457.768 288.602 457.734 290.614H460.092C460.121 289.727 460.933 289.153 461.939 289.153C462.933 289.153 463.598 289.756 463.592 290.631C463.598 291.545 462.82 292.165 461.7 292.165H460.615V293.972H461.7C463.018 293.972 463.842 294.631 463.837 295.568C463.842 296.494 463.047 297.131 461.922 297.131C460.837 297.131 460.024 296.562 459.979 295.71H457.501C457.541 297.744 459.359 299.159 461.916 299.159Z" fill="white"/>
<path d="M389.512 67H392.28V62.7557H394.606C397.617 62.7557 399.368 60.9595 399.368 58.3452C399.368 55.7436 397.649 53.9091 394.677 53.9091H389.512V67ZM392.28 60.5376V56.1719H394.146C395.744 56.1719 396.517 57.0412 396.517 58.3452C396.517 59.6428 395.744 60.5376 394.159 60.5376H392.28ZM401.166 67H410.013V64.718H403.934V61.5923H409.533V59.3104H403.934V56.1911H409.987V53.9091H401.166V67ZM411.689 56.1911H415.697V67H418.433V56.1911H422.44V53.9091H411.689V56.1911ZM431.324 67H434.021L436.508 58.4411H436.61L439.103 67H441.8L445.546 53.9091H442.523L440.356 63.0241H440.241L437.856 53.9091H435.268L432.877 63.005H432.768L430.601 53.9091H427.578L431.324 67ZM447.948 67L448.919 64.0149H453.643L454.615 67H457.581L453.068 53.9091H449.501L444.982 67H447.948ZM449.623 61.8544L451.233 56.9006H451.336L452.946 61.8544H449.623ZM459.156 67H461.924V62.3594H463.944L466.424 67H469.479L466.699 61.9119C468.188 61.2727 469.013 59.9751 469.013 58.1854C469.013 55.5838 467.293 53.9091 464.321 53.9091H459.156V67ZM461.924 60.1349V56.1719H463.791C465.389 56.1719 466.162 56.8814 466.162 58.1854C466.162 59.483 465.389 60.1349 463.803 60.1349H461.924ZM478.07 57.674H480.723C480.685 55.3409 478.767 53.7301 475.852 53.7301C472.982 53.7301 470.879 55.3153 470.892 57.6932C470.886 59.6236 472.247 60.7294 474.459 61.2599L475.884 61.6179C477.31 61.9631 478.102 62.3722 478.109 63.2543C478.102 64.2131 477.195 64.8651 475.788 64.8651C474.35 64.8651 473.315 64.2003 473.225 62.8899H470.547C470.617 65.7216 472.644 67.1854 475.82 67.1854C479.016 67.1854 480.896 65.6577 480.902 63.2607C480.896 61.081 479.253 59.924 476.977 59.4126L475.801 59.1314C474.663 58.8693 473.711 58.4474 473.73 57.5078C473.73 56.6641 474.478 56.044 475.833 56.044C477.156 56.044 477.968 56.6449 478.07 57.674Z" fill="white"/>
<path d="M398.663 81.9091H396.752V95H398.663V81.9091ZM404.091 95.2173C405.715 95.2173 406.629 94.3928 406.993 93.6577H407.07V95H408.936V88.4801C408.936 85.6229 406.686 85.054 405.127 85.054C403.35 85.054 401.713 85.7699 401.074 87.5597L402.87 87.9688C403.152 87.272 403.868 86.6009 405.152 86.6009C406.386 86.6009 407.019 87.2464 407.019 88.3587V88.4034C407.019 89.1001 406.303 89.0874 404.539 89.2919C402.679 89.5092 400.774 89.995 400.774 92.2259C400.774 94.1562 402.225 95.2173 404.091 95.2173ZM404.507 93.6832C403.426 93.6832 402.647 93.1974 402.647 92.2514C402.647 91.2287 403.554 90.8643 404.66 90.7173C405.28 90.6342 406.75 90.468 407.025 90.1932V91.4588C407.025 92.6222 406.098 93.6832 404.507 93.6832ZM417.702 90.9283C417.708 92.5966 416.468 93.3892 415.394 93.3892C414.211 93.3892 413.393 92.5327 413.393 91.1967V85.1818H411.482V91.4268C411.482 93.8622 412.818 95.1278 414.704 95.1278C416.18 95.1278 417.184 94.348 417.638 93.2997H417.74V95H419.619V85.1818H417.702V90.9283ZM424.098 89.1705C424.098 87.6044 425.057 86.7095 426.387 86.7095C427.684 86.7095 428.471 87.5597 428.471 88.9851V95H430.382V88.755C430.382 86.326 429.046 85.054 427.039 85.054C425.562 85.054 424.597 85.7379 424.143 86.7798H424.022V85.1818H422.187V95H424.098V89.1705ZM437.081 95.1982C439.401 95.1982 440.903 93.8047 441.114 91.8935H439.254C439.011 92.9545 438.186 93.581 437.093 93.581C435.476 93.581 434.434 92.2322 434.434 90.0909C434.434 87.9879 435.495 86.6648 437.093 86.6648C438.308 86.6648 439.049 87.4318 439.254 88.3523H441.114C440.909 86.3707 439.292 85.054 437.061 85.054C434.294 85.054 432.504 87.1378 432.504 90.1357C432.504 93.0952 434.23 95.1982 437.081 95.1982ZM445.069 89.1705C445.069 87.6044 446.06 86.7095 447.421 86.7095C448.738 86.7095 449.524 87.5469 449.524 88.9851V95H451.436V88.755C451.436 86.3068 450.093 85.054 448.073 85.054C446.546 85.054 445.625 85.7188 445.165 86.7798H445.044V81.9091H443.158V95H445.069V89.1705ZM458.218 95.1982C460.359 95.1982 461.874 94.1435 462.308 92.5455L460.499 92.2195C460.154 93.1463 459.323 93.6193 458.237 93.6193C456.6 93.6193 455.501 92.5582 455.45 90.6662H462.43V89.9886C462.43 86.4411 460.308 85.054 458.083 85.054C455.347 85.054 453.545 87.1378 453.545 90.1548C453.545 93.2038 455.322 95.1982 458.218 95.1982ZM455.456 89.2344C455.533 87.8409 456.543 86.6328 458.096 86.6328C459.579 86.6328 460.551 87.7322 460.557 89.2344H455.456ZM468.226 95.1918C470.016 95.1918 470.719 94.0987 471.064 93.4723H471.224V95H473.09V81.9091H471.179V86.7734H471.064C470.719 86.1662 470.067 85.054 468.239 85.054C465.867 85.054 464.122 86.9268 464.122 90.1101C464.122 93.2869 465.842 95.1918 468.226 95.1918ZM468.648 93.5618C466.941 93.5618 466.053 92.0597 466.053 90.0909C466.053 88.1413 466.922 86.6776 468.648 86.6776C470.316 86.6776 471.211 88.0391 471.211 90.0909C471.211 92.1555 470.297 93.5618 468.648 93.5618Z" fill="white"/>
<path d="M522.943 291H531.239V288.989H526.352V288.909L528.051 287.244C530.443 285.062 531.085 283.972 531.085 282.648C531.085 280.631 529.438 279.205 526.943 279.205C524.5 279.205 522.824 280.665 522.83 282.949H525.165C525.159 281.835 525.864 281.153 526.926 281.153C527.949 281.153 528.71 281.79 528.71 282.812C528.71 283.739 528.142 284.375 527.085 285.392L522.943 289.227V291ZM537.584 291.256C540.51 291.256 542.277 289.028 542.283 285.193C542.288 281.386 540.499 279.205 537.584 279.205C534.663 279.205 532.891 281.381 532.885 285.193C532.874 289.017 534.652 291.25 537.584 291.256ZM537.584 289.216C536.249 289.216 535.385 287.875 535.391 285.193C535.396 282.551 536.254 281.222 537.584 281.222C538.908 281.222 539.771 282.551 539.771 285.193C539.777 287.875 538.913 289.216 537.584 289.216ZM544.037 291H552.332V288.989H547.446V288.909L549.145 287.244C551.537 285.062 552.179 283.972 552.179 282.648C552.179 280.631 550.531 279.205 548.037 279.205C545.594 279.205 543.918 280.665 543.923 282.949H546.259C546.253 281.835 546.957 281.153 548.02 281.153C549.043 281.153 549.804 281.79 549.804 282.812C549.804 283.739 549.236 284.375 548.179 285.392L544.037 289.227V291ZM559.178 279.364H556.865L553.984 281.188V283.369L556.649 281.699H556.717V291H559.178V279.364ZM562.771 291.148C563.499 291.148 564.129 290.54 564.135 289.784C564.129 289.04 563.499 288.432 562.771 288.432C562.021 288.432 561.402 289.04 561.408 289.784C561.402 290.54 562.021 291.148 562.771 291.148ZM576.861 285.182C576.861 281.375 574.497 279.205 571.412 279.205C568.31 279.205 565.963 281.375 565.963 285.182C565.963 288.972 568.31 291.159 571.412 291.159C572.139 291.159 572.827 291.04 573.452 290.801L574.389 291.955H576.685L575.02 289.864C576.156 288.847 576.861 287.256 576.861 285.182ZM570.56 286.955L572.048 288.92C571.849 288.96 571.634 288.983 571.412 288.983C569.622 288.983 568.457 287.648 568.457 285.182C568.457 282.716 569.622 281.381 571.412 281.381C573.196 281.381 574.366 282.716 574.366 285.182C574.366 286.449 574.054 287.42 573.514 288.062L572.651 286.955H570.56ZM582.916 291.159C585.53 291.159 587.399 289.722 587.393 287.733C587.399 286.284 586.479 285.25 584.768 285.034V284.943C586.07 284.71 586.967 283.79 586.962 282.483C586.967 280.648 585.359 279.205 582.95 279.205C580.564 279.205 578.768 280.602 578.734 282.614H581.092C581.121 281.727 581.933 281.153 582.939 281.153C583.933 281.153 584.598 281.756 584.592 282.631C584.598 283.545 583.82 284.165 582.7 284.165H581.615V285.972H582.7C584.018 285.972 584.842 286.631 584.837 287.568C584.842 288.494 584.047 289.131 582.922 289.131C581.837 289.131 581.024 288.562 580.979 287.71H578.501C578.541 289.744 580.359 291.159 582.916 291.159Z" fill="white"/>
<path d="M38.9432 378H47.2386V375.989H42.3523V375.909L44.0511 374.244C46.4432 372.062 47.0852 370.972 47.0852 369.648C47.0852 367.631 45.4375 366.205 42.9432 366.205C40.5 366.205 38.8239 367.665 38.8295 369.949H41.1648C41.1591 368.835 41.8636 368.153 42.9261 368.153C43.9489 368.153 44.7102 368.79 44.7102 369.812C44.7102 370.739 44.142 371.375 43.0852 372.392L38.9432 376.227V378ZM53.5838 378.256C56.5099 378.256 58.277 376.028 58.2827 372.193C58.2884 368.386 56.4986 366.205 53.5838 366.205C50.6634 366.205 48.8906 368.381 48.8849 372.193C48.8736 376.017 50.652 378.25 53.5838 378.256ZM53.5838 376.216C52.2486 376.216 51.3849 374.875 51.3906 372.193C51.3963 369.551 52.2543 368.222 53.5838 368.222C54.9077 368.222 55.7713 369.551 55.7713 372.193C55.777 374.875 54.9134 376.216 53.5838 376.216ZM60.0369 378H68.3324V375.989H63.446V375.909L65.1449 374.244C67.5369 372.062 68.179 370.972 68.179 369.648C68.179 367.631 66.5312 366.205 64.0369 366.205C61.5938 366.205 59.9176 367.665 59.9233 369.949H62.2585C62.2528 368.835 62.9574 368.153 64.0199 368.153C65.0426 368.153 65.804 368.79 65.804 369.812C65.804 370.739 65.2358 371.375 64.179 372.392L60.0369 376.227V378ZM75.1776 366.364H72.8651L69.9844 368.188V370.369L72.6491 368.699H72.7173V378H75.1776V366.364ZM78.7713 378.148C79.4986 378.148 80.1293 377.54 80.1349 376.784C80.1293 376.04 79.4986 375.432 78.7713 375.432C78.0213 375.432 77.402 376.04 77.4077 376.784C77.402 377.54 78.0213 378.148 78.7713 378.148ZM86.1776 378.256C89.1037 378.256 90.8707 376.028 90.8764 372.193C90.8821 368.386 89.0923 366.205 86.1776 366.205C83.2571 366.205 81.4844 368.381 81.4787 372.193C81.4673 376.017 83.2457 378.25 86.1776 378.256ZM86.1776 376.216C84.8423 376.216 83.9787 374.875 83.9844 372.193C83.9901 369.551 84.848 368.222 86.1776 368.222C87.5014 368.222 88.3651 369.551 88.3651 372.193C88.3707 374.875 87.5071 376.216 86.1776 376.216ZM96.8807 378.159C99.4716 378.159 101.233 376.472 101.227 374.119C101.233 371.892 99.6761 370.29 97.5795 370.29C96.5568 370.29 95.6761 370.716 95.267 371.29H95.1989L95.5 368.375H100.585V366.364H93.4716L92.9205 372.5L95.108 372.892C95.4659 372.409 96.1591 372.108 96.8466 372.108C98.017 372.114 98.858 372.96 98.858 374.182C98.858 375.392 98.0341 376.227 96.8807 376.227C95.9034 376.227 95.1136 375.614 95.0568 374.71H92.6705C92.7159 376.722 94.4716 378.159 96.8807 378.159Z" fill="white"/>
<path d="M875 14.3774C875 6.98926 880.989 1 888.377 1H990.326C997.714 1 1003.7 6.98927 1003.7 14.3774V66.9787C1003.7 70.5996 1002.25 74.0313 999.563 76.3897C997.144 78.5106 993.255 79.6397 988.265 80.565C986.528 80.8871 984.656 81.1845 982.696 81.496C979.153 82.0589 975.321 82.6678 971.472 83.5514C959.794 86.2326 947.357 91.5505 939.289 106.316C930.042 91.5628 917.641 86.2401 906.257 83.5528C902.54 82.6753 898.868 82.0677 895.483 81.5075C893.576 81.192 891.76 80.8915 890.078 80.5664C885.303 79.643 881.566 78.5164 879.141 76.3897C876.451 74.0313 875 70.5996 875 66.9787V14.3774Z" fill="#BD5D15" stroke="#BD5D15" stroke-width="2"/>
<rect x="938" y="105" width="3" height="97" fill="#BD5D15"/>
<ellipse cx="939.352" cy="203.174" rx="11.7633" ry="3.92111" fill="#BD5D15"/>
<path d="M512.475 118H515.55V113.284H518.136C521.481 113.284 523.427 111.288 523.427 108.384C523.427 105.493 521.516 103.455 518.214 103.455H512.475V118ZM515.55 110.82V105.969H517.624C519.4 105.969 520.259 106.935 520.259 108.384C520.259 109.825 519.4 110.82 517.638 110.82H515.55ZM525.424 118H535.254V115.464H528.5V111.991H534.721V109.456H528.5V105.99H535.225V103.455H525.424V118ZM537.116 105.99H541.57V118H544.609V105.99H549.062V103.455H537.116V105.99ZM567.825 103.455H564.764V112.602H564.636L558.358 103.455H555.659V118H558.734V108.845H558.841L565.169 118H567.825V103.455ZM570.366 118H573.441V111.991H579.357V109.456H573.441V105.99H579.996V103.455H570.366V118ZM581.511 105.99H585.964V118H589.004V105.99H593.457V103.455H581.511V105.99ZM536.012 133H537.648C537.162 130.469 535.04 128.73 532.279 128.73C528.923 128.73 526.551 131.312 526.551 135.455C526.551 139.597 528.904 142.179 532.381 142.179C535.5 142.179 537.725 140.102 537.725 136.861V135.455H532.739V136.861H536.191C536.146 139.213 534.599 140.696 532.381 140.696C529.952 140.696 528.085 138.855 528.085 135.455C528.085 132.054 529.952 130.213 532.279 130.213C534.171 130.213 535.456 131.281 536.012 133ZM543.124 142.23C544.837 142.23 545.732 141.31 546.039 140.67H546.116V142H547.624V135.531C547.624 132.412 545.247 132.054 543.994 132.054C542.511 132.054 540.823 132.565 540.056 134.355L541.488 134.866C541.82 134.151 542.607 133.384 544.045 133.384C545.432 133.384 546.116 134.119 546.116 135.378V135.429C546.116 136.158 545.374 136.094 543.585 136.324C541.763 136.56 539.775 136.963 539.775 139.213C539.775 141.131 541.258 142.23 543.124 142.23ZM543.354 140.875C542.153 140.875 541.283 140.338 541.283 139.29C541.283 138.139 542.332 137.781 543.508 137.628C544.147 137.551 545.86 137.372 546.116 137.065V138.446C546.116 139.673 545.144 140.875 543.354 140.875ZM550.378 142H551.886V135.864C551.886 134.425 552.935 133.409 554.111 133.409C555.255 133.409 556.054 134.157 556.054 135.276V142H557.588V135.608C557.588 134.342 558.381 133.409 559.761 133.409C560.835 133.409 561.756 133.978 561.756 135.429V142H563.264V135.429C563.264 133.121 562.024 132.054 560.273 132.054C558.866 132.054 557.837 132.7 557.332 133.716H557.23C556.744 132.668 555.888 132.054 554.597 132.054C553.318 132.054 552.372 132.668 551.963 133.716H551.835V132.182H550.378V142ZM570.139 142.205C572.133 142.205 573.59 141.207 574.051 139.724L572.593 139.315C572.21 140.338 571.321 140.849 570.139 140.849C568.368 140.849 567.147 139.705 567.077 137.602H574.204V136.963C574.204 133.307 572.031 132.054 569.985 132.054C567.326 132.054 565.562 134.151 565.562 137.168C565.562 140.185 567.301 142.205 570.139 142.205ZM567.077 136.298C567.179 134.771 568.259 133.409 569.985 133.409C571.622 133.409 572.67 134.636 572.67 136.298H567.077ZM583.453 134.381C582.98 132.987 581.919 132.054 579.976 132.054C577.905 132.054 576.371 133.23 576.371 134.892C576.371 136.247 577.176 137.155 578.979 137.577L580.615 137.96C581.606 138.19 582.073 138.663 582.073 139.341C582.073 140.185 581.178 140.875 579.772 140.875C578.538 140.875 577.764 140.344 577.496 139.29L576.064 139.648C576.416 141.316 577.79 142.205 579.797 142.205C582.079 142.205 583.632 140.958 583.632 139.264C583.632 137.896 582.776 137.033 581.024 136.605L579.567 136.247C578.404 135.96 577.88 135.57 577.88 134.815C577.88 133.972 578.774 133.358 579.976 133.358C581.293 133.358 581.836 134.087 582.098 134.764L583.453 134.381ZM519.015 150.909H517.507V164H519.015V150.909ZM524.667 164.23C526.38 164.23 527.275 163.31 527.582 162.67H527.659V164H529.167V157.531C529.167 154.412 526.79 154.054 525.537 154.054C524.054 154.054 522.366 154.565 521.599 156.355L523.031 156.866C523.363 156.151 524.15 155.384 525.588 155.384C526.975 155.384 527.659 156.119 527.659 157.378V157.429C527.659 158.158 526.917 158.094 525.128 158.324C523.306 158.56 521.318 158.963 521.318 161.213C521.318 163.131 522.801 164.23 524.667 164.23ZM524.897 162.875C523.696 162.875 522.826 162.338 522.826 161.29C522.826 160.139 523.875 159.781 525.051 159.628C525.69 159.551 527.403 159.372 527.659 159.065V160.446C527.659 161.673 526.687 162.875 524.897 162.875ZM538.108 159.986C538.108 161.827 536.702 162.67 535.577 162.67C534.324 162.67 533.429 161.75 533.429 160.318V154.182H531.921V160.42C531.921 162.926 533.25 164.128 535.091 164.128C536.574 164.128 537.546 163.335 538.006 162.338H538.108V164H539.617V154.182H538.108V159.986ZM543.888 158.094C543.888 156.381 544.949 155.409 546.394 155.409C547.794 155.409 548.644 156.323 548.644 157.864V164H550.152V157.761C550.152 155.256 548.816 154.054 546.829 154.054C545.346 154.054 544.425 154.719 543.965 155.716H543.837V154.182H542.38V164H543.888V158.094ZM556.898 164.205C559.071 164.205 560.503 162.875 560.758 161.136H559.25C558.969 162.21 558.074 162.849 556.898 162.849C555.108 162.849 553.957 161.366 553.957 159.091C553.957 156.866 555.133 155.409 556.898 155.409C558.227 155.409 559.02 156.227 559.25 157.122H560.758C560.503 155.281 558.943 154.054 556.872 154.054C554.213 154.054 552.449 156.151 552.449 159.142C552.449 162.082 554.136 164.205 556.898 164.205ZM564.472 158.094C564.472 156.381 565.565 155.409 567.055 155.409C568.474 155.409 569.33 156.304 569.33 157.864V164H570.839V157.761C570.839 155.237 569.496 154.054 567.489 154.054C565.942 154.054 565.06 154.7 564.6 155.716H564.472V150.909H562.964V164H564.472V158.094ZM577.715 164.205C579.709 164.205 581.167 163.207 581.627 161.724L580.169 161.315C579.786 162.338 578.897 162.849 577.715 162.849C575.944 162.849 574.723 161.705 574.653 159.602H581.78V158.963C581.78 155.307 579.607 154.054 577.562 154.054C574.902 154.054 573.138 156.151 573.138 159.168C573.138 162.185 574.877 164.205 577.715 164.205ZM574.653 158.298C574.755 156.771 575.836 155.409 577.562 155.409C579.198 155.409 580.246 156.636 580.246 158.298H574.653ZM587.782 164.205C589.674 164.205 590.314 163.028 590.646 162.491H590.825V164H592.282V150.909H590.774V155.741H590.646C590.314 155.23 589.726 154.054 587.808 154.054C585.328 154.054 583.615 156.023 583.615 159.116C583.615 162.236 585.328 164.205 587.782 164.205ZM587.987 162.849C586.095 162.849 585.123 161.188 585.123 159.091C585.123 157.02 586.069 155.409 587.987 155.409C589.828 155.409 590.799 156.892 590.799 159.091C590.799 161.315 589.802 162.849 587.987 162.849Z" fill="white"/>
<path d="M708 123.377C708 115.989 713.989 110 721.377 110H823.326C830.714 110 836.704 115.989 836.704 123.377V192.908C836.704 196.529 835.253 199.961 832.563 202.319C830.144 204.44 826.255 205.569 821.265 206.495C819.528 206.817 817.656 207.114 815.696 207.426C812.153 207.988 808.321 208.597 804.472 209.481C792.794 212.162 780.357 217.48 772.289 232.245C763.042 217.492 750.641 212.17 739.257 209.482C735.54 208.605 731.868 207.997 728.483 207.437C726.576 207.122 724.76 206.821 723.078 206.496C718.303 205.573 714.566 204.446 712.141 202.319C709.451 199.961 708 196.529 708 192.908V123.377Z" fill="#13BB9F" stroke="#13BB9F" stroke-width="2"/>
<rect x="771.045" y="198.011" width="2.61407" height="57.5096" fill="#13BB9F"/>
<ellipse cx="772.352" cy="257.481" rx="11.7633" ry="3.92111" fill="#13BB9F"/>
<path d="M738.363 284.533H746.658V282.522H741.772V282.442L743.471 280.777C745.863 278.595 746.505 277.505 746.505 276.181C746.505 274.164 744.857 272.738 742.363 272.738C739.919 272.738 738.243 274.198 738.249 276.482H740.584C740.579 275.368 741.283 274.686 742.346 274.686C743.368 274.686 744.13 275.323 744.13 276.345C744.13 277.272 743.561 277.908 742.505 278.925L738.363 282.76V284.533ZM753.003 284.789C755.929 284.789 757.696 282.561 757.702 278.726C757.708 274.919 755.918 272.738 753.003 272.738C750.083 272.738 748.31 274.914 748.304 278.726C748.293 282.55 750.071 284.783 753.003 284.789ZM753.003 282.749C751.668 282.749 750.804 281.408 750.81 278.726C750.816 276.084 751.674 274.755 753.003 274.755C754.327 274.755 755.191 276.084 755.191 278.726C755.196 281.408 754.333 282.749 753.003 282.749ZM759.456 284.533H767.752V282.522H762.865V282.442L764.564 280.777C766.956 278.595 767.598 277.505 767.598 276.181C767.598 274.164 765.951 272.738 763.456 272.738C761.013 272.738 759.337 274.198 759.343 276.482H761.678C761.672 275.368 762.377 274.686 763.439 274.686C764.462 274.686 765.223 275.323 765.223 276.345C765.223 277.272 764.655 277.908 763.598 278.925L759.456 282.76V284.533ZM774.597 272.897H772.284L769.404 274.72V276.902L772.069 275.232H772.137V284.533H774.597V272.897ZM778.191 284.681C778.918 284.681 779.549 284.073 779.554 283.317C779.549 282.573 778.918 281.965 778.191 281.965C777.441 281.965 776.821 282.573 776.827 283.317C776.821 284.073 777.441 284.681 778.191 284.681ZM792.28 278.715C792.28 274.908 789.917 272.738 786.831 272.738C783.729 272.738 781.383 274.908 781.383 278.715C781.383 282.505 783.729 284.692 786.831 284.692C787.559 284.692 788.246 284.573 788.871 284.334L789.809 285.488H792.104L790.439 283.397C791.576 282.38 792.28 280.789 792.28 278.715ZM785.979 280.488L787.468 282.453C787.269 282.493 787.053 282.516 786.831 282.516C785.042 282.516 783.877 281.181 783.877 278.715C783.877 276.249 785.042 274.914 786.831 274.914C788.615 274.914 789.786 276.249 789.786 278.715C789.786 279.982 789.473 280.953 788.934 281.595L788.07 280.488H785.979ZM793.858 282.488H799.444V284.533H801.796V282.488H803.239V280.516H801.796V272.897H798.716L793.858 280.55V282.488ZM799.489 280.516H796.336V280.425L799.398 275.578H799.489V280.516Z" fill="white"/>
<path d="M907.943 230H916.239V227.989H911.352V227.909L913.051 226.244C915.443 224.062 916.085 222.972 916.085 221.648C916.085 219.631 914.438 218.205 911.943 218.205C909.5 218.205 907.824 219.665 907.83 221.949H910.165C910.159 220.835 910.864 220.153 911.926 220.153C912.949 220.153 913.71 220.79 913.71 221.812C913.71 222.739 913.142 223.375 912.085 224.392L907.943 228.227V230ZM922.584 230.256C925.51 230.256 927.277 228.028 927.283 224.193C927.288 220.386 925.499 218.205 922.584 218.205C919.663 218.205 917.891 220.381 917.885 224.193C917.874 228.017 919.652 230.25 922.584 230.256ZM922.584 228.216C921.249 228.216 920.385 226.875 920.391 224.193C920.396 221.551 921.254 220.222 922.584 220.222C923.908 220.222 924.771 221.551 924.771 224.193C924.777 226.875 923.913 228.216 922.584 228.216ZM929.037 230H937.332V227.989H932.446V227.909L934.145 226.244C936.537 224.062 937.179 222.972 937.179 221.648C937.179 219.631 935.531 218.205 933.037 218.205C930.594 218.205 928.918 219.665 928.923 221.949H931.259C931.253 220.835 931.957 220.153 933.02 220.153C934.043 220.153 934.804 220.79 934.804 221.812C934.804 222.739 934.236 223.375 933.179 224.392L929.037 228.227V230ZM939.115 230H947.411V227.989H942.524V227.909L944.223 226.244C946.615 224.062 947.257 222.972 947.257 221.648C947.257 219.631 945.609 218.205 943.115 218.205C940.672 218.205 938.996 219.665 939.001 221.949H941.337C941.331 220.835 942.036 220.153 943.098 220.153C944.121 220.153 944.882 220.79 944.882 221.812C944.882 222.739 944.314 223.375 943.257 224.392L939.115 228.227V230ZM950.631 230.148C951.358 230.148 951.989 229.54 951.994 228.784C951.989 228.04 951.358 227.432 950.631 227.432C949.881 227.432 949.261 228.04 949.267 228.784C949.261 229.54 949.881 230.148 950.631 230.148ZM964.72 224.182C964.72 220.375 962.357 218.205 959.271 218.205C956.169 218.205 953.822 220.375 953.822 224.182C953.822 227.972 956.169 230.159 959.271 230.159C959.999 230.159 960.686 230.04 961.311 229.801L962.249 230.955H964.544L962.879 228.864C964.016 227.847 964.72 226.256 964.72 224.182ZM958.419 225.955L959.908 227.92C959.709 227.96 959.493 227.983 959.271 227.983C957.482 227.983 956.317 226.648 956.317 224.182C956.317 221.716 957.482 220.381 959.271 220.381C961.055 220.381 962.226 221.716 962.226 224.182C962.226 225.449 961.913 226.42 961.374 227.062L960.51 225.955H958.419ZM966.474 230H974.77V227.989H969.884V227.909L971.582 226.244C973.974 224.062 974.616 222.972 974.616 221.648C974.616 219.631 972.969 218.205 970.474 218.205C968.031 218.205 966.355 219.665 966.361 221.949H968.696C968.69 220.835 969.395 220.153 970.457 220.153C971.48 220.153 972.241 220.79 972.241 221.812C972.241 222.739 971.673 223.375 970.616 224.392L966.474 228.227V230Z" fill="white"/>
<path d="M745.326 133.674H747.978C747.94 131.341 746.023 129.73 743.108 129.73C740.238 129.73 738.135 131.315 738.148 133.693C738.141 135.624 739.503 136.729 741.714 137.26L743.14 137.618C744.565 137.963 745.358 138.372 745.364 139.254C745.358 140.213 744.45 140.865 743.044 140.865C741.606 140.865 740.57 140.2 740.481 138.89H737.802C737.873 141.722 739.899 143.185 743.076 143.185C746.272 143.185 748.151 141.658 748.157 139.261C748.151 137.081 746.508 135.924 744.233 135.413L743.057 135.131C741.919 134.869 740.966 134.447 740.986 133.508C740.986 132.664 741.733 132.044 743.089 132.044C744.412 132.044 745.224 132.645 745.326 133.674ZM750.019 143H752.787V137.592H758.405V143H761.167V129.909H758.405V135.31H752.787V129.909H750.019V143ZM766.217 129.909H763.449V143H766.217V129.909ZM768.494 143H774.087C777.027 143 778.593 141.466 778.593 139.382C778.593 137.445 777.206 136.276 775.717 136.205V136.077C777.078 135.771 778.082 134.805 778.082 133.265C778.082 131.303 776.624 129.909 773.735 129.909H768.494V143ZM771.261 140.737V137.26H773.582C774.911 137.26 775.736 138.027 775.736 139.107C775.736 140.092 775.065 140.737 773.518 140.737H771.261ZM771.261 135.387V132.146H773.364C774.592 132.146 775.288 132.779 775.288 133.725C775.288 134.761 774.445 135.387 773.313 135.387H771.261ZM787.496 133.674H790.148C790.11 131.341 788.192 129.73 785.278 129.73C782.408 129.73 780.305 131.315 780.317 133.693C780.311 135.624 781.673 136.729 783.884 137.26L785.31 137.618C786.735 137.963 787.528 138.372 787.534 139.254C787.528 140.213 786.62 140.865 785.214 140.865C783.776 140.865 782.74 140.2 782.651 138.89H779.972C780.043 141.722 782.069 143.185 785.246 143.185C788.442 143.185 790.321 141.658 790.327 139.261C790.321 137.081 788.678 135.924 786.403 135.413L785.227 135.131C784.089 134.869 783.136 134.447 783.155 133.508C783.155 132.664 783.903 132.044 785.258 132.044C786.582 132.044 787.393 132.645 787.496 133.674ZM803.739 134.492C803.375 131.469 801.087 129.73 798.057 129.73C794.599 129.73 791.959 132.172 791.959 136.455C791.959 140.724 794.554 143.179 798.057 143.179C801.413 143.179 803.439 140.948 803.739 138.538L800.94 138.526C800.678 139.925 799.578 140.731 798.102 140.731C796.114 140.731 794.765 139.254 794.765 136.455C794.765 133.732 796.095 132.178 798.121 132.178C799.636 132.178 800.729 133.054 800.94 134.492H803.739ZM767.112 151.909H764.357V160.142H764.242L758.592 151.909H756.163V165H758.93V156.761H759.026L764.722 165H767.112V151.909ZM769.399 165H772.167V159.592H777.491V157.31H772.167V154.191H778.067V151.909H769.399V165ZM779.43 154.191H783.438V165H786.173V154.191H790.181V151.909H779.43V154.191ZM730.771 185H739.618V182.718H733.539V179.592H739.138V177.31H733.539V174.191H739.592V171.909H730.771V185ZM744.017 175.182H741.205L744.017 180.091L741.102 185H743.915L745.82 181.606L747.756 185H750.537L747.616 180.091L750.46 175.182H747.667L745.82 178.614L744.017 175.182ZM756.144 185.192C758.759 185.192 760.401 183.658 760.529 181.401H757.96C757.8 182.45 757.11 183.038 756.176 183.038C754.904 183.038 754.08 181.97 754.08 180.091C754.08 178.237 754.911 177.176 756.176 177.176C757.173 177.176 757.813 177.835 757.96 178.812H760.529C760.414 176.543 758.695 175.054 756.132 175.054C753.153 175.054 751.312 177.119 751.312 180.129C751.312 183.114 753.121 185.192 756.144 185.192ZM764.996 179.324C765.002 178.058 765.776 177.317 766.888 177.317C767.994 177.317 768.646 178.026 768.639 179.234V185H771.362V178.749C771.369 176.447 770.013 175.054 767.968 175.054C766.479 175.054 765.481 175.757 765.034 176.914H764.919V171.909H762.273V185H764.996V179.324ZM776.305 185.185C777.756 185.185 778.695 184.553 779.175 183.638H779.252V185H781.834V178.378C781.834 176.038 779.852 175.054 777.666 175.054C775.314 175.054 773.767 176.179 773.39 177.969L775.909 178.173C776.094 177.521 776.676 177.042 777.654 177.042C778.58 177.042 779.111 177.509 779.111 178.314V178.352C779.111 178.985 778.44 179.068 776.733 179.234C774.79 179.413 773.045 180.065 773.045 182.258C773.045 184.201 774.432 185.185 776.305 185.185ZM777.085 183.306C776.247 183.306 775.646 182.916 775.646 182.168C775.646 181.401 776.279 181.024 777.238 180.89C777.833 180.807 778.804 180.666 779.13 180.449V181.491C779.13 182.52 778.28 183.306 777.085 183.306ZM786.67 179.324C786.676 178.058 787.43 177.317 788.53 177.317C789.623 177.317 790.281 178.033 790.275 179.234V185H792.998V178.749C792.998 176.46 791.655 175.054 789.61 175.054C788.152 175.054 787.098 175.77 786.657 176.914H786.542V175.182H783.947V185H786.67V179.324ZM799.567 188.886C802.373 188.886 804.367 187.608 804.367 185.096V175.182H801.664V176.831H801.561C801.197 176.032 800.398 175.054 798.755 175.054C796.601 175.054 794.779 176.729 794.779 180.072C794.779 183.338 796.55 184.859 798.762 184.859C800.328 184.859 801.203 184.073 801.561 183.261H801.676V185.058C801.676 186.406 800.814 186.93 799.631 186.93C798.429 186.93 797.822 186.406 797.598 185.812L795.08 186.151C795.406 187.697 796.921 188.886 799.567 188.886ZM799.625 182.814C798.289 182.814 797.56 181.753 797.56 180.059C797.56 178.391 798.276 177.221 799.625 177.221C800.948 177.221 801.689 178.339 801.689 180.059C801.689 181.791 800.935 182.814 799.625 182.814ZM811.009 185.192C813.438 185.192 815.074 184.009 815.458 182.188L812.939 182.021C812.664 182.769 811.961 183.159 811.054 183.159C809.692 183.159 808.829 182.258 808.829 180.794V180.788H815.515V180.04C815.515 176.703 813.495 175.054 810.9 175.054C808.011 175.054 806.138 177.106 806.138 180.136C806.138 183.249 807.985 185.192 811.009 185.192ZM808.829 179.1C808.887 177.982 809.737 177.087 810.945 177.087C812.127 177.087 812.946 177.93 812.952 179.1H808.829Z" fill="white"/>
<path d="M887.438 38.674H890.09C890.052 36.3409 888.134 34.7301 885.22 34.7301C882.35 34.7301 880.247 36.3153 880.259 38.6932C880.253 40.6236 881.614 41.7294 883.826 42.2599L885.252 42.6179C886.677 42.9631 887.47 43.3722 887.476 44.2543C887.47 45.2131 886.562 45.8651 885.156 45.8651C883.717 45.8651 882.682 45.2003 882.592 43.8899H879.914C879.984 46.7216 882.011 48.1854 885.188 48.1854C888.384 48.1854 890.263 46.6577 890.269 44.2607C890.263 42.081 888.62 40.924 886.345 40.4126L885.168 40.1314C884.031 39.8693 883.078 39.4474 883.097 38.5078C883.097 37.6641 883.845 37.044 885.2 37.044C886.524 37.044 887.335 37.6449 887.438 38.674ZM892.131 48H894.899V42.5923H900.517V48H903.279V34.9091H900.517V40.3104H894.899V34.9091H892.131V48ZM908.328 34.9091H905.561V48H908.328V34.9091ZM910.606 48H916.199C919.139 48 920.705 46.4659 920.705 44.3821C920.705 42.4453 919.318 41.2756 917.829 41.2053V41.0774C919.19 40.7706 920.194 39.8054 920.194 38.2649C920.194 36.3026 918.736 34.9091 915.847 34.9091H910.606V48ZM913.373 45.7372V42.2599H915.694C917.023 42.2599 917.848 43.027 917.848 44.1072C917.848 45.0916 917.177 45.7372 915.63 45.7372H913.373ZM913.373 40.3871V37.1463H915.476C916.704 37.1463 917.4 37.7791 917.4 38.7251C917.4 39.7607 916.557 40.3871 915.425 40.3871H913.373ZM929.608 38.674H932.26C932.222 36.3409 930.304 34.7301 927.389 34.7301C924.519 34.7301 922.416 36.3153 922.429 38.6932C922.423 40.6236 923.784 41.7294 925.996 42.2599L927.421 42.6179C928.847 42.9631 929.639 43.3722 929.646 44.2543C929.639 45.2131 928.732 45.8651 927.326 45.8651C925.887 45.8651 924.852 45.2003 924.762 43.8899H922.084C922.154 46.7216 924.181 48.1854 927.358 48.1854C930.554 48.1854 932.433 46.6577 932.439 44.2607C932.433 42.081 930.79 40.924 928.514 40.4126L927.338 40.1314C926.201 39.8693 925.248 39.4474 925.267 38.5078C925.267 37.6641 926.015 37.044 927.37 37.044C928.693 37.044 929.505 37.6449 929.608 38.674ZM945.851 39.4922C945.487 36.4688 943.199 34.7301 940.169 34.7301C936.711 34.7301 934.071 37.1719 934.071 41.4545C934.071 45.7244 936.666 48.179 940.169 48.179C943.525 48.179 945.551 45.9482 945.851 43.5384L943.052 43.5256C942.79 44.9254 941.69 45.7308 940.214 45.7308C938.226 45.7308 936.877 44.2543 936.877 41.4545C936.877 38.7315 938.206 37.1783 940.233 37.1783C941.748 37.1783 942.841 38.054 943.052 39.4922H945.851ZM959.104 38.674H961.756C961.718 36.3409 959.8 34.7301 956.886 34.7301C954.016 34.7301 951.913 36.3153 951.925 38.6932C951.919 40.6236 953.28 41.7294 955.492 42.2599L956.918 42.6179C958.343 42.9631 959.136 43.3722 959.142 44.2543C959.136 45.2131 958.228 45.8651 956.822 45.8651C955.383 45.8651 954.348 45.2003 954.258 43.8899H951.58C951.65 46.7216 953.677 48.1854 956.854 48.1854C960.05 48.1854 961.929 46.6577 961.935 44.2607C961.929 42.081 960.286 40.924 958.011 40.4126L956.834 40.1314C955.697 39.8693 954.744 39.4474 954.763 38.5078C954.763 37.6641 955.511 37.044 956.866 37.044C958.19 37.044 959.001 37.6449 959.104 38.674ZM965.683 48H968.559L970.247 41.8253H970.368L972.055 48H974.938L977.604 38.1818H974.855L973.359 44.7401H973.276L971.666 38.1818H968.962L967.377 44.7784H967.287L965.766 38.1818H963.011L965.683 48ZM981.856 48.1854C983.307 48.1854 984.247 47.5526 984.726 46.6385H984.803V48H987.385V41.3778C987.385 39.0384 985.404 38.054 983.218 38.054C980.865 38.054 979.318 39.179 978.941 40.9688L981.46 41.1733C981.645 40.5213 982.227 40.0419 983.205 40.0419C984.132 40.0419 984.662 40.5085 984.662 41.3139V41.3523C984.662 41.9851 983.991 42.0682 982.284 42.2344C980.341 42.4134 978.596 43.0653 978.596 45.2578C978.596 47.201 979.983 48.1854 981.856 48.1854ZM982.636 46.3061C981.799 46.3061 981.198 45.9162 981.198 45.1683C981.198 44.4013 981.831 44.0241 982.789 43.8899C983.384 43.8068 984.355 43.6662 984.681 43.4489V44.4908C984.681 45.5199 983.831 46.3061 982.636 46.3061ZM989.498 51.6818H992.221V46.4276H992.304C992.681 47.2457 993.506 48.1598 995.091 48.1598C997.328 48.1598 999.073 46.3892 999.073 43.1037C999.073 39.7287 997.251 38.054 995.097 38.054C993.454 38.054 992.668 39.032 992.304 39.831H992.182V38.1818H989.498V51.6818ZM992.163 43.0909C992.163 41.3395 992.905 40.2209 994.228 40.2209C995.577 40.2209 996.293 41.3906 996.293 43.0909C996.293 44.804 995.564 45.9929 994.228 45.9929C992.918 45.9929 992.163 44.8423 992.163 43.0909Z" fill="white"/>
<path d="M7 157C7 149.612 12.9893 143.623 20.3774 143.623H122.326C129.714 143.623 135.704 149.612 135.704 157V211.632C135.704 215.253 134.253 218.685 131.563 221.043C129.144 223.164 125.255 224.293 120.265 225.219C118.528 225.541 116.656 225.838 114.696 226.15C111.153 226.712 107.321 227.321 103.472 228.205C91.7941 230.886 79.3574 236.204 71.2886 250.969C62.0424 236.216 49.6414 230.894 38.2572 228.206C34.5399 227.329 30.8677 226.721 27.4827 226.161C25.5757 225.846 23.7599 225.545 22.0784 225.22C17.3028 224.297 13.566 223.17 11.1406 221.043C8.4509 218.685 7 215.253 7 211.632V157Z" fill="white" stroke="#CDAC4C" stroke-width="2"/>
<rect x="70.0449" y="246.467" width="2.61407" height="103.256" fill="#CDAC4C"/>
<ellipse cx="71.3517" cy="351.03" rx="11.7633" ry="3.92111" fill="#CDAC4C"/>
<path d="M34.2379 182H41.6868V179.972H36.6982V170.364H34.2379V182ZM43.2706 182H45.6911V173.273H43.2706V182ZM44.4865 172.148C45.2081 172.148 45.799 171.597 45.799 170.92C45.799 170.25 45.2081 169.699 44.4865 169.699C43.7706 169.699 43.1797 170.25 43.1797 170.92C43.1797 171.597 43.7706 172.148 44.4865 172.148ZM54.8913 175.761C54.6754 174.153 53.38 173.159 51.1754 173.159C48.9425 173.159 47.4709 174.193 47.4766 175.875C47.4709 177.182 48.2947 178.028 49.9993 178.369L51.5107 178.67C52.272 178.824 52.6186 179.102 52.63 179.54C52.6186 180.057 52.0561 180.426 51.2095 180.426C50.3459 180.426 49.772 180.057 49.6243 179.347L47.2436 179.472C47.4709 181.142 48.8913 182.17 51.2038 182.17C53.4652 182.17 55.0845 181.017 55.0902 179.295C55.0845 178.034 54.2607 177.278 52.5675 176.932L50.9879 176.614C50.1754 176.438 49.8743 176.159 49.88 175.739C49.8743 175.216 50.4652 174.875 51.2152 174.875C52.0561 174.875 52.5561 175.335 52.6754 175.898L54.8913 175.761ZM61.2564 173.273H59.6143V171.182H57.1939V173.273H56.0007V175.091H57.1939V179.636C57.1825 181.347 58.3473 182.193 60.103 182.119C60.728 182.097 61.1712 181.972 61.4155 181.892L61.0348 180.091C60.9155 180.114 60.6598 180.17 60.4325 180.17C59.9496 180.17 59.6143 179.989 59.6143 179.318V175.091H61.2564V173.273ZM62.8331 182H65.2536V173.273H62.8331V182ZM64.049 172.148C64.7706 172.148 65.3615 171.597 65.3615 170.92C65.3615 170.25 64.7706 169.699 64.049 169.699C63.3331 169.699 62.7422 170.25 62.7422 170.92C62.7422 171.597 63.3331 172.148 64.049 172.148ZM69.6129 176.955C69.6186 175.83 70.2891 175.17 71.2663 175.17C72.2379 175.17 72.8232 175.807 72.8175 176.875V182H75.2379V176.443C75.2379 174.409 74.0447 173.159 72.2266 173.159C70.9311 173.159 69.9936 173.795 69.6016 174.812H69.4993V173.273H67.1925V182H69.6129V176.955ZM81.0774 185.455C83.5717 185.455 85.3445 184.318 85.3445 182.085V173.273H82.9411V174.739H82.8501C82.5263 174.028 81.8161 173.159 80.3558 173.159C78.4411 173.159 76.8217 174.648 76.8217 177.619C76.8217 180.523 78.3956 181.875 80.3615 181.875C81.7536 181.875 82.532 181.176 82.8501 180.455H82.9524V182.051C82.9524 183.25 82.1854 183.716 81.1342 183.716C80.0661 183.716 79.5263 183.25 79.3274 182.722L77.0888 183.023C77.3786 184.398 78.7251 185.455 81.0774 185.455ZM81.1286 180.057C79.9411 180.057 79.2933 179.114 79.2933 177.608C79.2933 176.125 79.9297 175.085 81.1286 175.085C82.3047 175.085 82.9638 176.08 82.9638 177.608C82.9638 179.148 82.2933 180.057 81.1286 180.057ZM94.9169 182.17C97.5646 182.17 99.2124 180.358 99.2124 177.67C99.2124 174.966 97.5646 173.159 94.9169 173.159C92.2692 173.159 90.6214 174.966 90.6214 177.67C90.6214 180.358 92.2692 182.17 94.9169 182.17ZM94.9283 180.295C93.7067 180.295 93.0817 179.176 93.0817 177.653C93.0817 176.131 93.7067 175.006 94.9283 175.006C96.1271 175.006 96.7521 176.131 96.7521 177.653C96.7521 179.176 96.1271 180.295 94.9283 180.295ZM103.207 176.955C103.212 175.83 103.883 175.17 104.86 175.17C105.832 175.17 106.417 175.807 106.411 176.875V182H108.832V176.443C108.832 174.409 107.638 173.159 105.82 173.159C104.525 173.159 103.587 173.795 103.195 174.812H103.093V173.273H100.786V182H103.207V176.955ZM31.1724 206H34.2477V201.284H36.8329C40.1781 201.284 42.1241 199.288 42.1241 196.384C42.1241 193.493 40.2136 191.455 36.911 191.455H31.1724V206ZM34.2477 198.82V193.969H36.3216C38.0971 193.969 38.9565 194.935 38.9565 196.384C38.9565 197.825 38.0971 198.82 36.3358 198.82H34.2477ZM46.8826 206.206C48.4949 206.206 49.5389 205.503 50.0716 204.487H50.1568V206H53.0261V198.642C53.0261 196.043 50.8244 194.949 48.3954 194.949C45.7818 194.949 44.063 196.199 43.644 198.188L46.4423 198.415C46.6483 197.69 47.2946 197.158 48.3812 197.158C49.411 197.158 50.0005 197.676 50.0005 198.571V198.614C50.0005 199.317 49.2548 199.409 47.3585 199.594C45.1994 199.793 43.2605 200.517 43.2605 202.953C43.2605 205.112 44.8017 206.206 46.8826 206.206ZM47.7491 204.118C46.8187 204.118 46.1511 203.685 46.1511 202.854C46.1511 202.001 46.8542 201.582 47.9196 201.433C48.5801 201.341 49.6596 201.185 50.0218 200.943V202.101C50.0218 203.244 49.0772 204.118 47.7491 204.118ZM58.399 199.693C58.4061 198.287 59.2441 197.463 60.4657 197.463C61.6802 197.463 62.4118 198.259 62.4047 199.594V206H65.4302V199.054C65.4302 196.511 63.9387 194.949 61.666 194.949C60.0467 194.949 58.8748 195.744 58.3848 197.016H58.2569V195.091H55.3734V206H58.399V199.693ZM72.7438 206.213C75.6486 206.213 77.4739 204.509 77.6159 202.001H74.7608C74.5833 203.166 73.8162 203.82 72.7793 203.82C71.3659 203.82 70.4498 202.634 70.4498 200.545C70.4498 198.486 71.373 197.307 72.7793 197.307C73.8873 197.307 74.5975 198.038 74.7608 199.125H77.6159C77.4881 196.604 75.5776 194.949 72.7296 194.949C69.4199 194.949 67.3745 197.243 67.3745 200.588C67.3745 203.905 69.3844 206.213 72.7438 206.213ZM82.6639 206.206C84.2761 206.206 85.3201 205.503 85.8528 204.487H85.938V206H88.8074V198.642C88.8074 196.043 86.6056 194.949 84.1767 194.949C81.563 194.949 79.8443 196.199 79.4252 198.188L82.2235 198.415C82.4295 197.69 83.0758 197.158 84.1625 197.158C85.1923 197.158 85.7818 197.676 85.7818 198.571V198.614C85.7818 199.317 85.036 199.409 83.1397 199.594C80.9806 199.793 79.0417 200.517 79.0417 202.953C79.0417 205.112 80.5829 206.206 82.6639 206.206ZM83.5304 204.118C82.6 204.118 81.9324 203.685 81.9324 202.854C81.9324 202.001 82.6355 201.582 83.7008 201.433C84.3613 201.341 85.4409 201.185 85.8031 200.943V202.101C85.8031 203.244 84.8585 204.118 83.5304 204.118ZM91.1547 206H94.1802V202.534L94.997 201.604L97.9728 206H101.517L97.2626 199.814L101.311 195.091H97.8379L94.3436 199.232H94.1802V191.455H91.1547V206ZM107.318 206.213C110.017 206.213 111.835 204.899 112.261 202.875L109.463 202.69C109.157 203.521 108.376 203.955 107.367 203.955C105.855 203.955 104.896 202.953 104.896 201.327V201.32H112.325V200.489C112.325 196.781 110.08 194.949 107.197 194.949C103.987 194.949 101.906 197.229 101.906 200.595C101.906 204.054 103.958 206.213 107.318 206.213ZM104.896 199.445C104.96 198.202 105.904 197.207 107.247 197.207C108.561 197.207 109.47 198.145 109.477 199.445H104.896Z" fill="#0C0E11"/>
<mask id="path-39-inside-1" fill="white">
<path fill-rule="evenodd" clip-rule="evenodd" d="M177 225H159V244H148L168.5 269L189 244H177V225Z"/>
</mask>
<path fill-rule="evenodd" clip-rule="evenodd" d="M177 225H159V244H148L168.5 269L189 244H177V225Z" fill="#EE845A"/>
<path d="M159 225V221H155V225H159ZM177 225H181V221H177V225ZM159 244V248H163V244H159ZM148 244V240H139.547L144.907 246.536L148 244ZM168.5 269L165.407 271.536L168.5 275.308L171.593 271.536L168.5 269ZM189 244L192.093 246.536L197.453 240H189V244ZM177 244H173V248H177V244ZM159 229H177V221H159V229ZM163 244V225H155V244H163ZM148 248H159V240H148V248ZM171.593 266.464L151.093 241.464L144.907 246.536L165.407 271.536L171.593 266.464ZM185.907 241.464L165.407 266.464L171.593 271.536L192.093 246.536L185.907 241.464ZM177 248H189V240H177V248ZM173 225V244H181V225H173Z" fill="white" mask="url(#path-39-inside-1)"/>
<mask id="path-41-inside-2" fill="white">
<path d="M196 208C196 223.464 183.464 236 168 236C152.536 236 140 223.464 140 208C140 192.536 152.536 180 168 180C183.464 180 196 192.536 196 208Z"/>
</mask>
<path d="M196 208C196 223.464 183.464 236 168 236C152.536 236 140 223.464 140 208C140 192.536 152.536 180 168 180C183.464 180 196 192.536 196 208Z" fill="#F9A17E"/>
<path d="M192 208C192 221.255 181.255 232 168 232V240C185.673 240 200 225.673 200 208H192ZM168 232C154.745 232 144 221.255 144 208H136C136 225.673 150.327 240 168 240V232ZM144 208C144 194.745 154.745 184 168 184V176C150.327 176 136 190.327 136 208H144ZM168 184C181.255 184 192 194.745 192 208H200C200 190.327 185.673 176 168 176V184Z" fill="white" mask="url(#path-41-inside-2)"/>
<path d="M156.357 222.921C156.702 222.109 157.249 221.461 157.918 220.936C157.774 220.857 157.63 220.778 157.486 220.692L157.508 220.713C156.443 221.742 154.681 223.957 154.286 225.244C154.264 225.316 154.243 225.395 154.221 225.474C154.847 225.848 155.487 226.193 156.141 226.517C155.846 225.258 155.89 224.022 156.357 222.921Z" fill="#ECBC70"/>
<path d="M179.024 220.994L179.118 220.893C178.902 221.016 178.693 221.138 178.478 221.26L178.348 221.483C178.665 221.835 178.945 222.231 179.161 222.677C179.772 223.935 179.837 225.388 179.499 226.855C180.34 226.474 181.153 226.05 181.951 225.582C181.915 225.41 181.872 225.259 181.829 225.115C181.426 223.827 180.088 222.022 179.024 220.994Z" fill="#ECBC70"/>
<path d="M179.161 222.677C178.945 222.231 178.672 221.835 178.348 221.483C178.32 221.447 178.284 221.418 178.255 221.382C176.594 222.274 174.896 222.95 173.17 223.403C171.092 223.949 169.46 224.036 168.604 224.036C168.568 224.036 168.532 224.036 168.496 224.036C166.986 224.021 165.202 223.712 163.318 223.151C162.239 222.828 160.233 222.224 157.917 220.936C157.249 221.461 156.702 222.116 156.357 222.921C155.882 224.021 155.846 225.258 156.134 226.51C159.766 228.3 163.858 229.3 168.18 229.3C172.214 229.3 176.047 228.423 179.499 226.855C179.837 225.388 179.772 223.928 179.161 222.677Z" fill="white"/>
<path d="M184.943 214.666C185.964 213.45 186.705 212.105 186.87 210.459C186.892 210.25 186.899 210.034 186.899 209.826C186.633 211.012 186.144 212.566 185.216 214.198C185.13 214.363 185.036 214.515 184.943 214.666Z" fill="#ECBC70"/>
<path d="M151.783 209.034C151.783 208.963 151.783 208.891 151.798 208.819C151.97 207.704 153.768 207.064 155.803 207.388C157.839 207.711 159.349 208.869 159.169 209.984C159.147 210.12 159.104 210.25 159.032 210.372C159.543 210.573 159.953 210.789 160.262 211.048C160.629 210.192 161.398 209.466 162.894 208.171C163.685 207.488 165.433 205.985 168.036 205.906C171.1 205.82 173.171 207.769 173.732 208.294C175.134 209.61 175.774 210.35 176.062 211.17C176.867 210.545 177.924 210.573 179.24 210.034C179.19 209.926 179.147 209.811 179.132 209.696C178.96 208.581 180.463 207.424 182.498 207.1C184.533 206.776 186.324 207.416 186.504 208.531C186.525 208.682 186.518 208.833 186.482 208.991C186.612 209.006 186.741 209.02 186.856 209.034C186.755 208.107 186.504 207.122 186.173 205.856L186.072 205.475C185.59 203.634 184.907 201.836 184.037 200.139L183.944 199.952L184.001 199.75C184.519 197.816 185.037 195.917 185.54 194.112L185.562 194.04C186.007 192.451 186.561 190.473 186.604 187.899C186.633 186.216 186.417 185.698 186.087 185.432C185.562 185.008 184.684 185.188 183.677 185.446C182.218 185.82 181.297 186.496 179.269 187.992L178.895 188.266C177.759 189.1 176.572 189.955 175.378 190.818L175.191 190.955L174.969 190.919C172.833 190.56 170.661 190.38 168.496 190.38C168.482 190.38 168.46 190.38 168.446 190.38C166.181 190.38 163.894 190.588 161.657 190.984L161.391 191.034L161.19 190.854C159.493 189.287 157.716 187.841 155.918 186.532C154.473 185.49 153.509 184.9 152.718 184.9C152.56 184.9 152.402 184.921 152.251 184.972C151.719 185.152 151.402 185.576 151.251 185.777C150.259 187.122 150.554 189.078 151.079 191.696C151.604 194.314 152.244 196.967 152.977 199.578L153.035 199.786L152.941 199.98C152.2 201.44 151.596 202.979 151.143 204.561C150.661 206.244 150.216 207.783 150.122 209.279C150.59 209.178 151.15 209.085 151.783 209.034ZM181.987 187.597C182.836 187.187 184.699 186.288 185.31 186.827C185.324 186.842 185.339 186.849 185.353 186.863C185.612 187.144 185.475 187.625 185.353 188.15C184.763 190.624 184.605 193.184 184.13 195.68C183.908 196.852 183.807 197.406 183.519 197.456C182.973 197.55 182.541 195.709 180.945 193.904C180.391 193.278 179.816 192.789 179.305 192.415C179.01 192.199 178.737 192.027 178.492 191.883C178.032 191.689 177.874 191.459 177.816 191.272C177.478 190.128 180.398 188.359 181.987 187.597ZM176.989 202.814C177.874 202.929 179.075 203.792 179.535 204.274C180.003 204.756 180.52 205.295 180.377 205.856C180.233 206.417 179.614 206.834 177.198 206.481C174.782 206.129 173.077 205.453 172.861 205.338C172.646 205.223 172.128 204.986 172.157 204.662C172.185 204.338 173.192 203.626 174.185 203.267C175.156 202.922 176.076 202.699 176.989 202.814ZM170.74 199.93C170.783 199.851 171.215 199.081 171.998 199.06C172.948 199.031 173.437 200.11 173.48 200.203C173.545 200.354 173.854 201.052 173.53 201.584C173.048 202.368 171.38 202.476 170.762 201.606C170.416 201.117 170.474 200.419 170.74 199.93ZM162.189 200.477C162.225 200.39 162.686 199.391 163.563 199.419C164.296 199.441 164.692 200.153 164.735 200.232C164.98 200.692 165.037 201.332 164.714 201.785C164.138 202.591 162.592 202.49 162.146 201.764C161.844 201.268 162.125 200.613 162.189 200.477ZM161.693 203.094C162.686 203.454 163.692 204.166 163.721 204.489C163.75 204.813 163.232 205.05 163.016 205.165C162.801 205.28 161.089 205.956 158.68 206.309C156.264 206.661 155.638 206.244 155.501 205.683C155.357 205.122 155.875 204.583 156.343 204.101C156.81 203.619 158.004 202.756 158.888 202.641C159.802 202.519 160.722 202.742 161.693 203.094ZM153.035 195.586C152.553 193.091 152.402 190.531 151.812 188.057C151.69 187.532 151.553 187.05 151.812 186.77C151.826 186.755 151.841 186.748 151.855 186.734C152.466 186.194 154.329 187.093 155.178 187.503C156.76 188.273 159.68 190.035 159.342 191.178C159.284 191.365 159.126 191.595 158.666 191.789C158.428 191.933 158.148 192.106 157.853 192.321C157.342 192.695 156.767 193.177 156.213 193.81C154.624 195.615 154.192 197.456 153.639 197.363C153.351 197.312 153.258 196.759 153.035 195.586Z" fill="#ECBC70"/>
<path d="M183.138 211.127C181.319 211.415 179.693 210.933 179.247 210.034C177.924 210.574 176.867 210.545 176.069 211.17C175.781 210.351 175.141 209.61 173.739 208.294C173.178 207.769 171.107 205.813 168.043 205.906C165.433 205.985 163.685 207.488 162.901 208.172C161.405 209.466 160.636 210.192 160.269 211.048C159.96 210.782 159.55 210.566 159.039 210.372C158.558 211.242 156.961 211.695 155.17 211.415C153.265 211.113 151.826 210.077 151.79 209.035C151.158 209.085 150.597 209.178 150.129 209.279C150.072 210.135 150.129 210.976 150.359 211.825C150.935 213.99 152.366 215.262 154.53 217.183C158.22 220.462 162.017 221.605 163.642 222.094C165.425 222.626 167.108 222.921 168.511 222.936C169.273 222.943 170.848 222.878 172.897 222.339C176.054 221.512 179.118 219.901 182.009 217.542C183.073 216.593 184.109 215.672 184.957 214.666C185.051 214.514 185.144 214.363 185.231 214.205C186.158 212.566 186.647 211.019 186.913 209.833C186.913 209.567 186.899 209.308 186.87 209.035C186.748 209.02 186.626 209.006 186.496 208.991C186.252 209.948 184.893 210.847 183.138 211.127ZM167.612 208.013C169.798 208.013 170.452 209.049 170.452 209.322C170.452 209.596 170.236 209.926 169.33 210.768C168.424 211.609 167.475 211.372 167.475 211.372C165.835 211.372 164.857 209.459 164.857 209.164C164.857 208.855 165.433 208.013 167.612 208.013ZM163.218 213.544L163.426 213.486C163.448 213.551 163.865 214.939 165.051 214.817C165.656 214.759 165.871 214.644 166.073 214.536C166.303 214.414 166.526 214.299 167.137 214.263C166.964 213.874 166.806 213.069 167.223 211.58L167.497 211.659C167.036 213.292 167.302 214.011 167.453 214.256C168.101 214.256 168.683 214.363 169.251 214.471C169.97 214.608 170.646 214.73 171.294 214.586C172.473 214.313 173.401 213.321 173.595 212.731L174.005 212.868C173.739 213.673 172.624 214.723 171.387 215.004C170.654 215.176 169.934 215.039 169.172 214.896C168.626 214.795 168.057 214.687 167.439 214.687C166.698 214.687 166.504 214.795 166.274 214.91C166.044 215.032 165.785 215.169 165.095 215.241C165.03 215.248 164.972 215.248 164.908 215.248C163.786 215.248 163.174 214.191 163.009 213.594L163.218 213.544Z" fill="white"/>
<path d="M182.721 218.369C185.13 216.226 187.625 214.004 187.963 210.566C188.121 208.97 187.747 207.546 187.23 205.576L187.129 205.202C186.647 203.346 185.964 201.541 185.101 199.83C185.597 197.967 186.093 196.148 186.582 194.407L186.604 194.335C187.064 192.681 187.647 190.632 187.69 187.913C187.719 186.331 187.568 185.217 186.762 184.569C185.763 183.771 184.389 184.116 183.389 184.375C181.721 184.799 180.678 185.569 178.6 187.101L178.233 187.374C177.154 188.165 176.04 188.97 174.911 189.783C172.789 189.438 170.632 189.265 168.482 189.265C168.467 189.265 168.446 189.265 168.431 189.265C166.188 189.265 163.937 189.459 161.722 189.841C160.053 188.338 158.32 186.928 156.558 185.648C154.818 184.375 153.372 183.447 151.905 183.929C151.042 184.217 150.553 184.871 150.373 185.123C149.108 186.835 149.424 189.014 150.007 191.919C150.525 194.493 151.15 197.104 151.869 199.679C151.143 201.146 150.546 202.685 150.093 204.259C149.28 207.057 148.59 209.473 149.288 212.105C149.949 214.586 151.56 216.025 153.789 218.002C154.767 218.873 155.753 219.599 156.709 220.21C155.947 220.85 155.314 221.555 154.825 222.332C154.66 222.598 154.509 222.871 154.379 223.151C153.948 223.813 153.602 224.453 153.437 224.978V224.985C153.696 225.151 153.955 225.309 154.221 225.467C154.242 225.388 154.264 225.309 154.286 225.237C154.688 223.95 156.443 221.735 157.507 220.706L157.486 220.685C157.63 220.771 157.773 220.85 157.917 220.929C160.233 222.217 162.232 222.821 163.318 223.144C165.195 223.712 166.986 224.014 168.496 224.029C168.532 224.029 168.568 224.029 168.604 224.029C169.452 224.029 171.092 223.943 173.17 223.396C174.896 222.943 176.601 222.267 178.255 221.375C178.327 221.332 178.406 221.296 178.478 221.253C178.693 221.138 178.902 221.016 179.118 220.886L179.024 220.987C180.089 222.015 181.426 223.82 181.829 225.108C181.872 225.251 181.915 225.41 181.951 225.575C182.217 225.417 182.483 225.259 182.742 225.093C182.721 225.007 182.692 224.928 182.67 224.841C182.246 223.468 180.923 221.627 179.779 220.483C180.772 219.858 181.75 219.16 182.706 218.376L182.721 218.369ZM152.948 199.981L153.042 199.786L152.984 199.578C152.25 196.975 151.61 194.321 151.085 191.703C150.56 189.086 150.266 187.122 151.258 185.785C151.409 185.583 151.725 185.159 152.258 184.979C152.409 184.929 152.56 184.907 152.725 184.907C153.516 184.907 154.48 185.49 155.918 186.54C157.716 187.849 159.492 189.294 161.189 190.84L161.391 191.02L161.657 190.97C163.893 190.574 166.173 190.366 168.446 190.366C168.46 190.366 168.482 190.366 168.496 190.366C170.653 190.366 172.832 190.545 174.968 190.905L175.191 190.941L175.378 190.804C176.572 189.948 177.759 189.093 178.895 188.251L179.269 187.978C181.297 186.489 182.224 185.806 183.677 185.432C184.684 185.173 185.561 184.994 186.086 185.418C186.417 185.684 186.633 186.202 186.604 187.885C186.561 190.459 186.007 192.437 185.561 194.026L185.54 194.098C185.036 195.903 184.519 197.794 184.001 199.736L183.943 199.937L184.037 200.124C184.907 201.822 185.59 203.612 186.072 205.46L186.173 205.842C186.503 207.107 186.762 208.093 186.856 209.02C186.885 209.286 186.899 209.552 186.899 209.818C186.899 210.027 186.892 210.236 186.87 210.451C186.712 212.098 185.971 213.436 184.943 214.658C184.101 215.665 183.059 216.586 181.994 217.535C179.111 219.887 176.04 221.505 172.883 222.332C170.833 222.871 169.258 222.936 168.496 222.929C167.094 222.914 165.411 222.626 163.627 222.087C162.002 221.598 158.205 220.455 154.516 217.175C152.351 215.248 150.92 213.982 150.345 211.818C150.115 210.969 150.057 210.128 150.115 209.272C150.208 207.776 150.654 206.237 151.136 204.554C151.603 202.987 152.207 201.44 152.948 199.981Z" fill="#40220F"/>
<path d="M164.713 201.786C165.037 201.332 164.987 200.685 164.735 200.232C164.692 200.153 164.296 199.441 163.563 199.42C162.685 199.391 162.225 200.39 162.189 200.477C162.132 200.613 161.844 201.268 162.146 201.764C162.585 202.49 164.138 202.591 164.713 201.786Z" fill="white"/>
<path d="M173.53 201.577C173.854 201.045 173.544 200.34 173.48 200.196C173.436 200.103 172.947 199.024 171.998 199.053C171.214 199.074 170.783 199.844 170.74 199.923C170.474 200.412 170.416 201.11 170.761 201.599C171.38 202.469 173.048 202.361 173.53 201.577Z" fill="white"/>
<path d="M153.646 197.363C154.192 197.456 154.624 195.615 156.22 193.81C156.774 193.184 157.349 192.695 157.86 192.322C154.832 188.719 153.221 187.403 152.301 186.957C152.229 186.921 152.042 186.834 151.848 186.727C151.833 186.741 151.819 186.748 151.804 186.763C151.546 187.043 151.682 187.525 151.804 188.05C152.394 190.524 152.552 193.084 153.027 195.579C153.257 196.759 153.351 197.312 153.646 197.363Z" fill="#F6EDEA"/>
<path d="M157.853 192.322C158.147 192.106 158.421 191.933 158.665 191.789C159.125 191.595 159.284 191.365 159.341 191.178C159.679 190.035 156.759 188.273 155.177 187.503C154.322 187.093 152.466 186.194 151.848 186.734C152.042 186.842 152.236 186.928 152.301 186.964C153.221 187.403 154.832 188.719 157.853 192.322Z" fill="#E1D5CE"/>
<path d="M179.305 192.415C179.815 192.789 180.391 193.271 180.944 193.904C182.534 195.709 182.965 197.55 183.519 197.456C183.807 197.406 183.907 196.852 184.13 195.68C184.612 193.184 184.763 190.624 185.353 188.15C185.475 187.625 185.612 187.144 185.353 186.863C185.338 186.849 185.324 186.842 185.31 186.827C185.115 186.935 184.921 187.021 184.856 187.057C183.936 187.496 182.332 188.812 179.305 192.415Z" fill="#F6EDEA"/>
<path d="M178.492 191.883C178.729 192.027 179.01 192.199 179.305 192.415C182.332 188.812 183.936 187.496 184.857 187.05C184.929 187.014 185.116 186.928 185.31 186.82C184.698 186.281 182.836 187.18 181.987 187.589C180.405 188.359 177.485 190.121 177.823 191.264C177.874 191.451 178.032 191.681 178.492 191.883Z" fill="#E1D5CE"/>
<path d="M172.156 204.662C172.128 204.986 172.645 205.223 172.861 205.338C173.077 205.453 174.788 206.129 177.198 206.482C179.607 206.834 180.24 206.417 180.376 205.856C180.513 205.295 180.002 204.756 179.535 204.274C179.067 203.792 177.874 202.929 176.989 202.814C176.076 202.699 175.155 202.922 174.184 203.274C173.192 203.627 172.185 204.339 172.156 204.662Z" fill="#4B1E0E"/>
<path d="M156.342 204.094C155.875 204.576 155.357 205.115 155.501 205.676C155.645 206.237 156.263 206.654 158.68 206.302C161.096 205.949 162.8 205.273 163.016 205.158C163.232 205.043 163.75 204.806 163.721 204.482C163.692 204.159 162.685 203.447 161.693 203.087C160.722 202.735 159.802 202.512 158.888 202.627C158.004 202.749 156.81 203.612 156.342 204.094Z" fill="#4B1E0E"/>
<path d="M164.907 215.248C164.965 215.248 165.03 215.248 165.094 215.241C165.785 215.169 166.044 215.032 166.274 214.91C166.504 214.788 166.698 214.687 167.439 214.687C168.05 214.687 168.618 214.795 169.172 214.896C169.934 215.039 170.653 215.176 171.387 215.003C172.624 214.716 173.738 213.666 174.005 212.868L173.595 212.731C173.4 213.313 172.466 214.313 171.293 214.586C170.646 214.737 169.97 214.608 169.251 214.471C168.683 214.363 168.1 214.256 167.453 214.256C167.302 214.011 167.036 213.292 167.496 211.659L167.223 211.58C166.806 213.069 166.957 213.874 167.137 214.263C166.525 214.292 166.31 214.407 166.072 214.536C165.871 214.644 165.655 214.759 165.051 214.816C163.857 214.939 163.44 213.551 163.426 213.486L163.217 213.544L163.009 213.601C163.174 214.191 163.785 215.248 164.907 215.248Z" fill="#330108"/>
<path d="M167.475 211.372C167.475 211.372 168.431 211.616 169.33 210.768C170.229 209.919 170.452 209.596 170.452 209.322C170.452 209.049 169.797 208.013 167.611 208.013C165.425 208.013 164.857 208.862 164.857 209.157C164.857 209.459 165.842 211.372 167.475 211.372Z" fill="#330108"/>
<path d="M183.138 211.127C184.893 210.847 186.259 209.948 186.482 208.991C186.518 208.84 186.525 208.689 186.503 208.531C186.331 207.417 184.533 206.776 182.498 207.1C180.463 207.424 178.952 208.582 179.132 209.696C179.154 209.811 179.19 209.926 179.24 210.034C179.693 210.933 181.318 211.415 183.138 211.127Z" fill="#EF9F86"/>
<path d="M155.163 211.415C156.947 211.695 158.543 211.235 159.032 210.372C159.097 210.25 159.147 210.12 159.169 209.984C159.341 208.869 157.838 207.711 155.803 207.388C153.768 207.064 151.977 207.704 151.798 208.819C151.783 208.891 151.783 208.963 151.783 209.035C151.819 210.077 153.257 211.113 155.163 211.415Z" fill="#EF9F86"/>
</svg>
