<svg width="1184" height="588" viewBox="0 0 1184 588" fill="none" xmlns="http://www.w3.org/2000/svg">
<g clip-path="url(#clip0)">
<rect width="1184" height="588" fill="#0C0E11"/>
<path d="M192.446 526.5C247.446 544 337.774 579.303 390.946 588.325H547.946C528.551 585.688 388.946 552.5 351.446 543.5C311.682 533.957 334.661 539 223.523 510.7C124.115 485.388 98.0015 472.391 98.0015 464.063C98.0015 455.735 121.537 449.073 164.031 440.744C201.949 433.313 275.169 429.502 327.47 424.921C379.77 420.341 537.325 412.845 561.514 412.013C585.703 411.18 783.791 404.101 838.053 402.435C892.314 400.77 993.646 395.356 1011.95 390.776C1030.26 386.196 1028.95 378.284 1011.95 371.205C994.954 364.126 907.351 357.88 906.697 355.382C906.043 352.883 922.387 351.218 951.152 348.303C979.918 345.388 1128.68 348.491 1128.68 335.166C1128.68 321.841 1037.45 316.24 1037.45 310.826C1037.45 305.413 1190.8 298.938 1149.61 298.938C1108.43 298.938 1033.53 304.164 1032.22 310.826C1030.91 317.489 1061.53 319.516 1080.95 323C1100.45 326.5 1122.29 329.752 1122.95 333.5C1123.6 337.248 1113.64 336.831 1092.72 339.33C1071.8 341.828 1005.41 342.057 981.225 342.89C957.036 343.722 899.506 344.139 895.583 354.132C891.661 364.126 933.501 366.208 957.036 368.29C980.571 370.372 1013.26 377.451 1013.91 381.199C1014.57 384.946 1005.41 385.779 996.262 387.445C987.109 389.11 928.271 391.609 911.927 392.858C895.583 394.107 820.401 394.94 746.527 397.438C672.652 399.937 469.989 404.517 334.661 413.262C199.334 422.006 79.6962 432 72.505 461.565C66.5861 485.899 113.069 501.244 192.446 526.5Z" fill="#2A2D34"/>
<path d="M217.946 210.377C217.946 202.989 223.935 197 231.323 197H333.272C340.66 197 346.649 202.989 346.649 210.377V269.649C346.649 273.27 345.199 276.702 342.509 279.06C340.09 281.181 336.201 282.31 331.211 283.236C329.474 283.558 327.602 283.855 325.642 284.167C322.099 284.729 318.267 285.338 314.418 286.222C302.74 288.903 290.303 294.221 282.234 308.986C272.988 294.233 260.587 288.911 249.203 286.223C245.486 285.346 241.814 284.738 238.429 284.178C236.522 283.863 234.706 283.562 233.024 283.237C228.249 282.314 224.512 281.187 222.086 279.06C219.397 276.702 217.946 273.27 217.946 269.649V210.377Z" fill="#3D3E3C" stroke="#3D3E3C" stroke-width="2"/>
<rect x="280.946" y="300" width="3" height="119" fill="#3D3E3C"/>
<ellipse cx="282.298" cy="420.921" rx="11.7633" ry="3.92111" fill="#3D3E3C"/>
<path d="M249.889 447H258.184V444.989H253.298V444.909L254.997 443.244C257.389 441.062 258.031 439.972 258.031 438.648C258.031 436.631 256.383 435.205 253.889 435.205C251.446 435.205 249.77 436.665 249.775 438.949H252.111C252.105 437.835 252.809 437.153 253.872 437.153C254.895 437.153 255.656 437.79 255.656 438.812C255.656 439.739 255.088 440.375 254.031 441.392L249.889 445.227V447ZM264.53 447.256C267.456 447.256 269.223 445.028 269.228 441.193C269.234 437.386 267.444 435.205 264.53 435.205C261.609 435.205 259.836 437.381 259.831 441.193C259.819 445.017 261.598 447.25 264.53 447.256ZM264.53 445.216C263.194 445.216 262.331 443.875 262.336 441.193C262.342 438.551 263.2 437.222 264.53 437.222C265.853 437.222 266.717 438.551 266.717 441.193C266.723 443.875 265.859 445.216 264.53 445.216ZM270.983 447H279.278V444.989H274.392V444.909L276.091 443.244C278.483 441.062 279.125 439.972 279.125 438.648C279.125 436.631 277.477 435.205 274.983 435.205C272.54 435.205 270.863 436.665 270.869 438.949H273.204C273.199 437.835 273.903 437.153 274.966 437.153C275.988 437.153 276.75 437.79 276.75 438.812C276.75 439.739 276.182 440.375 275.125 441.392L270.983 445.227V447ZM286.123 435.364H283.811L280.93 437.188V439.369L283.595 437.699H283.663V447H286.123V435.364ZM289.717 447.148C290.444 447.148 291.075 446.54 291.081 445.784C291.075 445.04 290.444 444.432 289.717 444.432C288.967 444.432 288.348 445.04 288.353 445.784C288.348 446.54 288.967 447.148 289.717 447.148ZM297.123 447.256C300.049 447.256 301.817 445.028 301.822 441.193C301.828 437.386 300.038 435.205 297.123 435.205C294.203 435.205 292.43 437.381 292.424 441.193C292.413 445.017 294.192 447.25 297.123 447.256ZM297.123 445.216C295.788 445.216 294.924 443.875 294.93 441.193C294.936 438.551 295.794 437.222 297.123 437.222C298.447 437.222 299.311 438.551 299.311 441.193C299.317 443.875 298.453 445.216 297.123 445.216ZM308.042 447.159C310.633 447.17 312.4 445.472 312.395 443.102C312.4 440.92 310.878 439.347 308.815 439.347C307.537 439.347 306.406 439.96 305.883 440.989H305.804C305.815 438.722 306.611 437.312 308.128 437.312C309.02 437.312 309.662 437.801 309.849 438.614H312.275C312.042 436.699 310.451 435.205 308.128 435.205C305.253 435.205 303.406 437.534 303.395 441.443C303.389 445.705 305.65 447.148 308.042 447.159ZM308.031 445.227C306.895 445.227 306.054 444.312 306.054 443.176C306.059 442.045 306.917 441.125 308.048 441.125C309.184 441.125 310.014 442.017 310.008 443.17C310.014 444.335 309.167 445.227 308.031 445.227Z" fill="white"/>
<path d="M228.113 230H230.574V226.227H232.642C235.318 226.227 236.875 224.631 236.875 222.307C236.875 219.994 235.346 218.364 232.704 218.364H228.113V230ZM230.574 224.256V220.375H232.233C233.653 220.375 234.341 221.148 234.341 222.307C234.341 223.46 233.653 224.256 232.244 224.256H230.574ZM238.473 230H246.336V227.972H240.933V225.193H245.91V223.165H240.933V220.392H246.314V218.364H238.473V230ZM247.826 220.392H251.389V230H253.821V220.392H257.383V218.364H247.826V220.392ZM272.393 218.364H269.944V225.682H269.842L264.819 218.364H262.66V230H265.121V222.676H265.206L270.268 230H272.393V218.364ZM274.426 230H276.886V225.193H281.619V223.165H276.886V220.392H282.13V218.364H274.426V230ZM283.342 220.392H286.905V230H289.336V220.392H292.899V218.364H283.342V220.392ZM308.443 222.438C308.119 219.75 306.085 218.205 303.392 218.205C300.318 218.205 297.971 220.375 297.971 224.182C297.971 227.977 300.278 230.159 303.392 230.159C306.375 230.159 308.176 228.176 308.443 226.034L305.954 226.023C305.721 227.267 304.744 227.983 303.432 227.983C301.665 227.983 300.466 226.67 300.466 224.182C300.466 221.761 301.648 220.381 303.449 220.381C304.795 220.381 305.767 221.159 305.954 222.438H308.443ZM312.65 230.165C313.94 230.165 314.775 229.602 315.201 228.79H315.27V230H317.565V224.114C317.565 222.034 315.804 221.159 313.861 221.159C311.77 221.159 310.395 222.159 310.059 223.75L312.298 223.932C312.463 223.352 312.98 222.926 313.849 222.926C314.673 222.926 315.145 223.341 315.145 224.057V224.091C315.145 224.653 314.548 224.727 313.031 224.875C311.304 225.034 309.753 225.614 309.753 227.562C309.753 229.29 310.986 230.165 312.65 230.165ZM313.344 228.494C312.599 228.494 312.065 228.148 312.065 227.483C312.065 226.801 312.628 226.466 313.48 226.347C314.008 226.273 314.872 226.148 315.162 225.955V226.881C315.162 227.795 314.406 228.494 313.344 228.494ZM319.443 230H321.863V225.062C321.863 223.989 322.648 223.25 323.716 223.25C324.051 223.25 324.511 223.307 324.738 223.381V221.233C324.523 221.182 324.221 221.148 323.977 221.148C323 221.148 322.199 221.716 321.88 222.795H321.79V221.273H319.443V230ZM328.799 230.142C330.209 230.142 330.942 229.33 331.277 228.602H331.379V230H333.765V218.364H331.351V222.739H331.277C330.953 222.028 330.254 221.159 328.794 221.159C326.879 221.159 325.26 222.648 325.26 225.648C325.26 228.568 326.811 230.142 328.799 230.142ZM329.567 228.216C328.379 228.216 327.731 227.159 327.731 225.636C327.731 224.125 328.368 223.085 329.567 223.085C330.743 223.085 331.402 224.08 331.402 225.636C331.402 227.193 330.731 228.216 329.567 228.216ZM275.694 242.364H273.381L270.5 244.188V246.369L273.165 244.699H273.233V254H275.694V242.364ZM279.287 254.148C280.015 254.148 280.645 253.54 280.651 252.784C280.645 252.04 280.015 251.432 279.287 251.432C278.537 251.432 277.918 252.04 277.924 252.784C277.918 253.54 278.537 254.148 279.287 254.148ZM286.694 254.256C289.62 254.256 291.387 252.028 291.393 248.193C291.398 244.386 289.608 242.205 286.694 242.205C283.773 242.205 282 244.381 281.995 248.193C281.983 252.017 283.762 254.25 286.694 254.256ZM286.694 252.216C285.358 252.216 284.495 250.875 284.5 248.193C284.506 245.551 285.364 244.222 286.694 244.222C288.018 244.222 288.881 245.551 288.881 248.193C288.887 250.875 288.023 252.216 286.694 252.216ZM252.73 276H254.139V271.455H256.684C256.787 271.455 256.883 271.455 256.98 271.449L259.434 276H261.071L258.44 271.193C259.923 270.688 260.616 269.477 260.616 267.932C260.616 265.875 259.389 264.364 256.662 264.364H252.73V276ZM254.139 270.182V265.614H256.616C258.503 265.614 259.23 266.534 259.23 267.932C259.23 269.33 258.503 270.182 256.639 270.182H254.139ZM266.348 276.182C268.121 276.182 269.416 275.295 269.825 273.977L268.53 273.614C268.189 274.523 267.399 274.977 266.348 274.977C264.774 274.977 263.689 273.96 263.626 272.091H269.961V271.523C269.961 268.273 268.03 267.159 266.211 267.159C263.848 267.159 262.28 269.023 262.28 271.705C262.28 274.386 263.825 276.182 266.348 276.182ZM263.626 270.932C263.717 269.574 264.677 268.364 266.211 268.364C267.666 268.364 268.598 269.455 268.598 270.932H263.626ZM273.342 264.364H272.001V276H273.342V264.364ZM279.457 276.182C281.23 276.182 282.525 275.295 282.934 273.977L281.639 273.614C281.298 274.523 280.508 274.977 279.457 274.977C277.883 274.977 276.798 273.96 276.736 272.091H283.071V271.523C283.071 268.273 281.139 267.159 279.321 267.159C276.957 267.159 275.389 269.023 275.389 271.705C275.389 274.386 276.934 276.182 279.457 276.182ZM276.736 270.932C276.826 269.574 277.787 268.364 279.321 268.364C280.775 268.364 281.707 269.455 281.707 270.932H276.736ZM287.679 276.205C289.201 276.205 289.997 275.386 290.27 274.818H290.338V276H291.679V270.25C291.679 267.477 289.565 267.159 288.451 267.159C287.133 267.159 285.633 267.614 284.951 269.205L286.224 269.659C286.52 269.023 287.219 268.341 288.497 268.341C289.73 268.341 290.338 268.994 290.338 270.114V270.159C290.338 270.807 289.679 270.75 288.088 270.955C286.469 271.165 284.701 271.523 284.701 273.523C284.701 275.227 286.02 276.205 287.679 276.205ZM287.883 275C286.815 275 286.042 274.523 286.042 273.591C286.042 272.568 286.974 272.25 288.02 272.114C288.588 272.045 290.111 271.886 290.338 271.614V272.841C290.338 273.932 289.474 275 287.883 275ZM300.308 269.227C299.888 267.989 298.944 267.159 297.217 267.159C295.376 267.159 294.013 268.205 294.013 269.682C294.013 270.886 294.728 271.693 296.331 272.068L297.785 272.409C298.666 272.614 299.081 273.034 299.081 273.636C299.081 274.386 298.285 275 297.035 275C295.939 275 295.251 274.528 295.013 273.591L293.74 273.909C294.052 275.392 295.274 276.182 297.058 276.182C299.086 276.182 300.467 275.074 300.467 273.568C300.467 272.352 299.706 271.585 298.149 271.205L296.853 270.886C295.819 270.631 295.353 270.284 295.353 269.614C295.353 268.864 296.149 268.318 297.217 268.318C298.388 268.318 298.871 268.966 299.103 269.568L300.308 269.227ZM306.145 276.182C307.917 276.182 309.213 275.295 309.622 273.977L308.326 273.614C307.986 274.523 307.196 274.977 306.145 274.977C304.571 274.977 303.486 273.96 303.423 272.091H309.758V271.523C309.758 268.273 307.826 267.159 306.008 267.159C303.645 267.159 302.076 269.023 302.076 271.705C302.076 274.386 303.622 276.182 306.145 276.182ZM303.423 270.932C303.514 269.574 304.474 268.364 306.008 268.364C307.463 268.364 308.395 269.455 308.395 270.932H303.423Z" fill="white"/>
<path d="M563.946 228.377C563.946 220.989 569.935 215 577.323 215H679.272C686.66 215 692.649 220.989 692.649 228.377V320.979C692.649 324.6 691.199 328.031 688.509 330.39C686.09 332.511 682.201 333.64 677.211 334.565C675.474 334.887 673.602 335.184 671.642 335.496C668.099 336.059 664.267 336.668 660.418 337.551C648.74 340.233 636.303 345.551 628.234 360.316C618.988 345.563 606.587 340.24 595.203 337.553C591.486 336.675 587.814 336.068 584.429 335.508C582.522 335.192 580.706 334.892 579.024 334.566C574.249 333.643 570.512 332.516 568.086 330.39C565.397 328.031 563.946 324.6 563.946 320.979V228.377Z" fill="#F3997B" stroke="#F3997B" stroke-width="2"/>
<rect x="626.991" y="358.427" width="2.61407" height="44.4392" fill="#F3997B"/>
<ellipse cx="628.298" cy="404.174" rx="11.7633" ry="3.92111" fill="#F3997B"/>
<path d="M442.946 170.377C442.946 162.989 448.935 157 456.323 157H558.272C565.66 157 571.649 162.989 571.649 170.377V251.215C571.649 254.836 570.199 258.268 567.509 260.626C565.09 262.747 561.201 263.876 556.211 264.802C554.474 265.124 552.602 265.421 550.642 265.733C547.099 266.296 543.267 266.904 539.418 267.788C527.74 270.469 515.303 275.787 507.234 290.552C497.988 275.8 485.587 270.477 474.203 267.789C470.486 266.912 466.814 266.304 463.429 265.744C461.522 265.429 459.706 265.128 458.024 264.803C453.249 263.88 449.512 262.753 447.086 260.626C444.397 258.268 442.946 254.836 442.946 251.215V170.377Z" fill="#CEAA47" stroke="#CDAC4C" stroke-width="2"/>
<rect x="505.946" y="284" width="3" height="124" fill="#CDAC4C"/>
<ellipse cx="507.298" cy="409.202" rx="11.7633" ry="3.92111" fill="#CDAC4C"/>
<path d="M473.889 439H482.184V436.989H477.298V436.909L478.997 435.244C481.389 433.062 482.031 431.972 482.031 430.648C482.031 428.631 480.383 427.205 477.889 427.205C475.446 427.205 473.77 428.665 473.775 430.949H476.111C476.105 429.835 476.809 429.153 477.872 429.153C478.895 429.153 479.656 429.79 479.656 430.812C479.656 431.739 479.088 432.375 478.031 433.392L473.889 437.227V439ZM488.53 439.256C491.456 439.256 493.223 437.028 493.228 433.193C493.234 429.386 491.444 427.205 488.53 427.205C485.609 427.205 483.836 429.381 483.831 433.193C483.819 437.017 485.598 439.25 488.53 439.256ZM488.53 437.216C487.194 437.216 486.331 435.875 486.336 433.193C486.342 430.551 487.2 429.222 488.53 429.222C489.853 429.222 490.717 430.551 490.717 433.193C490.723 435.875 489.859 437.216 488.53 437.216ZM494.983 439H503.278V436.989H498.392V436.909L500.091 435.244C502.483 433.062 503.125 431.972 503.125 430.648C503.125 428.631 501.477 427.205 498.983 427.205C496.54 427.205 494.863 428.665 494.869 430.949H497.204C497.199 429.835 497.903 429.153 498.966 429.153C499.988 429.153 500.75 429.79 500.75 430.812C500.75 431.739 500.182 432.375 499.125 433.392L494.983 437.227V439ZM510.123 427.364H507.811L504.93 429.188V431.369L507.595 429.699H507.663V439H510.123V427.364ZM513.717 439.148C514.444 439.148 515.075 438.54 515.081 437.784C515.075 437.04 514.444 436.432 513.717 436.432C512.967 436.432 512.348 437.04 512.353 437.784C512.348 438.54 512.967 439.148 513.717 439.148ZM527.807 433.182C527.807 429.375 525.443 427.205 522.358 427.205C519.255 427.205 516.909 429.375 516.909 433.182C516.909 436.972 519.255 439.159 522.358 439.159C523.085 439.159 523.773 439.04 524.398 438.801L525.335 439.955H527.63L525.966 437.864C527.102 436.847 527.807 435.256 527.807 433.182ZM521.505 434.955L522.994 436.92C522.795 436.96 522.579 436.983 522.358 436.983C520.568 436.983 519.403 435.648 519.403 433.182C519.403 430.716 520.568 429.381 522.358 429.381C524.142 429.381 525.312 430.716 525.312 433.182C525.312 434.449 525 435.42 524.46 436.062L523.596 434.955H521.505ZM533.862 439.159C536.476 439.159 538.345 437.722 538.339 435.733C538.345 434.284 537.424 433.25 535.714 433.034V432.943C537.015 432.71 537.913 431.79 537.907 430.483C537.913 428.648 536.305 427.205 533.896 427.205C531.51 427.205 529.714 428.602 529.68 430.614H532.038C532.067 429.727 532.879 429.153 533.885 429.153C534.879 429.153 535.544 429.756 535.538 430.631C535.544 431.545 534.765 432.165 533.646 432.165H532.561V433.972H533.646C534.964 433.972 535.788 434.631 535.782 435.568C535.788 436.494 534.993 437.131 533.868 437.131C532.782 437.131 531.97 436.562 531.924 435.71H529.447C529.487 437.744 531.305 439.159 533.862 439.159Z" fill="white"/>
<path d="M461.458 207H464.225V202.756H466.552C469.563 202.756 471.314 200.96 471.314 198.345C471.314 195.744 469.595 193.909 466.622 193.909H461.458V207ZM464.225 200.538V196.172H466.092C467.69 196.172 468.463 197.041 468.463 198.345C468.463 199.643 467.69 200.538 466.105 200.538H464.225ZM473.112 207H481.958V204.718H475.88V201.592H481.479V199.31H475.88V196.191H481.933V193.909H473.112V207ZM483.635 196.191H487.643V207H490.378V196.191H494.386V193.909H483.635V196.191ZM503.27 207H505.967L508.454 198.441H508.556L511.049 207H513.746L517.492 193.909H514.468L512.302 203.024H512.186L509.802 193.909H507.213L504.823 203.005H504.714L502.547 193.909H499.524L503.27 207ZM519.894 207L520.865 204.015H525.589L526.561 207H529.527L525.014 193.909H521.447L516.928 207H519.894ZM521.568 201.854L523.179 196.901H523.281L524.892 201.854H521.568ZM531.102 207H533.87V202.359H535.89L538.37 207H541.425L538.645 201.912C540.134 201.273 540.959 199.975 540.959 198.185C540.959 195.584 539.239 193.909 536.267 193.909H531.102V207ZM533.87 200.135V196.172H535.736C537.334 196.172 538.108 196.881 538.108 198.185C538.108 199.483 537.334 200.135 535.749 200.135H533.87ZM550.016 197.674H552.669C552.631 195.341 550.713 193.73 547.798 193.73C544.928 193.73 542.825 195.315 542.838 197.693C542.832 199.624 544.193 200.729 546.405 201.26L547.83 201.618C549.256 201.963 550.048 202.372 550.055 203.254C550.048 204.213 549.14 204.865 547.734 204.865C546.296 204.865 545.261 204.2 545.171 202.89H542.493C542.563 205.722 544.589 207.185 547.766 207.185C550.962 207.185 552.841 205.658 552.848 203.261C552.841 201.081 551.199 199.924 548.923 199.413L547.747 199.131C546.609 198.869 545.657 198.447 545.676 197.508C545.676 196.664 546.424 196.044 547.779 196.044C549.102 196.044 549.914 196.645 550.016 197.674Z" fill="white"/>
<path d="M478.73 236H480.139V231.455H482.684C482.787 231.455 482.883 231.455 482.98 231.449L485.434 236H487.071L484.44 231.193C485.923 230.688 486.616 229.477 486.616 227.932C486.616 225.875 485.389 224.364 482.662 224.364H478.73V236ZM480.139 230.182V225.614H482.616C484.503 225.614 485.23 226.534 485.23 227.932C485.23 229.33 484.503 230.182 482.639 230.182H480.139ZM492.348 236.182C494.121 236.182 495.416 235.295 495.825 233.977L494.53 233.614C494.189 234.523 493.399 234.977 492.348 234.977C490.774 234.977 489.689 233.96 489.626 232.091H495.961V231.523C495.961 228.273 494.03 227.159 492.211 227.159C489.848 227.159 488.28 229.023 488.28 231.705C488.28 234.386 489.825 236.182 492.348 236.182ZM489.626 230.932C489.717 229.574 490.677 228.364 492.211 228.364C493.666 228.364 494.598 229.455 494.598 230.932H489.626ZM499.342 224.364H498.001V236H499.342V224.364ZM505.457 236.182C507.23 236.182 508.525 235.295 508.934 233.977L507.639 233.614C507.298 234.523 506.508 234.977 505.457 234.977C503.883 234.977 502.798 233.96 502.736 232.091H509.071V231.523C509.071 228.273 507.139 227.159 505.321 227.159C502.957 227.159 501.389 229.023 501.389 231.705C501.389 234.386 502.934 236.182 505.457 236.182ZM502.736 230.932C502.826 229.574 503.787 228.364 505.321 228.364C506.775 228.364 507.707 229.455 507.707 230.932H502.736ZM513.679 236.205C515.201 236.205 515.997 235.386 516.27 234.818H516.338V236H517.679V230.25C517.679 227.477 515.565 227.159 514.451 227.159C513.133 227.159 511.633 227.614 510.951 229.205L512.224 229.659C512.52 229.023 513.219 228.341 514.497 228.341C515.73 228.341 516.338 228.994 516.338 230.114V230.159C516.338 230.807 515.679 230.75 514.088 230.955C512.469 231.165 510.701 231.523 510.701 233.523C510.701 235.227 512.02 236.205 513.679 236.205ZM513.883 235C512.815 235 512.042 234.523 512.042 233.591C512.042 232.568 512.974 232.25 514.02 232.114C514.588 232.045 516.111 231.886 516.338 231.614V232.841C516.338 233.932 515.474 235 513.883 235ZM526.308 229.227C525.888 227.989 524.944 227.159 523.217 227.159C521.376 227.159 520.013 228.205 520.013 229.682C520.013 230.886 520.728 231.693 522.331 232.068L523.785 232.409C524.666 232.614 525.081 233.034 525.081 233.636C525.081 234.386 524.285 235 523.035 235C521.939 235 521.251 234.528 521.013 233.591L519.74 233.909C520.052 235.392 521.274 236.182 523.058 236.182C525.086 236.182 526.467 235.074 526.467 233.568C526.467 232.352 525.706 231.585 524.149 231.205L522.853 230.886C521.819 230.631 521.353 230.284 521.353 229.614C521.353 228.864 522.149 228.318 523.217 228.318C524.388 228.318 524.871 228.966 525.103 229.568L526.308 229.227ZM532.145 236.182C533.917 236.182 535.213 235.295 535.622 233.977L534.326 233.614C533.986 234.523 533.196 234.977 532.145 234.977C530.571 234.977 529.486 233.96 529.423 232.091H535.758V231.523C535.758 228.273 533.826 227.159 532.008 227.159C529.645 227.159 528.076 229.023 528.076 231.705C528.076 234.386 529.622 236.182 532.145 236.182ZM529.423 230.932C529.514 229.574 530.474 228.364 532.008 228.364C533.463 228.364 534.395 229.455 534.395 230.932H529.423Z" fill="white"/>
<path d="M594.889 431H603.184V428.989H598.298V428.909L599.997 427.244C602.389 425.062 603.031 423.972 603.031 422.648C603.031 420.631 601.383 419.205 598.889 419.205C596.446 419.205 594.77 420.665 594.775 422.949H597.11C597.105 421.835 597.809 421.153 598.872 421.153C599.895 421.153 600.656 421.79 600.656 422.812C600.656 423.739 600.088 424.375 599.031 425.392L594.889 429.227V431ZM609.529 431.256C612.456 431.256 614.223 429.028 614.228 425.193C614.234 421.386 612.444 419.205 609.529 419.205C606.609 419.205 604.836 421.381 604.831 425.193C604.819 429.017 606.598 431.25 609.529 431.256ZM609.529 429.216C608.194 429.216 607.331 427.875 607.336 425.193C607.342 422.551 608.2 421.222 609.529 421.222C610.853 421.222 611.717 422.551 611.717 425.193C611.723 427.875 610.859 429.216 609.529 429.216ZM615.983 431H624.278V428.989H619.392V428.909L621.091 427.244C623.483 425.062 624.125 423.972 624.125 422.648C624.125 420.631 622.477 419.205 619.983 419.205C617.539 419.205 615.863 420.665 615.869 422.949H618.204C618.199 421.835 618.903 421.153 619.966 421.153C620.988 421.153 621.75 421.79 621.75 422.812C621.75 423.739 621.181 424.375 620.125 425.392L615.983 429.227V431ZM631.123 419.364H628.811L625.93 421.188V423.369L628.595 421.699H628.663V431H631.123V419.364ZM634.717 431.148C635.444 431.148 636.075 430.54 636.081 429.784C636.075 429.04 635.444 428.432 634.717 428.432C633.967 428.432 633.348 429.04 633.353 429.784C633.348 430.54 633.967 431.148 634.717 431.148ZM648.806 425.182C648.806 421.375 646.443 419.205 643.358 419.205C640.255 419.205 637.909 421.375 637.909 425.182C637.909 428.972 640.255 431.159 643.358 431.159C644.085 431.159 644.772 431.04 645.397 430.801L646.335 431.955H648.63L646.966 429.864C648.102 428.847 648.806 427.256 648.806 425.182ZM642.505 426.955L643.994 428.92C643.795 428.96 643.579 428.983 643.358 428.983C641.568 428.983 640.403 427.648 640.403 425.182C640.403 422.716 641.568 421.381 643.358 421.381C645.142 421.381 646.312 422.716 646.312 425.182C646.312 426.449 646 427.42 645.46 428.062L644.596 426.955H642.505ZM654.862 431.159C657.476 431.159 659.345 429.722 659.339 427.733C659.345 426.284 658.424 425.25 656.714 425.034V424.943C658.015 424.71 658.913 423.79 658.907 422.483C658.913 420.648 657.305 419.205 654.896 419.205C652.51 419.205 650.714 420.602 650.68 422.614H653.038C653.066 421.727 653.879 421.153 654.885 421.153C655.879 421.153 656.544 421.756 656.538 422.631C656.544 423.545 655.765 424.165 654.646 424.165H653.561V425.972H654.646C655.964 425.972 656.788 426.631 656.782 427.568C656.788 428.494 655.993 429.131 654.868 429.131C653.782 429.131 652.97 428.562 652.924 427.71H650.447C650.487 429.744 652.305 431.159 654.862 431.159Z" fill="white"/>
<path d="M110.889 518H119.184V515.989H114.298V515.909L115.997 514.244C118.389 512.062 119.031 510.972 119.031 509.648C119.031 507.631 117.383 506.205 114.889 506.205C112.446 506.205 110.77 507.665 110.775 509.949H113.111C113.105 508.835 113.809 508.153 114.872 508.153C115.895 508.153 116.656 508.79 116.656 509.812C116.656 510.739 116.088 511.375 115.031 512.392L110.889 516.227V518ZM125.53 518.256C128.456 518.256 130.223 516.028 130.228 512.193C130.234 508.386 128.444 506.205 125.53 506.205C122.609 506.205 120.836 508.381 120.831 512.193C120.819 516.017 122.598 518.25 125.53 518.256ZM125.53 516.216C124.194 516.216 123.331 514.875 123.336 512.193C123.342 509.551 124.2 508.222 125.53 508.222C126.853 508.222 127.717 509.551 127.717 512.193C127.723 514.875 126.859 516.216 125.53 516.216ZM131.983 518H140.278V515.989H135.392V515.909L137.091 514.244C139.483 512.062 140.125 510.972 140.125 509.648C140.125 507.631 138.477 506.205 135.983 506.205C133.54 506.205 131.863 507.665 131.869 509.949H134.204C134.199 508.835 134.903 508.153 135.966 508.153C136.988 508.153 137.75 508.79 137.75 509.812C137.75 510.739 137.182 511.375 136.125 512.392L131.983 516.227V518ZM147.123 506.364H144.811L141.93 508.188V510.369L144.595 508.699H144.663V518H147.123V506.364ZM150.717 518.148C151.444 518.148 152.075 517.54 152.081 516.784C152.075 516.04 151.444 515.432 150.717 515.432C149.967 515.432 149.348 516.04 149.353 516.784C149.348 517.54 149.967 518.148 150.717 518.148ZM158.123 518.256C161.049 518.256 162.817 516.028 162.822 512.193C162.828 508.386 161.038 506.205 158.123 506.205C155.203 506.205 153.43 508.381 153.424 512.193C153.413 516.017 155.192 518.25 158.123 518.256ZM158.123 516.216C156.788 516.216 155.924 514.875 155.93 512.193C155.936 509.551 156.794 508.222 158.123 508.222C159.447 508.222 160.311 509.551 160.311 512.193C160.317 514.875 159.453 516.216 158.123 516.216ZM168.826 518.159C171.417 518.159 173.179 516.472 173.173 514.119C173.179 511.892 171.622 510.29 169.525 510.29C168.503 510.29 167.622 510.716 167.213 511.29H167.145L167.446 508.375H172.531V506.364H165.417L164.866 512.5L167.054 512.892C167.412 512.409 168.105 512.108 168.792 512.108C169.963 512.114 170.804 512.96 170.804 514.182C170.804 515.392 169.98 516.227 168.826 516.227C167.849 516.227 167.059 515.614 167.003 514.71H164.616C164.662 516.722 166.417 518.159 168.826 518.159Z" fill="white"/>
<path d="M946.946 154.377C946.946 146.989 952.935 141 960.323 141H1062.27C1069.66 141 1075.65 146.989 1075.65 154.377V206.979C1075.65 210.6 1074.2 214.031 1071.51 216.39C1069.09 218.511 1065.2 219.64 1060.21 220.565C1058.47 220.887 1056.6 221.184 1054.64 221.496C1051.1 222.059 1047.27 222.668 1043.42 223.551C1031.74 226.233 1019.3 231.55 1011.23 246.316C1001.99 231.563 989.587 226.24 978.203 223.553C974.486 222.675 970.813 222.068 967.428 221.508C965.521 221.192 963.706 220.892 962.024 220.566C957.249 219.643 953.512 218.516 951.086 216.39C948.397 214.031 946.946 210.6 946.946 206.979V154.377Z" fill="#BD5D15" stroke="#BD5D15" stroke-width="2"/>
<rect x="1009.95" y="245" width="3" height="97" fill="#BD5D15"/>
<ellipse cx="1011.3" cy="343.174" rx="11.7633" ry="3.92111" fill="#BD5D15"/>
<path d="M584.421 258H587.496V253.284H590.082C593.427 253.284 595.373 251.288 595.373 248.384C595.373 245.493 593.462 243.455 590.16 243.455H584.421V258ZM587.496 250.82V245.969H589.57C591.346 245.969 592.205 246.935 592.205 248.384C592.205 249.825 591.346 250.82 589.584 250.82H587.496ZM597.37 258H607.2V255.464H600.446V251.991H606.667V249.456H600.446V245.99H607.171V243.455H597.37V258ZM609.062 245.99H613.515V258H616.555V245.99H621.008V243.455H609.062V245.99ZM639.771 243.455H636.71V252.602H636.582L630.303 243.455H627.605V258H630.68V248.845H630.786L637.115 258H639.771V243.455ZM642.312 258H645.387V251.991H651.303V249.456H645.387V245.99H651.942V243.455H642.312V258ZM653.457 245.99H657.91V258H660.95V245.99H665.403V243.455H653.457V245.99ZM607.718 278.156H610.843C610.446 275.28 607.91 273.256 604.622 273.256C600.779 273.256 597.818 276.026 597.818 280.741C597.818 285.344 600.588 288.199 604.686 288.199C608.357 288.199 610.978 285.876 610.978 282.048V280.216H604.892V282.531H608.017C607.974 284.335 606.745 285.479 604.7 285.479C602.392 285.479 600.936 283.753 600.936 280.713C600.936 277.688 602.448 275.976 604.671 275.976C606.255 275.976 607.328 276.793 607.718 278.156ZM615.346 288L616.426 284.683H621.674L622.754 288H626.049L621.035 273.455H617.072L612.051 288H615.346ZM617.207 282.283L618.997 276.778H619.11L620.9 282.283H617.207ZM627.8 273.455V288H630.783V278.497H630.904L634.668 287.929H636.699L640.463 278.533H640.584V288H643.567V273.455H639.774L635.769 283.227H635.598L631.593 273.455H627.8ZM646.101 288H655.93V285.464H649.176V281.991H655.398V279.456H649.176V275.99H655.902V273.455H646.101V288ZM595.203 310H596.788V304.886H599.652C599.767 304.886 599.876 304.886 599.984 304.88L602.746 310H604.586L601.627 304.592C603.295 304.023 604.075 302.662 604.075 300.923C604.075 298.609 602.694 296.909 599.626 296.909H595.203V310ZM596.788 303.455V298.315H599.575C601.697 298.315 602.515 299.351 602.515 300.923C602.515 302.496 601.697 303.455 599.601 303.455H596.788ZM610.523 310.205C612.517 310.205 613.975 309.207 614.435 307.724L612.978 307.315C612.594 308.338 611.706 308.849 610.523 308.849C608.753 308.849 607.532 307.705 607.461 305.602H614.588V304.963C614.588 301.307 612.415 300.054 610.37 300.054C607.711 300.054 605.946 302.151 605.946 305.168C605.946 308.185 607.685 310.205 610.523 310.205ZM607.461 304.298C607.564 302.771 608.644 301.409 610.37 301.409C612.006 301.409 613.054 302.636 613.054 304.298H607.461ZM618.392 296.909H616.883V310H618.392V296.909ZM625.271 310.205C627.265 310.205 628.723 309.207 629.183 307.724L627.726 307.315C627.342 308.338 626.454 308.849 625.271 308.849C623.501 308.849 622.28 307.705 622.209 305.602H629.336V304.963C629.336 301.307 627.163 300.054 625.118 300.054C622.459 300.054 620.694 302.151 620.694 305.168C620.694 308.185 622.433 310.205 625.271 310.205ZM622.209 304.298C622.312 302.771 623.392 301.409 625.118 301.409C626.754 301.409 627.802 302.636 627.802 304.298H622.209ZM634.52 310.23C636.234 310.23 637.128 309.31 637.435 308.67H637.512V310H639.02V303.531C639.02 300.412 636.643 300.054 635.39 300.054C633.907 300.054 632.219 300.565 631.452 302.355L632.884 302.866C633.216 302.151 634.003 301.384 635.441 301.384C636.828 301.384 637.512 302.119 637.512 303.378V303.429C637.512 304.158 636.77 304.094 634.981 304.324C633.159 304.56 631.171 304.963 631.171 307.213C631.171 309.131 632.654 310.23 634.52 310.23ZM634.751 308.875C633.549 308.875 632.68 308.338 632.68 307.29C632.68 306.139 633.728 305.781 634.904 305.628C635.543 305.551 637.256 305.372 637.512 305.065V306.446C637.512 307.673 636.54 308.875 634.751 308.875ZM648.728 302.381C648.255 300.987 647.194 300.054 645.251 300.054C643.18 300.054 641.646 301.23 641.646 302.892C641.646 304.247 642.451 305.155 644.254 305.577L645.89 305.96C646.881 306.19 647.348 306.663 647.348 307.341C647.348 308.185 646.453 308.875 645.047 308.875C643.813 308.875 643.039 308.344 642.771 307.29L641.339 307.648C641.691 309.316 643.065 310.205 645.072 310.205C647.354 310.205 648.907 308.958 648.907 307.264C648.907 305.896 648.051 305.033 646.299 304.605L644.842 304.247C643.679 303.96 643.154 303.57 643.154 302.815C643.154 301.972 644.049 301.358 645.251 301.358C646.568 301.358 647.111 302.087 647.373 302.764L648.728 302.381ZM655.295 310.205C657.289 310.205 658.746 309.207 659.207 307.724L657.749 307.315C657.366 308.338 656.477 308.849 655.295 308.849C653.524 308.849 652.303 307.705 652.233 305.602H659.36V304.963C659.36 301.307 657.187 300.054 655.141 300.054C652.482 300.054 650.718 302.151 650.718 305.168C650.718 308.185 652.457 310.205 655.295 310.205ZM652.233 304.298C652.335 302.771 653.415 301.409 655.141 301.409C656.778 301.409 657.826 302.636 657.826 304.298H652.233Z" fill="white"/>
<path d="M779.946 263.377C779.946 255.989 785.935 250 793.323 250H895.272C902.66 250 908.649 255.989 908.649 263.377V332.908C908.649 336.529 907.198 339.961 904.509 342.319C902.09 344.44 898.201 345.569 893.211 346.495C891.474 346.817 889.602 347.114 887.642 347.426C884.099 347.988 880.267 348.597 876.418 349.481C864.74 352.162 852.303 357.48 844.234 372.245C834.988 357.492 822.587 352.17 811.203 349.482C807.486 348.605 803.813 347.997 800.428 347.437C798.521 347.122 796.706 346.821 795.024 346.496C790.249 345.573 786.512 344.446 784.086 342.319C781.397 339.961 779.946 336.529 779.946 332.908V263.377Z" fill="#13BB9F" stroke="#13BB9F" stroke-width="2"/>
<rect x="842.99" y="338.01" width="2.61407" height="57.5096" fill="#13BB9F"/>
<ellipse cx="844.297" cy="397.481" rx="11.7633" ry="3.92111" fill="#13BB9F"/>
<path d="M810.309 424.533H818.604V422.522H813.718V422.442L815.416 420.777C817.809 418.595 818.451 417.505 818.451 416.181C818.451 414.164 816.803 412.738 814.309 412.738C811.865 412.738 810.189 414.198 810.195 416.482H812.53C812.524 415.368 813.229 414.686 814.291 414.686C815.314 414.686 816.076 415.323 816.076 416.345C816.076 417.272 815.507 417.908 814.451 418.925L810.309 422.76V424.533ZM824.949 424.789C827.875 424.789 829.642 422.561 829.648 418.726C829.654 414.919 827.864 412.738 824.949 412.738C822.029 412.738 820.256 414.914 820.25 418.726C820.239 422.55 822.017 424.783 824.949 424.789ZM824.949 422.749C823.614 422.749 822.75 421.408 822.756 418.726C822.762 416.084 823.62 414.755 824.949 414.755C826.273 414.755 827.137 416.084 827.137 418.726C827.142 421.408 826.279 422.749 824.949 422.749ZM831.402 424.533H839.698V422.522H834.811V422.442L836.51 420.777C838.902 418.595 839.544 417.505 839.544 416.181C839.544 414.164 837.897 412.738 835.402 412.738C832.959 412.738 831.283 414.198 831.289 416.482H833.624C833.618 415.368 834.323 414.686 835.385 414.686C836.408 414.686 837.169 415.323 837.169 416.345C837.169 417.272 836.601 417.908 835.544 418.925L831.402 422.76V424.533ZM846.543 412.897H844.23L841.35 414.72V416.902L844.015 415.232H844.083V424.533H846.543V412.897ZM850.137 424.681C850.864 424.681 851.495 424.073 851.5 423.317C851.495 422.573 850.864 421.965 850.137 421.965C849.387 421.965 848.767 422.573 848.773 423.317C848.767 424.073 849.387 424.681 850.137 424.681ZM864.226 418.715C864.226 414.908 861.863 412.738 858.777 412.738C855.675 412.738 853.328 414.908 853.328 418.715C853.328 422.505 855.675 424.692 858.777 424.692C859.505 424.692 860.192 424.573 860.817 424.334L861.755 425.488H864.05L862.385 423.397C863.522 422.38 864.226 420.789 864.226 418.715ZM857.925 420.488L859.414 422.453C859.215 422.493 858.999 422.516 858.777 422.516C856.988 422.516 855.823 421.181 855.823 418.715C855.823 416.249 856.988 414.914 858.777 414.914C860.561 414.914 861.732 416.249 861.732 418.715C861.732 419.982 861.419 420.953 860.88 421.595L860.016 420.488H857.925ZM865.804 422.488H871.39V424.533H873.742V422.488H875.185V420.516H873.742V412.897H870.662L865.804 420.55V422.488ZM871.435 420.516H868.282V420.425L871.344 415.578H871.435V420.516Z" fill="white"/>
<path d="M979.889 370H988.184V367.989H983.298V367.909L984.997 366.244C987.389 364.062 988.031 362.972 988.031 361.648C988.031 359.631 986.383 358.205 983.889 358.205C981.446 358.205 979.77 359.665 979.775 361.949H982.11C982.105 360.835 982.809 360.153 983.872 360.153C984.895 360.153 985.656 360.79 985.656 361.812C985.656 362.739 985.088 363.375 984.031 364.392L979.889 368.227V370ZM994.529 370.256C997.456 370.256 999.223 368.028 999.228 364.193C999.234 360.386 997.444 358.205 994.529 358.205C991.609 358.205 989.836 360.381 989.831 364.193C989.819 368.017 991.598 370.25 994.529 370.256ZM994.529 368.216C993.194 368.216 992.331 366.875 992.336 364.193C992.342 361.551 993.2 360.222 994.529 360.222C995.853 360.222 996.717 361.551 996.717 364.193C996.723 366.875 995.859 368.216 994.529 368.216ZM1000.98 370H1009.28V367.989H1004.39V367.909L1006.09 366.244C1008.48 364.062 1009.12 362.972 1009.12 361.648C1009.12 359.631 1007.48 358.205 1004.98 358.205C1002.54 358.205 1000.86 359.665 1000.87 361.949H1003.2C1003.2 360.835 1003.9 360.153 1004.97 360.153C1005.99 360.153 1006.75 360.79 1006.75 361.812C1006.75 362.739 1006.18 363.375 1005.12 364.392L1000.98 368.227V370ZM1011.06 370H1019.36V367.989H1014.47V367.909L1016.17 366.244C1018.56 364.062 1019.2 362.972 1019.2 361.648C1019.2 359.631 1017.56 358.205 1015.06 358.205C1012.62 358.205 1010.94 359.665 1010.95 361.949H1013.28C1013.28 360.835 1013.98 360.153 1015.04 360.153C1016.07 360.153 1016.83 360.79 1016.83 361.812C1016.83 362.739 1016.26 363.375 1015.2 364.392L1011.06 368.227V370ZM1022.58 370.148C1023.3 370.148 1023.93 369.54 1023.94 368.784C1023.93 368.04 1023.3 367.432 1022.58 367.432C1021.83 367.432 1021.21 368.04 1021.21 368.784C1021.21 369.54 1021.83 370.148 1022.58 370.148ZM1036.67 364.182C1036.67 360.375 1034.3 358.205 1031.22 358.205C1028.11 358.205 1025.77 360.375 1025.77 364.182C1025.77 367.972 1028.11 370.159 1031.22 370.159C1031.94 370.159 1032.63 370.04 1033.26 369.801L1034.19 370.955H1036.49L1034.82 368.864C1035.96 367.847 1036.67 366.256 1036.67 364.182ZM1030.36 365.955L1031.85 367.92C1031.65 367.96 1031.44 367.983 1031.22 367.983C1029.43 367.983 1028.26 366.648 1028.26 364.182C1028.26 361.716 1029.43 360.381 1031.22 360.381C1033 360.381 1034.17 361.716 1034.17 364.182C1034.17 365.449 1033.86 366.42 1033.32 367.062L1032.46 365.955H1030.36ZM1038.24 367.955H1043.83V370H1046.18V367.955H1047.62V365.983H1046.18V358.364H1043.1L1038.24 366.017V367.955ZM1043.87 365.983H1040.72V365.892L1043.78 361.045H1043.87V365.983Z" fill="white"/>
<path d="M817.272 273.674H819.924C819.886 271.341 817.968 269.73 815.054 269.73C812.184 269.73 810.081 271.315 810.093 273.693C810.087 275.624 811.449 276.729 813.66 277.26L815.086 277.618C816.511 277.963 817.304 278.372 817.31 279.254C817.304 280.213 816.396 280.865 814.99 280.865C813.552 280.865 812.516 280.2 812.427 278.89H809.748C809.819 281.722 811.845 283.185 815.022 283.185C818.218 283.185 820.097 281.658 820.103 279.261C820.097 277.081 818.454 275.924 816.179 275.413L815.003 275.131C813.865 274.869 812.912 274.447 812.931 273.508C812.931 272.664 813.679 272.044 815.034 272.044C816.358 272.044 817.169 272.645 817.272 273.674ZM821.965 283H824.733V277.592H830.351V283H833.113V269.909H830.351V275.31H824.733V269.909H821.965V283ZM838.162 269.909H835.395V283H838.162V269.909ZM840.44 283H846.033C848.973 283 850.539 281.466 850.539 279.382C850.539 277.445 849.152 276.276 847.663 276.205V276.077C849.024 275.771 850.028 274.805 850.028 273.265C850.028 271.303 848.57 269.909 845.681 269.909H840.44V283ZM843.207 280.737V277.26H845.528C846.857 277.26 847.682 278.027 847.682 279.107C847.682 280.092 847.011 280.737 845.464 280.737H843.207ZM843.207 275.387V272.146H845.31C846.538 272.146 847.234 272.779 847.234 273.725C847.234 274.761 846.391 275.387 845.259 275.387H843.207ZM859.442 273.674H862.094C862.056 271.341 860.138 269.73 857.224 269.73C854.354 269.73 852.251 271.315 852.263 273.693C852.257 275.624 853.618 276.729 855.83 277.26L857.256 277.618C858.681 277.963 859.474 278.372 859.48 279.254C859.474 280.213 858.566 280.865 857.16 280.865C855.721 280.865 854.686 280.2 854.596 278.89H851.918C851.988 281.722 854.015 283.185 857.192 283.185C860.388 283.185 862.267 281.658 862.273 279.261C862.267 277.081 860.624 275.924 858.349 275.413L857.172 275.131C856.035 274.869 855.082 274.447 855.101 273.508C855.101 272.664 855.849 272.044 857.204 272.044C858.528 272.044 859.339 272.645 859.442 273.674ZM875.685 274.492C875.321 271.469 873.033 269.73 870.003 269.73C866.545 269.73 863.905 272.172 863.905 276.455C863.905 280.724 866.5 283.179 870.003 283.179C873.359 283.179 875.385 280.948 875.685 278.538L872.886 278.526C872.624 279.925 871.524 280.731 870.048 280.731C868.06 280.731 866.711 279.254 866.711 276.455C866.711 273.732 868.041 272.178 870.067 272.178C871.582 272.178 872.675 273.054 872.886 274.492H875.685ZM839.058 291.909H836.303V300.142H836.188L830.538 291.909H828.109V305H830.876V296.761H830.972L836.668 305H839.058V291.909ZM841.345 305H844.113V299.592H849.437V297.31H844.113V294.191H850.013V291.909H841.345V305ZM851.376 294.191H855.383V305H858.119V294.191H862.127V291.909H851.376V294.191ZM802.717 325H811.564V322.718H805.485V319.592H811.084V317.31H805.485V314.191H811.538V311.909H802.717V325ZM815.963 315.182H813.15L815.963 320.091L813.048 325H815.861L817.765 321.606L819.702 325H822.483L819.562 320.091L822.406 315.182H819.613L817.765 318.614L815.963 315.182ZM828.09 325.192C830.705 325.192 832.347 323.658 832.475 321.401H829.906C829.746 322.45 829.055 323.038 828.122 323.038C826.85 323.038 826.026 321.97 826.026 320.091C826.026 318.237 826.857 317.176 828.122 317.176C829.119 317.176 829.759 317.835 829.906 318.812H832.475C832.36 316.543 830.641 315.054 828.077 315.054C825.099 315.054 823.258 317.119 823.258 320.129C823.258 323.114 825.067 325.192 828.09 325.192ZM836.942 319.324C836.948 318.058 837.721 317.317 838.834 317.317C839.939 317.317 840.591 318.026 840.585 319.234V325H843.308V318.749C843.314 316.447 841.959 315.054 839.914 315.054C838.425 315.054 837.427 315.757 836.98 316.914H836.865V311.909H834.219V325H836.942V319.324ZM848.251 325.185C849.702 325.185 850.641 324.553 851.121 323.638H851.197V325H853.78V318.378C853.78 316.038 851.798 315.054 849.612 315.054C847.26 315.054 845.713 316.179 845.336 317.969L847.854 318.173C848.04 317.521 848.621 317.042 849.599 317.042C850.526 317.042 851.057 317.509 851.057 318.314V318.352C851.057 318.985 850.386 319.068 848.679 319.234C846.736 319.413 844.991 320.065 844.991 322.258C844.991 324.201 846.378 325.185 848.251 325.185ZM849.031 323.306C848.193 323.306 847.592 322.916 847.592 322.168C847.592 321.401 848.225 321.024 849.184 320.89C849.778 320.807 850.75 320.666 851.076 320.449V321.491C851.076 322.52 850.226 323.306 849.031 323.306ZM858.615 319.324C858.622 318.058 859.376 317.317 860.476 317.317C861.569 317.317 862.227 318.033 862.221 319.234V325H864.944V318.749C864.944 316.46 863.601 315.054 861.556 315.054C860.098 315.054 859.044 315.77 858.603 316.914H858.488V315.182H855.892V325H858.615V319.324ZM871.513 328.886C874.319 328.886 876.313 327.608 876.313 325.096V315.182H873.61V316.831H873.507C873.143 316.032 872.344 315.054 870.701 315.054C868.547 315.054 866.725 316.729 866.725 320.072C866.725 323.338 868.496 324.859 870.708 324.859C872.274 324.859 873.149 324.073 873.507 323.261H873.622V325.058C873.622 326.406 872.759 326.93 871.577 326.93C870.375 326.93 869.768 326.406 869.544 325.812L867.026 326.151C867.352 327.697 868.867 328.886 871.513 328.886ZM871.571 322.814C870.235 322.814 869.506 321.753 869.506 320.059C869.506 318.391 870.222 317.221 871.571 317.221C872.894 317.221 873.635 318.339 873.635 320.059C873.635 321.791 872.881 322.814 871.571 322.814ZM882.955 325.192C885.384 325.192 887.02 324.009 887.404 322.188L884.885 322.021C884.61 322.769 883.907 323.159 883 323.159C881.638 323.159 880.775 322.258 880.775 320.794V320.788H887.461V320.04C887.461 316.703 885.441 315.054 882.846 315.054C879.957 315.054 878.084 317.106 878.084 320.136C878.084 323.249 879.931 325.192 882.955 325.192ZM880.775 319.1C880.833 317.982 881.683 317.087 882.891 317.087C884.073 317.087 884.892 317.93 884.898 319.1H880.775Z" fill="white"/>
<path d="M959.383 178.674H962.036C961.998 176.341 960.08 174.73 957.165 174.73C954.295 174.73 952.192 176.315 952.205 178.693C952.199 180.624 953.56 181.729 955.772 182.26L957.197 182.618C958.623 182.963 959.415 183.372 959.422 184.254C959.415 185.213 958.508 185.865 957.101 185.865C955.663 185.865 954.628 185.2 954.538 183.89H951.86C951.93 186.722 953.956 188.185 957.133 188.185C960.329 188.185 962.209 186.658 962.215 184.261C962.209 182.081 960.566 180.924 958.29 180.413L957.114 180.131C955.976 179.869 955.024 179.447 955.043 178.508C955.043 177.664 955.791 177.044 957.146 177.044C958.469 177.044 959.281 177.645 959.383 178.674ZM964.077 188H966.844V182.592H972.463V188H975.224V174.909H972.463V180.31H966.844V174.909H964.077V188ZM980.274 174.909H977.506V188H980.274V174.909ZM982.551 188H988.144C991.085 188 992.651 186.466 992.651 184.382C992.651 182.445 991.264 181.276 989.774 181.205V181.077C991.136 180.771 992.139 179.805 992.139 178.265C992.139 176.303 990.682 174.909 987.793 174.909H982.551V188ZM985.319 185.737V182.26H987.639C988.969 182.26 989.793 183.027 989.793 184.107C989.793 185.092 989.122 185.737 987.575 185.737H985.319ZM985.319 180.387V177.146H987.422C988.649 177.146 989.346 177.779 989.346 178.725C989.346 179.761 988.502 180.387 987.371 180.387H985.319ZM1001.55 178.674H1004.21C1004.17 176.341 1002.25 174.73 999.335 174.73C996.465 174.73 994.362 176.315 994.375 178.693C994.369 180.624 995.73 181.729 997.942 182.26L999.367 182.618C1000.79 182.963 1001.59 183.372 1001.59 184.254C1001.59 185.213 1000.68 185.865 999.271 185.865C997.833 185.865 996.798 185.2 996.708 183.89H994.03C994.1 186.722 996.126 188.185 999.303 188.185C1002.5 188.185 1004.38 186.658 1004.38 184.261C1004.38 182.081 1002.74 180.924 1000.46 180.413L999.284 180.131C998.146 179.869 997.194 179.447 997.213 178.508C997.213 177.664 997.961 177.044 999.316 177.044C1000.64 177.044 1001.45 177.645 1001.55 178.674ZM1017.8 179.492C1017.43 176.469 1015.14 174.73 1012.11 174.73C1008.66 174.73 1006.02 177.172 1006.02 181.455C1006.02 185.724 1008.61 188.179 1012.11 188.179C1015.47 188.179 1017.5 185.948 1017.8 183.538L1015 183.526C1014.74 184.925 1013.64 185.731 1012.16 185.731C1010.17 185.731 1008.82 184.254 1008.82 181.455C1008.82 178.732 1010.15 177.178 1012.18 177.178C1013.69 177.178 1014.79 178.054 1015 179.492H1017.8ZM1031.05 178.674H1033.7C1033.66 176.341 1031.75 174.73 1028.83 174.73C1025.96 174.73 1023.86 176.315 1023.87 178.693C1023.86 180.624 1025.23 181.729 1027.44 182.26L1028.86 182.618C1030.29 182.963 1031.08 183.372 1031.09 184.254C1031.08 185.213 1030.17 185.865 1028.77 185.865C1027.33 185.865 1026.29 185.2 1026.2 183.89H1023.53C1023.6 186.722 1025.62 188.185 1028.8 188.185C1032 188.185 1033.87 186.658 1033.88 184.261C1033.87 182.081 1032.23 180.924 1029.96 180.413L1028.78 180.131C1027.64 179.869 1026.69 179.447 1026.71 178.508C1026.71 177.664 1027.46 177.044 1028.81 177.044C1030.14 177.044 1030.95 177.645 1031.05 178.674ZM1037.63 188H1040.5L1042.19 181.825H1042.31L1044 188H1046.88L1049.55 178.182H1046.8L1045.31 184.74H1045.22L1043.61 178.182H1040.91L1039.32 184.778H1039.23L1037.71 178.182H1034.96L1037.63 188ZM1053.8 188.185C1055.25 188.185 1056.19 187.553 1056.67 186.638H1056.75V188H1059.33V181.378C1059.33 179.038 1057.35 178.054 1055.16 178.054C1052.81 178.054 1051.26 179.179 1050.89 180.969L1053.41 181.173C1053.59 180.521 1054.17 180.042 1055.15 180.042C1056.08 180.042 1056.61 180.509 1056.61 181.314V181.352C1056.61 181.985 1055.94 182.068 1054.23 182.234C1052.29 182.413 1050.54 183.065 1050.54 185.258C1050.54 187.201 1051.93 188.185 1053.8 188.185ZM1054.58 186.306C1053.74 186.306 1053.14 185.916 1053.14 185.168C1053.14 184.401 1053.78 184.024 1054.74 183.89C1055.33 183.807 1056.3 183.666 1056.63 183.449V184.491C1056.63 185.52 1055.78 186.306 1054.58 186.306ZM1061.44 191.682H1064.17V186.428H1064.25C1064.63 187.246 1065.45 188.16 1067.04 188.16C1069.27 188.16 1071.02 186.389 1071.02 183.104C1071.02 179.729 1069.2 178.054 1067.04 178.054C1065.4 178.054 1064.61 179.032 1064.25 179.831H1064.13V178.182H1061.44V191.682ZM1064.11 183.091C1064.11 181.339 1064.85 180.221 1066.17 180.221C1067.52 180.221 1068.24 181.391 1068.24 183.091C1068.24 184.804 1067.51 185.993 1066.17 185.993C1064.86 185.993 1064.11 184.842 1064.11 183.091Z" fill="white"/>
<path d="M78.9458 268.377C78.9458 260.989 84.9351 255 92.3232 255H194.272C201.66 255 207.649 260.989 207.649 268.377V351.632C207.649 355.253 206.199 358.685 203.509 361.043C201.09 363.164 197.201 364.293 192.211 365.218C190.474 365.541 188.602 365.838 186.642 366.149C183.099 366.712 179.267 367.321 175.418 368.205C163.74 370.886 151.303 376.204 143.234 390.969C133.988 376.216 121.587 370.894 110.203 368.206C106.486 367.329 102.814 366.721 99.4286 366.161C97.5216 365.846 95.7058 365.545 94.0242 365.22C89.2486 364.296 85.5118 363.17 83.0864 361.043C80.3967 358.685 78.9458 355.253 78.9458 351.632V268.377Z" fill="white" stroke="#CDAC4C" stroke-width="2"/>
<rect x="141.991" y="386.467" width="2.61407" height="103.256" fill="#CDAC4C"/>
<ellipse cx="143.298" cy="491.03" rx="11.7633" ry="3.92111" fill="#CDAC4C"/>
<path d="M108.582 306H116.031V303.972H111.042V294.364H108.582V306ZM117.615 306H120.035V297.273H117.615V306ZM118.831 296.148C119.552 296.148 120.143 295.597 120.143 294.92C120.143 294.25 119.552 293.699 118.831 293.699C118.115 293.699 117.524 294.25 117.524 294.92C117.524 295.597 118.115 296.148 118.831 296.148ZM129.236 299.761C129.02 298.153 127.724 297.159 125.52 297.159C123.287 297.159 121.815 298.193 121.821 299.875C121.815 301.182 122.639 302.028 124.344 302.369L125.855 302.67C126.616 302.824 126.963 303.102 126.974 303.54C126.963 304.057 126.4 304.426 125.554 304.426C124.69 304.426 124.116 304.057 123.969 303.347L121.588 303.472C121.815 305.142 123.236 306.17 125.548 306.17C127.809 306.17 129.429 305.017 129.434 303.295C129.429 302.034 128.605 301.278 126.912 300.932L125.332 300.614C124.52 300.438 124.219 300.159 124.224 299.739C124.219 299.216 124.809 298.875 125.559 298.875C126.4 298.875 126.9 299.335 127.02 299.898L129.236 299.761ZM135.601 297.273H133.959V295.182H131.538V297.273H130.345V299.091H131.538V303.636C131.527 305.347 132.692 306.193 134.447 306.119C135.072 306.097 135.515 305.972 135.76 305.892L135.379 304.091C135.26 304.114 135.004 304.17 134.777 304.17C134.294 304.17 133.959 303.989 133.959 303.318V299.091H135.601V297.273ZM141.061 306.17C143.22 306.17 144.674 305.119 145.015 303.5L142.777 303.352C142.532 304.017 141.907 304.364 141.101 304.364C139.89 304.364 139.123 303.562 139.123 302.261V302.256H145.067V301.591C145.067 298.625 143.271 297.159 140.964 297.159C138.396 297.159 136.731 298.983 136.731 301.676C136.731 304.443 138.373 306.17 141.061 306.17ZM139.123 300.756C139.174 299.761 139.93 298.966 141.004 298.966C142.055 298.966 142.782 299.716 142.788 300.756H139.123ZM149.862 306.142C151.271 306.142 152.004 305.33 152.339 304.602H152.442V306H154.828V294.364H152.413V298.739H152.339C152.015 298.028 151.317 297.159 149.856 297.159C147.942 297.159 146.322 298.648 146.322 301.648C146.322 304.568 147.873 306.142 149.862 306.142ZM150.629 304.216C149.442 304.216 148.794 303.159 148.794 301.636C148.794 300.125 149.43 299.085 150.629 299.085C151.805 299.085 152.464 300.08 152.464 301.636C152.464 303.193 151.794 304.216 150.629 304.216ZM164.464 306.17C167.112 306.17 168.76 304.358 168.76 301.67C168.76 298.966 167.112 297.159 164.464 297.159C161.817 297.159 160.169 298.966 160.169 301.67C160.169 304.358 161.817 306.17 164.464 306.17ZM164.476 304.295C163.254 304.295 162.629 303.176 162.629 301.653C162.629 300.131 163.254 299.006 164.476 299.006C165.674 299.006 166.299 300.131 166.299 301.653C166.299 303.176 165.674 304.295 164.476 304.295ZM172.754 300.955C172.76 299.83 173.43 299.17 174.407 299.17C175.379 299.17 175.964 299.807 175.959 300.875V306H178.379V300.443C178.379 298.409 177.186 297.159 175.368 297.159C174.072 297.159 173.135 297.795 172.743 298.812H172.64V297.273H170.334V306H172.754V300.955ZM103.118 330H106.193V325.284H108.779C112.124 325.284 114.07 323.288 114.07 320.384C114.07 317.493 112.159 315.455 108.857 315.455H103.118V330ZM106.193 322.82V317.969H108.267C110.043 317.969 110.902 318.935 110.902 320.384C110.902 321.825 110.043 322.82 108.282 322.82H106.193ZM118.828 330.206C120.441 330.206 121.485 329.503 122.017 328.487H122.103V330H124.972V322.642C124.972 320.043 122.77 318.949 120.341 318.949C117.728 318.949 116.009 320.199 115.59 322.188L118.388 322.415C118.594 321.69 119.24 321.158 120.327 321.158C121.357 321.158 121.946 321.676 121.946 322.571V322.614C121.946 323.317 121.201 323.409 119.304 323.594C117.145 323.793 115.206 324.517 115.206 326.953C115.206 329.112 116.747 330.206 118.828 330.206ZM119.695 328.118C118.765 328.118 118.097 327.685 118.097 326.854C118.097 326.001 118.8 325.582 119.865 325.433C120.526 325.341 121.605 325.185 121.968 324.943V326.101C121.968 327.244 121.023 328.118 119.695 328.118ZM130.345 323.693C130.352 322.287 131.19 321.463 132.412 321.463C133.626 321.463 134.358 322.259 134.35 323.594V330H137.376V323.054C137.376 320.511 135.885 318.949 133.612 318.949C131.992 318.949 130.821 319.744 130.331 321.016H130.203V319.091H127.319V330H130.345V323.693ZM144.69 330.213C147.594 330.213 149.42 328.509 149.562 326.001H146.707C146.529 327.166 145.762 327.82 144.725 327.82C143.312 327.82 142.396 326.634 142.396 324.545C142.396 322.486 143.319 321.307 144.725 321.307C145.833 321.307 146.543 322.038 146.707 323.125H149.562C149.434 320.604 147.523 318.949 144.675 318.949C141.366 318.949 139.32 321.243 139.32 324.588C139.32 327.905 141.33 330.213 144.69 330.213ZM154.61 330.206C156.222 330.206 157.266 329.503 157.799 328.487H157.884V330H160.753V322.642C160.753 320.043 158.551 318.949 156.122 318.949C153.509 318.949 151.79 320.199 151.371 322.188L154.169 322.415C154.375 321.69 155.022 321.158 156.108 321.158C157.138 321.158 157.728 321.676 157.728 322.571V322.614C157.728 323.317 156.982 323.409 155.086 323.594C152.926 323.793 150.988 324.517 150.988 326.953C150.988 329.112 152.529 330.206 154.61 330.206ZM155.476 328.118C154.546 328.118 153.878 327.685 153.878 326.854C153.878 326.001 154.581 325.582 155.647 325.433C156.307 325.341 157.387 325.185 157.749 324.943V326.101C157.749 327.244 156.804 328.118 155.476 328.118ZM163.1 330H166.126V326.534L166.943 325.604L169.919 330H173.463L169.208 323.814L173.257 319.091H169.784L166.289 323.232H166.126V315.455H163.1V330ZM179.263 330.213C181.962 330.213 183.78 328.899 184.207 326.875L181.408 326.69C181.103 327.521 180.322 327.955 179.313 327.955C177.8 327.955 176.842 326.953 176.842 325.327V325.32H184.271V324.489C184.271 320.781 182.026 318.949 179.143 318.949C175.932 318.949 173.852 321.229 173.852 324.595C173.852 328.054 175.904 330.213 179.263 330.213ZM176.842 323.445C176.905 322.202 177.85 321.207 179.192 321.207C180.506 321.207 181.415 322.145 181.423 323.445H176.842Z" fill="#0C0E11"/>
<path d="M384.641 77.3026C384.236 74.2876 381.807 72.4233 377.674 72.4233C373.487 72.4233 370.728 74.3622 370.738 77.5156C370.728 79.9659 372.272 81.5533 375.468 82.1925L378.302 82.7571C379.73 83.0447 380.38 83.5668 380.401 84.3871C380.38 85.3565 379.325 86.049 377.738 86.049C376.118 86.049 375.042 85.3565 374.765 84.0249L370.301 84.2592C370.728 87.3913 373.391 89.3196 377.727 89.3196C381.967 89.3196 385.003 87.157 385.014 83.929C385.003 81.5639 383.458 80.147 380.284 79.4972L377.322 78.9006C375.799 78.5703 375.234 78.0483 375.245 77.2599C375.234 76.2798 376.342 75.6406 377.748 75.6406C379.325 75.6406 380.262 76.5036 380.486 77.5582L384.641 77.3026ZM392.41 79.5398C392.421 77.4304 393.71 76.1946 395.563 76.1946C397.406 76.1946 398.493 77.3771 398.482 79.3906V89H403.021V78.581C403.031 74.7457 400.773 72.4233 397.364 72.4233C394.882 72.4233 393.22 73.5952 392.474 75.5234H392.282V67.1818H387.872V89H392.41V79.5398ZM406.592 89H411.131V72.6364H406.592V89ZM408.872 70.527C410.225 70.527 411.333 69.4936 411.333 68.2259C411.333 66.9688 410.225 65.9354 408.872 65.9354C407.53 65.9354 406.422 66.9688 406.422 68.2259C406.422 69.4936 407.53 70.527 408.872 70.527ZM414.851 89H419.326V86.3793H419.528C420.157 87.7429 421.531 89.2663 424.173 89.2663C427.902 89.2663 430.81 86.3153 430.81 80.8395C430.81 75.2145 427.774 72.4233 424.184 72.4233C421.446 72.4233 420.135 74.0533 419.528 75.3849H419.39V67.1818H414.851V89ZM419.294 80.8182C419.294 77.8991 420.53 76.0348 422.735 76.0348C424.983 76.0348 426.176 77.9844 426.176 80.8182C426.176 83.6733 424.961 85.6548 422.735 85.6548C420.551 85.6548 419.294 83.7372 419.294 80.8182ZM447.453 77.3026C447.049 74.2876 444.62 72.4233 440.486 72.4233C436.299 72.4233 433.54 74.3622 433.551 77.5156C433.54 79.9659 435.085 81.5533 438.281 82.1925L441.115 82.7571C442.542 83.0447 443.192 83.5668 443.213 84.3871C443.192 85.3565 442.137 86.049 440.55 86.049C438.931 86.049 437.855 85.3565 437.578 84.0249L433.114 84.2592C433.54 87.3913 436.203 89.3196 440.539 89.3196C444.779 89.3196 447.816 87.157 447.826 83.929C447.816 81.5639 446.271 80.147 443.096 79.4972L440.135 78.9006C438.611 78.5703 438.047 78.0483 438.057 77.2599C438.047 76.2798 439.154 75.6406 440.561 75.6406C442.137 75.6406 443.075 76.5036 443.299 77.5582L447.453 77.3026ZM458.078 89.3196C462.435 89.3196 465.173 86.7628 465.386 83.0021H461.103C460.837 84.7493 459.686 85.7294 458.131 85.7294C456.011 85.7294 454.637 83.9503 454.637 80.8182C454.637 77.7287 456.021 75.9602 458.131 75.9602C459.793 75.9602 460.858 77.0575 461.103 78.6875H465.386C465.194 74.9055 462.328 72.4233 458.056 72.4233C453.092 72.4233 450.024 75.8643 450.024 80.8821C450.024 85.8572 453.039 89.3196 458.078 89.3196ZM470.944 89.277C472.308 89.277 473.49 88.1371 473.501 86.7202C473.49 85.3246 472.308 84.1847 470.944 84.1847C469.538 84.1847 468.377 85.3246 468.387 86.7202C468.377 88.1371 469.538 89.277 470.944 89.277ZM484.621 89.3196C488.978 89.3196 491.716 86.7628 491.929 83.0021H487.646C487.38 84.7493 486.229 85.7294 484.674 85.7294C482.554 85.7294 481.18 83.9503 481.18 80.8182C481.18 77.7287 482.564 75.9602 484.674 75.9602C486.336 75.9602 487.401 77.0575 487.646 78.6875H491.929C491.737 74.9055 488.871 72.4233 484.599 72.4233C479.635 72.4233 476.567 75.8643 476.567 80.8821C476.567 85.8572 479.581 89.3196 484.621 89.3196ZM502.228 89.3196C507.192 89.3196 510.282 85.9212 510.282 80.8821C510.282 75.8111 507.192 72.4233 502.228 72.4233C497.263 72.4233 494.174 75.8111 494.174 80.8821C494.174 85.9212 497.263 89.3196 502.228 89.3196ZM502.249 85.804C499.959 85.804 498.787 83.7053 498.787 80.8501C498.787 77.995 499.959 75.8857 502.249 75.8857C504.497 75.8857 505.669 77.995 505.669 80.8501C505.669 83.7053 504.497 85.804 502.249 85.804ZM513.233 89H517.771V79.1776C517.771 77.3665 518.922 76.1626 520.435 76.1626C521.926 76.1626 522.928 77.1854 522.928 78.794V89H527.327V79.0071C527.327 77.3132 528.297 76.1626 529.948 76.1626C531.397 76.1626 532.484 77.0682 532.484 78.8899V89H537.011V77.995C537.011 74.4474 534.902 72.4233 531.855 72.4233C529.458 72.4233 527.594 73.6484 526.923 75.5234H526.752C526.23 73.6271 524.558 72.4233 522.31 72.4233C520.104 72.4233 518.432 73.5952 517.75 75.5234H517.558V72.6364H513.233V89Z" fill="white"/>
<mask id="path-34-inside-1" fill="white">
<path fill-rule="evenodd" clip-rule="evenodd" d="M151.946 438H133.946V457H122.946L143.446 482L163.946 457H151.946V438Z"/>
</mask>
<path fill-rule="evenodd" clip-rule="evenodd" d="M151.946 438H133.946V457H122.946L143.446 482L163.946 457H151.946V438Z" fill="#EE845A"/>
<path d="M133.946 438V434H129.946V438H133.946ZM151.946 438H155.946V434H151.946V438ZM133.946 457V461H137.946V457H133.946ZM122.946 457V453H114.493L119.853 459.536L122.946 457ZM143.446 482L140.353 484.536L143.446 488.308L146.539 484.536L143.446 482ZM163.946 457L167.039 459.536L172.399 453H163.946V457ZM151.946 457H147.946V461H151.946V457ZM133.946 442H151.946V434H133.946V442ZM137.946 457V438H129.946V457H137.946ZM122.946 461H133.946V453H122.946V461ZM146.539 479.464L126.039 454.464L119.853 459.536L140.353 484.536L146.539 479.464ZM160.853 454.464L140.353 479.464L146.539 484.536L167.039 459.536L160.853 454.464ZM151.946 461H163.946V453H151.946V461ZM147.946 438V457H155.946V438H147.946Z" fill="white" mask="url(#path-34-inside-1)"/>
<mask id="path-36-inside-2" fill="white">
<path d="M170.946 421C170.946 436.464 158.41 449 142.946 449C127.482 449 114.946 436.464 114.946 421C114.946 405.536 127.482 393 142.946 393C158.41 393 170.946 405.536 170.946 421Z"/>
</mask>
<path d="M170.946 421C170.946 436.464 158.41 449 142.946 449C127.482 449 114.946 436.464 114.946 421C114.946 405.536 127.482 393 142.946 393C158.41 393 170.946 405.536 170.946 421Z" fill="#F9A17E"/>
<path d="M166.946 421C166.946 434.255 156.201 445 142.946 445V453C160.619 453 174.946 438.673 174.946 421H166.946ZM142.946 445C129.691 445 118.946 434.255 118.946 421H110.946C110.946 438.673 125.273 453 142.946 453V445ZM118.946 421C118.946 407.745 129.691 397 142.946 397V389C125.273 389 110.946 403.327 110.946 421H118.946ZM142.946 397C156.201 397 166.946 407.745 166.946 421H174.946C174.946 403.327 160.619 389 142.946 389V397Z" fill="white" mask="url(#path-36-inside-2)"/>
<path d="M131.303 435.921C131.648 435.109 132.194 434.461 132.863 433.936C132.719 433.857 132.575 433.778 132.432 433.692L132.453 433.713C131.389 434.742 129.627 436.957 129.231 438.244C129.21 438.316 129.188 438.395 129.167 438.474C129.792 438.848 130.432 439.193 131.087 439.517C130.792 438.258 130.835 437.022 131.303 435.921Z" fill="#ECBC70"/>
<path d="M153.97 433.994L154.064 433.893C153.848 434.016 153.639 434.138 153.424 434.26L153.294 434.483C153.611 434.835 153.891 435.231 154.107 435.677C154.718 436.935 154.783 438.388 154.445 439.855C155.286 439.474 156.099 439.05 156.897 438.582C156.861 438.41 156.818 438.259 156.775 438.115C156.372 436.827 155.035 435.022 153.97 433.994Z" fill="#ECBC70"/>
<path d="M154.107 435.677C153.891 435.231 153.618 434.835 153.294 434.483C153.265 434.447 153.229 434.418 153.201 434.382C151.539 435.274 149.842 435.95 148.116 436.403C146.038 436.949 144.405 437.036 143.55 437.036C143.514 437.036 143.478 437.036 143.442 437.036C141.932 437.021 140.148 436.712 138.264 436.151C137.185 435.828 135.179 435.224 132.863 433.936C132.194 434.461 131.648 435.116 131.303 435.921C130.828 437.021 130.792 438.258 131.08 439.51C134.711 441.3 138.803 442.3 143.125 442.3C147.16 442.3 150.993 441.423 154.445 439.855C154.783 438.388 154.718 436.928 154.107 435.677Z" fill="white"/>
<path d="M159.889 427.666C160.91 426.45 161.651 425.105 161.816 423.459C161.838 423.25 161.845 423.034 161.845 422.826C161.579 424.012 161.09 425.566 160.162 427.198C160.076 427.363 159.982 427.515 159.889 427.666Z" fill="#ECBC70"/>
<path d="M126.729 422.034C126.729 421.963 126.729 421.891 126.743 421.819C126.916 420.704 128.714 420.064 130.749 420.388C132.784 420.711 134.294 421.869 134.114 422.984C134.093 423.12 134.05 423.25 133.978 423.372C134.488 423.573 134.898 423.789 135.208 424.048C135.574 423.192 136.344 422.466 137.84 421.171C138.631 420.488 140.378 418.985 142.982 418.906C146.045 418.82 148.116 420.769 148.677 421.294C150.08 422.61 150.72 423.35 151.007 424.17C151.813 423.545 152.87 423.573 154.186 423.034C154.136 422.926 154.092 422.811 154.078 422.696C153.905 421.581 155.408 420.424 157.444 420.1C159.479 419.776 161.269 420.416 161.449 421.531C161.471 421.682 161.464 421.833 161.428 421.991C161.557 422.006 161.687 422.02 161.802 422.034C161.701 421.107 161.449 420.122 161.118 418.856L161.018 418.475C160.536 416.634 159.853 414.836 158.983 413.139L158.889 412.952L158.947 412.75C159.464 410.816 159.982 408.917 160.486 407.112L160.507 407.04C160.953 405.451 161.507 403.473 161.55 400.899C161.579 399.216 161.363 398.698 161.032 398.432C160.507 398.008 159.63 398.188 158.623 398.446C157.163 398.82 156.243 399.496 154.215 400.992L153.841 401.266C152.704 402.1 151.518 402.955 150.324 403.818L150.137 403.955L149.914 403.919C147.778 403.56 145.606 403.38 143.442 403.38C143.427 403.38 143.406 403.38 143.391 403.38C141.126 403.38 138.839 403.588 136.603 403.984L136.337 404.034L136.135 403.854C134.438 402.287 132.662 400.841 130.864 399.532C129.418 398.49 128.455 397.9 127.664 397.9C127.506 397.9 127.347 397.921 127.196 397.972C126.664 398.152 126.348 398.576 126.197 398.777C125.204 400.122 125.499 402.078 126.024 404.696C126.549 407.314 127.189 409.967 127.923 412.578L127.98 412.786L127.887 412.98C127.146 414.44 126.542 415.979 126.089 417.561C125.607 419.244 125.161 420.783 125.068 422.279C125.535 422.178 126.096 422.085 126.729 422.034ZM156.933 400.597C157.782 400.187 159.644 399.288 160.255 399.827C160.27 399.842 160.284 399.849 160.299 399.863C160.557 400.144 160.421 400.625 160.299 401.15C159.709 403.624 159.551 406.184 159.076 408.68C158.853 409.852 158.752 410.406 158.465 410.456C157.918 410.55 157.487 408.709 155.89 406.904C155.336 406.278 154.761 405.789 154.251 405.415C153.956 405.199 153.682 405.027 153.438 404.883C152.978 404.689 152.819 404.459 152.762 404.272C152.424 403.128 155.344 401.359 156.933 400.597ZM151.935 415.814C152.819 415.929 154.02 416.792 154.481 417.274C154.948 417.756 155.466 418.295 155.322 418.856C155.178 419.417 154.56 419.834 152.143 419.481C149.727 419.129 148.023 418.453 147.807 418.338C147.591 418.223 147.073 417.986 147.102 417.662C147.131 417.338 148.138 416.626 149.13 416.267C150.101 415.922 151.022 415.699 151.935 415.814ZM145.686 412.93C145.729 412.851 146.16 412.081 146.944 412.06C147.893 412.031 148.382 413.11 148.425 413.203C148.49 413.354 148.799 414.052 148.476 414.584C147.994 415.368 146.326 415.476 145.707 414.606C145.362 414.117 145.419 413.419 145.686 412.93ZM137.135 413.477C137.171 413.39 137.631 412.391 138.508 412.419C139.242 412.441 139.638 413.153 139.681 413.232C139.925 413.692 139.983 414.332 139.659 414.785C139.084 415.591 137.538 415.49 137.092 414.764C136.79 414.268 137.07 413.613 137.135 413.477ZM136.639 416.094C137.631 416.454 138.638 417.166 138.667 417.489C138.695 417.813 138.178 418.05 137.962 418.165C137.746 418.28 136.035 418.956 133.625 419.309C131.209 419.661 130.583 419.244 130.447 418.683C130.303 418.122 130.821 417.583 131.288 417.101C131.756 416.619 132.949 415.756 133.834 415.641C134.747 415.519 135.668 415.742 136.639 416.094ZM127.98 408.586C127.498 406.091 127.347 403.531 126.758 401.057C126.635 400.532 126.499 400.05 126.758 399.77C126.772 399.755 126.786 399.748 126.801 399.734C127.412 399.194 129.275 400.093 130.123 400.503C131.705 401.273 134.625 403.035 134.287 404.178C134.23 404.365 134.071 404.595 133.611 404.789C133.374 404.933 133.093 405.106 132.798 405.321C132.288 405.695 131.713 406.177 131.159 406.81C129.569 408.615 129.138 410.456 128.584 410.363C128.297 410.312 128.203 409.759 127.98 408.586Z" fill="#ECBC70"/>
<path d="M158.084 424.127C156.264 424.415 154.639 423.933 154.193 423.034C152.87 423.574 151.813 423.545 151.014 424.17C150.727 423.351 150.087 422.61 148.684 421.294C148.123 420.769 146.052 418.813 142.989 418.906C140.378 418.985 138.631 420.488 137.847 421.172C136.351 422.466 135.582 423.192 135.215 424.048C134.906 423.782 134.496 423.566 133.985 423.372C133.503 424.242 131.907 424.695 130.116 424.415C128.21 424.113 126.772 423.077 126.736 422.035C126.103 422.085 125.542 422.178 125.075 422.279C125.017 423.135 125.075 423.976 125.305 424.825C125.88 426.99 127.311 428.262 129.476 430.183C133.165 433.462 136.962 434.605 138.588 435.094C140.371 435.626 142.054 435.921 143.456 435.936C144.218 435.943 145.793 435.878 147.843 435.339C151 434.512 154.064 432.901 156.955 430.542C158.019 429.593 159.054 428.672 159.903 427.666C159.997 427.514 160.09 427.363 160.176 427.205C161.104 425.566 161.593 424.019 161.859 422.833C161.859 422.567 161.845 422.308 161.816 422.035C161.694 422.02 161.571 422.006 161.442 421.991C161.198 422.948 159.838 423.847 158.084 424.127ZM142.557 421.013C144.743 421.013 145.398 422.049 145.398 422.322C145.398 422.596 145.182 422.926 144.276 423.768C143.37 424.609 142.421 424.372 142.421 424.372C140.781 424.372 139.803 422.459 139.803 422.164C139.803 421.855 140.378 421.013 142.557 421.013ZM138.163 426.544L138.372 426.486C138.393 426.551 138.811 427.939 139.997 427.817C140.601 427.759 140.817 427.644 141.018 427.536C141.248 427.414 141.471 427.299 142.083 427.263C141.91 426.874 141.752 426.069 142.169 424.58L142.442 424.659C141.982 426.292 142.248 427.011 142.399 427.256C143.046 427.256 143.629 427.363 144.197 427.471C144.916 427.608 145.592 427.73 146.239 427.586C147.419 427.313 148.346 426.321 148.541 425.731L148.95 425.868C148.684 426.673 147.57 427.723 146.333 428.004C145.599 428.176 144.88 428.039 144.118 427.896C143.571 427.795 143.003 427.687 142.385 427.687C141.644 427.687 141.45 427.795 141.22 427.91C140.99 428.032 140.731 428.169 140.04 428.241C139.976 428.248 139.918 428.248 139.853 428.248C138.731 428.248 138.12 427.191 137.955 426.594L138.163 426.544Z" fill="white"/>
<path d="M157.666 431.369C160.076 429.226 162.571 427.004 162.909 423.566C163.067 421.97 162.693 420.546 162.176 418.576L162.075 418.202C161.593 416.346 160.91 414.541 160.047 412.83C160.543 410.967 161.039 409.148 161.528 407.407L161.55 407.335C162.01 405.681 162.593 403.632 162.636 400.913C162.665 399.331 162.514 398.217 161.708 397.569C160.708 396.771 159.335 397.116 158.335 397.375C156.667 397.799 155.624 398.569 153.546 400.101L153.179 400.374C152.1 401.165 150.986 401.97 149.857 402.783C147.735 402.438 145.578 402.265 143.427 402.265C143.413 402.265 143.391 402.265 143.377 402.265C141.133 402.265 138.882 402.459 136.667 402.841C134.999 401.338 133.266 399.928 131.504 398.648C129.764 397.375 128.318 396.447 126.851 396.929C125.988 397.217 125.499 397.871 125.319 398.123C124.054 399.835 124.37 402.014 124.953 404.919C125.47 407.493 126.096 410.104 126.815 412.679C126.089 414.146 125.492 415.685 125.039 417.259C124.226 420.057 123.536 422.473 124.233 425.105C124.895 427.586 126.506 429.025 128.735 431.002C129.713 431.873 130.698 432.599 131.655 433.21C130.893 433.85 130.26 434.555 129.771 435.332C129.605 435.598 129.454 435.871 129.325 436.151C128.893 436.813 128.548 437.453 128.383 437.978V437.985C128.642 438.151 128.901 438.309 129.167 438.467C129.188 438.388 129.21 438.309 129.231 438.237C129.634 436.95 131.389 434.735 132.453 433.706L132.432 433.685C132.575 433.771 132.719 433.85 132.863 433.929C135.179 435.217 137.178 435.821 138.264 436.144C140.141 436.712 141.932 437.014 143.442 437.029C143.478 437.029 143.514 437.029 143.55 437.029C144.398 437.029 146.038 436.943 148.116 436.396C149.842 435.943 151.547 435.267 153.201 434.375C153.272 434.332 153.352 434.296 153.424 434.253C153.639 434.138 153.848 434.016 154.064 433.886L153.97 433.987C155.034 435.015 156.372 436.82 156.775 438.108C156.818 438.251 156.861 438.41 156.897 438.575C157.163 438.417 157.429 438.259 157.688 438.093C157.666 438.007 157.638 437.928 157.616 437.841C157.192 436.468 155.869 434.627 154.725 433.483C155.718 432.858 156.696 432.16 157.652 431.376L157.666 431.369ZM127.894 412.981L127.987 412.786L127.93 412.578C127.196 409.975 126.556 407.321 126.031 404.703C125.506 402.086 125.211 400.122 126.204 398.785C126.355 398.583 126.671 398.159 127.203 397.979C127.354 397.929 127.505 397.907 127.671 397.907C128.462 397.907 129.426 398.49 130.864 399.54C132.662 400.849 134.438 402.294 136.135 403.84L136.337 404.02L136.603 403.97C138.839 403.574 141.119 403.366 143.391 403.366C143.406 403.366 143.427 403.366 143.442 403.366C145.599 403.366 147.778 403.545 149.914 403.905L150.137 403.941L150.324 403.804C151.518 402.948 152.704 402.093 153.841 401.251L154.215 400.978C156.243 399.489 157.17 398.806 158.623 398.432C159.63 398.173 160.507 397.994 161.032 398.418C161.363 398.684 161.579 399.202 161.55 400.885C161.507 403.459 160.953 405.437 160.507 407.026L160.486 407.098C159.982 408.903 159.464 410.794 158.947 412.736L158.889 412.937L158.983 413.124C159.853 414.822 160.536 416.612 161.018 418.46L161.118 418.842C161.449 420.107 161.708 421.093 161.802 422.02C161.83 422.286 161.845 422.552 161.845 422.818C161.845 423.027 161.838 423.236 161.816 423.451C161.658 425.098 160.917 426.436 159.889 427.658C159.047 428.665 158.004 429.586 156.94 430.535C154.056 432.887 150.986 434.505 147.829 435.332C145.779 435.871 144.204 435.936 143.442 435.929C142.039 435.914 140.357 435.626 138.573 435.087C136.948 434.598 133.151 433.455 129.462 430.175C127.297 428.248 125.866 426.982 125.291 424.818C125.06 423.969 125.003 423.128 125.06 422.272C125.154 420.776 125.6 419.237 126.082 417.554C126.549 415.987 127.153 414.44 127.894 412.981Z" fill="#40220F"/>
<path d="M139.659 414.786C139.983 414.332 139.932 413.685 139.681 413.232C139.638 413.153 139.242 412.441 138.508 412.42C137.631 412.391 137.171 413.39 137.135 413.477C137.077 413.613 136.79 414.268 137.092 414.764C137.53 415.49 139.084 415.591 139.659 414.786Z" fill="white"/>
<path d="M148.476 414.577C148.799 414.045 148.49 413.34 148.426 413.196C148.382 413.103 147.893 412.024 146.944 412.053C146.16 412.074 145.729 412.844 145.686 412.923C145.419 413.412 145.362 414.11 145.707 414.599C146.326 415.469 147.994 415.361 148.476 414.577Z" fill="white"/>
<path d="M128.592 410.363C129.138 410.456 129.57 408.615 131.166 406.81C131.72 406.184 132.295 405.695 132.806 405.322C129.778 401.719 128.167 400.403 127.247 399.957C127.175 399.921 126.988 399.834 126.794 399.727C126.779 399.741 126.765 399.748 126.751 399.763C126.492 400.043 126.628 400.525 126.751 401.05C127.34 403.524 127.498 406.084 127.973 408.579C128.203 409.759 128.297 410.312 128.592 410.363Z" fill="#F6EDEA"/>
<path d="M132.798 405.322C133.093 405.106 133.367 404.933 133.611 404.789C134.071 404.595 134.23 404.365 134.287 404.178C134.625 403.035 131.705 401.273 130.123 400.503C129.267 400.093 127.412 399.194 126.794 399.734C126.988 399.842 127.182 399.928 127.247 399.964C128.167 400.403 129.778 401.719 132.798 405.322Z" fill="#E1D5CE"/>
<path d="M154.251 405.415C154.761 405.789 155.337 406.271 155.89 406.904C157.48 408.709 157.911 410.55 158.465 410.456C158.752 410.406 158.853 409.852 159.076 408.68C159.558 406.184 159.709 403.624 160.299 401.15C160.421 400.625 160.558 400.144 160.299 399.863C160.284 399.849 160.27 399.842 160.255 399.827C160.061 399.935 159.867 400.021 159.802 400.057C158.882 400.496 157.278 401.812 154.251 405.415Z" fill="#F6EDEA"/>
<path d="M153.438 404.883C153.675 405.027 153.956 405.199 154.251 405.415C157.278 401.812 158.882 400.496 159.802 400.05C159.874 400.014 160.061 399.928 160.255 399.82C159.644 399.281 157.782 400.18 156.933 400.589C155.351 401.359 152.431 403.121 152.769 404.264C152.82 404.451 152.978 404.681 153.438 404.883Z" fill="#E1D5CE"/>
<path d="M147.102 417.662C147.073 417.986 147.591 418.223 147.807 418.338C148.023 418.453 149.734 419.129 152.143 419.482C154.553 419.834 155.185 419.417 155.322 418.856C155.459 418.295 154.948 417.756 154.481 417.274C154.013 416.792 152.819 415.929 151.935 415.814C151.022 415.699 150.101 415.922 149.13 416.274C148.138 416.627 147.131 417.339 147.102 417.662Z" fill="#4B1E0E"/>
<path d="M131.288 417.094C130.821 417.576 130.303 418.115 130.447 418.676C130.591 419.237 131.209 419.654 133.625 419.302C136.042 418.949 137.746 418.273 137.962 418.158C138.178 418.043 138.695 417.806 138.667 417.482C138.638 417.159 137.631 416.447 136.639 416.087C135.668 415.735 134.747 415.512 133.834 415.627C132.949 415.749 131.756 416.612 131.288 417.094Z" fill="#4B1E0E"/>
<path d="M139.853 428.248C139.911 428.248 139.976 428.248 140.04 428.241C140.731 428.169 140.99 428.032 141.22 427.91C141.45 427.788 141.644 427.687 142.385 427.687C142.996 427.687 143.564 427.795 144.118 427.896C144.88 428.039 145.599 428.176 146.333 428.003C147.57 427.716 148.684 426.666 148.951 425.868L148.541 425.731C148.346 426.313 147.412 427.313 146.239 427.586C145.592 427.737 144.916 427.608 144.197 427.471C143.629 427.363 143.046 427.256 142.399 427.256C142.248 427.011 141.982 426.292 142.442 424.659L142.169 424.58C141.752 426.069 141.903 426.874 142.083 427.263C141.471 427.292 141.256 427.407 141.018 427.536C140.817 427.644 140.601 427.759 139.997 427.816C138.803 427.939 138.386 426.551 138.372 426.486L138.163 426.544L137.955 426.601C138.12 427.191 138.732 428.248 139.853 428.248Z" fill="#330108"/>
<path d="M142.421 424.372C142.421 424.372 143.377 424.616 144.276 423.768C145.175 422.919 145.398 422.596 145.398 422.322C145.398 422.049 144.744 421.013 142.557 421.013C140.371 421.013 139.803 421.862 139.803 422.157C139.803 422.459 140.788 424.372 142.421 424.372Z" fill="#330108"/>
<path d="M158.084 424.127C159.838 423.847 161.205 422.948 161.428 421.991C161.464 421.84 161.471 421.689 161.449 421.531C161.277 420.417 159.479 419.776 157.444 420.1C155.408 420.424 153.898 421.582 154.078 422.696C154.1 422.811 154.136 422.926 154.186 423.034C154.639 423.933 156.264 424.415 158.084 424.127Z" fill="#EF9F86"/>
<path d="M130.109 424.415C131.892 424.695 133.489 424.235 133.978 423.372C134.043 423.25 134.093 423.12 134.115 422.984C134.287 421.869 132.784 420.711 130.749 420.388C128.714 420.064 126.923 420.704 126.743 421.819C126.729 421.891 126.729 421.963 126.729 422.035C126.765 423.077 128.203 424.113 130.109 424.415Z" fill="#EF9F86"/>
<circle cx="93" cy="72" r="25" fill="#F9A17E"/>
<path d="M81.3568 86.9212C81.702 86.1086 82.2486 85.4614 82.9174 84.9364C82.7735 84.8573 82.6297 84.7782 82.4859 84.6919L82.5074 84.7135C81.4431 85.7418 79.6812 87.9568 79.2857 89.2441C79.2641 89.316 79.2425 89.3951 79.2209 89.4742C79.8466 89.8482 80.4866 90.1934 81.1411 90.517C80.8462 89.2585 80.8894 88.0215 81.3568 86.9212Z" fill="#ECBC70"/>
<path d="M104.024 84.994L104.118 84.8933C103.902 85.0156 103.694 85.1378 103.478 85.2601L103.348 85.483C103.665 85.8354 103.945 86.2309 104.161 86.6768C104.772 87.9353 104.837 89.388 104.499 90.855C105.34 90.4739 106.153 90.0496 106.951 89.5821C106.915 89.4095 106.872 89.2585 106.829 89.1147C106.426 87.8274 105.089 86.0224 104.024 84.994Z" fill="#ECBC70"/>
<path d="M104.161 86.6769C103.945 86.231 103.672 85.8355 103.348 85.4831C103.32 85.4471 103.284 85.4183 103.255 85.3824C101.594 86.2741 99.8964 86.9501 98.1704 87.4032C96.0921 87.9497 94.4597 88.036 93.6039 88.036C93.5679 88.036 93.532 88.036 93.496 88.036C91.9858 88.0217 90.2023 87.7124 88.3181 87.1515C87.2394 86.8279 85.233 86.2238 82.9174 84.9365C82.2486 85.4615 81.702 86.1159 81.3568 86.9214C80.8822 88.0217 80.8462 89.2586 81.1339 90.5099C84.7656 92.3006 88.8575 93.3002 93.1796 93.3002C97.214 93.3002 101.047 92.4228 104.499 90.8551C104.837 89.388 104.772 87.9282 104.161 86.6769Z" fill="white"/>
<path d="M109.943 78.6655C110.964 77.4502 111.705 76.1054 111.87 74.4585C111.892 74.25 111.899 74.0342 111.899 73.8257C111.633 75.0123 111.144 76.5656 110.216 78.1981C110.13 78.3635 110.036 78.5145 109.943 78.6655Z" fill="#ECBC70"/>
<path d="M76.7831 73.0347C76.7831 72.9628 76.7831 72.8909 76.7974 72.8189C76.97 71.7043 78.7679 71.0642 80.8031 71.3878C82.8383 71.7115 84.3485 72.8693 84.1687 73.984C84.1471 74.1206 84.104 74.25 84.032 74.3723C84.5426 74.5737 84.9526 74.7894 85.2618 75.0483C85.6285 74.1925 86.398 73.4662 87.8939 72.1717C88.6849 71.4885 90.4324 69.9855 93.0358 69.9064C96.0993 69.8201 98.1705 71.769 98.7314 72.294C100.134 73.61 100.774 74.3507 101.061 75.1705C101.867 74.5449 102.924 74.5737 104.24 74.0343C104.19 73.9264 104.147 73.8114 104.132 73.6963C103.96 72.5816 105.463 71.4238 107.498 71.1002C109.533 70.7766 111.324 71.4166 111.503 72.5313C111.525 72.6823 111.518 72.8333 111.482 72.9915C111.611 73.0059 111.741 73.0203 111.856 73.0347C111.755 72.107 111.503 71.1218 111.173 69.8561L111.072 69.4749C110.59 67.6339 109.907 65.836 109.037 64.1388L108.943 63.9519L109.001 63.7505C109.519 61.816 110.036 59.9175 110.54 58.1124L110.561 58.0405C111.007 56.4512 111.561 54.4735 111.604 51.899C111.633 50.2162 111.417 49.6984 111.086 49.4323C110.561 49.008 109.684 49.1878 108.677 49.4467C107.217 49.8207 106.297 50.4967 104.269 51.9925L103.895 52.2657C102.759 53.1 101.572 53.9557 100.378 54.8187L100.191 54.9554L99.9683 54.9194C97.8325 54.5598 95.6606 54.38 93.496 54.38C93.4816 54.38 93.46 54.38 93.4457 54.38C91.1804 54.38 88.8935 54.5886 86.6569 54.9841L86.3908 55.0345L86.1895 54.8547C84.4923 53.2869 82.716 51.8415 80.9181 50.5326C79.4727 49.4898 78.509 48.9001 77.7179 48.9001C77.5597 48.9001 77.4015 48.9217 77.2505 48.9721C76.7183 49.1518 76.4019 49.5761 76.2509 49.7775C75.2585 51.1223 75.5533 53.0784 76.0783 55.6961C76.6033 58.3138 77.2433 60.9674 77.9768 63.5779L78.0344 63.7865L77.9409 63.9806C77.2002 65.4405 76.5961 66.9795 76.143 68.5616C75.6612 70.2444 75.2153 71.7834 75.1218 73.2792C75.5893 73.1785 76.1502 73.085 76.7831 73.0347ZM106.987 51.5969C107.836 51.187 109.698 50.2881 110.31 50.8275C110.324 50.8418 110.338 50.849 110.353 50.8634C110.612 51.1439 110.475 51.6257 110.353 52.1507C109.763 54.6245 109.605 57.1847 109.13 59.6801C108.907 60.8524 108.807 61.4061 108.519 61.4564C107.972 61.5499 107.541 59.7089 105.944 57.9039C105.391 57.2782 104.815 56.7892 104.305 56.4152C104.01 56.1995 103.737 56.0269 103.492 55.8831C103.032 55.6889 102.874 55.4588 102.816 55.2718C102.478 54.1283 105.398 52.3592 106.987 51.5969ZM101.989 66.8141C102.874 66.9291 104.075 67.7921 104.535 68.2739C105.002 68.7558 105.52 69.2951 105.376 69.8561C105.232 70.417 104.614 70.8341 102.198 70.4817C99.7813 70.1293 98.077 69.4533 97.8612 69.3383C97.6455 69.2232 97.1277 68.9859 97.1565 68.6623C97.1852 68.3387 98.192 67.6267 99.1844 67.2671C100.155 66.9219 101.076 66.699 101.989 66.8141ZM95.7397 63.9303C95.7829 63.8512 96.2144 63.0817 96.9982 63.0601C97.9475 63.0314 98.4365 64.1101 98.4797 64.2036C98.5444 64.3546 98.8536 65.0522 98.53 65.5843C98.0482 66.3682 96.3798 66.4761 95.7613 65.6059C95.4161 65.1169 95.4737 64.4193 95.7397 63.9303ZM87.1891 64.4768C87.2251 64.3905 87.6853 63.3909 88.5627 63.4197C89.2962 63.4413 89.6917 64.1532 89.7349 64.2323C89.9794 64.6926 90.0369 65.3326 89.7133 65.7857C89.138 66.5911 87.5918 66.4905 87.1459 65.7641C86.8439 65.2679 87.1244 64.6135 87.1891 64.4768ZM86.6929 67.0945C87.6853 67.4541 88.6921 68.1661 88.7209 68.4897C88.7496 68.8133 88.2319 69.0506 88.0161 69.1657C87.8004 69.2807 86.0888 69.9567 83.6797 70.3091C81.2633 70.6615 80.6377 70.2444 80.501 69.6835C80.3572 69.1225 80.875 68.5832 81.3424 68.1013C81.8099 67.6195 83.0037 66.7565 83.8882 66.6415C84.8015 66.5192 85.722 66.7422 86.6929 67.0945ZM78.0344 59.5867C77.5525 57.0912 77.4015 54.5311 76.8118 52.0572C76.6896 51.5322 76.5529 51.0504 76.8118 50.7699C76.8262 50.7555 76.8406 50.7484 76.855 50.734C77.4662 50.1946 79.3288 51.0935 80.1774 51.5035C81.7595 52.2729 84.6793 54.0348 84.3413 55.1783C84.2837 55.3653 84.1255 55.5954 83.6653 55.7896C83.428 55.9334 83.1475 56.106 82.8526 56.3217C82.3421 56.6957 81.7667 57.1775 81.213 57.8104C79.6237 59.6154 79.1922 61.4564 78.6384 61.3629C78.3508 61.3126 78.2573 60.7589 78.0344 59.5867Z" fill="#ECBC70"/>
<path d="M108.138 75.1273C106.318 75.415 104.693 74.9331 104.247 74.0342C102.924 74.5736 101.867 74.5448 101.069 75.1705C100.781 74.3506 100.141 73.6099 98.7386 72.2939C98.1777 71.7689 96.1065 69.8128 93.0429 69.9063C90.4324 69.9854 88.6849 71.4884 87.9011 72.1716C86.4052 73.4661 85.6357 74.1924 85.269 75.0482C84.9598 74.7821 84.5498 74.5664 84.0392 74.3722C83.5574 75.2424 81.9609 75.6954 80.1702 75.415C78.2645 75.1129 76.8262 74.0774 76.7903 73.0346C76.1574 73.0849 75.5965 73.1784 75.129 73.2791C75.0715 74.1349 75.129 74.9763 75.3592 75.8249C75.9345 77.9895 77.3656 79.2624 79.5302 81.1825C83.2194 84.4618 87.0165 85.6053 88.6418 86.0943C90.4253 86.6265 92.1081 86.9213 93.5104 86.9357C94.2727 86.9429 95.8476 86.8782 97.8972 86.3388C101.054 85.5118 104.118 83.9009 107.009 81.5421C108.073 80.5928 109.109 79.6723 109.957 78.6655C110.051 78.5145 110.144 78.3635 110.231 78.2053C111.158 76.5656 111.647 75.0194 111.913 73.8329C111.913 73.5668 111.899 73.3079 111.87 73.0346C111.748 73.0202 111.626 73.0058 111.496 72.9915C111.252 73.9479 109.893 74.8468 108.138 75.1273ZM92.6115 72.0134C94.7977 72.0134 95.4521 73.049 95.4521 73.3223C95.4521 73.5955 95.2363 73.9263 94.3302 74.7677C93.4241 75.6091 92.4748 75.3718 92.4748 75.3718C90.8352 75.3718 89.8571 73.4589 89.8571 73.164C89.8571 72.8548 90.4324 72.0134 92.6115 72.0134ZM88.2175 77.5436L88.426 77.4861C88.4476 77.5508 88.8647 78.9388 90.0513 78.8165C90.6554 78.759 90.8711 78.6439 91.0725 78.5361C91.3026 78.4138 91.5256 78.2988 92.1368 78.2628C91.9642 77.8745 91.806 77.069 92.2231 75.5804L92.4964 75.6595C92.0361 77.2919 92.3022 78.0111 92.4533 78.2556C93.1005 78.2556 93.683 78.3635 94.2511 78.4713C94.9703 78.608 95.6463 78.7302 96.2935 78.5864C97.4729 78.3131 98.4006 77.3207 98.5948 76.731L99.0047 76.8677C98.7386 77.6731 97.6239 78.723 96.387 79.0035C95.6534 79.1761 94.9343 79.0395 94.172 78.8956C93.6255 78.795 93.0573 78.6871 92.4389 78.6871C91.6981 78.6871 91.504 78.795 91.2739 78.91C91.0437 79.0323 90.7848 79.1689 90.0945 79.2408C90.0297 79.248 89.9722 79.248 89.9075 79.248C88.7856 79.248 88.1743 78.1909 88.0089 77.594L88.2175 77.5436Z" fill="white"/>
<path d="M107.721 82.3691C110.13 80.2261 112.625 78.0039 112.963 74.5664C113.121 72.9699 112.747 71.546 112.23 69.5755L112.129 69.2016C111.647 67.3462 110.964 65.5411 110.101 63.8296C110.597 61.967 111.093 60.1475 111.582 58.4072L111.604 58.3353C112.064 56.6812 112.647 54.6317 112.69 51.9133C112.719 50.3312 112.568 49.2165 111.762 48.5693C110.763 47.771 109.389 48.1162 108.389 48.3751C106.721 48.7994 105.678 49.5689 103.6 51.1007L103.233 51.374C102.154 52.165 101.04 52.9705 99.9107 53.7831C97.7893 53.4379 95.6318 53.2653 93.4816 53.2653C93.4672 53.2653 93.4456 53.2653 93.4312 53.2653C91.1875 53.2653 88.9366 53.4595 86.7216 53.8406C85.0532 52.3376 83.32 50.9281 81.5581 49.648C79.8178 48.3751 78.3723 47.4474 76.9053 47.9292C76.0423 48.2169 75.5533 48.8713 75.3735 49.123C74.1078 50.8346 74.4242 53.0136 75.0067 55.919C75.5245 58.4935 76.1502 61.104 76.8693 63.6785C76.143 65.1456 75.5461 66.6846 75.093 68.2595C74.2804 71.057 73.59 73.4733 74.2876 76.1054C74.9492 78.5864 76.5601 80.0247 78.7894 82.0024C79.7675 82.8725 80.7527 83.5989 81.7092 84.2102C80.9469 84.8502 80.314 85.555 79.825 86.3316C79.6596 86.5977 79.5086 86.871 79.3791 87.1515C78.9476 87.8131 78.6025 88.4531 78.437 88.9781V88.9853C78.6959 89.1507 78.9548 89.3089 79.2209 89.4671C79.2425 89.388 79.2641 89.3089 79.2856 89.237C79.6884 87.9497 81.4431 85.7347 82.5074 84.7064L82.4858 84.6848C82.6297 84.7711 82.7735 84.8502 82.9173 84.9293C85.233 86.2166 87.2322 86.8207 88.3181 87.1443C90.1951 87.7124 91.9858 88.0144 93.496 88.0288C93.5319 88.0288 93.5679 88.0288 93.6038 88.0288C94.4524 88.0288 96.0921 87.9425 98.1704 87.396C99.8964 86.9429 101.601 86.2669 103.255 85.3752C103.327 85.332 103.406 85.2961 103.478 85.2529C103.693 85.1379 103.902 85.0156 104.118 84.8862L104.024 84.9868C105.089 86.0152 106.426 87.8203 106.829 89.1075C106.872 89.2514 106.915 89.4096 106.951 89.575C107.217 89.4168 107.483 89.2586 107.742 89.0932C107.721 89.0069 107.692 88.9277 107.67 88.8415C107.246 87.4679 105.923 85.6269 104.779 84.4834C105.772 83.8578 106.75 83.1602 107.706 82.3763L107.721 82.3691ZM77.948 63.9806L78.0415 63.7864L77.984 63.5779C77.2505 60.9745 76.6104 58.3209 76.0854 55.7032C75.5605 53.0855 75.2656 51.1222 76.258 49.7846C76.4091 49.5833 76.7255 49.159 77.2576 48.9792C77.4087 48.9289 77.5597 48.9073 77.7251 48.9073C78.5162 48.9073 79.4798 49.4898 80.9181 50.5397C82.716 51.8486 84.4923 53.2941 86.1894 54.8402L86.3908 55.02L86.6569 54.9697C88.8934 54.5741 91.1731 54.3656 93.4456 54.3656C93.46 54.3656 93.4816 54.3656 93.496 54.3656C95.6534 54.3656 97.8324 54.5454 99.9683 54.905L100.191 54.9409L100.378 54.8043C101.572 53.9485 102.759 53.0927 103.895 52.2513L104.269 51.978C106.297 50.4894 107.224 49.8062 108.677 49.4323C109.684 49.1734 110.561 48.9936 111.086 49.4179C111.417 49.684 111.633 50.2017 111.604 51.8845C111.561 54.4591 111.007 56.4367 110.561 58.026L110.54 58.098C110.036 59.903 109.519 61.7944 109.001 63.7361L108.943 63.9374L109.037 64.1244C109.907 65.8216 110.59 67.6123 111.072 69.4605L111.173 69.8416C111.503 71.1073 111.762 72.0925 111.856 73.0202C111.885 73.2863 111.899 73.5524 111.899 73.8185C111.899 74.027 111.892 74.2356 111.87 74.4513C111.712 76.0982 110.971 77.4358 109.943 78.6583C109.101 79.6652 108.059 80.5857 106.994 81.5349C104.111 83.8865 101.04 85.5046 97.8828 86.3316C95.8332 86.871 94.2583 86.9357 93.496 86.9285C92.0936 86.9141 90.4108 86.6265 88.6273 86.0871C87.0021 85.5981 83.205 84.4547 79.5158 81.1754C77.3511 79.248 75.92 77.9823 75.3447 75.8177C75.1146 74.9691 75.0571 74.1277 75.1146 73.2719C75.2081 71.7761 75.654 70.2371 76.1358 68.5543C76.6032 66.9866 77.2073 65.4404 77.948 63.9806Z" fill="#40220F"/>
<path d="M89.7133 65.7858C90.0369 65.3327 89.9866 64.6855 89.7349 64.2324C89.6917 64.1533 89.2962 63.4414 88.5627 63.4198C87.6853 63.391 87.2251 64.3906 87.1891 64.4769C87.1316 64.6136 86.8439 65.268 87.146 65.7642C87.5846 66.4906 89.138 66.5912 89.7133 65.7858Z" fill="white"/>
<path d="M98.53 65.577C98.8537 65.0448 98.5444 64.3401 98.4797 64.1963C98.4366 64.1028 97.9475 63.024 96.9983 63.0528C96.2144 63.0744 95.7829 63.8439 95.7398 63.923C95.4737 64.412 95.4161 65.1096 95.7613 65.5986C96.3798 66.4688 98.0482 66.3609 98.53 65.577Z" fill="white"/>
<path d="M78.6457 61.363C79.1923 61.4565 79.6238 59.6154 81.2203 57.8104C81.774 57.1847 82.3493 56.6957 82.8599 56.3218C79.8323 52.7188 78.2215 51.4028 77.3009 50.9569C77.229 50.921 77.0421 50.8347 76.8479 50.7268C76.8335 50.7412 76.8191 50.7484 76.8047 50.7628C76.5458 51.0432 76.6825 51.5251 76.8047 52.05C77.3944 54.5239 77.5526 57.0841 78.0273 59.5795C78.2574 60.7589 78.3509 61.3126 78.6457 61.363Z" fill="#F6EDEA"/>
<path d="M82.8526 56.3216C83.1475 56.1058 83.4208 55.9332 83.6653 55.7894C84.1255 55.5952 84.2837 55.3651 84.3413 55.1781C84.6793 54.0347 81.7595 52.2728 80.1774 51.5033C79.3216 51.0934 77.4662 50.1945 76.8478 50.7338C77.0419 50.8417 77.2361 50.928 77.3008 50.9639C78.2213 51.4026 79.8322 52.7187 82.8526 56.3216Z" fill="#E1D5CE"/>
<path d="M104.305 56.4152C104.815 56.7891 105.391 57.2709 105.944 57.9038C107.534 59.7088 107.965 61.5499 108.519 61.4564C108.807 61.406 108.907 60.8523 109.13 59.6801C109.612 57.1846 109.763 54.6245 110.353 52.1506C110.475 51.6256 110.612 51.1438 110.353 50.8633C110.338 50.849 110.324 50.8418 110.31 50.8274C110.116 50.9353 109.921 51.0216 109.857 51.0575C108.936 51.4962 107.332 52.8122 104.305 56.4152Z" fill="#F6EDEA"/>
<path d="M103.492 55.883C103.729 56.0269 104.01 56.1995 104.305 56.4152C107.332 52.8123 108.936 51.4962 109.857 51.0504C109.929 51.0144 110.116 50.9281 110.31 50.8202C109.698 50.2809 107.836 51.1798 106.987 51.5897C105.405 52.3592 102.485 54.1211 102.823 55.2646C102.874 55.4515 103.032 55.6817 103.492 55.883Z" fill="#E1D5CE"/>
<path d="M97.1564 68.6622C97.1277 68.9858 97.6454 69.2231 97.8612 69.3381C98.0769 69.4532 99.7885 70.1292 102.198 70.4816C104.607 70.834 105.24 70.4169 105.376 69.8559C105.513 69.295 105.002 68.7556 104.535 68.2738C104.067 67.792 102.874 66.929 101.989 66.8139C101.076 66.6989 100.155 66.9218 99.1844 67.2742C98.192 67.6266 97.1852 68.3385 97.1564 68.6622Z" fill="#4B1E0E"/>
<path d="M81.3424 68.0942C80.875 68.5761 80.3572 69.1154 80.501 69.6764C80.6448 70.2373 81.2633 70.6544 83.6796 70.302C86.096 69.9496 87.8003 69.2736 88.0161 69.1586C88.2318 69.0435 88.7496 68.8062 88.7209 68.4826C88.6921 68.159 87.6853 67.447 86.6929 67.0874C85.722 66.7351 84.8015 66.5121 83.8882 66.6272C83.0036 66.7494 81.8099 67.6124 81.3424 68.0942Z" fill="#4B1E0E"/>
<path d="M89.9076 79.248C89.9651 79.248 90.0298 79.248 90.0946 79.2408C90.7849 79.1689 91.0438 79.0322 91.274 78.91C91.5041 78.7877 91.6983 78.687 92.439 78.687C93.0502 78.687 93.6184 78.7949 94.1721 78.8956C94.9344 79.0394 95.6536 79.1761 96.3871 79.0035C97.624 78.7158 98.7387 77.6658 99.0048 76.8676L98.5949 76.731C98.4007 77.3135 97.4658 78.3131 96.2936 78.5864C95.6464 78.7374 94.9704 78.6079 94.2512 78.4713C93.6831 78.3634 93.1006 78.2555 92.4534 78.2555C92.3023 78.011 92.0363 77.2919 92.4965 75.6594L92.2232 75.5803C91.8061 77.069 91.9571 77.8744 92.1369 78.2627C91.5257 78.2915 91.3099 78.4066 91.0726 78.536C90.8712 78.6439 90.6555 78.7589 90.0514 78.8165C88.8576 78.9387 88.4405 77.5508 88.4261 77.4861L88.2176 77.5436L88.009 77.6011C88.1744 78.1908 88.7857 79.248 89.9076 79.248Z" fill="#330108"/>
<path d="M92.4749 75.3718C92.4749 75.3718 93.4313 75.6163 94.3303 74.7678C95.2292 73.9192 95.4521 73.5955 95.4521 73.3223C95.4521 73.049 94.7977 72.0134 92.6115 72.0134C90.4253 72.0134 89.8572 72.862 89.8572 73.1569C89.8572 73.4589 90.8424 75.3718 92.4749 75.3718Z" fill="#330108"/>
<path d="M108.138 75.1273C109.893 74.8468 111.259 73.9479 111.482 72.9915C111.518 72.8404 111.525 72.6894 111.503 72.5312C111.331 71.4165 109.533 70.7765 107.498 71.1001C105.463 71.4237 103.952 72.5815 104.132 73.6962C104.154 73.8113 104.19 73.9263 104.24 74.0342C104.693 74.9331 106.318 75.415 108.138 75.1273Z" fill="#EF9F86"/>
<path d="M80.1631 75.4149C81.9465 75.6954 83.5431 75.2351 84.0321 74.3722C84.0968 74.2499 84.1471 74.1205 84.1687 73.9838C84.3413 72.8691 82.8383 71.7113 80.8031 71.3877C78.7679 71.0641 76.9773 71.7041 76.7975 72.8188C76.7831 72.8907 76.7831 72.9626 76.7831 73.0345C76.819 74.0773 78.2573 75.1129 80.1631 75.4149Z" fill="#EF9F86"/>
<path d="M137.19 88.9886V82.305C141.31 84.1362 145.705 85.0517 148.818 85.0517C152.938 85.0517 155.318 83.8615 155.318 80.3824C155.318 76.4454 151.107 75.6214 147.902 74.2481C142.684 72.0508 136 69.8534 136 62.8036C136 55.4791 141.402 52 149.825 52C153.121 52 156.783 52.7324 158.889 53.5565C161.269 54.472 162.093 55.4791 162.093 57.1271C162.093 59.0498 161.086 60.3316 159.072 60.3316C158.248 60.3316 157.516 60.0569 156.509 59.7823C154.861 59.2329 152.48 58.5005 149.733 58.5005C146.254 58.5005 144.24 59.8738 144.24 62.712C144.24 65.825 147.353 66.3743 150.741 67.9307C158.248 71.2268 163.467 73.3325 163.467 80.2908C163.467 87.1575 159.255 91.4606 148.635 91.4606C144.789 91.5522 140.395 90.5451 137.19 88.9886Z" fill="#F9A17E"/>
<path d="M171.157 56.5778C171.157 54.1058 172.439 52 175.369 52C178.299 52 179.581 54.1058 179.581 56.5778V68.7547H194.504V56.5778C194.504 54.1058 195.786 52 198.716 52C201.646 52 202.927 54.1058 202.927 56.5778V90.9113H194.596V75.6214H179.489V90.9113H171.157V56.5778Z" fill="#F9A17E"/>
<path d="M212.449 56.5778C212.449 54.1058 213.731 52 216.661 52C219.591 52 220.872 54.1058 220.872 56.5778V90.9113H212.541V56.5778H212.449Z" fill="#F9A17E"/>
<path d="M230.486 59.5991C230.486 54.6551 231.859 52.3662 236.986 52.3662H244.128C252.459 52.3662 257.953 56.0285 257.953 62.712C257.953 67.1983 255.938 70.2196 252.001 71.5014V71.6845C256.396 72.6001 259.143 75.713 259.143 79.9246C259.143 85.9673 256.03 91.0028 245.409 91.0028H230.486V59.5991ZM244.311 68.5716C248.339 68.5716 249.713 66.9236 249.713 63.4445C249.713 60.1485 247.79 58.9582 244.036 58.9582H238.726V68.5716H244.311ZM244.952 84.3192C249.255 84.3192 250.811 82.4881 250.811 79.5583C250.811 76.1708 248.797 74.6143 244.769 74.6143H238.817V84.4108H244.952V84.3192Z" fill="#F9A17E"/>
<path d="M265.002 88.9886V82.305C269.122 84.1362 273.517 85.0517 276.63 85.0517C280.75 85.0517 283.13 83.8615 283.13 80.3824C283.13 76.4454 278.919 75.6214 275.714 74.2481C270.496 72.0508 263.812 69.8534 263.812 62.8036C263.812 55.4791 269.214 52 277.637 52C280.933 52 284.595 52.7324 286.701 53.5565C289.082 54.472 289.906 55.4791 289.906 57.1271C289.906 59.0498 288.898 60.3316 286.884 60.3316C286.06 60.3316 285.328 60.0569 284.321 59.7823C282.673 59.2329 280.292 58.5005 277.546 58.5005C274.066 58.5005 272.052 59.8738 272.052 62.712C272.052 65.825 275.165 66.3743 278.553 67.9307C286.06 71.2268 291.279 73.3325 291.279 80.2908C291.279 87.1575 287.067 91.4606 276.447 91.4606C272.601 91.5522 268.207 90.5451 265.002 88.9886Z" fill="#F9A17E"/>
<path d="M296.589 71.4099C296.589 59.3245 304.28 52 315.633 52C321.584 52 324.972 53.648 326.436 54.472C328.084 55.296 329 56.4862 329 58.1343C329 59.8738 327.901 61.2472 326.07 61.2472C324.605 61.2472 323.964 60.8809 322.774 60.4232C320.943 59.6907 319.478 59.0498 315.999 59.0498C309.59 59.0498 305.012 63.7192 305.012 71.593C305.012 79.833 310.048 84.777 316.182 84.777C320.852 84.777 323.964 84.0446 328.542 81.6641V88.8055C325.063 90.5451 320.76 91.6437 316.182 91.6437C303.273 91.5522 296.589 83.7699 296.589 71.4099Z" fill="#F9A17E"/>
</g>
<defs>
<clipPath id="clip0">
<rect width="1184" height="588" fill="white"/>
</clipPath>
</defs>
</svg>
