<svg width="79" height="116" viewBox="0 0 79 116" fill="none" xmlns="http://www.w3.org/2000/svg">
<path fill-rule="evenodd" clip-rule="evenodd" d="M27.1182 0.744671C27.1253 1.03238 27.2199 2.44011 27.3285 3.87299C27.7351 9.24746 26.8986 14.5214 24.792 19.8659C23.6953 22.6483 20.6751 28.7595 16.7418 36.1552C13.1059 42.9913 5.75554 57.6377 4.5821 60.3847C-2.34704 76.6047 -0.309619 91.8419 10.7167 106.263C12.4351 108.511 16.8128 113.054 18.8896 114.746C20.534 116.085 20.8776 116.257 20.6289 115.615C20.2569 114.655 18.8757 108.889 18.4725 106.614C17.5955 101.664 17.4399 99.8302 17.4529 94.6029C17.467 88.9437 17.847 85.7964 19.0536 81.3503C20.3017 76.7503 22.7382 71.5874 25.4631 67.7682C27.8136 64.474 31.9831 60.3095 34.6139 58.6281L35.1828 58.2645L35.1025 61.7086C34.8963 70.546 36.7829 79.5445 40.6914 88.3656C42.1113 91.5705 43.7944 94.7817 45.2327 97.0306L46.2057 98.5518L47.0817 98.2441C49.0757 97.5437 53.7951 94.8163 57.7822 92.0602C58.9485 91.254 59.9552 90.6464 60.0191 90.7103C60.1927 90.8829 59.6994 95.5687 59.1681 98.794C58.6885 101.706 57.1978 108.638 56.0362 113.358C55.6749 114.827 55.4619 116 55.5634 115.964C56.0747 115.781 60.1327 111.828 62.2088 109.491C68.4831 102.427 72.8112 95.3267 75.5986 87.526C76.7681 84.2527 77.8101 80.0925 78.0638 77.6837C78.1992 76.3985 78.3571 74.9167 78.4146 74.3909C78.4722 73.8651 78.4139 71.7768 78.2854 69.7502C77.6883 60.3358 74.3767 50.4522 68.6615 41.0258L67.4939 39.1002L67.3456 43.5178C67.1733 48.6548 66.7722 51.6481 65.6456 56.2041C63.9825 62.9308 61.4426 68.6311 57.5207 74.4407C56.1206 76.5143 53.9933 79.3114 53.8158 79.3114C53.7621 79.3114 53.9228 78.9124 54.1724 78.4251C56.8649 73.171 58.062 63.5674 57.5919 50.9937C57.338 44.1979 57.1013 41.5278 56.4403 37.9986C54.0534 25.254 46.2682 13.5144 34.4426 4.82741C33.0018 3.769 28.8789 1.17193 27.2757 0.313109C27.1819 0.262817 27.1109 0.456963 27.1182 0.744671Z" fill="url(#paint0_linear)"/>
<defs>
<linearGradient id="paint0_linear" x1="39.5021" y1="0.305176" x2="39.5021" y2="115.975" gradientUnits="userSpaceOnUse">
<stop stop-color="#FFE4D9"/>
<stop offset="1" stop-color="#FF884F"/>
</linearGradient>
</defs>
</svg>
